<svg width="1920" height="50" viewBox="0 0 1920 50" fill="none" xmlns="http://www.w3.org/2000/svg">
<path fill-rule="evenodd" clip-rule="evenodd" d="M0 20L80 23.3333C160 26.6667 320 33.3333 480 33.3333C640 33.3333 800 26.6667 960 23.3333C1120 20 1280 20 1440 25C1600 30 1760 40 1840 45L1920 50V-2.38419e-06L1840 -2.38419e-06C1760 -2.38419e-06 1600 -2.38419e-06 1440 -2.38419e-06C1280 -2.38419e-06 1120 -2.38419e-06 960 -2.38419e-06C800 -2.38419e-06 640 -2.38419e-06 480 -2.38419e-06C320 -2.38419e-06 160 -2.38419e-06 80 -2.38419e-06L0 -2.38419e-06L0 20Z" fill="#7364CB"/>
</svg>
