<svg width="86" height="75" viewBox="0 0 86 75" fill="none" xmlns="http://www.w3.org/2000/svg">
<path d="M25.7506 0.120921C21.956 0.573819 18.8102 2.78935 17.1822 6.14324C16.5702 7.44074 16.3254 8.28533 16.1418 9.83987C16.0684 10.5621 16.0194 20.2565 16.0194 38.0542C16.0194 67.1132 16.0439 65.6933 15.4074 66.9295C15.0157 67.7129 13.9385 68.7411 13.1306 69.1084C12.7634 69.2797 12.0657 69.4756 11.6006 69.549C8.77303 69.9897 6.23924 68.4106 5.54153 65.7789C5.29672 64.8731 5.29672 20.7829 5.54153 19.8771C5.84755 18.7265 6.5575 17.7228 7.57346 17.0128C8.34461 16.4742 8.93215 16.2539 9.89915 16.156L10.5724 16.0825L10.6091 13.4019L10.6336 10.7334L9.81347 10.8191C7.21848 11.1006 4.97847 12.1533 3.19136 13.9404C1.7837 15.3481 0.865665 16.9638 0.327083 18.9835L0.0455513 19.9995L0.0088298 42.0936C-0.0156512 58.2755 0.00882979 64.4937 0.106754 65.3505C0.437247 68.0434 1.53889 70.2467 3.42393 72.0216C5.1988 73.6863 7.30417 74.6166 9.96035 74.8981C10.8049 74.996 20.9401 75.0205 42.4589 74.9838L73.7333 74.9471L74.8962 74.69C77.2341 74.1637 78.8743 73.417 80.6125 72.1195C83.3299 70.0876 85.1048 66.7704 85.5454 62.9636C85.6189 62.2537 85.6678 52.804 85.6678 36.1569C85.6678 8.33429 85.6923 9.21561 85.0191 7.25713C84.6519 6.21669 84.4438 5.77603 83.795 4.82127C81.9712 2.12836 79.2048 0.500376 75.8142 0.10868C74.4678 -0.0382056 27.0358 -0.0382056 25.7506 0.120921ZM76.4018 5.5557C78.2378 6.03308 79.5476 7.29385 80.0984 9.12993C80.2575 9.63179 80.282 13.3284 80.282 36.108C80.282 62.0578 80.282 62.5107 80.0372 63.4655C79.315 66.3298 77.4422 68.2882 74.4678 69.292L73.6109 69.5735L46.7675 69.6102C31.9932 69.6225 19.9364 69.598 19.9608 69.549C19.9731 69.4878 20.1812 69.0961 20.3893 68.6555C20.6096 68.2148 20.9156 67.4192 21.0625 66.8806L21.344 65.9013L21.4052 37.687C21.4787 7.68555 21.4419 9.20337 22.0295 8.04052C22.3233 7.47746 23.4616 6.31461 24.0002 6.02084C24.2205 5.91068 24.7346 5.71483 25.1386 5.60466C25.824 5.40882 27.4643 5.38433 50.7824 5.38433C72.5215 5.37209 75.7897 5.39657 76.4018 5.5557Z" fill="#EEE8DC"/>
<path d="M29.8144 10.8926C28.6271 11.1741 27.5867 12.0677 27.1215 13.206L26.8522 13.8792V34.4433L27.2562 35.2634C27.7336 36.2549 28.419 36.8547 29.4227 37.1974C30.1204 37.43 30.4632 37.4422 42.8261 37.4422C55.189 37.4422 55.5317 37.43 56.2294 37.1974C57.2331 36.8547 57.9186 36.2549 58.396 35.2634L58.7999 34.4433V13.8792L58.5306 13.206C58.1757 12.3369 57.4168 11.5535 56.5477 11.1374L55.8622 10.8191L43.0709 10.7946C35.849 10.7824 30.0837 10.8314 29.8144 10.8926ZM53.5365 32.1176H32.1156L32.0789 24.2225C32.0667 19.8771 32.0789 16.2539 32.1156 16.1682C32.1524 16.0458 34.3679 16.0213 42.8506 16.0458L53.5365 16.0825V32.1176Z" fill="#EEE8DC"/>
<path d="M65.9729 10.9415C64.6876 11.3455 64.0021 12.7898 64.4183 14.2097C64.6386 14.9686 65.0671 15.4705 65.7648 15.7888C66.2177 15.9968 66.6094 16.0213 69.6083 16.0213C73.1825 16.0213 73.4885 15.9724 74.1495 15.3726C74.9451 14.6382 75.1288 13.2183 74.5657 12.1044C74.2842 11.5658 74.1128 11.3822 73.6109 11.1251C73.0111 10.8191 72.9622 10.8191 69.7552 10.7946C67.2704 10.7702 66.389 10.8069 65.9729 10.9415Z" fill="#EEE8DC"/>
<path d="M66.2177 21.5908C65.3486 21.8356 64.9324 22.1538 64.6019 22.8515C64.0144 24.0389 64.3571 25.6056 65.3363 26.2666C66.0585 26.7562 66.5482 26.8052 69.8653 26.7685C72.9499 26.7318 73.0111 26.7318 73.6109 26.4257C75.0553 25.6791 75.3613 23.2922 74.1495 22.1783C73.4518 21.5296 73.0968 21.4683 69.8776 21.4439C67.5396 21.4194 66.7318 21.4561 66.2177 21.5908Z" fill="#EEE8DC"/>
<path d="M65.9729 32.3624C64.6876 32.7663 64.0021 34.2107 64.4183 35.6306C64.6386 36.3895 65.0671 36.8914 65.7648 37.2096C66.2177 37.4177 66.6094 37.4422 69.6083 37.4422C73.1825 37.4422 73.4885 37.3932 74.1495 36.7935C74.9451 36.059 75.1288 34.6391 74.5657 33.5252C74.2842 32.9867 74.1128 32.803 73.6109 32.546C73.0111 32.24 72.9622 32.24 69.7552 32.2155C67.2704 32.191 66.389 32.2277 65.9729 32.3624Z" fill="#EEE8DC"/>
<path d="M28.9086 42.9504C27.9784 43.1463 27.501 43.489 27.1093 44.2724C26.3137 45.8392 27.146 47.7364 28.774 48.0914C29.2514 48.1893 35.188 48.2138 51.2108 48.1893L73.0111 48.1526L73.6109 47.8466C74.4188 47.4304 74.8962 46.5614 74.8962 45.5332C74.8839 44.3703 74.3821 43.5624 73.3661 43.1095C72.901 42.9015 71.7749 42.8892 51.1496 42.877C39.2029 42.8647 29.1902 42.9015 28.9086 42.9504Z" fill="#EEE8DC"/>
<path d="M28.4313 53.82C27.2807 54.2974 26.8522 54.9583 26.8522 56.2314C26.8645 57.5656 27.3786 58.349 28.4925 58.7162C29.0678 58.9243 72.5338 58.9243 73.2437 58.7284C74.6514 58.3367 75.3124 56.4272 74.5657 54.9461C74.2842 54.4075 74.1128 54.2239 73.6109 53.9669L73.0111 53.6608L50.966 53.6364C30.4754 53.6119 28.8964 53.6241 28.4313 53.82Z" fill="#EEE8DC"/>
</svg>
