<svg width="72" height="75" viewBox="0 0 72 75" fill="none" xmlns="http://www.w3.org/2000/svg">
<path d="M32.897 0.0178012C30.8771 0.232681 30.0605 0.404584 29.4589 0.726904C28.5779 1.19964 27.5894 2.22032 27.1812 3.06909C26.9878 3.45587 26.3539 5.43276 25.7522 7.46338C25.1613 9.49399 24.6241 11.2345 24.5704 11.342C24.3877 11.6858 23.8076 12.094 22.8191 12.5883C22.2927 12.8569 21.4439 13.3403 20.9282 13.6734C19.8538 14.3718 19.4348 14.5651 18.9943 14.5651C18.8116 14.5651 17.0066 14.1461 14.9867 13.6412C11.6991 12.8246 11.1941 12.7279 10.2809 12.7172C8.52962 12.7064 7.1329 13.3296 6.1552 14.5437C5.52131 15.3387 4.68328 16.5743 4.21054 17.4123C4.03864 17.7024 3.84525 18.0032 3.78078 18.0569C3.35102 18.4115 0.71875 24.2455 0.71875 24.8256C0.71875 25.3736 1.06256 26.7596 1.33116 27.286C1.82538 28.2745 2.19067 28.7042 4.86592 31.4439C6.31636 32.9266 7.57341 34.2588 7.6701 34.3985C7.80977 34.6134 7.84201 35.1184 7.85275 37.3746C7.86349 39.1903 7.83126 40.1895 7.75605 40.4044C7.68085 40.5763 6.4238 42.0053 4.95188 43.5631C3.47995 45.121 2.07249 46.6789 1.83612 47.0227C1.21297 47.9144 0.87991 48.9888 0.890654 50.074C0.901398 50.8475 0.955117 51.0624 1.41711 52.1691C1.9758 53.5121 3.58739 56.8105 3.73781 56.8964C3.78078 56.9286 4.1031 57.4121 4.43617 57.9708C5.13452 59.1419 6.02627 60.3667 6.66017 61.0543C7.47671 61.9353 8.73376 62.3866 10.3883 62.3866C11.3123 62.3973 11.7421 62.3114 15.1157 61.4626C17.8984 60.7642 18.9513 60.5494 19.3273 60.5816C19.7141 60.6138 20.0579 60.775 20.853 61.28C21.4116 61.6452 22.3034 62.1502 22.8299 62.4188C23.8076 62.913 24.3877 63.3213 24.5704 63.6651C24.6241 63.7725 25.1613 65.5131 25.7522 67.5437C26.3539 69.5743 26.9555 71.4867 27.0952 71.7983C27.5679 72.8512 28.5779 73.9256 29.5126 74.4091C30.2862 74.8066 32.4242 75 35.959 75C39.5045 75 41.6318 74.8066 42.4161 74.4091C43.3294 73.9363 44.4252 72.7438 44.855 71.7446C44.9839 71.4545 45.5748 69.5635 46.1658 67.5329C46.7567 65.5131 47.2939 63.7725 47.3476 63.6651C47.5302 63.3213 48.1104 62.913 49.0881 62.4188C49.6146 62.1502 50.5063 61.6452 51.065 61.28C51.8601 60.775 52.2039 60.6138 52.5907 60.5816C52.9667 60.5494 54.0196 60.7642 56.7808 61.4519C60.0147 62.2684 60.5842 62.3758 61.4222 62.3758C63.2057 62.3758 64.7851 61.6775 65.7628 60.4634C66.3967 59.6791 67.2347 58.4328 67.7074 57.5948C67.8793 57.2939 68.0727 57.0038 68.1372 56.9501C68.3521 56.7675 69.9422 53.5121 70.6083 51.9005C71.1777 50.5145 71.2207 50.3533 71.167 49.8054C71.0596 48.8599 70.705 47.8607 70.2108 47.1516C69.9529 46.7971 68.5562 45.2392 67.0843 43.6921C65.6231 42.1449 64.3446 40.759 64.2479 40.6085C64.0975 40.3722 64.076 39.9532 64.0545 37.6325C64.0545 35.8382 64.0867 34.8175 64.1727 34.6027C64.2371 34.42 65.5049 33.034 66.9983 31.5084C69.7273 28.7042 70.0926 28.2745 70.5868 27.286C70.8554 26.7596 71.1992 25.3736 71.1992 24.8256C71.1992 24.2455 68.567 18.4115 68.1372 18.0569C68.0727 18.0032 67.8793 17.7024 67.7074 17.4123C67.2347 16.5743 66.3967 15.3387 65.7628 14.5544C64.7958 13.3403 63.3776 12.7064 61.6371 12.7172C60.7238 12.7279 60.2189 12.8246 56.9312 13.6412C54.9114 14.1461 53.1064 14.5651 52.9345 14.5651C52.4832 14.5651 52.1716 14.4255 50.9576 13.6626C50.3667 13.2866 49.4857 12.7816 49.0022 12.5453C48.0997 12.094 47.5302 11.675 47.3476 11.342C47.2939 11.2345 46.7567 9.49399 46.1658 7.46338C45.5641 5.43276 44.9302 3.45587 44.7368 3.06909C44.3285 2.22032 43.3401 1.19964 42.4591 0.726904C41.5029 0.200449 40.1814 0.0500331 36.4425 0.00705723C34.7342 -0.00368675 33.1333 -0.00368675 32.897 0.0178012ZM38.0003 4.68069C40.1491 4.8311 40.3855 4.87408 40.6004 5.16417C40.7078 5.30384 41.2343 7.01213 41.7607 8.96753C42.7922 12.7279 42.9533 13.2007 43.4905 14.0065C44.2641 15.1453 45.1773 15.8974 46.8104 16.7139C47.3154 16.961 48.336 17.5197 49.0774 17.9602C50.689 18.9057 51.5915 19.1851 53.0956 19.1851C53.9659 19.1851 54.4923 19.0776 57.8982 18.2396C60.2404 17.6594 61.7875 17.3156 61.8842 17.3693C62.5288 17.7346 66.4719 24.3314 66.4719 25.0513C66.4719 25.1372 65.2471 26.491 63.7644 28.0596C59.2734 32.7977 59.499 32.3034 59.4883 37.5465C59.4775 41.5218 59.5313 41.8656 60.3371 43.1119C60.5734 43.4772 62.0239 45.0995 63.5603 46.7326C65.1074 48.3549 66.3644 49.7624 66.3644 49.8484C66.3644 50.117 65.5264 51.9327 64.7206 53.4046C63.3884 55.8435 61.9594 57.8311 61.6263 57.7022C61.5404 57.6807 59.7676 57.2402 57.6833 56.7352C54.4709 55.9617 53.7618 55.822 53.0097 55.822C51.5378 55.8327 50.8072 56.0691 48.9055 57.1543C48.2608 57.5303 47.1005 58.1642 46.3377 58.5725C45.317 59.1204 44.7905 59.475 44.3285 59.937C43.2971 60.9791 42.9855 61.7312 41.8145 65.9106C41.2558 67.9305 40.7078 69.7032 40.6004 69.8429C40.3748 70.1437 40.1706 70.176 37.807 70.3371C36.4532 70.4231 35.4648 70.4231 34.111 70.3371C31.7366 70.176 31.5432 70.1437 31.3068 69.8322C31.1994 69.6925 30.673 67.9949 30.1465 66.0503C29.1151 62.3543 28.8465 61.6238 28.0622 60.5708C27.439 59.7113 26.7729 59.2064 25.2365 58.3898C24.5489 58.0245 23.4637 57.4121 22.8299 57.0468C21.2397 56.1014 20.6166 55.908 19.0909 55.8542L17.8554 55.8113L13.9876 56.7675L10.1305 57.7344L9.79741 57.3906C8.75524 56.284 5.4461 50.6219 5.4461 49.9451C5.4461 49.8698 6.6924 48.4839 8.21804 46.8723C9.73295 45.2714 11.1297 43.7565 11.3123 43.5202C12.3545 42.1772 12.7305 40.6623 12.5156 38.6102C12.4189 37.7506 12.4189 37.1812 12.5156 36.4076C12.7198 34.6027 12.4297 33.2059 11.5809 31.8952C11.3553 31.5406 9.90485 29.9183 8.35772 28.2852C6.82133 26.6414 5.55354 25.2339 5.55354 25.148C5.55354 24.686 7.2296 21.3768 8.33623 19.6685C9.04533 18.5619 9.92634 17.3908 10.0875 17.3371C10.1627 17.3156 11.9677 17.7131 14.095 18.2396L17.9628 19.1958L19.1984 19.1528C20.7778 19.0991 21.4009 18.895 23.2274 17.7883C24.0009 17.3263 25.0109 16.7569 25.4836 16.5205C27.1597 15.6825 28.277 14.5974 28.868 13.2114C28.9969 12.9213 29.5556 11.0519 30.1035 9.05348C30.6622 7.06585 31.1994 5.31458 31.3068 5.17491C31.5217 4.87408 31.8763 4.80961 33.8102 4.68069C35.5185 4.5625 36.3028 4.5625 38.0003 4.68069Z" fill="#EEE8DC"/>
<path d="M34.7233 24.6645C32.8431 24.8579 30.4257 25.7174 28.8786 26.7488C27.7397 27.5009 25.9132 29.3489 25.1827 30.4662C22.6901 34.3126 22.4215 39.1796 24.4628 43.2623C25.9455 46.2491 28.7282 48.6451 31.9836 49.7517C34.5514 50.6219 37.3663 50.6219 39.9341 49.7517C43.1896 48.6451 45.9722 46.2491 47.4549 43.2623C48.5508 41.0813 49.0343 38.4705 48.7549 36.2035C48.5508 34.5597 48.2715 33.582 47.5086 31.8092C46.907 30.4125 45.145 28.3175 43.5441 27.1141C41.1589 25.3199 37.7316 24.3637 34.7233 24.6645ZM37.3771 29.4348C40.4284 30.015 43.1358 32.4754 43.8664 35.301C44.7259 38.6532 43.6301 41.9301 40.9763 43.9285C37.8176 46.3029 34.1002 46.3029 30.9414 43.9285C27.0414 40.9953 26.6546 35.2688 30.1249 31.7878C32.0695 29.8431 34.8415 28.9513 37.3771 29.4348Z" fill="#EEE8DC"/>
</svg>
