<svg width="85" height="75" viewBox="0 0 85 75" fill="none" xmlns="http://www.w3.org/2000/svg">
<path d="M41.169 0.244309C40.815 0.426679 12.569 25.229 1.81993 34.7874C0.264421 36.1712 -0.0895915 36.7398 0.0176851 37.6517C0.146417 38.7459 0.875898 39.5612 1.90575 39.7865C2.44214 39.9045 2.96779 39.8186 3.54708 39.5183C3.708 39.4324 5.08114 38.2524 6.60447 36.89L9.3722 34.4226L9.42584 49.6881C9.47948 63.8808 9.50094 65.0072 9.68331 65.7581C10.2948 68.3113 11.4534 70.4247 13.0303 71.8622C14.7146 73.4069 16.7421 74.3724 19.2416 74.823C20.529 75.059 63.976 75.059 65.2633 74.823C67.1836 74.4797 68.5138 73.9648 69.9727 73.0207C72.483 71.3687 74.0278 69.0622 74.8216 65.7581C75.004 65.0072 75.0255 63.8915 75.0791 49.6881L75.1328 34.4226L77.9005 36.89C79.4238 38.2524 80.797 39.4324 80.9579 39.5183C81.5372 39.8186 82.0628 39.9045 82.5992 39.7865C83.6505 39.5612 84.38 38.7244 84.4873 37.6087C84.5302 37.1582 84.4873 36.9651 84.2298 36.4716C83.9616 35.9352 82.0306 34.2081 63.7829 18.1059C50.3626 6.27325 43.4969 0.276492 43.2072 0.169216C42.585 -0.0775206 41.7375 -0.0560653 41.169 0.244309ZM56.2306 17.7304C63.9116 24.5425 70.2624 30.1852 70.3375 30.271C70.4448 30.4105 70.4662 33.7468 70.4448 47.3173L70.4126 64.2026L70.1766 65.0394C69.5973 67.0562 68.3314 68.6331 66.6043 69.4806C64.92 70.3066 65.038 70.2959 59.1807 70.3388L53.9456 70.3817V58.2273C53.9456 45.279 53.9564 45.5794 53.4307 44.5495C53.0874 43.8844 52.1756 43.0262 51.4246 42.6829C51.0492 42.5006 50.4377 42.3289 49.9657 42.2645C48.9251 42.1358 35.5799 42.1358 34.5393 42.2645C32.6405 42.5113 31.1815 43.7664 30.7095 45.5365C30.5915 45.9656 30.5593 48.433 30.5593 58.2273V70.3817L25.335 70.3388C19.4777 70.2959 19.5957 70.3066 17.9007 69.4806C16.1843 68.6546 14.9077 67.0562 14.3284 65.0394L14.0924 64.2026L14.0602 47.2851L14.028 30.3676L15.2939 29.2412C17.7612 27.0313 42.1988 5.37213 42.231 5.37213C42.2525 5.3614 48.5496 10.9291 56.2306 17.7304ZM49.3327 58.6242V70.371H42.2525H35.1722V58.6242V46.8774H42.2525H49.3327V58.6242Z" fill="#EEE8DC"/>
</svg>
