<svg width="110" height="150" viewBox="0 0 110 150" fill="none" xmlns="http://www.w3.org/2000/svg">
<path fill-rule="evenodd" clip-rule="evenodd" d="M61.5534 0.0747943C60.8324 -0.27596 60.2573 0.68961 60.7641 1.25751L63.5995 4.43426L61.3684 3.78543C60.6523 3.57717 60.1682 4.54512 60.7321 5.05779L63.2896 8.0768C63.2896 8.0768 61.1706 12.1272 60.7641 14.1937C60.3575 16.261 60.1934 18.2522 60.1307 19.7246C60.0993 20.4614 60.0686 21.4916 60.0686 21.4916V21.948C58.7921 22.8731 46.6314 31.9988 43.5238 46.1025C39.2259 65.6079 42.9573 77.7803 42.9573 77.7803C42.9573 77.7803 42.1743 85.6192 35.6622 94.4431C32.0465 99.3424 25.5907 103.757 20.5632 106.714C19.1565 107.541 19.8446 109.685 21.4511 109.376C25.3835 108.62 30.1068 107.411 34.0415 105.531C42.5192 101.479 47.1881 97.9331 47.1881 97.9331L40.7664 142.132C40.7664 142.132 41.3999 149.553 48.9306 149.981C56.4614 150.409 57.7534 143.456 57.7534 143.456L56.9502 93.2676C56.9502 93.2676 80.1003 74.4029 84.2408 58.0501C88.7529 40.2298 82.8808 28.4617 82.8808 28.4617L82.8774 28.4585C82.9086 28.4572 82.9248 28.4564 82.9248 28.4564C82.9248 28.4564 84.8527 27.0259 85.8925 23.3952C86.9324 19.7646 86.9822 17.7542 86.9822 17.7542L92.6836 12.6648C92.9502 12.1414 92.5537 11.5155 91.9963 11.58L84.8687 11.0288C84.8687 11.0288 83.4577 6.94691 78.6511 5.26884C73.8446 3.59078 70.7652 4.8093 70.7652 4.8093C70.7652 4.8093 63.4633 1.00389 61.5534 0.0747943Z" fill="#7364CB"/>
<path d="M19.4351 126.412C19.2049 127.152 19.7346 127.904 20.5154 127.947C27.6371 128.335 34.6429 123.506 36.7425 116.762C36.9727 116.022 36.443 115.27 35.6623 115.227C28.5405 114.839 21.5348 119.668 19.4351 126.412Z" fill="#7364CB"/>
<path d="M75.4555 140.175C75.2628 140.925 74.4146 141.294 73.7257 140.928C67.4417 137.589 64.003 129.857 65.7607 123.018C65.9534 122.268 66.8016 121.899 67.4905 122.265C73.7744 125.603 77.2131 133.335 75.4555 140.175Z" fill="#7364CB"/>
<path d="M101.444 120.73C102.137 120.386 102.329 119.499 101.839 118.905C95.7651 111.529 84.4437 109.131 75.8503 113.402C75.1575 113.746 74.9656 114.633 75.4554 115.227C81.5296 122.603 92.851 125.001 101.444 120.73Z" fill="#7364CB"/>
<path d="M13.4338 65.1926C13.4338 66.0066 13.1596 66.7573 12.6976 67.3591C13.1162 67.834 13.6216 68.4016 13.9517 68.7526C15.256 70.14 17.205 72.0179 19.7737 73.9683C23.8525 77.0653 29.4554 80.3163 36.4829 82.102C36.1822 82.8406 35.846 83.6014 35.4715 84.3678C27.978 82.4834 22.0616 79.0373 17.811 75.8098C15.1367 73.7793 13.1066 71.8238 11.7425 70.3729L10.4294 68.8446C10.4 68.8104 10.3737 68.7749 10.3505 68.7382C10.1742 68.7643 9.99381 68.7778 9.81021 68.7778C7.80897 68.7778 6.18664 67.1727 6.18664 65.1926C6.18664 63.2126 7.80897 61.6075 9.81021 61.6075C11.8115 61.6075 13.4338 63.2126 13.4338 65.1926Z" fill="#7364CB"/>
<path d="M70.1888 88.3991C79.7582 87.1615 83.7875 83.9177 89.3003 80.5809C84.0479 82.8932 80.7398 85.1668 72.7159 85.9183C73.8562 84.7323 76.4218 81.5063 77.2517 80.5809C77.2517 80.5809 77.2517 80.5809 78.5375 80.1344C82.9038 78.3237 86.4776 76.2569 89.1101 74.3337C91.0227 72.9363 92.3717 71.6639 93.1861 70.6605C93.6426 70.098 94.457 69.7407 95.1346 69.9183C95.8122 70.0959 96.1065 70.7426 95.6823 71.3207C94.6365 72.7458 92.9008 74.3723 90.6701 76.0019C87.808 78.093 87.0075 78.6229 82.5224 81.2804C81.2807 82.0161 79.1522 83.0605 79.1522 83.0605C86.4209 81.6482 89.0335 79.6766 93.398 77.2618C94.7946 76.489 96.0446 75.7167 97.1486 74.9778C98.7581 73.7281 100.318 72.462 101.551 71.3498C101.234 70.8776 101.049 70.3109 101.049 69.7016C101.049 68.0538 102.4 66.7181 104.065 66.7181C105.73 66.7181 107.08 68.0538 107.08 69.7016C107.08 71.3493 105.73 72.685 104.065 72.685C103.549 72.685 103.064 72.557 102.64 72.3313C100.245 74.5144 96.5951 77.2898 93.6855 79.4246C87.4111 84.0284 81.4199 88.792 68.2214 90.0689C68.9055 89.5141 69.5831 88.9439 70.1888 88.3991Z" fill="#7364CB"/>
<path d="M35.0392 85.2211C24.4078 83.0188 17.3964 79.2285 12.6542 75.0704C9.40731 72.2235 8.86103 71.6742 8.86103 71.6742C8.69965 71.402 8.37174 71.2802 8.11837 71.4305C7.82704 71.6033 7.68645 72.1161 7.87258 72.4289C7.87258 72.4289 8.59277 73.1883 11.9399 76.1231C16.8041 80.3881 23.8578 84.2108 34.3427 86.4764C34.5869 86.0599 34.8189 85.6406 35.0392 85.2211Z" fill="#7364CB"/>
<path d="M31.2172 90.7975C22.7482 88.2047 16.8396 84.2777 12.7532 80.3787C9.62771 77.3965 4.53649 70.9337 2.54055 67.7914C2.19744 67.2513 1.41886 67.0817 0.757614 67.4327C0.0963827 67.7837 -0.197857 68.523 0.142678 69.0647C2.19895 72.3359 7.44389 79.0154 10.7521 82.1719C14.9549 86.182 20.9323 90.1658 29.3421 92.863C29.959 92.2246 30.5885 91.5357 31.2172 90.7975Z" fill="#7364CB"/>
<path fill-rule="evenodd" clip-rule="evenodd" d="M62.504 100.569C75.1368 99.6852 82.6477 95.7987 89.7893 92.0001C82.6488 94.9244 75.3063 97.6302 62.504 98.1177V95.7133C81.7083 95.0192 90.9745 89.8094 97.7095 85.1748C100.855 83.0102 105.523 77.343 107.625 74.64C108.072 74.0651 108.893 73.8575 109.474 74.1807C110.055 74.5039 110.176 75.2374 109.729 75.8123C109.708 75.8394 109.687 75.8666 109.665 75.8942C109.625 76.0018 109.579 76.1183 109.53 76.2433C109.219 77.0299 108.73 78.1528 108.019 79.5082C106.598 82.2187 104.285 85.8624 100.717 89.6065C93.5763 97.0984 83.652 105.424 63.5567 107.04C63.2044 107.069 62.8535 107.094 62.504 107.116V105.935C62.7287 105.919 62.954 105.903 63.1798 105.884C82.9227 104.297 92.6076 96.1182 99.6073 88.774C101.525 86.7624 103.072 84.7807 104.308 82.9638C103.956 83.3247 103.555 83.7233 103.102 84.1529C101.036 86.1131 97.9077 88.7184 93.6412 91.3195C86.1478 95.8881 77.3984 100.872 62.504 101.899V100.569ZM105.817 80.5463C105.838 80.5213 105.86 80.4963 105.882 80.4714L105.856 80.5156L105.831 80.5583L105.817 80.5463Z" fill="#7364CB"/>
<path d="M26.9114 95.2007C22.1047 93.6359 18.266 91.7286 15.249 89.8297C11.9968 87.7827 8.0982 84.0952 6.30469 82.2282C6.06349 81.9771 5.6698 81.9462 5.39509 82.1603C5.09078 82.3975 5.05346 82.8394 5.3215 83.1168C5.93747 83.7541 6.77923 84.5833 7.74872 85.4841C7.74766 85.4848 7.74711 85.4852 7.74683 85.4854C7.7467 85.4855 7.74659 85.4857 7.74659 85.4857L7.74654 85.4857L7.7513 85.4909C7.75434 85.4941 7.7586 85.4987 7.7641 85.5046C7.77508 85.5163 7.79097 85.5332 7.81171 85.555C7.85321 85.5987 7.91416 85.6624 7.99429 85.7445C8.15453 85.9087 8.39149 86.147 8.70288 86.4481C9.32558 87.0502 10.2463 87.9037 11.4468 88.9183C13.8468 90.9469 17.3695 93.6233 21.8674 96.2216C22.6 96.6448 23.3585 97.066 24.1423 97.4819C24.4296 97.2651 24.748 97.0184 25.0921 96.7424C24.1811 96.2667 23.304 95.783 22.4618 95.2966C21.8091 94.9195 21.1775 94.5408 20.5674 94.1627C22.1542 94.8808 23.8786 95.5684 25.7489 96.205C26.1164 95.8982 26.5057 95.5633 26.9114 95.2007Z" fill="#7364CB"/>
<path d="M37.7267 78.5989C35.6262 77.6084 33.7959 76.5429 32.1577 75.4935C27.3734 72.4289 24.9896 70.191 23.7688 68.4186L23.7688 68.4186L23.7688 68.4185C23.3896 67.868 23.0982 67.445 22.8601 67.1905C22.6399 66.9551 22.2283 66.9558 21.9407 67.1921C21.6532 67.4283 21.5987 67.8107 21.8189 68.0461C21.972 68.2097 22.194 68.5339 22.5005 68.9814C23.6582 70.6716 26.2557 73.3591 31.2638 76.479C33.0992 77.6225 35.0707 78.783 37.3228 79.8489C37.4707 79.4141 37.605 78.9959 37.7267 78.5989Z" fill="#7364CB"/>
</svg>
