<svg width="85" height="65" viewBox="0 0 85 65" fill="none" xmlns="http://www.w3.org/2000/svg">
<path d="M40.4247 0.0592526C32.7937 0.484344 26.2004 2.77984 19.326 7.4346C15.0458 10.3465 10.5277 14.6718 7.0365 19.2415C4.55048 22.5041 1.70778 27.3501 0.410732 30.549C0.0540437 31.431 0 31.6755 0 32.4619C0 33.5246 0.118896 33.9178 1.08087 36.022C4.63695 43.7162 11.1006 51.5804 18.029 56.6602C21.2284 59.0089 25.1844 61.2087 28.4594 62.4734C37.1605 65.8422 47.6774 65.8422 56.3676 62.4734C59.5454 61.2406 63.6419 58.9663 66.6792 56.7559C73.4346 51.8142 79.3578 44.747 83.4868 36.6915C84.6865 34.3323 85 33.4821 85 32.5256C85 31.6436 84.7946 30.9953 83.9624 29.2843C81.8655 24.9696 78.6445 20.0598 75.6612 16.6378C70.9162 11.186 66.1604 7.39209 60.2263 4.31017C55.557 1.87652 50.1634 0.388699 45.0076 0.101762C42.6513 -0.0257658 41.992 -0.0257658 40.4247 0.0592526ZM44.7482 4.72464C51.1362 5.21349 56.3352 6.99888 61.9666 10.6547C66.3765 13.5028 70.5595 17.5199 74.4939 22.6529C76.5692 25.3628 78.8282 29.1462 79.9631 31.8349L80.255 32.5256L79.8118 33.5352C79.0011 35.3525 77.5744 37.8924 76.0828 40.1773C73.5427 44.0456 68.8625 49.168 65.274 52.0055C60.4966 55.7782 55.2651 58.3712 50.1634 59.4977C44.5969 60.7305 39.2898 60.6667 33.7665 59.2958C29.0323 58.1268 24.0603 55.5656 19.5098 51.9736C15.77 49.0192 11.1654 43.9181 8.47406 39.7416C6.96083 37.4036 5.86915 35.4269 5.00445 33.4927L4.5721 32.5256L4.86394 31.8349C5.60974 30.0814 7.24186 27.127 8.63619 25.0121C11.1114 21.2713 15.3917 16.4784 18.8396 13.6091C21.8769 11.0798 25.8005 8.66736 29.2269 7.23268C33.9287 5.26663 39.7005 4.34205 44.7482 4.72464Z" fill="#EEE8DC"/>
<path d="M39.6463 14.1298C34.2852 14.9055 29.4537 17.9875 26.438 22.5785C24.1898 25.9898 23.1846 30.2088 23.6169 34.3854C23.9628 37.733 25.0329 40.5279 27.0541 43.3548C27.8648 44.5026 30.2319 46.7981 31.4965 47.6907C33.4421 49.051 36.1875 50.22 38.7384 50.762C39.7328 50.964 40.1759 50.9958 42.4133 50.9958C44.6508 50.9958 45.0939 50.964 46.0883 50.762C48.6392 50.22 51.3846 49.051 53.3302 47.6907C54.5948 46.7981 56.9619 44.5026 57.7726 43.3548C60.9179 38.9551 61.9988 33.8221 60.8963 28.551C59.4804 21.8345 53.9571 16.234 47.0503 14.5017C44.9858 13.981 41.8081 13.8216 39.6463 14.1298ZM45.2236 18.8483C49.2229 19.7303 52.4223 21.9621 54.5516 25.3522C56.0216 27.6902 56.6593 30.177 56.5404 33.1207C56.4431 35.3631 56.0972 36.7021 55.1136 38.6788C53.1897 42.5046 49.5904 45.2358 45.2128 46.1923C43.6131 46.5324 41.2136 46.5324 39.6139 46.1817C34.8905 45.1615 31.129 42.1008 29.2807 37.7861C28.6214 36.2558 28.3512 34.9486 28.2863 33.0463C28.189 30.0388 28.7943 27.7008 30.2751 25.3415C32.599 21.6539 36.3388 19.2521 40.7056 18.6464C41.7324 18.5082 44.1644 18.6145 45.2236 18.8483Z" fill="#EEE8DC"/>
</svg>
