<svg width="96" height="75" viewBox="0 0 96 75" fill="none" xmlns="http://www.w3.org/2000/svg">
<path d="M2.45182 0.123273C1.81158 0.369839 1.30156 0.755769 1.09538 1.16314C0.650462 2.03148 0.70472 2.79262 1.29071 3.66096C1.44263 3.88609 2.3216 4.65795 3.25484 5.38692C9.68983 10.3933 87.8537 71.3594 89.59 72.7209C92.0207 74.6184 92.2378 74.7685 92.8346 74.9293C94.1368 75.2831 95.5909 74.2646 95.7862 72.871C95.873 72.2599 95.5692 71.5846 94.929 70.9842C94.6794 70.7484 84.761 62.9548 72.8786 53.671C61.0069 44.398 40.7904 28.607 27.9747 18.5836C14.1824 7.79898 4.48107 0.284077 4.20978 0.176874C3.67805 -0.0375311 2.91844 -0.0589717 2.45182 0.123273Z" fill="#EEE8DC"/>
<path d="M46.7804 4.71155C44.1434 4.87236 40.7469 5.35477 38.8044 5.83718C35.4513 6.67336 32.1524 7.94907 29.3853 9.49279L28.4303 10.0288L30.3294 11.4975C31.382 12.3015 32.3044 12.9876 32.3912 13.0198C32.4671 13.0519 32.9446 12.8804 33.4329 12.6338C38.327 10.2003 44.8922 8.97822 50.6435 9.41775C57.0568 9.91088 62.2764 11.7119 67.9301 15.3997C72.3575 18.2727 76.5571 22.325 80.5071 27.5028C82.5906 30.2365 84.8585 34.0529 85.998 36.7651L86.2909 37.462L85.846 38.4804C84.6849 41.0854 82.558 44.6231 80.0947 48.0107C79.6064 48.6861 79.1615 49.2971 79.1072 49.3507C78.9987 49.5008 82.6774 52.2667 82.7967 52.1273C83.0897 51.8164 84.6741 49.6295 85.705 48.1072C88.6457 43.7869 90.7292 39.8311 90.9354 38.1695C91.1199 36.7223 90.8812 35.8861 89.6115 33.3775C87.528 29.261 84.457 24.6405 81.679 21.4352C76.9152 15.9357 72.1405 12.1085 66.183 8.99966C61.4517 6.52328 55.9716 5.01172 50.7954 4.75443C50.1118 4.72227 49.2328 4.67939 48.8422 4.65795C48.4515 4.63651 47.5291 4.65795 46.7804 4.71155Z" fill="#EEE8DC"/>
<path d="M45.207 18.9588C44.556 19.066 43.6987 19.2482 43.308 19.3662C42.1035 19.7307 41.4633 19.9665 41.4633 20.0308C41.4633 20.1702 45.8581 23.6114 46.0209 23.6114C46.1077 23.6007 46.672 23.5471 47.2688 23.472C48.8857 23.2791 51.2622 23.5685 53.0853 24.1903C58.1204 25.9162 61.8968 30.601 62.4611 35.8325L62.537 36.5507L64.8376 38.3839L67.1272 40.2171L67.214 39.3702C67.4094 37.5263 67.1489 34.6425 66.5847 32.4449C64.9135 25.9055 59.5311 20.7812 52.6946 19.2375C50.3615 18.7122 47.4208 18.605 45.207 18.9588Z" fill="#EEE8DC"/>
<path d="M12.9021 23.9651C9.83107 28.1461 7.50884 32.0482 6.2392 35.2C5.76173 36.3792 5.71833 36.5615 5.71833 37.3976C5.71833 38.4589 5.83769 38.8663 6.76008 40.8817C8.19249 44.0228 10.7535 48.2144 13.0214 51.1196C16.5373 55.6328 21.6701 60.4569 25.9674 63.2764C30.384 66.1601 34.3665 67.9826 38.5335 69.0117C44.1329 70.4053 49.3634 70.5876 55.1364 69.6013C59.4987 68.8509 63.5464 67.4465 67.1057 65.4633L68.1692 64.863L66.2701 63.405C65.2175 62.601 64.2951 61.9149 64.2192 61.8827C64.1432 61.8613 63.4704 62.1186 62.7217 62.4723C57.3393 65.013 50.4051 66.0958 44.3282 65.3239C39.7814 64.745 36.2764 63.6837 32.5109 61.7434C26.9006 58.8489 22.267 54.9896 17.5791 49.2971C14.7577 45.8667 12.2184 41.8251 10.6558 38.2553L10.2977 37.4405L10.8077 36.3256C12.0122 33.6241 14.4755 29.7327 17.0365 26.4737C17.6334 25.7126 17.7093 25.5625 17.5682 25.4553C17.4814 25.3909 16.635 24.7584 15.7018 24.0509C14.7685 23.3434 13.9655 22.7538 13.9113 22.7323C13.8679 22.7216 13.4121 23.2791 12.9021 23.9651Z" fill="#EEE8DC"/>
<path d="M29.3638 35.8539C29.1467 39.0378 29.7978 42.6291 31.1 45.3842C33.8346 51.1946 39.6293 55.3112 46.1294 56.0616C47.7246 56.2439 50.6328 56.1259 52.0435 55.8365C53.2155 55.5899 55.1362 55.0003 55.1362 54.8824C55.1362 54.8395 54.1922 54.0569 53.0527 53.1564L50.9584 51.4948L48.8423 51.4841C46.6069 51.4733 45.3698 51.3018 43.7421 50.7765C38.631 49.1256 34.8872 44.6338 34.171 39.2844L34.0408 38.341L31.8705 36.6043C30.6659 35.6502 29.635 34.8355 29.5699 34.7926C29.4831 34.739 29.418 35.0606 29.3638 35.8539Z" fill="#EEE8DC"/>
</svg>
