<svg width="600" height="750" viewBox="0 0 600 750" fill="none" xmlns="http://www.w3.org/2000/svg">
<path fill-rule="evenodd" clip-rule="evenodd" d="M305.113 0.153571C303.125 -0.67377 301.755 2.04325 303.208 3.49618L311.333 11.6237L305.26 10.2473C303.31 9.8055 302.184 12.5133 303.779 13.8067L311.135 21.5542C311.135 21.5542 306.173 32.9013 305.444 38.5745C304.714 44.2501 304.62 49.6778 304.707 53.6811C304.75 55.6846 304.846 58.4833 304.846 58.4833L304.925 59.7209C301.674 62.4486 270.756 89.2822 264.89 128.06C256.776 181.689 268.851 214.056 268.851 214.056C268.851 214.056 268.113 235.447 252.237 260.492C243.422 274.398 226.934 287.476 214.011 296.359C210.396 298.844 212.605 304.538 216.844 303.425C227.221 300.701 239.634 296.611 249.823 290.837C271.776 278.395 283.639 267.977 283.639 267.977L274.118 388.932C274.118 388.932 277.094 408.946 297.291 408.814C317.488 408.682 319.739 389.607 319.739 389.607L308.919 253.65C308.919 253.65 367.518 198.521 375.756 153.467C384.733 104.37 367.008 73.4675 367.008 73.4675L366.999 73.4596C367.082 73.4505 367.125 73.4458 367.125 73.4458C367.125 73.4458 372.029 69.2357 374.18 59.2121C376.331 49.1884 376.117 43.7286 376.117 43.7286L390.472 28.949C391.095 27.484 389.927 25.8547 388.448 26.1255L369.307 25.8544C369.307 25.8544 364.831 15.0279 351.698 11.3028C338.564 7.57762 330.546 11.4105 330.546 11.4105C330.546 11.4105 310.377 2.34508 305.113 0.153571Z" fill="#EEE8DC"/>
<path d="M214.401 349.968C213.914 352.012 215.46 353.961 217.553 353.943C236.651 353.772 254.536 339.476 258.981 320.827C259.469 318.783 257.923 316.834 255.83 316.852C236.732 317.022 218.846 331.319 214.401 349.968Z" fill="#EEE8DC"/>
<path d="M366.474 377.669C366.089 379.735 363.886 380.882 361.982 380.008C344.613 372.034 334.088 351.657 337.603 332.81C337.988 330.743 340.191 329.596 342.095 330.471C359.464 338.445 369.989 358.822 366.474 377.669Z" fill="#EEE8DC"/>
<path d="M432.559 320.481C434.351 319.429 434.71 316.991 433.299 315.463C415.793 296.504 385.126 291.947 362.902 305.002C361.11 306.054 360.751 308.492 362.162 310.021C379.668 328.979 410.335 333.536 432.559 320.481Z" fill="#EEE8DC"/>
<path d="M187.785 184.991C187.925 187.199 187.322 189.281 186.192 190.992C187.392 192.208 188.841 193.661 189.784 194.556C193.509 198.094 199.042 202.852 206.242 207.699C217.677 215.397 233.21 223.251 252.297 226.887C251.622 228.941 250.855 231.062 249.986 233.204C229.637 229.381 213.232 221.052 201.316 213.03C193.819 207.983 188.056 203.029 184.161 199.329L180.388 195.41C180.303 195.322 180.227 195.23 180.158 195.135C179.692 195.236 179.212 195.304 178.722 195.335C173.374 195.679 168.761 191.605 168.419 186.235C168.077 180.866 172.135 176.235 177.482 175.892C182.83 175.548 187.442 179.622 187.785 184.991Z" fill="#EEE8DC"/>
<path d="M343.452 238.176C368.809 233.177 379.015 223.689 393.17 213.695C379.534 220.866 371.087 227.6 349.776 231.015C352.618 227.603 358.916 218.415 360.974 215.763C360.974 215.763 360.974 215.763 364.333 214.332C375.687 208.672 384.88 202.454 391.582 196.787C396.451 192.669 399.836 188.987 401.838 186.127C402.961 184.523 405.075 183.414 406.917 183.78C408.758 184.145 409.656 185.848 408.623 187.489C406.075 191.533 401.718 196.241 396.039 201.043C388.752 207.204 386.705 208.779 375.179 216.755C371.988 218.963 366.481 222.161 366.481 222.161C385.66 217.083 392.3 211.288 403.546 203.991C407.144 201.656 410.351 199.347 413.173 197.154C417.258 193.488 421.207 189.788 424.31 186.56C423.381 185.334 422.79 183.829 422.685 182.177C422.4 177.709 425.777 173.855 430.227 173.569C434.677 173.283 438.515 176.673 438.8 181.141C439.085 185.609 435.708 189.463 431.258 189.749C429.88 189.838 428.561 189.574 427.388 189.035C421.368 195.365 412.093 203.518 404.688 209.806C388.717 223.367 373.531 237.313 338.484 243.041C340.216 241.42 341.928 239.757 343.452 238.176Z" fill="#EEE8DC"/>
<path d="M248.979 235.592C220.189 231.446 200.799 222.371 187.409 211.91C178.24 204.748 176.686 203.352 176.686 203.352C176.208 202.642 175.31 202.368 174.659 202.819C173.911 203.337 173.624 204.752 174.175 205.568C174.175 205.568 176.231 207.504 185.682 214.887C199.417 225.618 218.926 234.773 247.334 239.116C247.915 237.945 248.463 236.768 248.979 235.592Z" fill="#EEE8DC"/>
<path d="M239.73 251.37C216.651 245.793 200.184 236.159 188.591 226.287C179.723 218.737 165.002 202.087 159.126 193.909C158.115 192.503 156.006 192.177 154.299 193.242C152.593 194.307 151.935 196.362 152.938 197.773C158.998 206.29 174.168 223.502 183.553 231.494C195.477 241.646 212.138 251.422 235.076 257.293C236.614 255.456 238.177 253.479 239.73 251.37Z" fill="#EEE8DC"/>
<path fill-rule="evenodd" clip-rule="evenodd" d="M325.021 272.496C358.625 267.93 378.023 256.102 396.45 244.575C377.875 253.731 358.722 262.329 324.597 265.849L324.182 259.329C375.378 254.149 399.238 238.432 416.434 224.708C424.466 218.298 435.958 202.13 441.109 194.439C442.205 192.803 444.361 192.1 445.97 192.876C447.579 193.653 448.029 195.621 446.934 197.257C446.882 197.334 446.83 197.411 446.778 197.49C446.687 197.789 446.587 198.112 446.476 198.46C445.78 200.646 444.669 203.775 443.004 207.572C439.674 215.166 434.124 225.444 425.236 236.209C407.45 257.75 382.37 282.031 328.952 289.863C328.016 290 327.083 290.128 326.152 290.248L325.948 287.046C326.546 286.965 327.145 286.881 327.745 286.793C380.227 279.099 404.693 255.259 422.127 234.142C426.903 228.358 430.695 222.719 433.684 217.58C432.807 218.619 431.803 219.769 430.667 221.011C425.486 226.681 417.576 234.283 406.625 242.069C387.391 255.744 364.873 270.76 325.251 276.101L325.021 272.496ZM437.297 210.765C437.351 210.694 437.406 210.622 437.46 210.551L437.398 210.675L437.339 210.795L437.297 210.765Z" fill="#EEE8DC"/>
<path d="M228.985 264.049C215.87 260.631 205.283 256.118 196.893 251.487C187.849 246.494 176.794 237.164 171.679 232.41C170.991 231.77 169.934 231.754 169.237 232.382C168.464 233.077 168.441 234.282 169.205 234.988C170.961 236.611 173.354 238.715 176.1 240.991C176.098 240.993 176.095 240.995 176.095 240.995L176.095 240.995L176.108 241.009C176.117 241.017 176.129 241.029 176.145 241.044C176.176 241.073 176.222 241.117 176.281 241.172C176.399 241.284 176.573 241.446 176.801 241.655C177.258 242.072 177.932 242.678 178.817 243.441C180.585 244.967 183.192 247.123 186.575 249.668C193.339 254.757 203.215 261.41 215.683 267.683C217.714 268.705 219.813 269.717 221.98 270.71C222.71 270.073 223.518 269.349 224.39 268.542C221.873 267.408 219.446 266.247 217.112 265.073C215.302 264.162 213.549 263.244 211.853 262.324C216.218 263.998 220.944 265.567 226.052 266.972C226.981 266.077 227.963 265.102 228.985 264.049Z" fill="#EEE8DC"/>
<path d="M255.015 217.174C249.231 214.849 244.157 212.274 239.598 209.709C226.284 202.22 219.527 196.561 215.959 191.965C214.85 190.537 213.999 189.44 213.318 188.791C212.689 188.19 211.589 188.263 210.862 188.953C210.134 189.643 210.055 190.689 210.684 191.289C211.121 191.707 211.771 192.548 212.667 193.709C216.053 198.093 223.458 204.935 237.379 212.535C242.482 215.321 247.95 218.129 254.152 220.633C254.472 219.428 254.759 218.272 255.015 217.174Z" fill="#EEE8DC"/>
<path d="M81.5659 502.826L82.5398 495.248C82.5398 487.753 79.6181 482.945 73.7746 480.827C69.2296 479.361 65.7397 478.627 63.3049 478.627H63.0614C58.1918 478.627 53.9715 479.442 50.4004 481.072C46.8294 482.538 44.2322 484.412 42.609 486.693C39.2003 491.419 37.2525 496.389 36.7655 501.604C36.7655 507.796 39.525 513.173 45.0438 517.736C50.5627 522.136 57.2178 526.047 65.0092 529.469C72.9629 532.728 80.8355 536.313 88.6268 540.223C96.5805 544.134 103.317 549.756 108.836 557.089C114.355 564.422 117.114 573.221 117.114 583.487C117.114 603.531 110.784 618.522 98.1225 628.462C85.6239 638.403 71.3397 643.373 55.27 643.373C39.3626 643.373 26.1335 639.788 15.5827 632.618C5.19425 625.285 0 615.508 0 603.286V603.042C0 597.012 0.892776 591.798 2.6783 587.398C4.62614 582.836 6.89862 579.495 9.49574 577.377C14.8523 572.977 19.7219 570.614 24.1045 570.288L27.0263 570.044C31.5713 570.044 35.7105 571.184 39.4438 573.466C43.1772 575.584 45.0438 578.599 45.0438 582.51C45.0438 584.465 43.9888 586.095 41.8786 587.398C39.7684 588.702 37.9018 590.657 36.2785 593.265C34.8177 595.872 34.0061 598.072 33.8437 599.864L33.3568 602.553C33.3568 612.493 37.9018 619.093 46.9917 622.352C50.2381 623.492 52.8352 624.063 54.783 624.063C63.7107 624.063 70.8528 621.374 76.2093 615.997C81.7282 610.619 84.4876 603.775 84.4876 595.464C84.4876 585.524 80.2673 577.458 71.8267 571.266C65.4962 566.703 58.5976 562.874 51.1308 559.778C43.8264 556.682 38.8757 554.482 36.2785 553.178C33.6814 551.875 30.922 550.327 28.0002 548.534C25.0785 546.742 21.8321 544.216 18.261 540.957C10.4697 534.113 6.57395 524.906 6.57395 513.336C6.57395 501.604 9.73923 491.745 16.0697 483.76C27.4321 469.257 44.4757 462.006 67.2005 462.006C79.2122 462.006 89.3573 464.369 97.6356 469.094C105.914 473.657 110.053 480.012 110.053 488.16C110.053 494.026 108.349 498.915 104.94 502.826C101.694 506.737 97.4733 508.692 92.279 508.692C89.8442 508.692 87.4094 508.203 84.9746 507.225C82.7021 506.248 81.5659 504.781 81.5659 502.826Z" fill="#EEE8DC"/>
<path d="M165.51 507.47L159.666 507.225C155.283 507.225 152.443 508.285 151.144 510.403C150.82 510.892 150.414 511.136 149.927 511.136C147.817 511.136 146.762 507.551 146.762 500.381C146.762 493.049 147.817 488.404 149.927 486.449C152.199 484.494 156.014 483.516 161.37 483.516C166.889 483.516 170.623 484.494 172.57 486.449C174.518 488.241 175.492 491.338 175.492 495.737C175.492 500.137 174.762 503.233 173.301 505.026C171.84 506.655 169.243 507.47 165.51 507.47ZM146.031 630.907L148.709 573.955C148.709 560.43 147.167 551.223 144.083 546.334C143.109 544.705 141.973 543.482 140.675 542.668C139.701 542.342 139.214 541.69 139.214 540.712C139.214 537.779 143.353 534.927 151.631 532.157C159.909 529.387 165.915 528.002 169.649 528.002C173.544 528.002 175.573 528.98 175.736 530.935C175.736 534.194 175.249 543.483 174.275 558.8C173.463 573.955 173.057 589.924 173.057 606.708C173.057 623.492 174.031 633.921 175.979 637.995C176.466 638.81 176.71 639.625 176.71 640.439C176.71 642.558 173.626 643.617 167.457 643.617C161.289 643.617 154.959 641.987 148.466 638.728C146.843 637.914 146.031 635.306 146.031 630.907Z" fill="#EEE8DC"/>
<path d="M283.344 610.13C283.344 619.418 279.611 627.159 272.144 633.351C264.84 639.38 256.075 642.395 245.848 642.395C230.915 642.395 219.958 637.914 212.979 628.951C205.999 619.826 202.509 607.523 202.509 592.042C202.509 575.584 206.161 561 213.466 548.29C217.037 541.771 222.15 536.638 228.805 532.891C235.46 529.143 243.251 527.269 252.179 527.269C265.652 527.269 275.147 531.831 280.666 540.957C282.939 544.705 284.075 549.104 284.075 554.156C284.075 561.978 280.829 567.844 274.336 571.755C271.739 573.221 269.304 573.955 267.031 573.955C264.921 573.955 263.136 573.873 261.675 573.71C260.376 573.384 258.591 572.244 256.318 570.288C254.046 568.333 252.909 565.644 252.909 562.222C253.072 560.43 254.451 558.963 257.049 557.822C259.483 556.356 260.701 553.749 260.701 550.001C260.701 543.645 256.805 540.468 249.014 540.468C247.066 540.468 244.712 541.364 241.953 543.157C239.356 544.786 237.164 546.986 235.379 549.756C233.593 552.363 231.889 556.6 230.266 562.466C228.805 568.17 228.074 573.71 228.074 579.088C228.074 584.302 228.237 588.295 228.561 591.065C229.048 593.672 229.941 597.338 231.24 602.064C232.701 606.627 235.298 610.375 239.031 613.308C242.927 616.241 247.715 617.708 253.396 617.708C260.214 617.708 266.22 614.856 271.414 609.152C273.524 606.871 275.228 604.101 276.527 600.842C277.176 599.538 277.988 598.886 278.962 598.886C280.423 598.886 281.478 600.272 282.127 603.042C282.939 605.649 283.344 608.012 283.344 610.13Z" fill="#EEE8DC"/>
<path d="M392.209 529.469C389.287 547.067 387.826 569.473 387.826 596.687C387.826 616.73 388.638 629.929 390.261 636.284L391.235 639.462C391.235 641.58 389.449 642.639 385.878 642.639C373.38 642.639 366.237 639.136 364.452 632.129C364.29 631.314 363.884 630.907 363.234 630.907C362.748 630.907 362.261 631.233 361.774 631.884C356.742 638.565 348.95 641.906 338.399 641.906C332.556 641.906 326.469 640.439 320.138 637.506C316.243 635.714 313.078 632.618 310.643 628.218C308.208 623.655 306.991 618.115 306.991 611.597L310.643 558.067C310.643 546.823 309.507 538.838 307.234 534.113C306.422 532.32 306.017 531.18 306.017 530.691C306.017 529.713 306.422 529.061 307.234 528.735C309.831 527.92 313.159 527.513 317.217 527.513C332.962 527.513 340.834 534.031 340.834 547.067C340.834 551.141 339.13 560.43 335.721 574.932C332.475 589.435 330.852 599.783 330.852 605.975C330.852 612.004 332.15 616.648 334.747 619.907C337.507 623.166 341.24 624.796 345.947 624.796C350.817 624.796 354.632 623.085 357.391 619.663C360.15 616.241 361.774 612.819 362.261 609.397L362.991 604.264C363.64 598.561 363.965 588.539 363.965 574.199C363.965 559.859 363.478 550.815 362.504 547.067C361.692 543.157 361.287 540.712 361.287 539.735C361.287 535.661 364.533 532.483 371.026 530.202C377.519 527.758 383.362 526.535 388.556 526.535C390.991 526.535 392.209 527.513 392.209 529.469Z" fill="#EEE8DC"/>
<path d="M490.415 572.733L491.389 581.288C491.389 584.384 488.467 585.932 482.624 585.932C470.774 585.932 464.849 581.45 464.849 572.488C464.849 570.37 465.418 567.437 466.554 563.689C467.69 559.941 468.258 556.682 468.258 553.911C468.258 551.141 467.447 548.778 465.823 546.823C464.2 544.705 461.847 543.645 458.762 543.645C455.678 543.645 453 544.786 450.728 547.067C448.617 549.186 447.319 551.386 446.832 553.667L445.858 557.089C444.884 562.141 444.397 570.614 444.397 582.51C444.397 594.242 444.559 603.531 444.884 610.375C445.209 617.056 445.533 621.7 445.858 624.307C446.183 626.751 446.345 628.218 446.345 628.707C446.345 632.781 443.829 636.04 438.797 638.484C433.765 641.091 428.733 642.395 423.701 642.395C418.669 642.395 416.153 641.336 416.153 639.217L417.371 631.64C419.643 617.463 420.78 598.968 420.78 576.155C420.78 553.341 419.968 537.861 418.345 529.713C418.345 527.758 420.049 526.78 423.458 526.78C432.223 526.78 438.067 529.794 440.988 535.824C441.151 536.476 441.394 536.801 441.719 536.801C442.206 536.801 443.342 536.068 445.128 534.602C450.484 530.202 456.815 528.002 464.119 528.002C468.664 528.002 473.209 528.898 477.754 530.691C487.006 534.439 491.632 542.26 491.632 554.156L490.415 572.733Z" fill="#EEE8DC"/>
<path d="M532.556 546.09C528.336 546.253 525.252 546.416 523.304 546.579C521.518 546.579 520.625 546.09 520.625 545.112C520.625 544.134 521.112 543.157 522.086 542.179C532.475 532.565 550.005 527.758 574.678 527.758C583.119 527.758 589.774 528.491 594.643 529.957L597.078 530.691C599.026 531.505 600 532.402 600 533.379C600 534.194 599.432 534.846 598.296 535.335C593.913 536.638 589.693 538.757 585.635 541.69C581.577 544.46 579.548 546.416 579.548 547.556L581.009 549.267C586.203 552.2 590.18 556.845 592.939 563.2C595.861 569.555 597.484 575.177 597.809 580.065L598.296 587.643C598.296 603.775 593.832 617.056 584.904 627.485C575.977 637.914 563.803 643.128 548.382 643.128C540.591 643.128 533.855 641.743 528.173 638.973C522.492 636.203 518.272 633.107 515.512 629.685C512.915 626.1 510.805 622.107 509.182 617.708C507.234 611.678 506.26 605.486 506.26 599.131C506.26 592.613 507.315 586.095 509.425 579.577C511.698 573.058 514.214 568.251 516.973 565.155C519.895 562.059 523.141 559.533 526.712 557.578C531.257 555.134 534.91 553.911 537.669 553.911C540.428 553.911 541.808 554.482 541.808 555.622L540.347 558.067C536.776 562.304 534.179 567.844 532.556 574.688C531.095 581.532 530.365 587.643 530.365 593.02C530.365 598.235 531.014 603.449 532.313 608.664C533.611 613.878 535.072 617.789 536.695 620.396C538.318 622.841 540.185 624.714 542.295 626.018C545.379 627.974 548.626 628.951 552.034 628.951C555.443 628.951 558.771 627.648 562.017 625.04C565.264 622.27 567.617 618.685 569.078 614.286C572 606.138 573.461 597.746 573.461 589.109C573.461 575.421 569.971 564.829 562.991 557.333C556.174 549.838 546.029 546.09 532.556 546.09Z" fill="#EEE8DC"/>
<path d="M78.8875 713.067H83.4049V749.48H78.8875V713.067ZM83.4049 717.228V713.067H88.9853C91.3946 713.067 93.5381 713.518 95.416 714.419C97.3293 715.286 98.8351 716.535 99.9334 718.165C101.067 719.795 101.634 721.737 101.634 723.991C101.634 726.21 101.067 728.152 99.9334 729.817C98.8351 731.447 97.3293 732.712 95.416 733.614C93.5381 734.481 91.3946 734.915 88.9853 734.915H83.4049V730.753H88.9853C91.3946 730.753 93.3433 730.181 94.8314 729.037C96.3549 727.892 97.1167 726.21 97.1167 723.991C97.1167 721.737 96.3549 720.055 94.8314 718.945C93.3433 717.801 91.3946 717.228 88.9853 717.228H83.4049Z" fill="#EEE8DC"/>
<path d="M125.329 738.452C126.18 739.908 127.066 741.192 127.987 742.301C128.943 743.411 130.006 744.278 131.176 744.902C132.345 745.526 133.673 745.839 135.162 745.839C137.146 745.839 138.74 745.301 139.945 744.226C141.149 743.151 141.752 741.781 141.752 740.116C141.752 738.487 141.362 737.186 140.582 736.215C139.803 735.244 138.776 734.464 137.5 733.874C136.26 733.25 134.931 732.695 133.514 732.21C132.593 731.898 131.565 731.499 130.431 731.013C129.298 730.493 128.217 729.851 127.19 729.089C126.162 728.291 125.312 727.32 124.639 726.175C124.001 725.031 123.682 723.627 123.682 721.962C123.682 720.159 124.143 718.546 125.064 717.124C125.985 715.702 127.26 714.593 128.89 713.795C130.52 712.963 132.38 712.547 134.471 712.547C136.49 712.547 138.244 712.928 139.732 713.691C141.256 714.419 142.549 715.373 143.612 716.552C144.675 717.696 145.507 718.91 146.11 720.193L142.23 722.378C141.769 721.476 141.185 720.592 140.476 719.725C139.768 718.858 138.899 718.147 137.872 717.592C136.88 717.038 135.658 716.76 134.205 716.76C132.185 716.76 130.715 717.246 129.794 718.217C128.873 719.153 128.412 720.211 128.412 721.39C128.412 722.395 128.678 723.332 129.209 724.199C129.741 725.031 130.626 725.829 131.866 726.592C133.142 727.32 134.86 728.048 137.022 728.776C138.014 729.123 139.059 729.574 140.157 730.129C141.256 730.684 142.265 731.395 143.187 732.262C144.143 733.094 144.923 734.117 145.525 735.331C146.127 736.51 146.429 737.932 146.429 739.596C146.429 741.192 146.11 742.631 145.472 743.914C144.87 745.197 144.019 746.289 142.921 747.191C141.858 748.093 140.636 748.786 139.254 749.272C137.907 749.757 136.49 750 135.002 750C132.983 750 131.105 749.584 129.369 748.752C127.668 747.885 126.162 746.758 124.851 745.37C123.576 743.949 122.53 742.44 121.716 740.845L125.329 738.452Z" fill="#EEE8DC"/>
<path d="M169.008 713.067H173.525V749.48H169.008V713.067Z" fill="#EEE8DC"/>
<path d="M200.636 731.273C200.636 734.082 201.274 736.562 202.549 738.712C203.86 740.862 205.561 742.544 207.651 743.758C209.742 744.972 212.009 745.578 214.454 745.578C216.226 745.578 217.838 745.353 219.29 744.902C220.779 744.451 222.125 743.827 223.33 743.029C224.534 742.197 225.562 741.244 226.412 740.168V745.995C224.853 747.347 223.152 748.353 221.31 749.012C219.468 749.671 217.182 750 214.454 750C211.868 750 209.441 749.549 207.173 748.648C204.941 747.711 202.975 746.411 201.274 744.746C199.573 743.047 198.245 741.053 197.288 738.764C196.331 736.475 195.853 733.978 195.853 731.273C195.853 728.568 196.331 726.071 197.288 723.783C198.245 721.494 199.573 719.517 201.274 717.853C202.975 716.153 204.941 714.853 207.173 713.951C209.441 713.015 211.868 712.547 214.454 712.547C217.182 712.547 219.468 712.876 221.31 713.535C223.152 714.194 224.853 715.2 226.412 716.552V722.378C225.562 721.303 224.534 720.367 223.33 719.569C222.125 718.737 220.779 718.095 219.29 717.644C217.838 717.194 216.226 716.968 214.454 716.968C212.009 716.968 209.742 717.575 207.651 718.789C205.561 720.003 203.86 721.685 202.549 723.835C201.274 725.95 200.636 728.43 200.636 731.273Z" fill="#EEE8DC"/>
<path d="M252.962 731.273C252.962 734.013 253.565 736.458 254.769 738.608C256.009 740.758 257.692 742.457 259.818 743.706C261.944 744.954 264.353 745.578 267.046 745.578C269.774 745.578 272.184 744.954 274.274 743.706C276.4 742.457 278.065 740.758 279.27 738.608C280.51 736.458 281.13 734.013 281.13 731.273C281.13 728.534 280.51 726.089 279.27 723.939C278.065 721.789 276.4 720.089 274.274 718.841C272.184 717.592 269.774 716.968 267.046 716.968C264.353 716.968 261.944 717.592 259.818 718.841C257.692 720.089 256.009 721.789 254.769 723.939C253.565 726.089 252.962 728.534 252.962 731.273ZM248.179 731.273C248.179 728.603 248.64 726.141 249.561 723.887C250.518 721.598 251.846 719.621 253.547 717.957C255.248 716.257 257.249 714.939 259.553 714.003C261.856 713.032 264.353 712.547 267.046 712.547C269.774 712.547 272.272 713.032 274.54 714.003C276.843 714.939 278.845 716.257 280.545 717.957C282.246 719.621 283.557 721.598 284.478 723.887C285.435 726.141 285.913 728.603 285.913 731.273C285.913 733.909 285.435 736.371 284.478 738.66C283.557 740.949 282.246 742.943 280.545 744.642C278.845 746.307 276.843 747.624 274.54 748.595C272.272 749.532 269.774 750 267.046 750C264.353 750 261.856 749.532 259.553 748.595C257.249 747.624 255.248 746.307 253.547 744.642C251.846 742.943 250.518 740.949 249.561 738.66C248.64 736.371 248.179 733.909 248.179 731.273Z" fill="#EEE8DC"/>
<path d="M308.237 713.067H312.754V745.318H327.369V749.48H308.237V713.067Z" fill="#EEE8DC"/>
<path d="M349.155 731.273C349.155 734.013 349.757 736.458 350.962 738.608C352.202 740.758 353.885 742.457 356.011 743.706C358.137 744.954 360.546 745.578 363.239 745.578C365.967 745.578 368.376 744.954 370.467 743.706C372.593 742.457 374.258 740.758 375.463 738.608C376.703 736.458 377.323 734.013 377.323 731.273C377.323 728.534 376.703 726.089 375.463 723.939C374.258 721.789 372.593 720.089 370.467 718.841C368.376 717.592 365.967 716.968 363.239 716.968C360.546 716.968 358.137 717.592 356.011 718.841C353.885 720.089 352.202 721.789 350.962 723.939C349.757 726.089 349.155 728.534 349.155 731.273ZM344.372 731.273C344.372 728.603 344.833 726.141 345.754 723.887C346.71 721.598 348.039 719.621 349.74 717.957C351.44 716.257 353.442 714.939 355.745 714.003C358.048 713.032 360.546 712.547 363.239 712.547C365.967 712.547 368.465 713.032 370.733 714.003C373.036 714.939 375.037 716.257 376.738 717.957C378.439 719.621 379.75 721.598 380.671 723.887C381.628 726.141 382.106 728.603 382.106 731.273C382.106 733.909 381.628 736.371 380.671 738.66C379.75 740.949 378.439 742.943 376.738 744.642C375.037 746.307 373.036 747.624 370.733 748.595C368.465 749.532 365.967 750 363.239 750C360.546 750 358.048 749.532 355.745 748.595C353.442 747.624 351.44 746.307 349.74 744.642C348.039 742.943 346.71 740.949 345.754 738.66C344.833 736.371 344.372 733.909 344.372 731.273Z" fill="#EEE8DC"/>
<path d="M421.702 735.175V731.013H438.974C438.974 733.545 438.585 735.955 437.805 738.244C437.026 740.498 435.874 742.509 434.351 744.278C432.827 746.047 430.949 747.451 428.717 748.491C426.521 749.497 424.005 750 421.17 750C418.478 750 415.98 749.549 413.677 748.648C411.374 747.711 409.372 746.411 407.671 744.746C405.971 743.047 404.642 741.053 403.685 738.764C402.764 736.475 402.304 733.978 402.304 731.273C402.304 728.568 402.764 726.071 403.685 723.783C404.642 721.494 405.971 719.517 407.671 717.853C409.372 716.153 411.374 714.853 413.677 713.951C415.98 713.015 418.478 712.547 421.17 712.547C423.473 712.547 425.582 712.841 427.495 713.431C429.444 714.021 431.18 714.887 432.703 716.032C434.262 717.176 435.573 718.598 436.636 720.297L433.447 723.158C432.278 721.216 430.648 719.708 428.558 718.633C426.467 717.523 424.005 716.968 421.17 716.968C418.549 716.968 416.175 717.575 414.049 718.789C411.923 720.003 410.222 721.685 408.947 723.835C407.707 725.95 407.087 728.43 407.087 731.273C407.087 734.082 407.707 736.562 408.947 738.712C410.222 740.862 411.923 742.544 414.049 743.758C416.175 744.972 418.549 745.578 421.17 745.578C423.013 745.578 424.66 745.318 426.113 744.798C427.601 744.243 428.877 743.48 429.94 742.509C431.003 741.538 431.871 740.429 432.544 739.18C433.252 737.932 433.766 736.597 434.085 735.175H421.702Z" fill="#EEE8DC"/>
<path d="M461.582 713.067H466.1V749.48H461.582V713.067Z" fill="#EEE8DC"/>
<path d="M496.335 738.556L498.155 734.394H509.539L511.32 738.556H496.335ZM503.84 721.286L498.155 734.394L496.335 738.556L491.616 749.48H486.567L503.84 711.246L521.112 749.48H516.064L511.32 738.556L509.539 734.394L503.84 721.286Z" fill="#EEE8DC"/>
</svg>
