<svg width="77" height="77" viewBox="0 0 77 77" fill="none" xmlns="http://www.w3.org/2000/svg">
<path fill-rule="evenodd" clip-rule="evenodd" d="M16.4269 1.17519C11.9025 2.32987 9.30137 7.11421 10.8615 11.4122C11.5892 13.4166 12.8517 14.7985 14.8498 15.7769C18.3907 17.5109 22.4941 16.3585 24.7527 12.9958C26.2083 10.8286 26.3786 7.85274 25.185 5.44387C24.1856 3.42697 22.8213 2.18656 20.7855 1.44422C19.6045 1.01371 17.5559 0.887246 16.4269 1.17519ZM57.3458 1.12361C55.7722 1.43719 54.0439 2.41867 53.0024 3.58992C52.139 4.561 51.3017 6.38007 51.1205 7.67851C50.7905 10.0436 51.5209 12.3522 53.1343 14.0437C55.6143 16.6435 59.0917 17.3108 62.1818 15.7799C64.1891 14.7854 65.4426 13.4121 66.1686 11.4122C67.7382 7.08798 65.0108 2.13806 60.5361 1.18984C59.4635 0.962565 58.2768 0.937947 57.3458 1.12361ZM17.2291 4.20287C15.954 4.52188 14.812 5.34584 14.1392 6.43209C13.7286 7.09516 13.4176 8.55596 13.5264 9.31046C13.8663 11.667 15.652 13.2922 18.0261 13.4061C19.0021 13.453 19.266 13.4083 20.0044 13.0711C23.0102 11.6987 23.8109 7.88395 21.576 5.58454C20.4589 4.43513 18.6277 3.8531 17.2291 4.20287ZM57.7018 4.25211C55.0026 4.97994 53.5265 7.78197 54.4495 10.426C54.7996 11.4291 56.1962 12.8255 57.1993 13.1756C58.8642 13.7567 60.8289 13.3492 62.0411 12.1711C64.6954 9.59166 63.5421 5.20458 59.965 4.27292C58.9657 4.01267 58.6026 4.0093 57.7018 4.25211ZM36.4798 16.8854C34.553 17.4035 32.5872 18.9602 31.6687 20.6954C28.8889 25.9469 32.6209 32.1863 38.542 32.1863C40.6468 32.1863 42.5149 31.4104 44.0104 29.915C45.5129 28.4126 46.2818 26.5524 46.2818 24.42C46.2818 20.876 43.8914 17.7647 40.4872 16.8781C39.4198 16.6001 37.5279 16.6035 36.4798 16.8854ZM16.0207 19.9512C13.411 20.4443 11.2816 21.6086 9.40483 23.5688C8.26106 24.7635 7.42767 26.0526 6.87799 27.478C6.33769 28.8788 1 54.5972 1 55.7994C1 57.6475 1.8797 59.7258 3.25193 61.1199C4.82243 62.7155 6.94144 63.5327 9.5313 63.5417L10.3691 63.5446L10.452 75.1143L10.8326 75.4949C11.07 75.7321 11.4408 75.9059 11.8177 75.9565C12.3641 76.0297 12.4718 75.9878 12.9392 75.5205L13.4562 75.0036V63.5641L20.3386 63.4713L20.8008 63.0089C21.4545 62.3549 21.4545 61.5106 20.8006 60.8566L20.3384 60.3941L13.9298 60.3209C7.76355 60.2504 7.49538 60.2357 6.83989 59.9327C5.48231 59.3051 4.37005 57.7678 4.15258 56.2179C4.07872 55.691 4.59119 52.988 6.70448 42.7598C8.15892 35.7206 9.42198 29.687 9.51108 29.3519C9.79596 28.2812 10.7182 26.7215 11.6466 25.7397C13.6789 23.5909 16.5797 22.5456 19.3758 22.9542C20.7981 23.1623 21.746 23.5055 23.0206 24.2742C24.4986 25.1657 25.5082 24.9854 25.9134 23.7574C26.1938 22.9075 25.7847 22.2919 24.3793 21.4493C21.9118 19.9699 18.8374 19.419 16.0207 19.9512ZM37.0503 19.9664C33.7301 21.1728 32.7606 25.267 35.2143 27.7206C36.1761 28.6823 37.0484 29.0284 38.515 29.0301C39.5841 29.0314 39.8667 28.9761 40.509 28.6389C41.6159 28.0582 42.0737 27.6156 42.6304 26.5889C43.0901 25.7413 43.1308 25.5633 43.1275 24.42C43.1232 22.9535 42.7759 22.0797 41.8158 21.1195C40.6116 19.9156 38.5581 19.4187 37.0503 19.9664ZM56.8329 19.8867C54.5088 20.2952 51.7041 21.6987 51.2159 22.6974C50.9907 23.1584 50.9749 23.3278 51.1167 23.7574C51.5219 24.9854 52.5314 25.1657 54.0095 24.2742C57.0223 22.4573 60.3082 22.3935 63.3919 24.0921C63.7741 24.3026 64.5875 24.9735 65.1997 25.5831C66.0625 26.4422 66.4491 26.9712 66.9199 27.9368C67.5014 29.1296 67.6425 29.741 70.2489 42.3704C72.4267 52.9232 72.9521 55.6902 72.8778 56.2179C72.6594 57.7685 71.5476 59.3052 70.1902 59.9327C69.5348 60.2356 69.2658 60.2504 63.1343 60.3209C56.3029 60.3994 56.3457 60.3944 55.9381 61.1558C55.7081 61.5857 55.7081 62.2797 55.9381 62.7097C56.3224 63.4274 56.5362 63.4683 60.1668 63.5176L63.5739 63.5641V75.0036L64.0909 75.5205C64.5582 75.9878 64.6659 76.0297 65.2124 75.9565C65.5893 75.9059 65.9601 75.7321 66.1975 75.4949L66.578 75.1143L66.661 63.5446L67.4988 63.5417C70.9339 63.5298 73.7837 61.9401 75.1158 59.2925C75.7195 58.0925 76.0797 56.4233 75.9849 55.2654C75.8525 53.6487 70.6125 28.682 70.1562 27.4936C69.557 25.933 68.4592 24.3407 67.1156 23.0836C65.4558 21.531 63.9275 20.6822 61.7332 20.0948C60.6703 19.8101 57.9304 19.6939 56.8329 19.8867ZM32.7999 35.7493C29.609 36.7103 27.2435 39.1156 26.3624 42.2953C26.0781 43.3209 26.0589 43.7719 26.0589 49.407C26.0589 56.1421 26.0776 56.3073 27.0769 58.3427C27.3934 58.9874 27.9881 59.8902 28.3984 60.349C29.1654 61.2064 30.6926 62.3131 31.6641 62.7158L32.2137 62.9435V68.7438C32.2137 75.1212 32.2404 75.3394 33.0742 75.7705C33.3183 75.8967 33.6564 76 33.8257 76C33.9949 76 34.333 75.8967 34.5771 75.7705C35.406 75.3419 35.4376 75.0947 35.4376 69.0443V63.5446H41.5924V69.0443C41.5924 75.0947 41.6241 75.3419 42.4529 75.7705C43.0136 76.0604 43.3952 76.0604 43.9559 75.7705C44.7897 75.3394 44.8164 75.1212 44.8164 68.7438V62.9435L45.3659 62.7158C46.3375 62.3131 47.8646 61.2064 48.6316 60.349C49.042 59.8902 49.6369 58.9874 49.9539 58.3427C50.9774 56.2604 50.9917 56.126 50.9387 49.0789C50.8935 43.071 50.8781 42.7703 50.5689 41.8576C49.6243 39.0695 47.3114 36.7566 44.5233 35.8125C43.6281 35.5093 43.2797 35.4876 38.7348 35.454C34.0817 35.4197 33.8575 35.4309 32.7999 35.7493ZM33.8257 38.697C31.6672 39.2975 29.9162 41.0664 29.3407 43.2277C29.0315 44.3887 29.0503 54.507 29.3637 55.7109C29.8209 57.4668 31.0208 58.9059 32.7283 59.7464L33.7462 60.2476H43.2838L44.3017 59.7464C46.0093 58.9059 47.2091 57.4668 47.6664 55.7109C47.9798 54.507 47.9986 44.3887 47.6894 43.2277C47.1042 41.0304 45.3453 39.2778 43.1311 38.6864C42.1418 38.4222 34.7833 38.4306 33.8257 38.697Z" fill="#7364CB" stroke="#7364CB" stroke-width="1.32353"/>
</svg>
