<svg width="1282" height="1274" viewBox="0 0 1282 1274" fill="none" xmlns="http://www.w3.org/2000/svg">
<path d="M308.652 1.49548L305.347 4.32641C298.736 9.98828 302.537 23.7183 315.428 40.7039L322.37 49.7629L327.162 35.8913C333.277 17.3487 333.277 9.70518 326.997 4.32641L322.204 0.221558C322.204 0.221558 317.755 -0.161641 315.124 0.0798732C312.43 0.327137 308.652 1.49548 308.652 1.49548Z" fill="#E4754A"/>
<path d="M355.429 13.1022C348.157 20.1795 341.381 33.4849 337.58 47.9227L336.423 52.4521L343.695 48.4888C347.496 46.2241 353.446 43.5347 356.586 42.5439C378.236 35.325 386.169 23.5766 375.592 14.2345C369.477 8.85577 360.552 8.43113 355.429 13.1022Z" fill="#E4754A"/>
<path d="M606.142 19.8965C598.044 21.5951 595.895 24.8507 596.721 33.6266C597.383 41.2701 603.993 54.0093 612.753 64.2007L617.38 69.5794L618.372 63.0683C619.033 59.5296 621.016 53.0185 622.834 48.6305C624.487 44.2426 625.974 38.0145 625.974 34.9005C625.974 29.2386 621.016 19.8965 617.876 19.8965C617.05 19.8965 615.397 19.6135 614.075 19.3304C612.918 19.0473 609.282 19.3304 606.142 19.8965Z" fill="#E4754A"/>
<path d="M651.095 30.5124C644.153 34.7588 634.898 51.7444 631.923 65.8991C630.766 71.2778 630.766 71.4194 633.741 69.2962C635.394 68.0223 642.996 64.3421 650.764 61.228C666.134 55 671.588 51.0367 673.737 44.384C677.208 33.9095 661.507 24.4259 651.095 30.5124Z" fill="#E4754A"/>
<path d="M273.781 35.6081C268.161 40.7038 267.335 47.6396 271.963 52.3106C276.59 57.1232 303.199 63.7759 318.404 63.7759C322.205 63.7759 322.04 63.6343 316.421 58.2556C313.115 55.1415 309.314 50.4705 307.661 47.9227C304.19 41.9777 297.58 35.7496 291.795 33.2018C284.689 29.9462 279.069 30.7955 273.781 35.6081Z" fill="#E4754A"/>
<path d="M193.462 42.5439C190.487 44.1009 188.008 46.5072 187.842 47.7811C187.181 57.5478 191.313 64.3421 206.849 78.6383L217.591 88.5465L218.087 77.2228C219.079 52.4521 218.252 47.2149 212.798 42.5439C208.501 38.8637 200.238 38.8637 193.462 42.5439Z" fill="#E4754A"/>
<path d="M563.837 44.8089C557.392 50.6123 556.731 54.7171 561.689 60.0959C565.82 64.6254 580.364 71.1366 593.916 74.5337C599.205 75.8076 604.494 77.2231 605.485 77.5062C609.121 78.6385 589.619 47.0736 584.496 43.3934C577.224 38.0146 570.613 38.5808 563.837 44.8089Z" fill="#E4754A"/>
<path d="M247.343 47.4978C241.724 50.1872 234.948 61.2279 230.981 74.5332C226.519 89.3956 226.684 90.1034 233.13 85.857C235.939 84.0169 242.55 80.7613 247.508 78.7796C252.466 76.9395 258.086 74.1086 259.904 72.6931C272.629 62.9264 271.638 51.3196 257.755 46.6485C252.962 45.0915 252.466 45.0915 247.343 47.4978Z" fill="#E4754A"/>
<path d="M1019.98 52.1693C1013.86 55.708 1012.54 71.1366 1017 88.2637C1019.48 98.0305 1022.62 103.834 1022.62 98.8797C1022.62 97.6058 1025.93 92.7932 1029.9 88.1222C1039.48 76.94 1042.29 72.1274 1043.45 64.6254C1044.44 59.1051 1043.94 57.8312 1040.31 54.7172C1037 51.8862 1034.36 51.037 1028.9 51.037C1024.94 51.037 1020.97 51.6031 1019.98 52.1693Z" fill="#E4754A"/>
<path d="M353.775 55.5663C341.71 58.3973 339.231 60.0958 344.685 61.5113C346.337 62.0775 352.783 65.1915 358.898 68.5886C365.013 72.1273 372.615 75.666 375.756 76.5152C383.358 78.6384 392.117 77.223 395.423 73.2597C397.902 70.1456 398.728 59.9543 396.58 57.2649C392.283 51.7446 372.781 50.8953 353.775 55.5663Z" fill="#E4754A"/>
<path d="M972.714 66.0403C968.087 68.1635 963.128 74.6747 963.128 78.4964C963.128 84.866 982.63 96.3313 1000.98 100.578C1004.78 101.427 1009.24 102.559 1010.73 102.984C1012.71 103.692 1012.54 102.984 1009.73 99.4453C1007.75 97.039 1004.94 92.6511 1003.79 89.5371C999.653 79.6288 994.86 72.8346 988.745 68.3051C982.135 63.3509 979.325 62.9263 972.714 66.0403Z" fill="#E4754A"/>
<path d="M324.193 70.9947C313.12 75.9489 308.492 79.2044 301.881 86.9895L297.088 92.5098V85.9987C297.088 81.0446 296.427 79.346 294.609 79.346C292.626 79.346 292.13 81.6107 292.13 90.9528C292.13 102.277 289.321 122.376 285.354 138.654L283.536 146.439L276.099 133.134C270.48 123.084 266.017 117.564 258.415 111.194C245.193 99.8703 226.022 91.8021 226.022 97.6055C226.022 98.3132 229.988 100.436 234.946 102.56C244.697 106.665 257.754 117.705 264.53 127.472C266.844 131.011 271.141 139.928 274.116 147.288C278.909 159.461 279.57 162.717 280.231 181.118L280.892 201.501L271.471 194.848C266.183 191.168 258.911 186.638 255.11 184.798C247.342 180.977 227.675 175.032 226.352 176.305C225.196 177.296 225.03 177.296 240.07 183.807C264.695 194.707 279.404 208.72 283.371 224.998C288.66 247.22 300.228 258.969 336.753 279.635C398.069 314.172 448.972 352.106 483.679 389.333C506.321 413.538 516.568 428.4 525.493 449.915C528.137 456.709 534.087 469.166 538.549 477.658C543.011 486.293 546.317 493.37 546.151 493.512C545.986 493.653 539.706 492.379 532.269 490.539C490.951 480.206 422.694 479.923 378.402 489.69C366.502 492.379 366.337 492.379 363.362 489.548C357.908 484.594 354.933 471.43 353.28 444.961C351.628 417.076 349.479 409.15 340.555 394.995C325.845 371.781 299.072 351.257 266.348 338.235C254.944 333.564 251.804 332.856 250.647 334.272C249.821 335.404 249.16 336.536 249.325 336.961C249.325 337.386 256.762 341.774 266.017 346.869C295.105 362.722 321.383 386.785 331.465 406.46C339.067 421.464 340.389 430.382 339.728 461.097L339.232 490.114L333.283 489.265C329.977 488.841 322.54 487.142 316.59 485.585L305.848 482.754L303.699 474.686C299.733 459.257 288.494 431.09 280.726 416.935C271.306 399.808 256.597 383.813 240.731 373.055C224.204 362.156 221.394 364.138 235.277 377.019C254.448 394.712 270.81 418.492 279.57 440.998C284.032 452.605 289.155 472.987 287.833 474.12C286.676 475.252 262.381 458.408 254.614 451.048C250.482 447.084 240.896 436.751 233.294 428.117C218.254 410.99 198.917 394.429 184.374 386.078C169.003 377.443 146.857 368.809 144.709 370.649C143.552 371.64 143.056 372.489 143.552 372.631C184.043 394.995 200.24 408.159 230.98 443.829C284.693 505.968 307.666 514.885 386.665 504.411C411.456 501.155 420.38 500.589 454.096 500.589C489.133 500.589 494.256 500.872 506.156 503.703C551.605 514.319 576.396 537.108 587.469 578.156C591.27 591.745 591.105 644.967 587.469 681.627C585.816 696.348 584.66 709.795 584.66 711.21C584.66 713.617 583.503 713.05 577.718 708.379C559.043 693.375 538.549 681.344 513.263 671.011L496.57 664.075L491.116 651.336C474.92 612.411 446.824 583.96 410.629 569.805C387.822 561.029 380.55 559.897 346.67 560.039C306.013 560.039 278.578 563.153 224.865 573.485C184.539 581.129 170.987 582.544 154.46 580.421C130.826 577.59 119.422 573.344 88.3513 556.783C75.1296 549.564 73.4769 549.139 71.1631 551.121C68.8494 553.103 69.841 554.094 83.2279 561.454C114.795 578.864 132.148 585.234 156.112 587.64C174.788 589.622 195.282 587.64 245.854 579.006C294.609 570.655 317.086 568.39 339.232 569.664C391.127 572.636 427.322 590.754 450.129 625.15C456.079 634.351 465.003 653.601 463.681 654.733C461.698 656.432 434.098 647.09 427.487 642.419C407.655 628.689 382.699 621.47 354.933 621.47C321.053 621.47 301.055 627.273 248.333 652.185C188.175 680.495 179.581 683.043 142.23 682.901L116.943 682.759L117.935 686.44C119.587 692.668 122.893 693.659 139.916 693.659C160.74 693.659 182.556 691.394 197.926 687.855C213.957 684.033 241.888 672.427 265.191 659.829C288.66 647.231 296.262 643.976 313.615 639.022C325.68 635.624 330.308 635.058 347.496 635.058C369.642 634.917 383.36 637.748 402.035 645.957L411.952 650.345L394.102 651.336C350.306 653.742 311.467 665.349 273.124 687.147C250.647 700.028 235.112 711.21 205.363 736.264C192.637 746.88 179.911 756.647 176.936 757.921C169.995 760.893 148.51 760.893 136.61 757.921C131.652 756.647 122.232 753.674 115.621 751.41C107.192 748.437 102.895 747.588 101.738 748.579C99.4245 750.56 122.067 761.743 139.42 767.121C157.435 772.783 171.483 773.916 183.217 771.085C194.125 768.254 206.189 760.186 236.434 735.273C289.321 691.818 331.299 675.258 400.052 671.011C457.401 667.614 498.719 679.079 531.938 707.955C550.448 723.808 567.141 747.588 577.222 772.075L581.85 783.116L580.032 832.233C577.222 901.166 564.662 1032.1 549.126 1154.39C544.003 1193.74 533.756 1266.36 532.599 1270.74L531.773 1274H715.389L714.397 1262.25C713.901 1255.88 711.588 1221.34 709.274 1185.53C699.688 1032.24 692.912 954.954 674.732 791.326C669.443 743.625 669.443 741.36 674.897 732.159C684.153 716.164 709.274 698.613 736.709 688.563C765.135 678.372 806.453 669.029 842.812 664.642C857.852 662.801 869.586 662.66 902.806 663.368C940.157 664.217 945.941 664.075 963.956 661.386C989.242 657.564 1015.19 651.195 1063.78 636.332C1085.26 629.821 1108.4 623.168 1115.18 621.47C1131.87 617.365 1160.3 616.233 1174.35 619.063L1184.59 621.045L1185.58 617.648C1186.25 615.808 1186.25 613.968 1185.91 613.543C1185.42 613.26 1178.81 611.845 1171.21 610.571C1142.45 605.9 1110.55 609.863 1069.73 622.885C1018.99 639.163 987.92 641.286 905.285 634.209C886.609 632.652 864.463 631.095 856.199 630.953C847.771 630.812 840.829 630.529 840.829 630.529C840.829 629.821 918.672 571.787 931.728 562.728C981.64 528.049 1029.4 510.922 1101.13 502.287C1117.49 500.306 1190.87 499.74 1206.57 501.58C1221.61 503.278 1217.65 500.306 1201.62 497.9C1106.42 483.32 1017.17 494.644 955.197 528.757C941.314 536.542 937.017 536.542 932.72 528.898C929.414 522.812 929.414 516.442 932.72 506.675C939.992 485.585 957.676 464.211 1000.81 424.72C1026.1 401.506 1046.92 379.142 1053.86 368.101C1059.81 358.618 1060.14 356.777 1055.85 356.777C1053.7 356.777 1050.06 360.033 1045.1 366.544C1034.53 380.133 1019.32 393.721 988.747 416.935C954.866 442.696 937.843 458.125 924.456 475.394C899.996 506.817 889.419 536.825 894.212 560.888L895.534 567.399L875.206 581.554C806.288 628.972 770.589 648.222 727.123 660.961C717.703 663.651 670.105 675.258 668.121 675.258C665.477 675.258 669.113 634.634 673.906 610.854C678.699 587.782 684.483 571.645 694.565 554.235C705.968 534.419 713.901 525.926 757.202 487.708C805.627 444.82 818.352 431.797 832.07 410.565C842.647 394.146 849.093 375.037 849.093 359.892V351.116H857.852C871.735 351.116 897.021 347.294 908.094 343.472C921.647 338.943 935.199 331.016 943.793 322.806C952.057 314.88 960.485 310.916 977.508 307.095C990.895 304.264 1019.16 303.556 1034.69 305.679C1040.31 306.528 1042.46 306.387 1042.46 305.113C1042.46 303.273 1035.19 301.15 1019.82 298.602C1009.57 297.045 978.996 297.469 969.41 299.593C965.113 300.442 965.443 299.876 975.194 287.137C980.814 279.776 987.424 270.859 989.903 267.32C995.357 259.11 1019.65 240.851 1035.85 232.783C1057 222.025 1079.81 218.062 1099.97 221.459C1106.92 222.591 1107.25 222.45 1106.58 219.336C1105.92 215.231 1101.46 214.24 1082.12 213.957C1059.15 213.674 1038.16 219.902 1016.35 233.066C1003.95 240.709 1003.95 241.983 1017.01 214.806C1021.8 204.756 1031.06 188.62 1037.67 178.853C1046.76 165.123 1048.91 160.877 1047.25 159.886C1045.6 159.037 1043.62 160.735 1039.98 165.406L1035.02 171.918L1033.87 163.566C1032.21 152.809 1030.06 147.288 1023.12 135.682C1016.51 124.924 1011.88 120.536 1009.24 122.801C1007.92 123.933 1008.58 125.915 1011.55 129.737C1022.3 144.457 1026.92 167.246 1022.63 184.657C1020.64 193.008 1000.32 228.395 980.814 257.695C948.916 305.679 914.375 327.053 862.81 331.158C854.877 331.724 847.605 331.865 846.944 331.299C844.63 329.601 850.58 311.483 857.356 299.876C865.785 285.438 879.998 269.302 896.03 255.855C912.391 242.266 911.565 238.728 894.377 249.06C873.388 261.8 851.241 283.739 842.482 300.583C840.499 304.122 839.011 305.679 838.681 304.405C838.185 303.273 833.227 289.826 827.442 274.68L816.865 247.079L817.03 218.062C817.03 192.725 817.526 187.629 820.666 177.721C827.938 155.357 841.49 136.248 856.695 127.047C863.967 122.659 863.967 122.659 860.827 119.828C857.852 117.281 857.026 117.281 853.059 118.979C845.126 122.659 826.946 140.919 819.84 152.526C810.585 167.388 804.47 187.629 802.982 207.446L801.991 223.016L789.43 203.199C769.598 172.059 764.309 162.292 749.269 127.047C746.79 121.527 745.799 120.395 743.154 121.102C739.022 122.235 737.37 118.554 735.882 103.409C733.899 83.5924 726.627 73.6841 715.389 75.8073C707.952 77.2228 702.002 82.6016 702.002 88.1219C702.167 95.4823 717.041 109.92 733.899 118.838C738.692 121.385 740.345 123.509 743.154 131.577C745.137 136.955 746.625 141.768 746.625 142.334C746.625 142.9 743.815 141.202 740.51 138.796C727.453 128.887 699.357 120.536 679.36 120.395H670.6V115.299C670.6 111.194 669.278 109.071 664.485 105.107C658.701 100.578 637.381 90.8113 627.795 88.5465C623.994 87.5557 623.994 87.5557 626.638 90.8113C628.126 92.6514 631.266 99.4456 633.414 105.815C636.555 114.591 639.199 118.979 643.992 123.225C651.429 130.02 656.552 130.444 663.824 125.207C667.791 122.376 668.948 122.093 668.948 123.792C668.948 125.207 670.435 126.056 672.749 126.056C680.517 126.056 702.993 131.86 715.058 136.955C728.445 142.617 745.799 155.498 755.549 166.963C762.491 175.032 799.016 247.645 808.767 272.557C819.509 300.442 821.823 311.624 821.823 336.253C821.823 353.947 821.162 359.467 818.022 369.517C807.61 402.072 784.141 431.939 733.734 476.101C715.885 491.813 715.223 491.813 711.918 477.941C709.108 465.91 703.82 427.834 702.663 411.981C701.01 387.21 708.117 361.165 722.495 340.783L728.28 332.715H722.661C718.033 332.715 716.546 333.564 712.083 339.509C697.87 358.476 690.598 380.274 688.945 408.442L687.954 426.702L681.839 415.519C669.939 393.438 663.163 366.403 664.32 344.18L664.816 332.715H659.527C653.082 332.715 653.082 332.573 655.726 358.193C660.684 404.62 676.385 459.116 695.887 496.909L699.853 504.694L690.929 513.045C670.435 532.012 651.759 560.18 642.174 586.649L637.05 600.804L629.283 581.412C618.54 555.226 610.607 541.637 594.576 522.387C580.197 504.977 558.877 469.59 546.978 443.121C521.196 385.936 517.394 338.943 535.244 300.442C550.779 267.037 587.634 236.18 642.008 211.551C652.421 206.88 657.379 203.766 657.379 202.067C657.379 200.793 656.222 199.661 654.9 199.661C651.098 199.661 651.759 191.734 656.718 179.703C663.989 162.151 659.527 148.704 646.471 148.704C624.986 148.704 624.655 163.849 645.479 190.885C648.619 194.99 650.933 198.528 650.603 198.953C650.272 199.236 645.149 200.51 639.199 201.784C615.235 206.88 586.478 222.45 571.934 238.02C566.976 243.257 566.149 243.682 566.976 240.568C567.637 238.586 570.281 224.007 573.091 208.012C578.379 176.73 583.668 156.63 590.444 140.636C597.055 124.924 609.946 100.861 620.193 84.8663C626.969 74.2503 628.952 70.0039 627.63 68.8715C625.316 66.8899 618.21 73.8257 602.674 93.3591C578.545 123.792 564.331 156.064 558.051 193.999C556.894 200.651 555.737 206.313 555.572 206.596C555.241 206.88 552.762 204.756 549.787 201.784C546.813 198.953 538.384 193.15 530.946 189.045C508.304 176.164 484.01 152.101 471.284 129.878C468.144 124.499 465.665 121.81 463.681 121.81C459.715 121.81 459.88 125.632 464.012 138.513C468.144 151.11 475.085 163.283 485.167 175.456L492.604 184.515L487.315 183.666C463.02 179.42 432.28 161.585 412.943 140.494C402.696 129.312 398.234 126.764 399.226 132.568C399.391 133.983 403.192 141.343 407.489 148.704C413.604 159.603 417.736 164.416 428.479 173.616C444.345 187.346 455.252 192.442 489.133 202.35C519.047 210.984 530.616 215.797 537.062 222.167C541.689 226.696 542.02 227.687 541.193 235.047C540.697 240.568 537.557 248.07 530.946 260.526C511.445 296.762 506.982 311.907 505.825 345.029L504.834 369.517L496.57 360.033C479.547 340.783 466.491 331.299 419.223 304.122C391.954 288.41 370.634 277.37 349.149 267.886C324.027 256.704 305.187 238.303 295.931 215.939C291.469 204.898 291.304 203.907 291.469 175.598C291.634 139.079 295.105 110.769 300.89 100.012C306.178 90.2451 316.425 80.6199 328.82 74.1088C344.19 65.8991 340.72 63.4928 324.193 70.9947Z" fill="#E4754A"/>
<path d="M866.61 69.8622C860.825 77.3642 859.338 88.4049 861.652 107.372L862.809 116.006L866.775 110.911C868.924 108.221 874.212 102.984 878.509 99.304C887.599 91.802 892.062 84.5831 892.062 77.6473C892.062 71.1362 887.434 67.739 877.352 66.8898C870.08 66.3236 868.924 66.6067 866.61 69.8622Z" fill="#E4754A"/>
<path d="M448.31 71.1364C443.517 73.4012 442.525 75.0998 442.525 81.0447C442.525 88.2636 447.484 98.8796 455.912 110.062L462.854 119.121L465.994 109.496C467.647 104.258 469.795 97.6057 470.621 94.9163C474.092 84.1587 471.283 72.4104 464.837 70.2872C460.54 68.8717 451.946 69.2963 448.31 71.1364Z" fill="#E4754A"/>
<path d="M758.85 71.1366C756.867 71.8443 754.388 74.2506 753.231 76.3738C750.587 81.0449 749.1 100.72 750.752 111.336C751.744 118.13 752.24 119.121 753.562 116.856C754.553 115.299 760.007 109.92 765.627 104.825C771.246 99.729 777.03 93.6425 778.518 91.0947C783.806 82.3188 781.493 74.8168 772.237 71.4197C765.627 69.1549 763.643 69.0134 758.85 71.1366Z" fill="#E4754A"/>
<path d="M160.411 72.9764C158.427 74.1088 155.948 77.3644 154.957 80.1953C149.833 93.3591 158.593 97.6055 190.49 97.7471H211.975L206.191 94.35C203.051 92.5098 197.266 87.8388 193.465 83.8755C182.557 72.8349 168.509 68.1638 160.411 72.9764Z" fill="#E4754A"/>
<path d="M651.099 73.6844C634.406 77.5061 632.423 78.497 639.034 80.4786C642.009 81.3279 647.297 84.0173 650.768 86.4236C671.923 100.72 692.086 99.1628 692.086 83.0265C692.086 77.9308 691.26 76.2322 687.789 73.8259C682.17 70.0042 667.791 70.0042 651.099 73.6844Z" fill="#E4754A"/>
<path d="M818.183 75.9486C807.11 83.309 812.894 94.2081 836.032 109.354C847.601 117.139 852.228 119.262 849.915 116.148C849.419 115.299 848.097 108.504 847.27 100.861C845.452 85.9984 841.486 76.2317 836.197 73.8254C830.578 71.2776 823.802 72.1269 818.183 75.9486Z" fill="#E4754A"/>
<path d="M1058.82 79.2042C1051.22 83.4506 1040.97 92.0849 1033.53 100.861L1029.07 105.957L1035.35 104.683C1038.82 103.975 1047.25 103.409 1054.19 103.409C1076.01 103.409 1085.26 97.7468 1083.94 85.4322C1083.77 84.583 1081.79 81.8936 1079.48 79.4873C1074.02 73.967 1068.57 73.8254 1058.82 79.2042Z" fill="#E4754A"/>
<path d="M496.569 81.3274C491.115 85.7153 484.174 97.4637 480.372 109.071C478.554 114.166 477.232 118.696 477.232 119.403C477.232 119.97 480.042 118.979 483.513 117.139C486.818 115.299 493.429 112.609 497.891 111.052C502.519 109.637 509.295 105.957 513.261 102.842C519.046 98.313 520.203 96.4729 520.203 92.2265C520.203 86.4231 519.542 85.4323 512.931 81.0443C506.816 77.081 501.858 77.081 496.569 81.3274Z" fill="#E4754A"/>
<path d="M417.735 81.1861C409.802 84.4417 404.513 99.4456 404.513 118.554V127.472L411.62 121.81C439.055 100.153 441.369 97.3224 438.228 89.5374C435.419 82.7431 424.511 78.2136 417.735 81.1861Z" fill="#E4754A"/>
<path d="M363.03 85.4327C353.94 90.6699 354.436 98.3134 364.518 107.939C370.633 113.742 392.944 128.038 394.101 126.906C394.597 126.623 394.101 123.933 393.109 120.819C392.118 117.847 391.291 113.317 391.291 110.628C391.291 101.711 386.168 89.396 381.045 85.7158C374.93 81.3278 370.302 81.1863 363.03 85.4327Z" fill="#E4754A"/>
<path d="M904.953 101.144C894.376 104.4 870.577 117.847 870.577 120.678C870.577 121.244 873.056 121.81 876.196 121.81C879.336 121.81 886.608 122.801 892.227 124.075C918.009 129.736 933.71 120.394 924.29 104.966C920.819 99.1624 915.2 98.03 904.953 101.144Z" fill="#E4754A"/>
<path d="M1087.74 104.683C1084.93 106.098 1080.14 110.345 1077 114.166C1071.55 120.819 1060.64 136.672 1060.64 137.946C1060.64 138.371 1063.12 137.805 1066.09 136.672C1068.9 135.681 1076.17 134.124 1082.12 133.134C1094.68 131.152 1103.61 127.472 1108.4 122.376C1113.19 117.139 1112.7 112.892 1106.75 106.947C1100.8 101.286 1095.51 100.578 1087.74 104.683Z" fill="#E4754A"/>
<path d="M217.427 105.532C216.931 105.957 209.494 106.806 200.9 107.514C178.423 109.354 169.829 113.6 169.829 122.942C169.829 134.125 180.571 139.362 192.471 134.125C201.561 130.02 225.855 104.824 220.567 104.824C219.41 104.824 217.922 105.108 217.427 105.532Z" fill="#E4754A"/>
<path d="M955.689 109.779C946.764 117.281 952.714 131.718 964.613 131.718C967.423 131.718 973.207 130.727 977.504 129.454C986.264 126.906 1009.4 116.007 1009.4 114.308C1009.4 113.742 1007.58 113.317 1005.27 113.317C1002.96 113.317 995.684 111.76 989.239 109.779C973.373 104.966 961.143 104.966 955.689 109.779Z" fill="#E4754A"/>
<path d="M338.898 120.395C330.965 123.084 328.982 136.389 335.593 141.768C338.898 144.457 340.551 144.741 354.93 144.033C363.854 143.608 374.927 142.193 380.546 140.494L390.463 137.805L385.67 136.106C383.026 135.257 377.241 132.284 373.109 129.595C358.4 120.395 347.492 117.422 338.898 120.395Z" fill="#E4754A"/>
<path d="M506.155 121.81C502.519 122.518 495.082 124.216 489.628 125.773L479.711 128.463L484.67 130.161C487.314 131.152 491.941 133.417 494.751 135.257C511.774 146.439 528.466 149.27 534.912 142.193C538.548 138.229 539.539 130.444 536.73 126.056C533.59 120.961 520.864 119.262 506.155 121.81Z" fill="#E4754A"/>
<path d="M208.83 127.614C203.706 131.152 203.045 138.371 207.507 145.449C210.978 150.969 223.208 163.708 230.15 168.662L235.108 172.342L235.603 156.206C236.099 137.947 234.281 130.02 228.827 126.764C223.704 123.65 214.118 124.075 208.83 127.614Z" fill="#E4754A"/>
<path d="M869.252 131.294C882.639 155.215 886.275 160.452 891.068 163.566C898.505 168.379 905.777 168.237 912.057 163C924.453 152.243 913.379 141.06 882.804 133.275C869.913 130.02 868.426 129.737 869.252 131.294Z" fill="#E4754A"/>
<path d="M1117.99 145.873C1110.22 149.978 1107.25 167.388 1110.88 187.488C1112.04 194.282 1112.2 194.282 1114.68 191.027C1116.17 189.186 1120.47 184.799 1124.27 181.26C1140.3 166.539 1144.43 155.64 1136 148.846C1131.54 145.307 1122.29 143.75 1117.99 145.873Z" fill="#E4754A"/>
<path d="M386.993 150.12C385.175 150.827 377.077 151.96 369.144 152.809C353.609 154.366 346.502 157.055 341.213 163.142C337.247 167.671 338.238 172.059 344.353 178.287C351.46 185.648 360.385 183.666 372.78 172.201C379.556 165.831 392.117 150.261 390.96 149.412C390.795 149.27 388.977 149.553 386.993 150.12Z" fill="#E4754A"/>
<path d="M167.186 153.516C165.368 154.649 162.889 158.329 161.732 161.584C159.914 166.963 159.914 167.954 162.889 171.21C167.682 176.73 175.119 178.287 197.927 178.287H218.585L213.627 175.315C210.983 173.616 205.364 169.086 201.232 165.265C188.176 153.092 175.284 148.704 167.186 153.516Z" fill="#E4754A"/>
<path d="M968.914 159.603C960.32 167.53 961.808 174.465 973.873 181.543C979.822 185.081 1005.44 193.999 1009.74 193.999C1010.56 193.999 1009.9 191.876 1008.25 189.328C1006.6 186.921 1003.79 181.543 1001.97 177.721C993.375 157.763 979.327 150.119 968.914 159.603Z" fill="#E4754A"/>
<path d="M685.803 159.32C680.514 162.576 674.069 172.767 669.606 184.94C664.814 197.962 664.483 200.793 668.284 198.104C669.772 196.971 677.87 193.291 686.133 189.753C696.876 185.223 702.165 181.967 704.809 178.57C710.924 170.785 709.602 164.982 700.347 159.603C695.389 156.631 690.596 156.489 685.803 159.32Z" fill="#E4754A"/>
<path d="M1154.51 177.58C1146.08 181.118 1125.26 193.999 1125.09 195.698C1125.09 196.405 1127.24 196.83 1129.89 196.83C1132.53 196.83 1140.13 197.821 1146.74 198.953C1160.79 201.501 1171.04 200.652 1177.32 196.405C1181.12 193.858 1181.62 192.725 1180.96 186.639C1180.46 182.817 1178.81 178.571 1177.15 177.013C1173.19 173.192 1164.26 173.475 1154.51 177.58Z" fill="#E4754A"/>
<path d="M900.821 188.337C893.549 190.885 891.731 199.661 896.028 213.391C899.168 223.441 907.101 237.737 908.093 235.048C908.589 233.915 911.729 227.829 915.365 221.459C922.802 208.154 924.785 199.944 921.976 194.141C918.836 187.913 909.581 185.365 900.821 188.337Z" fill="#E4754A"/>
<path d="M226.849 194.14C223.213 194.706 216.767 195.273 212.635 195.273C203.876 195.414 195.778 197.537 189.332 201.359C181.069 206.172 183.878 219.052 193.794 223.44C198.918 225.564 208.834 222.025 217.098 215.089C226.188 207.446 238.583 192.583 235.608 192.725C234.451 192.866 230.485 193.432 226.849 194.14Z" fill="#E4754A"/>
<path d="M684.644 203.199C676.546 205.039 669.109 206.738 668.117 206.738C667.291 206.738 669.77 208.012 673.737 209.569C677.538 211.126 683.653 214.382 687.124 216.646C695.718 222.45 703.816 225.139 712.41 225.139C720.674 225.139 724.475 222.45 726.127 215.514C729.598 200.51 715.22 196.122 684.644 203.199Z" fill="#E4754A"/>
<path d="M852.562 210.277C849.753 213.108 847.439 216.363 847.439 217.779C847.439 223.016 853.884 228.961 864.958 233.915C875.7 238.728 893.549 244.107 894.872 242.974C895.202 242.691 894.045 240.285 892.227 237.737C890.409 235.048 887.269 229.103 885.286 224.432C880.493 213.249 871.403 205.323 863.47 205.323C859.008 205.323 856.694 206.314 852.562 210.277Z" fill="#E4754A"/>
<path d="M1123.44 209.286C1123.44 209.993 1124.6 211.409 1125.92 212.4C1127.41 213.39 1131.21 218.203 1134.35 223.157C1145.92 240.851 1159.8 246.937 1169.06 238.303C1177.48 230.518 1175.67 222.733 1163.93 217.071C1154.18 212.4 1123.44 206.455 1123.44 209.286Z" fill="#E4754A"/>
<path d="M943.13 212.966C937.015 216.505 929.247 224.148 920.157 235.614C915.86 241.134 915.364 242.408 917.843 241.559C919.496 240.851 927.594 239.86 935.527 239.152C951.393 237.878 963.458 234.057 966.268 229.669C969.904 223.724 967.259 214.523 960.814 210.701C957.178 208.578 948.914 209.711 943.13 212.966Z" fill="#E4754A"/>
<path d="M1112.7 217.354C1112.04 219.619 1109.23 225.706 1106.42 230.801C1099.81 243.116 1099.15 256.563 1105.1 260.668C1110.72 264.631 1122.29 264.348 1126.91 260.101C1132.7 255.006 1130.55 242.408 1121.29 226.13C1114.19 213.674 1113.86 213.25 1112.7 217.354Z" fill="#E4754A"/>
<path d="M663.159 216.788C663.985 217.779 665.142 225.139 665.803 233.066C667.125 249.627 670.926 257.695 678.529 260.385C684.644 262.649 693.734 259.677 698.031 254.298C702.493 248.353 697.866 240.143 683.818 229.103C672.744 220.185 660.514 212.966 663.159 216.788Z" fill="#E4754A"/>
<path d="M1040.31 233.349C1035.51 237.737 1034.19 243.54 1034.36 258.119C1034.52 270.009 1036.67 285.155 1037.33 279.493C1037.33 278.644 1042.62 272.84 1049.07 266.754C1061.3 255.005 1066.75 246.088 1064.93 240.001C1062.78 232.499 1045.93 227.97 1040.31 233.349Z" fill="#E4754A"/>
<path d="M446.489 261.233C444.175 263.215 440.869 267.603 439.051 271.142C435.415 278.219 428.97 298.885 429.961 299.876C430.457 300.159 433.267 298.885 436.242 296.903C439.217 295.063 445.001 292.232 449.298 290.675C458.719 287.136 467.974 280.201 470.618 274.68C473.262 269.16 470.618 263.357 464.172 260.101C457.396 256.704 451.281 257.128 446.489 261.233Z" fill="#E4754A"/>
<path d="M1077.17 264.348C1072.54 266.612 1063.95 271.425 1058.16 275.388L1047.58 282.466L1060.31 283.74C1067.25 284.589 1078.82 285.155 1085.76 285.155C1096.84 285.297 1099.15 284.872 1102.12 282.183C1107.58 277.511 1106.09 265.339 1099.64 261.658C1095.68 259.394 1085.43 260.667 1077.17 264.348Z" fill="#E4754A"/>
<path d="M646.471 275.388C639.034 279.776 640.852 295.346 650.933 313.889L656.222 323.514L658.04 318.56C659.031 315.871 662.172 309.501 665.146 304.405C669.774 296.337 671.261 290.109 670.766 281.475C670.6 280.059 668.948 277.794 666.964 276.096C662.667 272.699 651.594 272.274 646.471 275.388Z" fill="#E4754A"/>
<path d="M226.682 278.077C220.897 280.201 219.41 282.607 219.41 289.401C219.41 295.063 226.021 304.122 238.747 315.729L248.663 324.788L249.82 308.51C250.977 290.958 249.654 284.73 243.87 279.351C239.903 275.671 234.284 275.246 226.682 278.077Z" fill="#E4754A"/>
<path d="M277.42 277.936C275.271 278.785 271.966 282.041 270.313 284.872C266.677 290.675 262.546 308.793 262.38 318.418V324.646L265.52 321.107C267.338 319.267 271.966 315.87 275.932 313.605C291.137 304.83 298.74 296.903 298.74 289.543C298.74 283.881 296.096 280.908 288.824 278.36C280.891 275.671 282.213 275.671 277.42 277.936Z" fill="#E4754A"/>
<path d="M741.168 289.118C735.053 296.195 732.408 301.291 729.268 312.898C727.781 318.701 726.128 324.788 725.632 326.345C724.806 329.034 724.806 329.034 728.607 326.203C730.756 324.505 737.036 321.108 742.655 318.843C766.619 308.51 773.561 297.469 761.826 288.127C755.05 282.748 746.291 283.173 741.168 289.118Z" fill="#E4754A"/>
<path d="M601.354 296.62C589.785 307.944 597.883 316.153 630.607 326.203C645.646 330.733 646.803 330.733 642.671 326.345C640.853 324.363 637.548 318.277 635.069 312.898C626.31 293.081 612.096 286.287 601.354 296.62Z" fill="#E4754A"/>
<path d="M694.563 297.045C687.622 300.725 679.523 308.085 672.417 317.144C662.996 328.893 663.162 328.61 668.12 327.053C670.433 326.345 678.697 325.071 686.299 324.363C701.009 322.806 712.247 318.984 715.222 314.455C718.362 309.359 717.205 303.556 712.082 298.885C706.628 293.789 701.67 293.364 694.563 297.045Z" fill="#E4754A"/>
<path d="M1051.21 299.026C1053.36 301.574 1057.33 307.095 1059.97 311.199C1070.55 328.327 1087.41 333.705 1095.34 322.382C1101.79 313.464 1097.99 306.811 1083.11 301.15C1076.67 298.602 1056.5 294.497 1050.55 294.497C1047.41 294.497 1047.41 294.78 1051.21 299.026Z" fill="#E4754A"/>
<path d="M191.973 304.405C188.172 305.679 183.71 310.917 182.222 316.154C179.743 324.222 190.816 330.45 214.781 334.696C234.779 338.235 235.274 338.093 228.829 330.733C226.019 327.194 221.557 321.674 219.243 318.135C211.971 307.661 200.237 301.716 191.973 304.405Z" fill="#E4754A"/>
<path d="M1027.91 318.843C1017.67 342.34 1017.34 343.331 1018.16 348.993C1019.48 357.061 1025.93 361.59 1034.69 360.599C1045.27 359.326 1047.91 356.212 1047.08 345.454C1046.59 338.235 1044.94 333.423 1039.15 323.09L1031.71 309.784L1027.91 318.843Z" fill="#E4754A"/>
<path d="M127.024 319.409C125.04 321.532 123.553 325.071 123.553 327.336C123.553 336.536 139.254 367.252 142.063 363.43C142.724 362.439 143.385 360.599 143.385 359.325C143.385 357.91 145.369 353.239 147.848 348.709C153.963 337.385 154.954 323.372 149.996 318.843C144.707 314.03 131.651 314.313 127.024 319.409Z" fill="#E4754A"/>
<path d="M297.087 317.711C293.947 318.702 285.683 321.957 278.907 324.93L266.512 330.308L274.776 332.007C279.403 332.998 286.675 335.121 290.972 336.82C295.434 338.66 303.037 340.358 307.83 340.783C316.259 341.491 317.085 341.349 322.043 337.103C326.671 333.139 327.166 331.866 326.34 326.911C325.018 318.419 321.382 315.729 311.3 315.871C306.673 315.871 300.227 316.72 297.087 317.711Z" fill="#E4754A"/>
<path d="M752.407 330.875C750.589 331.158 745.135 332.149 740.177 332.856L731.252 334.413L738.359 337.811C742.325 339.792 748.44 343.614 752.076 346.303C761.001 353.239 769.595 356.07 780.007 355.504C783.974 355.221 787.61 351.682 789.428 346.02C791.576 339.084 789.262 334.413 782.156 332.007C776.867 330.025 760.009 329.459 752.407 330.875Z" fill="#E4754A"/>
<path d="M585.153 333.422C581.022 335.829 578.708 343.472 580.361 348.992C581.683 353.239 589.12 356.778 596.722 356.778C603.333 356.778 624.157 352.248 633.413 348.851C638.536 346.869 639.362 346.161 636.883 345.737C635.065 345.454 626.636 342.057 618.208 338.235C601.515 330.733 591.93 329.317 585.153 333.422Z" fill="#E4754A"/>
<path d="M1087.25 333.281C1085.1 334.271 1081.3 337.81 1078.82 341.066C1074.02 347.011 1063.28 370.79 1064.6 371.923C1065.1 372.347 1067.41 371.357 1070.06 369.8C1072.54 368.384 1077.66 366.261 1081.3 365.27C1096.01 361.307 1106.75 354.371 1109.23 347.294C1110.71 343.047 1106.25 336.111 1100.3 333.422C1094.52 330.874 1092.37 330.874 1087.25 333.281Z" fill="#E4754A"/>
<path d="M177.102 336.819C174.292 338.235 169.334 342.623 166.194 346.303C158.922 354.937 149.667 368.243 150.493 368.95C150.824 369.233 153.633 368.667 156.774 367.535C159.914 366.544 166.359 365.129 171.317 364.704C182.556 363.43 190.819 360.599 196.769 355.787C201.727 351.54 202.388 347.294 198.752 341.207C194.29 333.847 186.026 332.148 177.102 336.819Z" fill="#E4754A"/>
<path d="M91.1598 336.961C86.0364 338.66 80.5824 345.312 80.5824 349.7C80.5824 358.193 91.8208 364.563 115.785 369.8C122.892 371.357 129.172 372.206 129.668 371.923C130.164 371.499 128.676 368.951 126.362 366.403C124.214 363.855 120.247 358.193 117.934 353.947C112.314 344.463 107.852 340.075 100.911 337.527C97.9359 336.395 95.2915 335.546 95.1263 335.687C94.7957 335.687 92.9777 336.253 91.1598 336.961Z" fill="#E4754A"/>
<path d="M399.72 347.719C397.407 350.266 396.25 353.522 396.25 357.627C396.25 366.827 401.208 369.517 418.065 369.517C425.172 369.517 436.41 368.526 442.856 367.252L454.59 364.987L449.632 363.006C446.988 361.873 441.203 358.335 436.576 355.079C420.544 343.755 406.001 340.783 399.72 347.719Z" fill="#E4754A"/>
<path d="M731.747 350.408C732.738 352.389 734.061 359.467 734.887 365.978C736.54 377.585 739.349 384.52 744.638 389.616C748.439 393.438 757.694 392.872 764.305 388.484C770.42 384.52 771.246 380.416 767.445 374.046C763.975 368.526 750.588 357.91 739.68 351.965C730.259 346.869 730.094 346.869 731.747 350.408Z" fill="#E4754A"/>
<path d="M869.088 370.649C862.973 376.028 856.528 385.087 847.768 401.082C847.438 401.789 849.256 401.365 851.735 400.232C854.379 399.1 860.659 397.401 865.617 396.411C870.576 395.42 875.534 394.287 876.36 393.721C877.352 393.297 879.004 392.872 879.996 392.73C883.797 392.164 893.714 386.361 895.366 383.671C898.837 378.293 897.349 372.772 891.234 368.243C882.806 362.015 878.178 362.439 869.088 370.649Z" fill="#E4754A"/>
<path d="M1095.84 370.791C1088.41 372.914 1079.98 376.17 1077 377.727L1071.55 380.558L1078.49 382.115C1082.29 383.105 1090.06 385.653 1095.68 387.918C1108.4 393.155 1119.31 393.58 1125.76 389.192C1131.71 385.087 1131.87 375.179 1125.92 370.225C1120.63 365.554 1113.03 365.695 1095.84 370.791Z" fill="#E4754A"/>
<path d="M74.7979 378.151C69.344 380.84 67.3608 383.955 67.3608 389.475C67.3608 404.479 82.7309 406.177 115.124 394.571L127.354 390.183L119.256 387.776C114.793 386.502 107.026 383.671 102.068 381.407C92.1514 377.16 79.9213 375.603 74.7979 378.151Z" fill="#E4754A"/>
<path d="M941.311 385.087C939.823 385.936 937.344 389.333 935.857 392.872C933.047 398.817 933.047 399.383 935.691 402.922C937.344 404.903 940.98 407.451 943.955 408.442C951.392 411.131 969.076 412.547 980.149 411.414L989.239 410.424L976.348 399.1C960.151 385.087 949.739 380.982 941.311 385.087Z" fill="#E4754A"/>
<path d="M141.899 396.835C140.743 398.25 134.793 401.223 129.008 403.629C102.565 414.387 95.789 430.098 114.465 436.893C125.868 440.856 133.305 434.203 140.908 413.254C145.701 399.949 146.197 392.589 141.899 396.835Z" fill="#E4754A"/>
<path d="M563.504 411.131C558.876 416.227 556.562 426.56 556.562 442.271V455.577L570.776 443.404C589.947 427.267 593.914 418.775 585.65 412.122C583.171 410.14 578.709 408.583 574.246 408.159C567.801 407.451 566.644 407.876 563.504 411.131Z" fill="#E4754A"/>
<path d="M849.919 409.15C849.423 409.857 849.589 410.565 850.415 410.565C851.241 410.565 856.695 414.67 862.48 419.766C882.643 437.459 897.352 439.441 903.632 425.569C906.607 418.633 904.293 413.538 896.36 410.424C891.072 408.3 885.618 407.734 870.248 407.734C859.174 407.734 850.58 408.3 849.919 409.15Z" fill="#E4754A"/>
<path d="M736.374 415.944C731.086 420.898 722.988 437.176 719.517 449.491C718.36 453.454 718.36 453.595 721.335 451.331C722.988 450.057 730.59 446.518 738.358 443.546C762.322 434.062 769.098 423.871 757.364 414.953C749.1 408.867 743.646 409.15 736.374 415.944Z" fill="#E4754A"/>
<path d="M842.484 418.916C842.484 421.181 841.327 427.834 839.839 433.496C834.55 455.152 842.484 467.325 859.011 463.079C862.647 462.23 866.282 460.248 867.274 458.691C871.902 451.331 865.787 437.884 850.747 422.88C842.649 414.67 842.484 414.67 842.484 418.916Z" fill="#E4754A"/>
<path d="M406.661 433.921C398.563 436.893 395.588 441.706 397.902 448.5C399.719 454.728 410.462 467.609 420.709 476.102L427.154 481.48L428.146 465.91C429.468 445.669 426.824 436.751 418.56 433.779C411.95 431.514 413.272 431.373 406.661 433.921Z" fill="#E4754A"/>
<path d="M454.422 444.253C448.968 448.641 442.027 459.54 437.399 471.289C433.267 481.621 433.267 481.905 440.539 478.507C443.845 476.95 450.951 474.261 456.24 472.704C469.296 468.741 478.882 460.814 478.882 454.161C478.882 450.057 477.725 448.216 473.097 444.678C465.826 439.299 460.867 439.157 454.422 444.253Z" fill="#E4754A"/>
<path d="M1215.5 442.838C1214.17 444.112 1212.19 447.084 1211.2 449.207C1209.22 453.595 1209.05 472.704 1210.7 482.612L1211.86 488.982L1216.49 483.603C1219.13 480.772 1224.25 475.677 1227.89 472.421C1234.67 466.476 1240.62 457.134 1240.78 452.746C1240.78 448.5 1237.31 443.545 1233.01 441.847C1227.06 439.441 1218.47 440.007 1215.5 442.838Z" fill="#E4754A"/>
<path d="M1022.79 445.244C1016.34 449.915 1015.35 453.171 1018.16 459.116C1020.81 464.494 1037.83 478.083 1048.9 483.745C1055.35 487 1056.01 487.142 1055.02 484.736C1054.19 483.32 1052.87 477.234 1052.04 471.43C1049.73 455.577 1047.58 450.198 1042.46 445.669C1036.51 440.573 1029.57 440.431 1022.79 445.244Z" fill="#E4754A"/>
<path d="M1163.6 449.491C1156.83 455.294 1156.99 458.974 1164.59 467.184C1169.72 472.704 1184.59 483.321 1193.02 487.567C1198.31 490.256 1198.31 490.256 1197.15 487.567C1196.33 486.151 1195.17 479.782 1194.34 473.554C1192.36 459.541 1190.38 454.162 1185.09 448.783C1179.14 442.697 1171.37 442.838 1163.6 449.491Z" fill="#E4754A"/>
<path d="M204.536 475.959C202.222 478.224 201.23 480.914 201.23 485.726C201.23 496.767 210.155 500.589 226.847 496.767C247.671 491.813 264.694 484.169 254.778 484.169C253.456 484.169 246.184 481.621 238.912 478.507C222.55 471.572 210.32 470.722 204.536 475.959Z" fill="#E4754A"/>
<path d="M1255.66 475.818C1251.53 477.375 1242.6 482.329 1235.83 486.717L1223.6 494.785L1230.04 495.21C1233.68 495.493 1241.94 496.484 1248.22 497.616C1254.67 498.749 1261.28 499.315 1263.1 499.032C1264.92 498.749 1268.39 498.182 1271.03 497.616C1281.61 495.776 1285.24 486.434 1278.8 477.375C1275.99 473.553 1274.5 472.846 1269.38 472.846C1265.91 472.846 1259.79 474.261 1255.66 475.818Z" fill="#E4754A"/>
<path d="M66.5365 493.653C57.2813 495.635 54.637 502.429 58.2729 514.46C61.0825 523.378 71.8251 542.204 74.1389 542.204C74.9653 542.204 75.6264 540.647 75.6264 538.665C75.6264 536.683 77.4443 532.012 79.5929 528.332C92.484 506.109 86.2037 489.548 66.5365 493.653Z" fill="#E4754A"/>
<path d="M1219.3 508.232C1219.3 508.798 1220.46 510.072 1221.78 511.063C1223.1 512.054 1227.89 517.999 1232.19 524.085C1240.62 536.4 1245.91 540.505 1254.67 541.779C1259.46 542.345 1261.11 541.92 1264.75 538.523C1276.98 527.199 1269.38 517.008 1244.42 511.488C1231.53 508.515 1219.3 506.958 1219.3 508.232Z" fill="#E4754A"/>
<path d="M1187.73 512.196C1185.58 513.611 1179.14 517.008 1173.35 519.556C1153.02 528.757 1146.08 540.788 1156.66 548.432C1167.24 556.075 1174.18 554.518 1181.78 542.628C1185.91 536.117 1194.01 511.488 1192.36 510.214C1192.03 509.931 1189.88 510.78 1187.73 512.196Z" fill="#E4754A"/>
<path d="M116.117 512.196C107.854 513.753 98.2681 522.953 87.1949 539.939C82.7326 546.733 82.2368 548.007 84.8811 546.733C86.6991 545.884 94.1363 544.327 101.243 543.053C118.101 540.364 123.224 538.665 129.008 533.994C134.793 529.181 134.958 522.67 129.339 517.008C125.042 512.479 121.406 511.205 116.117 512.196Z" fill="#E4754A"/>
<path d="M1208.89 516.725C1208.23 519.132 1205.58 525.501 1202.77 530.88C1196.66 542.628 1196 554.094 1200.95 559.331C1203.43 562.02 1205.75 562.728 1211.7 562.586C1220.46 562.586 1225.41 559.472 1226.74 552.961C1227.89 548.007 1222.6 532.154 1216.65 522.387C1210.37 512.054 1210.04 511.771 1208.89 516.725Z" fill="#E4754A"/>
<path d="M18.6028 518.707C6.37276 529.889 13.8099 539.09 40.9144 546.167C46.8641 547.583 54.4666 549.281 57.9372 549.847L64.3828 550.838L60.251 546.167C57.9372 543.619 53.9707 537.674 51.1611 533.003C45.2114 522.812 36.9479 515.735 29.6759 514.461C25.0484 513.611 23.5609 514.178 18.6028 518.707Z" fill="#E4754A"/>
<path d="M170.984 533.428C165.53 538.523 162.886 547.158 161.894 561.878L161.068 576.741L169.827 570.371C187.842 557.491 190.982 554.801 193.626 550.13C197.428 543.194 196.932 539.656 191.147 534.985C185.032 530.03 175.281 529.323 170.984 533.428Z" fill="#E4754A"/>
<path d="M6.54245 556.358C-1.22527 559.048 -2.38217 572.919 4.72447 577.873C11.5006 582.686 31.0025 579.855 50.6698 571.221C57.1153 568.39 57.7764 567.824 54.9668 566.974C53.1488 566.408 47.1991 564.285 41.7451 562.02C23.5653 554.801 15.1365 553.527 6.54245 556.358Z" fill="#E4754A"/>
<path d="M1128.73 562.02C1114.19 569.664 1120.3 581.554 1147.41 598.115C1153.36 601.795 1158.64 604.484 1159.14 604.201C1159.47 603.776 1159.14 601.653 1158.31 599.389C1157.49 597.124 1156.33 590.896 1155.67 585.658C1154.51 573.91 1150.88 565.7 1145.26 562.02C1140.13 558.482 1135.67 558.482 1128.73 562.02Z" fill="#E4754A"/>
<path d="M1190.54 574.193C1184.09 579.855 1168.72 602.644 1170.21 603.918C1170.54 604.343 1173.52 603.494 1176.82 602.361C1180.13 601.229 1186.74 599.53 1191.53 598.681C1215.66 594.293 1225.74 582.403 1214.5 572.07C1207.07 565.276 1199.79 565.842 1190.54 574.193Z" fill="#E4754A"/>
<path d="M75.6261 574.193C74.304 575.325 68.189 578.581 62.0739 581.27C36.1264 592.452 28.8545 605.616 44.2247 613.401C54.9673 618.922 64.2225 613.967 70.668 599.247C73.9734 591.462 79.2621 573.06 78.2705 572.211C77.9399 572.07 76.783 572.919 75.6261 574.193Z" fill="#E4754A"/>
<path d="M1011.39 587.216C1005.93 591.887 1003.95 600.804 1005.11 615.525C1006.26 631.803 1007.58 634.634 1011.88 628.972C1013.53 626.849 1018.49 621.753 1022.79 617.931C1036.51 605.334 1039.65 595.284 1031.88 589.056C1026.1 584.385 1015.68 583.536 1011.39 587.216Z" fill="#E4754A"/>
<path d="M961.639 594.01C949.74 602.503 957.673 614.392 986.926 631.378C994.859 635.908 995.024 635.908 993.867 632.652C993.371 630.812 992.049 624.018 991.223 617.506C990.231 611.137 988.413 603.352 986.926 600.379C982.133 590.046 970.894 587.357 961.639 594.01Z" fill="#E4754A"/>
<path d="M1225.58 595.142C1216.32 599.247 1208.89 603.493 1200.62 609.721L1194.51 614.392H1198.97C1201.45 614.392 1209.22 615.383 1216.16 616.657C1243.1 621.611 1256.81 614.534 1250.53 598.964C1247.23 590.895 1238.47 589.622 1225.58 595.142Z" fill="#E4754A"/>
<path d="M204.868 616.657C197.596 619.347 195.117 639.163 199.579 657.281L201.562 665.633L205.694 660.112C208.008 657.14 212.305 652.469 215.28 649.779C227.179 638.88 230.98 626 223.874 620.338C220.238 617.365 208.999 615.242 204.868 616.657Z" fill="#E4754A"/>
<path d="M95.9531 622.886C87.8548 626 85.8715 630.104 88.6811 637.465C91.1602 643.551 98.7627 654.026 107.522 662.943L114.463 669.879L115.62 661.669C118.926 638.739 119.091 633.36 116.281 628.264C113.802 624.018 107.853 619.913 104.051 620.055C103.39 620.055 99.7543 621.329 95.9531 622.886Z" fill="#E4754A"/>
<path d="M1193.35 631.661C1195.5 634.209 1199.47 639.729 1202.11 643.976C1213.19 661.669 1230.7 666.623 1238.31 654.025C1243.6 645.108 1240.12 639.729 1225.42 634.209C1217.81 631.378 1198.48 627.273 1192.36 627.132C1189.72 627.132 1189.88 627.556 1193.35 631.661Z" fill="#E4754A"/>
<path d="M1160.13 630.387C1158.97 631.52 1152.2 635.058 1144.76 638.455C1128.73 645.957 1121.79 652.044 1121.79 659.121C1121.79 668.18 1134.35 675.116 1143.11 670.87C1150.38 667.331 1157.49 653.884 1161.45 635.907C1162.94 628.547 1162.78 627.556 1160.13 630.387Z" fill="#E4754A"/>
<path d="M145.038 633.643C142.229 635.766 138.262 640.296 136.114 643.976C131.486 651.761 124.545 669.454 125.702 670.445C126.032 670.87 129.007 669.879 131.982 668.322C135.122 666.765 141.898 664.217 147.187 662.519C157.764 659.122 167.35 652.186 169.002 646.807C170.49 641.711 167.35 636.049 161.235 632.794C154.128 629.114 151.319 629.255 145.038 633.643Z" fill="#E4754A"/>
<path d="M1176.5 641.57C1174.35 646.524 1171.21 654.167 1169.39 658.555C1165.42 667.897 1166.25 675.116 1171.7 679.787C1174.51 682.194 1176.5 682.477 1183.27 682.052C1187.73 681.627 1192.2 680.637 1193.19 679.787C1196.49 676.956 1197.32 668.888 1195.01 660.679C1193.19 653.743 1182.45 632.794 1180.63 632.794C1180.3 632.794 1178.48 636.757 1176.5 641.57Z" fill="#E4754A"/>
<path d="M58.9286 651.195C57.6065 651.902 54.9621 655.158 53.3094 658.413C50.4998 663.651 50.4998 664.642 52.6483 667.897C53.9705 669.879 57.2759 672.71 60.0855 674.125C65.7047 676.956 83.2234 679.504 97.602 679.504H107.188L93.6355 666.765C76.9431 651.195 67.5227 646.948 58.9286 651.195Z" fill="#E4754A"/>
<path d="M81.241 692.526C70.4984 696.914 73.4733 709.653 89.6698 727.63C93.6363 732.018 97.9333 736.264 99.2555 737.255C101.735 739.095 101.569 739.52 104.875 713.9C106.693 698.613 102.065 690.686 90.992 690.969C87.5213 690.969 83.059 691.677 81.241 692.526Z" fill="#E4754A"/>
<path d="M130.162 704.841C124.213 710.219 114.792 727.488 112.644 737.396L111.487 742.209L116.28 739.236C118.924 737.538 126.196 734.565 132.311 732.442C156.44 724.374 163.712 710.361 148.012 702.151C140.244 698.188 137.104 698.612 130.162 704.841Z" fill="#E4754A"/>
<path d="M47.196 720.128C45.7086 720.411 42.7337 723.666 40.7504 727.205C37.445 733.15 37.2797 734.141 39.4283 737.397C44.2211 744.757 60.4177 748.862 83.8861 748.862L94.6287 748.72L90.3317 745.606C87.8526 743.908 82.0681 738.529 77.4405 733.716C66.2021 722.11 56.947 717.863 47.196 720.128Z" fill="#E4754A"/>
<path d="M47.8588 761.601C39.43 763.3 35.9593 766.838 35.9593 773.632C35.9593 791.609 55.1307 791.184 84.2184 772.642L93.4735 766.555L75.1285 763.441C54.8002 759.902 55.6265 760.044 47.8588 761.601Z" fill="#E4754A"/>
<path d="M110.659 769.669C109.502 771.368 104.378 775.756 99.0896 779.436C77.7697 794.157 74.4643 809.019 91.3219 813.549C106.692 817.654 114.625 804.631 113.303 777.171C112.807 767.829 112.642 766.98 110.659 769.669Z" fill="#E4754A"/>
</svg>
