<svg width="75" height="75" viewBox="0 0 75 75" fill="none" xmlns="http://www.w3.org/2000/svg">
<path d="M26.0709 0.197373C21.8199 0.959421 18.417 3.88955 16.9893 8.01105L16.6458 9.00923L15.8836 9.39562C13.6186 10.5333 11.6004 12.5619 10.4626 14.8588C9.78627 16.2326 9.48569 17.4025 9.38908 19.1842L9.32467 20.3112L8.58397 20.8156C6.01837 22.5544 4.46183 24.8942 3.76407 27.996C3.58158 28.801 3.53864 29.4021 3.5279 30.8618V32.6971L2.74427 33.7382C0.00690382 37.3982 -0.72306 42.0886 0.736867 46.6287C1.40242 48.6572 2.63692 50.6536 4.20419 52.1884L5.09518 53.0685L4.92342 53.7661C4.68726 54.7858 4.61211 56.5567 4.75167 57.673C5.13812 60.6139 6.30821 63.0932 8.27267 65.1432C10.6558 67.6118 13.4683 68.8783 17.2147 69.1681L18.0306 69.2218L18.2989 69.6726C20.9934 74.1161 26.8331 76.1124 32.0716 74.3629C33.757 73.8048 35.6141 72.5598 36.7734 71.2181C37.1384 70.7995 37.4712 70.4453 37.5034 70.4453C37.5356 70.4453 37.8684 70.7995 38.2334 71.2181C40.7024 74.0839 44.7816 75.4899 48.7749 74.8459C52.1349 74.2985 54.9044 72.4954 56.6649 69.7262L56.9763 69.2218L57.7921 69.1681C61.5385 68.8783 64.351 67.6118 66.7341 65.1432C68.6986 63.0932 69.8687 60.6139 70.2551 57.673C70.3947 56.5567 70.3196 54.7965 70.0834 53.7769L69.9224 53.1007L70.9636 52.0596C73.6044 49.43 74.9784 46.1135 74.9999 42.3247C75.0106 39.137 74.0445 36.1639 72.1981 33.706L71.4896 32.7723L71.4789 30.894C71.4682 29.4128 71.4145 28.801 71.2427 27.996C70.5557 24.8942 68.9884 22.5651 66.4228 20.8156L65.6821 20.3112L65.607 19.0769C65.4352 16.1897 64.4154 13.925 62.2578 11.714C61.3238 10.7373 60.2933 9.98594 59.1232 9.39562L58.361 9.00923L58.0175 8.01105C57.1373 5.47805 55.5056 3.36363 53.3479 1.96833C52.2422 1.24921 51.8343 1.04529 50.7072 0.648162C46.3059 -0.897401 41.1425 0.390568 38.2334 3.77149C37.8684 4.19008 37.5356 4.54427 37.5034 4.54427C37.4712 4.54427 37.1384 4.19008 36.7734 3.77149C34.2615 0.862823 30.0964 -0.532476 26.0709 0.197373ZM29.7851 4.86626C31.9213 5.41365 33.5423 6.75528 34.444 8.71943C35.1954 10.3294 35.1418 8.29011 35.1418 37.5699C35.1418 63.6728 35.1418 64.0162 34.9271 64.9071C34.6694 65.9911 34.0039 67.3113 33.3491 68.0304C32.3507 69.1466 30.6332 70.016 28.8834 70.2844C27.5201 70.499 25.2658 69.9302 24.0635 69.0822C23.0115 68.3309 22.3137 67.483 21.5838 66.0448C20.8216 64.5207 20.4459 64.3382 18.3526 64.4348C17.1396 64.4992 16.6672 64.4778 15.991 64.3275C12.1372 63.5225 9.82921 60.9358 9.37835 56.9539C9.24953 55.8698 9.39982 54.7536 9.797 53.6481C10.1835 52.607 10.2586 52.1884 10.1405 51.6839C9.99023 51.0399 9.60378 50.5677 8.66985 49.8915C7.63932 49.1402 6.45849 47.9059 5.95396 47.0687C4.41889 44.482 4.24713 41.026 5.51383 38.2354C5.93249 37.3016 6.38335 36.6791 7.36021 35.6487C7.82181 35.1657 8.27267 34.5969 8.35854 34.3929C8.5625 33.91 8.5625 33.1694 8.34781 32.2893C8.11164 31.2804 8.13311 29.8421 8.40148 28.7796C8.94896 26.5578 10.1083 25.1625 12.3626 23.9819C14.0802 23.0803 14.3271 22.6402 14.1016 20.88C13.6186 17.2844 15.4757 14.4294 19.1792 13.0341C20.4888 12.5404 20.8645 12.1004 21.0685 10.8124C21.3369 9.15949 21.8736 8.02178 22.9256 6.90554C24.7398 4.96286 27.241 4.21154 29.7851 4.86626ZM48.2918 4.75893C48.7105 4.84479 49.4512 5.11312 49.9557 5.35998C50.6857 5.72491 51.0507 6.00397 51.8343 6.78748C53.1654 8.10765 53.7129 9.19169 53.9705 11.0163C54.0671 11.6496 54.3892 12.2613 54.7756 12.5297C54.9474 12.6585 55.4197 12.8839 55.8276 13.0341C57.2446 13.5708 58.0175 14.0538 58.9837 15.009C60.6797 16.6941 61.0447 17.9391 60.9052 21.4489C60.873 22.0928 60.9159 22.3397 61.0877 22.6832C61.399 23.2735 61.6566 23.4881 62.8052 24.0677C63.825 24.5937 64.8019 25.3664 65.3816 26.107C66.5839 27.6526 67.1313 30.2929 66.6483 32.3C66.4443 33.1694 66.4443 33.91 66.6483 34.3929C66.7341 34.5969 67.185 35.1657 67.6466 35.6487C68.6235 36.6791 69.0743 37.3016 69.493 38.2354C70.7597 41.026 70.5772 44.5035 69.0529 47.058C68.5376 47.9059 67.4319 49.0758 66.4873 49.7627C65.5748 50.4282 65.2528 50.7502 65.0381 51.2761C64.8126 51.802 64.8341 52.1991 65.1883 53.2724C65.607 54.5711 65.7573 55.8806 65.6177 57.0075C65.1883 60.5602 63.0521 63.1254 59.6492 64.188C59.0159 64.3919 58.6401 64.4241 56.8689 64.4241L54.8186 64.4348L54.3892 64.7354C54.0564 64.9715 53.8095 65.2935 53.3908 66.0985C52.0812 68.5885 50.4817 69.7906 47.8947 70.22C47.0681 70.3595 46.7138 70.3809 46.1234 70.2844C44.3737 70.016 42.6561 69.1466 41.6578 68.0304C41.0029 67.3113 40.3374 65.9911 40.0797 64.9071C39.8651 64.0162 39.8651 63.6728 39.8651 37.5163C39.8651 8.13985 39.8114 10.3509 40.5628 8.7087C41.3894 6.90554 42.7849 5.66051 44.6635 5.03799C45.9839 4.59793 47.1003 4.51207 48.2918 4.75893Z" fill="#7364CB"/>
</svg>
