<svg width="110" height="75" viewBox="0 0 110 75" fill="none" xmlns="http://www.w3.org/2000/svg">
<path d="M53.5291 0.061782C53.013 0.123096 52.132 0.307039 51.5782 0.466455C49.1238 1.18996 2.579 17.6467 2.0252 17.99C-0.227782 19.3757 -0.630549 22.2698 1.15673 24.1337C1.47139 24.4648 1.94968 24.8572 2.23917 25.0166C2.51607 25.1638 5.68786 26.3288 9.28759 27.6041C12.8873 28.8672 15.8577 29.9218 15.8829 29.9463C15.9207 29.9708 15.757 30.1916 15.5305 30.4491C12.9377 33.4044 11.5406 35.5627 10.3071 38.518C9.26242 41.0074 8.60792 43.7665 8.34361 46.7832C7.96601 51.1242 7.76463 52.4854 7.16048 54.8276C6.07804 58.9847 3.93834 63.3748 1.14414 67.1763C0.653271 67.8262 0.187572 68.611 0.0994664 68.8931C-0.252955 70.0212 0.363782 71.4437 1.43363 71.9956C1.62243 72.0814 4.39145 72.8049 7.60101 73.5897C14.1334 75.1716 14.3348 75.1962 15.3039 74.5462C16.1724 73.9576 16.4619 73.2218 16.764 70.7693C17.5066 64.8095 17.3807 59.9289 16.3864 55.6737C15.9333 53.6994 15.1403 51.1733 14.4229 49.4197C13.7432 47.7519 13.7306 47.6906 13.8061 46.8445C14.146 43.3496 15.5179 39.6217 17.5191 36.7031C18.8281 34.8146 21.421 32.0678 21.9118 32.0678C21.9873 32.0678 28.633 34.3854 36.6884 37.2059C47.1603 40.8847 51.704 42.4299 52.6102 42.6015C54.2465 42.9326 55.8324 42.9326 57.456 42.6138C58.3874 42.4299 64.7688 40.2348 81.0179 34.5203C93.2772 30.2161 104.253 26.3656 105.398 25.9609C108.255 24.9553 108.985 24.4648 109.652 23.1159C110.105 22.1717 110.118 20.6388 109.677 19.7559C109.287 18.9833 108.796 18.4438 108.054 17.99C107.399 17.5731 59.8726 0.822078 58.0602 0.35609C56.8141 0.0372563 54.8632 -0.085372 53.5291 0.061782ZM56.3736 5.46969C57.0659 5.59232 101.433 21.1906 101.647 21.3868C101.735 21.4727 57.8588 37.0465 56.6757 37.353C55.9205 37.537 53.9948 37.5125 53.2144 37.304C52.6354 37.1446 29.1491 28.8059 28.2932 28.4502C28.0289 28.3399 27.9785 28.2786 28.1044 28.2295C30.3448 27.506 56.0338 18.0636 56.4617 17.8061C57.4938 17.1807 57.9343 16.1138 57.67 14.8998C57.5567 14.3725 57.4057 14.1273 56.9274 13.6613C56.2603 13.0113 55.8198 12.8764 54.7499 12.9623C53.8437 13.0481 25.1088 23.6187 23.4474 24.4893C22.7929 24.8204 21.9873 25.2864 21.6727 25.5194C21.3454 25.7524 21.0308 25.9364 20.9804 25.9364C20.6909 25.9486 8.34361 21.4727 8.43171 21.3868C8.62051 21.2274 53.0004 5.59232 53.6172 5.48195C54.473 5.31027 55.5051 5.31027 56.3736 5.46969ZM11.7042 63.1418C11.7671 65.8519 11.6287 68.7704 11.4399 68.9544C11.3769 69.0157 7.39962 68.1573 7.22341 68.0469C7.19824 68.0224 7.38704 67.6913 7.62618 67.2989C8.24292 66.3179 11.3644 60.1374 11.3644 59.9044C11.3769 59.7695 11.4021 59.7695 11.5154 59.9535C11.5909 60.1006 11.6664 61.3269 11.7042 63.1418Z" fill="#7364CB"/>
<path d="M24.5804 38.7756C24.5804 38.8124 24.014 44.208 23.3092 50.7564C22.5036 58.3839 22.0631 62.9211 22.1008 63.3871C22.3022 65.6925 24.8321 68.1451 28.9982 70.0703C36.0718 73.3445 44.8446 75 55.0397 75C63.888 75 71.83 73.7124 78.3876 71.223C81.3454 70.0949 84.127 68.562 85.7129 67.2008C86.9967 66.0972 88.0162 64.2578 88.0162 63.0315C88.0162 62.5532 85.5241 38.7879 85.4612 38.7388C85.3605 38.653 80.263 40.5292 80.2378 40.6641C80.2252 40.7622 80.7412 45.7409 81.3957 51.7497L82.5915 62.6636L82.1887 63.0683C80.4392 64.8464 74.3977 67.2622 68.9855 68.3535C58.073 70.5363 44.6558 69.9968 35.4677 66.9924C32.5099 66.0236 28.7213 64.037 27.878 62.9947L27.5004 62.541L28.6836 51.7497C29.3381 45.8145 29.8541 40.848 29.8289 40.7254C29.8164 40.5537 29.5772 40.4188 28.9857 40.2103C28.5325 40.0632 27.362 39.6585 26.3803 39.3274C25.3859 38.9841 24.5804 38.7388 24.5804 38.7756Z" fill="#7364CB"/>
</svg>
