<svg width="79" height="58" viewBox="0 0 79 58" fill="none" xmlns="http://www.w3.org/2000/svg">
<path fill-rule="evenodd" clip-rule="evenodd" d="M2 18.3871C2 8.9851 10.1441 1.36328 20.1903 1.36328L58.8097 1.36328C68.8559 1.36328 77 8.9851 77 18.3871V39.3395C77 48.7415 68.8559 56.3633 58.8097 56.3633H20.1903C10.1441 56.3633 2 48.7415 2 39.3395V18.3871ZM18.9597 14.5912C17.9558 13.4913 16.1894 13.3613 15.0142 14.3008C13.8389 15.2402 13.7 16.8934 14.7038 17.9933L24.8841 29.1473C32.7042 37.7155 46.8548 37.7155 54.6749 29.1474L64.8552 17.9933C65.859 16.8934 65.7201 15.2402 64.5449 14.3008C63.3697 13.3613 61.6032 13.4913 60.5994 14.5912L50.4191 25.7453C44.8333 31.8654 34.7257 31.8654 29.14 25.7453L18.9597 14.5912Z" stroke="#0C1E8E" stroke-width="2.72727" stroke-linecap="round" stroke-linejoin="round"/>
</svg>
