<svg width="75" height="75" viewBox="0 0 75 75" fill="none" xmlns="http://www.w3.org/2000/svg">
<path d="M27.7688 0.0565151C26.7218 0.24441 25.9433 0.75441 25.4466 1.5731C25.2989 1.81467 24.6278 4.17678 23.9566 6.82073C23.2854 9.4781 22.6948 11.6792 22.668 11.7194C22.6277 11.7597 20.4397 11.1692 17.7953 10.4176C15.1643 9.666 12.8152 9.04863 12.587 9.04863C11.8487 9.04863 10.7883 9.45126 10.2514 9.93442C9.60705 10.5249 9.21777 11.3168 9.09696 12.2697C9.02984 12.9407 9.15065 13.4373 10.3319 17.5039C11.0433 19.9734 11.6608 22.161 11.6877 22.3489C11.7548 22.6978 11.7279 22.6978 9.62047 23.2481C8.45264 23.5568 6.23779 24.1205 4.6941 24.4963C2.39871 25.0734 1.79466 25.2747 1.33826 25.6102C0.130162 26.5229 -0.353078 28.5226 0.304666 29.8781C0.573133 30.4418 2.06313 31.9718 6.18409 35.931L7.83517 37.5013L6.18409 39.0715C2.06313 43.0308 0.613403 44.5205 0.318089 45.111C-0.487312 46.7216 0.304666 49.03 1.92889 49.8487C2.34502 50.05 6.86868 51.2042 10.4124 52.0095C11.3118 52.1973 11.7279 52.3584 11.7279 52.4792C11.7279 52.5866 11.1507 54.6534 10.4259 57.0692C8.96273 62.0484 8.85534 62.7866 9.43255 63.9676C10.05 65.256 11.5669 66.0881 12.9092 65.8868C13.2582 65.8466 14.775 65.4574 16.2919 65.0279C19.8893 64.0079 22.574 63.3234 22.6545 63.4039C22.6814 63.4442 23.2854 65.6587 23.9835 68.3429C25.4063 73.8187 25.4332 73.8992 26.8024 74.5971C27.8225 75.1205 28.9635 75.1339 29.9166 74.6374C30.6012 74.2884 33.1919 71.8189 36.0913 68.7858L37.5545 67.2558L41.058 70.8258C44.9105 74.7716 45.1924 74.9729 46.5615 74.9729C48.1321 74.9729 49.5684 73.9932 50.0248 72.5839C50.253 71.9129 51.6624 66.2089 52.0651 64.3031C52.1993 63.6992 52.3604 63.2697 52.4544 63.2697C52.5484 63.2697 54.5887 63.8334 57.0049 64.5313C59.4077 65.2292 61.6897 65.8331 62.0521 65.8868C63.4213 66.0747 64.9515 65.2695 65.5422 64.0347C66.1194 62.8537 66.0657 62.3034 65.1126 58.975C64.0387 55.2171 63.3273 52.4389 63.4078 52.345C63.4481 52.3181 65.4885 51.7679 67.9315 51.1371C70.388 50.4929 72.6565 49.8621 72.9653 49.7279C74.6969 48.9763 75.5023 46.7752 74.67 45.0708C74.3613 44.4266 72.5357 42.5208 68.804 38.9105L67.2872 37.4476L70.9786 33.8105C74.2808 30.576 74.6835 30.1197 74.8311 29.5829C75.0996 28.5763 75.019 27.6368 74.5895 26.7779C73.9586 25.5297 73.5425 25.3015 70.3074 24.4963C64.6831 23.1005 63.2736 22.6978 63.2736 22.5368C63.2736 22.4428 63.8508 20.376 64.5623 17.9602C66.0388 12.9542 66.1462 12.2026 65.5824 11.0349C65.0186 9.86731 63.7032 9.04863 62.4145 9.04863C62.1863 9.04863 59.8372 9.666 57.2063 10.4176C54.5619 11.1692 52.3738 11.7597 52.3336 11.7194C52.2933 11.6792 51.7564 9.61231 51.1255 7.12942C50.4946 4.6331 49.8637 2.3381 49.7294 2.02941C49.4476 1.3852 48.8167 0.687305 48.226 0.378621C47.1924 -0.144801 45.6622 -0.0911166 44.7494 0.512831C44.4809 0.687305 42.7627 2.39178 40.9237 4.29757C39.0713 6.21678 37.541 7.77363 37.5008 7.77363C37.4605 7.77363 35.8765 6.1631 33.9704 4.1902C31.5408 1.68046 30.3461 0.539673 29.9434 0.351779C29.2588 0.029673 28.4937 -0.0776955 27.7688 0.0565151ZM35.353 11.9073C36.5343 12.4844 37.4202 12.6052 38.4404 12.3502C38.9236 12.2294 39.5814 11.961 39.917 11.7731C40.2526 11.5718 41.756 10.1492 43.2728 8.60573L46.0246 5.80073L46.9374 9.46468C47.4341 11.4913 47.971 13.4105 48.1321 13.746C48.8167 15.1552 50.4275 16.2692 51.9711 16.3765C52.79 16.4436 53.2329 16.3497 56.7633 15.3699C58.911 14.7928 60.6695 14.3231 60.6829 14.3365C60.6963 14.3499 60.2534 16.0142 59.6896 18.0407C58.4815 22.4026 58.4009 23.2078 59.005 24.5097C59.4748 25.5163 60.3473 26.3618 61.4078 26.8718C61.9179 27.1134 63.6495 27.61 65.7435 28.12L69.2336 28.9655L66.4147 31.7168C64.8173 33.2871 63.4347 34.75 63.2333 35.1123C62.6561 36.1055 62.4145 37.2597 62.589 38.1455C62.8978 39.6755 63.2736 40.1855 66.3476 43.2187L69.2336 46.0505L65.7435 46.8826C60.8574 48.0502 59.9312 48.5468 58.9916 50.5197C58.4009 51.7813 58.4815 52.6134 59.6896 56.9618C60.2399 58.9884 60.6963 60.666 60.6829 60.6795C60.6695 60.6929 59.0184 60.25 57.0318 59.6863C52.7229 58.4918 51.7832 58.3979 50.5214 58.9884C49.6086 59.4179 48.6153 60.411 48.1589 61.3505C47.9576 61.7397 47.4072 63.6724 46.9105 65.6318L46.0246 69.1884L43.152 66.276C40.1049 63.2026 39.7156 62.9074 38.1988 62.5853C37.3263 62.4108 36.4806 62.5718 35.3799 63.1221C34.7758 63.4308 33.9839 64.1421 31.7958 66.3431L28.9769 69.1884L28.091 65.6318C27.5943 63.6724 27.044 61.7397 26.8426 61.3505C26.3862 60.411 25.3929 59.4179 24.4801 58.9884C23.2183 58.3979 22.2787 58.4918 17.9698 59.6863C15.9831 60.25 14.3321 60.6929 14.3186 60.6795C14.3052 60.666 14.7616 58.9884 15.312 56.9618C16.5201 52.6 16.6006 51.7813 15.9966 50.4929C15.5402 49.5131 14.5468 48.52 13.6072 48.0771C13.2045 47.8892 11.2984 47.3658 9.37885 46.896C7.45931 46.4397 5.87536 46.0505 5.84851 46.0371C5.83509 46.0102 7.09688 44.7352 8.66741 43.1918C11.7279 40.1855 12.1038 39.6755 12.4125 38.1455C12.587 37.2597 12.3454 36.1055 11.7682 35.1123C11.5669 34.75 10.1843 33.2871 8.58687 31.7168L5.76797 28.9655L9.25804 28.12C11.3521 27.61 13.0837 27.1134 13.5938 26.8718C14.6677 26.3618 15.5402 25.5028 15.9966 24.5097C16.6006 23.1944 16.5201 22.3757 15.312 18.0407C14.7482 16.0142 14.3052 14.3499 14.3186 14.3365C14.3321 14.3231 16.1039 14.7928 18.2383 15.3699C21.7686 16.3497 22.2116 16.4436 23.0304 16.3765C24.6412 16.2557 26.2117 15.1418 26.9097 13.6118C27.0843 13.2092 27.6346 11.2765 28.1044 9.34389L28.9769 5.80073L31.7958 8.67284C34.0107 10.9276 34.7758 11.6255 35.353 11.9073Z" fill="#7364CB"/>
</svg>
