<svg width="70" height="70" viewBox="0 0 70 70" fill="none" xmlns="http://www.w3.org/2000/svg">
<g clip-path="url(#clip0_6864_5)">
<path d="M70 35C70 54.33 54.33 70 35 70C15.67 70 0 54.33 0 35C0 15.67 15.67 0 35 0C54.33 0 70 15.67 70 35Z" fill="#E4754A"/>
<path fill-rule="evenodd" clip-rule="evenodd" d="M34.9993 70.0001C36.6476 70.0001 38.2694 69.8862 39.8571 69.6658V47.0455H45.0905C48.5145 47.0455 50.3484 47.0056 50.3952 46.9301C50.4346 46.8666 50.5095 46.4196 50.5615 45.9369C50.6137 45.4541 50.7356 44.4972 50.8325 43.8104C51.0529 42.2479 51.2334 40.8153 51.3756 39.497C51.4362 38.9351 51.5325 38.2966 51.5896 38.0781C51.6466 37.8596 51.7289 37.2798 51.7724 36.7897C51.8348 36.0857 51.8181 35.8776 51.6923 35.7982C51.6048 35.743 48.9062 35.6971 45.6952 35.6961L39.8571 35.6943V33.7646C39.8571 30.1731 40.4623 28.2607 41.9597 27.1219C43.7792 25.7378 46.5953 25.3194 50.7087 25.8218C51.5865 25.9291 51.8563 25.9282 51.9902 25.8175C52.1359 25.697 52.1597 24.9223 52.1597 20.3021V14.9267L51.9034 14.7664C51.7416 14.6652 50.8483 14.5362 49.4828 14.4169C48.2924 14.3129 46.9853 14.1957 46.578 14.1564C45.5967 14.0618 42.2423 14.0609 41.452 14.1552C39.2462 14.4181 37.2543 14.815 36.212 15.1993C35.93 15.3032 35.5553 15.4339 35.379 15.4895C34.7458 15.6894 33.1801 16.541 32.4395 17.0881C30.9809 18.1656 29.3824 20.0997 28.5712 21.7686C28.388 22.1452 28.2382 22.4979 28.2382 22.5524C28.2382 22.6068 28.1369 22.8605 28.0128 23.1161C27.7126 23.7352 27.1039 25.9685 26.9204 27.124C26.729 28.3293 26.628 29.8891 26.5657 32.5996L26.5003 35.6915L18.4988 35.7511L18.4692 41.3063C18.4529 44.3649 18.4843 46.9063 18.5391 46.9609C18.5938 47.0154 20.414 47.0555 22.584 47.0501L26.5003 47.0403V68.9611C29.2212 69.6399 32.0681 70.0001 34.9993 70.0001Z" fill="#EEE8DC"/>
</g>
<defs>
<clipPath id="clip0_6864_5">
<rect width="70" height="70" fill="white"/>
</clipPath>
</defs>
</svg>
