<svg width="70" height="70" viewBox="0 0 70 70" fill="none" xmlns="http://www.w3.org/2000/svg">
<path d="M70 35C70 54.33 54.33 70 35 70C15.67 70 0 54.33 0 35C0 15.67 15.67 0 35 0C54.33 0 70 15.67 70 35Z" fill="#EEE8DC"/>
<path d="M39.8579 69.6656C56.8886 67.3008 70 52.6816 70 35C70 15.67 54.33 0 35 0C15.67 0 0 15.67 0 35C0 51.3989 11.2781 65.1636 26.501 68.961V47.0402L22.5847 47.05C20.4147 47.0554 18.5945 47.0153 18.5398 46.9608C18.485 46.9062 18.4536 44.3648 18.4699 41.3062L18.4995 35.7509L26.501 35.6913L26.5664 32.5994C26.6287 29.8889 26.7297 28.3292 26.9211 27.1239C27.1046 25.9684 27.7133 23.7351 28.0135 23.116C28.1376 22.8604 28.2389 22.6067 28.2389 22.5523C28.2389 22.4978 28.3887 22.1451 28.5719 21.7685C29.3831 20.0996 30.9816 18.1655 32.4402 17.088C33.1808 16.5409 34.7466 15.6893 35.3798 15.4894C35.5561 15.4338 35.9308 15.3031 36.2128 15.1992C37.2551 14.8149 39.2469 14.418 41.4527 14.1551C42.243 14.0608 45.5974 14.0616 46.5787 14.1562C46.986 14.1955 48.2931 14.3127 49.4835 14.4167C50.849 14.536 51.7423 14.665 51.9041 14.7662L52.1604 14.9265V20.3019C52.1604 24.9221 52.1366 25.6969 51.9909 25.8174C51.857 25.9281 51.5872 25.929 50.7094 25.8217C46.596 25.3193 43.78 25.7377 41.9605 27.1218C40.4631 28.2606 39.8579 30.1729 39.8579 33.7644V35.6941L45.6959 35.6959C48.9069 35.6969 51.6055 35.7428 51.693 35.798C51.8188 35.8774 51.8355 36.0855 51.7731 36.7895C51.7296 37.2796 51.6473 37.8594 51.5903 38.0779C51.5332 38.2964 51.4369 38.9349 51.3763 39.4968C51.2341 40.8151 51.0536 42.2478 50.8332 43.8103C50.7363 44.4971 50.6144 45.454 50.5622 45.9368C50.5102 46.4195 50.4353 46.8665 50.3959 46.93C50.3491 47.0055 48.5152 47.0454 45.0912 47.0454H39.8579V69.6656Z" fill="#E4754A"/>
</svg>
