<svg width="1450" height="635" viewBox="0 0 1450 635" fill="none" xmlns="http://www.w3.org/2000/svg">
<path d="M1112.31 410.814C1108.94 405.622 1113.05 399.527 1120.76 398.265C1216.43 382.614 1322.52 420.24 1364.29 484.638C1367.66 489.83 1363.56 495.925 1355.84 497.187C1260.17 512.838 1154.08 475.212 1112.31 410.814Z" fill="#F6D66F"/>
<path d="M192.961 554.779C187.92 550.851 189.18 544.571 195.555 541.85C274.629 508.094 383.93 519.641 446.462 568.356C451.503 572.284 450.243 578.564 443.868 581.286C364.794 615.042 255.493 603.495 192.961 554.779Z" fill="#F6D66F"/>
<path d="M402.667 443.215C399.22 439.542 401.336 434.517 407.024 432.87C477.572 412.441 565.027 431.839 607.784 477.4C611.231 481.073 609.115 486.098 603.427 487.745C532.879 508.173 445.423 488.775 402.667 443.215Z" fill="#E4754A"/>
<path d="M932.046 221.044C929.816 217.602 932.214 213.875 936.983 213.371C996.132 207.118 1063.14 235.246 1090.8 277.938C1093.03 281.38 1090.63 285.107 1085.86 285.611C1026.71 291.863 959.708 263.736 932.046 221.044Z" fill="#E4754A"/>
<path d="M1229.31 263.933C1224.01 261.381 1223.34 255.949 1227.92 252.75C1284.73 213.072 1379.27 206.883 1444.95 238.542C1450.24 241.095 1450.92 246.527 1446.34 249.726C1389.53 289.403 1294.99 295.592 1229.31 263.933Z" fill="#0C1E8E"/>
<path d="M0.328161 420.932C-1.03776 417.733 2.01527 414.453 6.61356 414.177C63.648 410.763 120.748 438.747 137.69 478.417C139.056 481.615 136.003 484.896 131.405 485.171C74.3703 488.586 17.2702 460.601 0.328161 420.932Z" fill="#7364CB"/>
<path d="M729.932 506.87C724.704 505.537 723.103 499.89 726.636 495.246C770.462 437.637 854.345 405.939 919.195 422.481C924.423 423.815 926.024 429.461 922.491 434.106C878.666 491.715 794.782 523.412 729.932 506.87Z" fill="#7364CB"/>
<path d="M1449.95 4.53987C1449.82 1.12844 1445.56 -0.889558 1441.19 0.385221C1386.97 16.197 1346.38 61.0618 1348.03 103.375C1348.16 106.786 1352.42 108.804 1356.79 107.53C1411.01 91.7179 1451.59 46.8531 1449.95 4.53987Z" fill="#7364CB"/>
<path d="M712.403 587.812C713.098 585.691 710.94 583.711 707.96 583.736C671.002 584.051 635.818 604.607 627.194 630.924C626.498 633.045 628.656 635.025 631.636 635C668.594 634.685 703.778 614.129 712.403 587.812Z" fill="#0C1E8E"/>
<path d="M802.346 315.588C804.321 314.585 804.18 311.642 802.055 309.529C775.701 283.321 736.45 272.695 711.953 285.135C709.978 286.139 710.119 289.082 712.244 291.195C738.598 317.403 777.849 328.029 802.346 315.588Z" fill="#F6D66F"/>
<path d="M922.769 602.889C916.874 602.793 912.634 598.776 914.041 594.62C931.483 543.074 1001.39 504.212 1074.5 505.41C1080.4 505.506 1084.64 509.523 1083.23 513.679C1065.79 565.225 995.888 604.087 922.769 602.889Z" fill="#E4754A"/>
</svg>
