<svg width="50" height="50" viewBox="0 0 50 50" fill="none" xmlns="http://www.w3.org/2000/svg">
<path d="M21.4173 0.192035C18.6741 0.600224 14.5751 2.04458 12.368 3.33195C9.87703 4.8391 5.93568 8.6384 4.26454 11.1189C2.40423 13.882 1.0484 17.3046 0.449314 20.7271C-0.149771 24.181 -0.149771 25.7509 0.449314 29.2048C1.42677 34.7625 3.9177 39.2839 8.14283 43.2402C11.1383 46.0033 13.3139 47.3535 16.7507 48.5467C23.4038 50.8074 29.8045 50.4306 36.0791 47.4163C42.4799 44.3392 47.2411 38.7187 49.3851 31.7167C50.2049 29.0164 50.2049 20.9155 49.3851 18.2151C47.8717 13.2541 44.7501 8.5756 40.8088 5.40429C38.5385 3.58314 33.9981 1.3538 31.1603 0.663022C28.5117 0.00364057 24.0028 -0.184754 21.4173 0.192035ZM26.8091 9.86296C27.5658 10.4595 27.5658 10.5537 27.6604 17.0848L27.755 23.6786L32.1378 26.6929C36.3944 29.5816 37.1827 30.3352 37.1827 31.4028C37.1827 32.1249 35.4801 33.7577 34.6918 33.7577C34.0296 33.7577 23.7506 27.1639 23.0884 26.2847C22.7731 25.9079 22.6785 23.8042 22.6785 18.3093V10.8049L23.4668 10.0514C24.3812 9.10938 25.8001 9.04658 26.8091 9.86296Z" fill="#0C1E8E"/>
</svg>
