<svg width="70" height="70" viewBox="0 0 70 70" fill="none" xmlns="http://www.w3.org/2000/svg">
<path d="M70 35C70 54.33 54.33 70 35 70C15.67 70 0 54.33 0 35C0 15.67 15.67 0 35 0C54.33 0 70 15.67 70 35Z" fill="#E4754A"/>
<path fill-rule="evenodd" clip-rule="evenodd" d="M17.8713 27.7189C17.8713 21.4577 22.947 16.382 29.2082 16.382H42.279C48.5402 16.382 53.6159 21.4577 53.6159 27.7189V40.7897C53.6159 47.051 48.5402 52.1267 42.279 52.1267H29.2082C22.947 52.1267 17.8713 47.051 17.8713 40.7897V27.7189ZM28.0078 35.3213C28.0078 31.049 31.4712 27.5856 35.7436 27.5856C40.016 27.5856 43.4794 31.049 43.4794 35.3213C43.4794 39.5937 40.016 43.0571 35.7436 43.0571C31.4712 43.0571 28.0078 39.5937 28.0078 35.3213ZM45.48 25.985C46.4376 25.985 47.2139 25.2088 47.2139 24.2512C47.2139 23.2936 46.4376 22.5173 45.48 22.5173C44.5224 22.5173 43.7461 23.2936 43.7461 24.2512C43.7461 25.2088 44.5224 25.985 45.48 25.985Z" fill="#EEE8DC"/>
</svg>
