<svg width="78" height="78" viewBox="0 0 78 78" fill="none" xmlns="http://www.w3.org/2000/svg">
<path fill-rule="evenodd" clip-rule="evenodd" d="M1.5 25.2873C1.5 12.1499 12.1499 1.5 25.2873 1.5L52.7127 1.5C65.8501 1.5 76.5 12.1499 76.5 25.2873V52.7127C76.5 65.8501 65.8501 76.5 52.7127 76.5H25.2873C12.1499 76.5 1.5 65.8501 1.5 52.7127L1.5 25.2873ZM22.7687 41.2388C22.7687 32.2745 30.0357 25.0075 39 25.0075C47.9643 25.0075 55.2313 32.2745 55.2313 41.2388C55.2313 50.2031 47.9643 57.4702 39 57.4702C30.0357 57.4702 22.7687 50.2031 22.7687 41.2388ZM59.4291 21.6493C61.4384 21.6493 63.0672 20.0204 63.0672 18.0112C63.0672 16.0019 61.4384 14.3731 59.4291 14.3731C57.4199 14.3731 55.791 16.0019 55.791 18.0112C55.791 20.0204 57.4199 21.6493 59.4291 21.6493Z" stroke="#0C1E8E" stroke-width="3"/>
</svg>
