<svg width="70" height="70" viewBox="0 0 70 70" fill="none" xmlns="http://www.w3.org/2000/svg">
<path d="M70 35C70 54.33 54.33 70 35 70C15.67 70 0 54.33 0 35C0 15.67 15.67 0 35 0C54.33 0 70 15.67 70 35Z" fill="#E4754A"/>
<path fill-rule="evenodd" clip-rule="evenodd" d="M19.9304 14.3533C18.348 14.9449 17.1654 16.4391 16.8895 18.1955C16.5785 20.1761 18.03 22.4676 19.9637 23.0484C21.215 23.4242 21.526 23.426 22.7259 23.063C23.874 22.716 24.6614 22.0774 25.2917 20.9825C27.3432 17.4183 23.7188 12.9366 19.9304 14.3533ZM41.7553 27.0199C39.9138 27.6868 39.0975 28.1728 37.8608 29.3385L36.7294 30.4049V26.9528H29.4671L29.5628 52.6323L37.0749 52.7348L37.1348 45.2923C37.1348 45.2923 37.1634 40.8425 37.1947 37.85C37.2129 36.1106 38.45 34.9372 39.641 34.4008C42.4061 33.1556 45.2959 34.0496 46.3382 36.1851C46.6587 36.8422 46.6959 37.5631 46.7812 44.7673L46.8743 52.6323H54.5062V43.6303C54.5062 33.6996 54.5457 34.087 53.2605 31.4065C52.2939 29.3904 50.2459 27.6757 47.9385 26.95C46.1887 26.3998 43.3801 26.4315 41.7553 27.0199ZM17.4572 27.1859C17.4075 27.3182 17.3887 33.0979 17.4152 40.0294L17.4634 52.6323H25.2815V27.0476L21.4145 26.9964C18.4224 26.9566 17.5272 26.9997 17.4572 27.1859Z" fill="#EEE8DC"/>
</svg>
