<svg width="77" height="77" viewBox="0 0 77 77" fill="none" xmlns="http://www.w3.org/2000/svg">
<path fill-rule="evenodd" clip-rule="evenodd" d="M29.0072 1.16887C25.9646 1.48248 21.8673 2.62868 19.0812 3.9455C10.7302 7.89236 4.40282 15.6052 2.00739 24.7577C0.828349 29.2627 0.67501 34.5538 1.59621 38.9563C2.54358 43.4841 4.53366 47.7451 7.44143 51.4718C8.66148 53.0353 31.1267 75.3907 31.865 75.776C32.4382 76.075 33.0597 76.0747 33.6317 75.775C34.1726 75.4915 41.7182 68.0191 41.9811 67.5067C42.3287 66.8286 42.2034 66.0279 41.6527 65.4088C41.0702 64.7537 40.33 64.5431 39.5803 64.819C39.3061 64.9199 37.6554 66.4065 35.9117 68.1225L32.7415 71.2427L21.9038 60.5046C10.056 48.7656 9.70535 48.3708 7.83195 44.6657C6.57773 42.1849 5.79887 39.83 5.32785 37.0937C5.00784 35.2348 4.97167 34.5629 5.04901 31.9137C5.18351 27.3033 6.00004 24.0949 8.08512 19.9845C12.0476 12.1732 19.147 6.88355 27.7675 5.31942C30.3026 4.85937 35.9868 4.89458 38.2486 5.38409C43.8786 6.60268 48.49 9.15324 52.5024 13.2683C53.4632 14.2534 54.756 15.7604 55.3754 16.617C56.7381 18.5017 58.6325 22.2109 59.3224 24.3448C60.7171 28.6593 61.0171 33.2949 60.1529 37.1791C59.6334 39.5146 59.5729 40.3873 59.8972 40.8758C60.5386 41.8423 62.1023 42.0475 62.9355 41.2747C64.2506 40.0551 65.0219 32.3134 64.2699 27.8825C62.7397 18.8668 57.7956 11.2194 50.2667 6.22275C44.8995 2.66076 39.0426 0.935219 32.5465 1.00186C31.3742 1.01387 29.7814 1.08907 29.0072 1.16887ZM29.7749 18.9049C27.8105 19.3278 25.2663 20.5686 23.7259 21.8547C20.6084 24.4579 18.8352 28.2098 18.8324 32.2086C18.8269 40.2231 24.7056 46.0822 32.7484 46.0783C41.0165 46.0743 46.9387 39.9269 46.6291 31.6701C46.5662 29.9967 46.4724 29.452 46.0184 28.1293C44.4577 23.5822 40.7988 20.1935 36.1652 19.0033C34.4706 18.568 31.549 18.523 29.7749 18.9049ZM31.3317 22.7124C26.3411 23.3532 22.8223 27.3611 22.7968 32.433C22.7887 34.065 23.0477 35.1378 23.8522 36.807C24.9808 39.1478 27.1305 40.9255 29.9983 41.8892C30.6971 42.1242 31.3703 42.1943 32.8317 42.1849C34.5054 42.1739 34.907 42.1138 35.9985 41.7105C38.9849 40.6071 41.1457 38.4768 42.1912 35.6047C42.6869 34.2433 42.8039 31.5544 42.4307 30.1018C41.4985 26.4734 38.8604 23.7938 35.4031 22.9642C34.0368 22.6362 32.6117 22.5481 31.3317 22.7124ZM59.9161 45.8461C53.9642 46.2956 49.2078 49.3734 46.9846 54.2137C46.0184 56.3177 45.6397 57.9629 45.5467 60.4617C45.4735 62.4302 45.5119 62.9752 45.811 64.2089C46.9284 68.8161 49.8444 72.4278 54.0825 74.4536C64.1784 79.2796 76 72.0571 76 61.0627C76 54.098 71.7777 48.346 65.3076 46.4966C63.6519 46.0232 61.3108 45.7408 59.9161 45.8461ZM58.416 49.9271C55.1225 50.6407 52.1069 52.9275 50.6889 55.7866C49.763 57.6534 49.4832 58.8135 49.482 60.7907C49.479 65.6056 52.1941 69.6041 56.5616 71.2172C58.064 71.7722 58.9524 71.9208 60.7773 71.9228C64.3811 71.9267 67.6989 70.3861 69.6908 67.7838C72.445 64.1851 72.7674 58.963 70.47 55.1564C68.0292 51.1123 63.005 48.9326 58.416 49.9271ZM64.7479 56.0296C64.2899 56.1851 63.398 56.9448 61.6425 58.6751L59.1795 61.1024L58.1172 60.0954C56.8744 58.9174 56.2201 58.7016 55.2581 59.1522C54.5269 59.4948 54.1658 60.1237 54.1658 61.0553C54.1658 61.7181 54.2489 61.8305 56.1171 63.6977C58.1952 65.7749 58.7048 66.073 59.7097 65.7991C60.0989 65.6931 61.2601 64.6532 63.7932 62.1426L67.333 58.6343V57.8641C67.333 56.4697 66.0771 55.5786 64.7479 56.0296Z" fill="#7364CB" stroke="#7364CB" stroke-width="1.5"/>
</svg>
