<svg width="29" height="29" viewBox="0 0 29 29" fill="none" xmlns="http://www.w3.org/2000/svg">
<path d="M0.9368 25.9419C0.35242 26.5291 0.354697 27.4788 0.941886 28.0632C1.52908 28.6476 2.47882 28.6453 3.0632 28.0581L0.9368 25.9419ZM25.5 9.77531C25.5 13.2479 22.7003 16.0506 19.2619 16.0506V19.0506C24.3707 19.0506 28.5 14.8911 28.5 9.77531H25.5ZM19.2619 16.0506C15.8235 16.0506 13.0238 13.2479 13.0238 9.77531H10.0238C10.0238 14.8911 14.153 19.0506 19.2619 19.0506V16.0506ZM13.0238 9.77531C13.0238 6.30276 15.8235 3.5 19.2619 3.5V0.5C14.153 0.5 10.0238 4.65949 10.0238 9.77531H13.0238ZM19.2619 3.5C22.7003 3.5 25.5 6.30276 25.5 9.77531H28.5C28.5 4.65949 24.3707 0.5 19.2619 0.5V3.5ZM12.7219 14.1001L0.9368 25.9419L3.0632 28.0581L14.8483 16.2163L12.7219 14.1001Z" fill="#E4754A"/>
</svg>
