<svg width="38" height="50" viewBox="0 0 38 50" fill="none" xmlns="http://www.w3.org/2000/svg">
<path d="M16.095 0.17194C11.4785 0.991896 8.14425 2.72642 5.13064 5.84855C0.674351 10.5475 -0.992751 16.7287 0.578172 22.8469C1.79644 27.5774 6.95805 36.3131 13.9471 45.4587C15.6783 47.7294 17.3133 49.6846 17.6019 49.8108C17.8904 49.9054 18.6278 50 19.2048 50C20.4872 50 21.6414 48.8331 25.6168 43.3773C31.9005 34.7993 36.3568 26.9466 37.4788 22.6892C39.7871 13.5751 34.2088 3.8302 25.0718 0.960359C22.3146 0.108867 18.4033 -0.238038 16.095 0.17194ZM22.6352 13.6066C26.3541 16.1611 26.3541 21.3962 22.6352 23.9506C20.3269 25.559 17.0248 25.4013 14.8447 23.6037C11.1899 20.5762 12.0555 14.8996 16.4798 12.9443C18.243 12.1874 21.0002 12.4713 22.6352 13.6066Z" fill="#0C1E8E"/>
</svg>
