<svg width="75" height="75" viewBox="0 0 75 75" fill="none" xmlns="http://www.w3.org/2000/svg">
<path d="M33.7815 0.126241C28.6306 0.695283 24.5635 1.89778 20.3677 4.07732C13.9505 7.40567 9.03568 12.0117 5.29054 18.2067C1.78147 24.0152 0.0108469 30.4465 0.000115808 37.4253C-0.0213463 46.4548 2.94043 54.6146 8.77813 61.6471C12.6091 66.2531 18.1249 70.2364 23.7158 72.4267C30.7125 75.1752 38.6642 75.7443 46.1223 74.0264C56.5529 71.6214 65.6206 64.5567 70.7716 54.8186C74.8064 47.1956 76.0405 37.7688 74.0982 29.2332C73.9265 28.4817 73.7548 27.8267 73.7119 27.7945C73.6689 27.7516 72.7675 28.589 71.7052 29.652L69.7736 31.5846L69.9345 32.5508C70.7072 37.1247 70.3208 42.3104 68.8507 47.1956C67.7776 50.7602 65.6636 54.7649 63.1418 58.0396C62.015 59.4998 59.0854 62.3557 57.4972 63.5475C53.2477 66.7148 48.1183 68.9695 43.3322 69.7855C39.1363 70.4941 35.8312 70.4941 31.6353 69.7855C26.7634 68.9587 21.6769 66.704 17.3201 63.4401C15.8714 62.345 12.8667 59.3924 11.8258 58.0396C5.16176 49.3751 3.04774 38.9069 5.87001 28.5998C7.32944 23.2744 10.5488 17.8417 14.53 13.955C16.3757 12.162 18.0283 10.8951 20.3677 9.48858C24.9499 6.71853 28.8131 5.4194 34.2644 4.79667C36.9472 4.48531 39.8446 4.54973 42.3986 4.98993L43.5039 5.17246L45.3818 3.21839C46.412 2.14473 47.2168 1.23211 47.1739 1.21064C46.9486 1.07106 43.4824 0.362447 42.3127 0.212134C40.4133 -0.0240713 35.6058 -0.0777545 33.7815 0.126241Z" fill="#7364CB"/>
<path d="M49.6314 5.67707L44.5663 10.7448V11.55C44.5771 11.9902 44.8346 15.4259 45.1458 19.173L45.7253 25.9908L34.1894 37.5219L35.842 39.1646L37.5053 40.8073L38.3423 39.8947C38.8037 39.3901 41.3792 36.824 44.062 34.1828L48.9339 29.3835L56.113 29.9096C60.062 30.1995 63.4637 30.4679 63.6676 30.5001C64.0432 30.5538 64.0754 30.5216 69.28 25.3466C74.0875 20.5688 74.4953 20.1286 74.2699 20.0427C74.1304 19.989 73.6368 19.7957 73.1646 19.6025C72.6925 19.4092 69.6556 18.2175 66.4041 16.9505C63.1633 15.6836 60.459 14.6099 60.4054 14.5563C60.3517 14.5026 59.3645 12.0332 58.1948 9.05911C55.6408 2.55271 54.8574 0.598648 54.7716 0.598648C54.7394 0.598648 52.4215 2.88555 49.6314 5.67707ZM54.4818 12.4089L55.8447 15.7802L52.9473 18.6791C51.3484 20.2789 50.0284 21.5565 49.9962 21.5243C49.964 21.4921 49.8031 19.4522 49.6421 16.9827L49.3524 12.5056L51.1659 10.6911C52.1639 9.69257 53.0117 8.9088 53.0546 8.95174C53.0868 8.99469 53.7307 10.5515 54.4818 12.4089ZM62.7877 20.5366L66.2538 21.9001L64.3222 23.822L62.4014 25.7546L58.0124 25.411C55.6086 25.2177 53.559 25.0352 53.4838 25.0137C53.3229 24.9601 58.9996 19.173 59.2142 19.173C59.2679 19.173 60.8776 19.785 62.7877 20.5366Z" fill="#7364CB"/>
<path d="M35.7131 14.0839C32.5367 14.406 29.5642 15.2434 26.9566 16.5533C16.4616 21.8035 11.5253 34.0325 15.3885 45.2416C17.3952 51.0501 21.6876 55.8708 27.2356 58.5335C30.5193 60.1118 33.8567 60.8741 37.4838 60.8741C43.8151 60.8741 49.6528 58.4476 54.1169 53.9597C57.8192 50.2448 59.9868 45.7569 60.7165 40.2705C60.899 38.9499 60.9634 35.9222 60.8239 35.2995C60.7595 34.9988 60.7058 34.9559 60.4161 34.9452C60.2229 34.9452 59.2035 34.8593 58.1411 34.7626L56.2095 34.5801L56.1988 37.0495C56.1988 39.0788 56.1558 39.7444 55.9627 40.7537C54.9754 46.1005 52.1853 50.3952 47.8393 53.2404C41.7118 57.2344 33.2557 57.2344 27.1283 53.2404C20.0565 48.6236 17.0303 39.7981 19.6702 31.4665C20.8184 27.859 23.19 24.5628 26.2698 22.3296C28.7701 20.5044 31.41 19.4415 34.7473 18.9046C36.0029 18.7006 38.5032 18.6684 39.5656 18.851C39.9734 18.9154 40.3275 18.9476 40.349 18.9154C40.4241 18.851 39.9841 14.2342 39.909 14.1483C39.8339 14.0732 36.357 14.0195 35.7131 14.0839Z" fill="#7364CB"/>
</svg>
