<svg width="429" height="111" viewBox="0 0 429 111" fill="none" xmlns="http://www.w3.org/2000/svg">
<path d="M405.442 16.5221C412.052 16.5221 417.411 12.8235 417.411 8.26106C417.411 3.6986 412.052 0 405.442 0C398.832 0 393.473 3.6986 393.473 8.26106C393.473 9.94841 394.206 11.5176 395.464 12.8253C390.57 15.9049 384.379 19.4105 377.991 22.8711C373.609 24.9169 368.647 27.0555 363.104 29.1952C345.78 35.8818 322.744 42.5899 293.893 46.5004C298.607 45.3436 303.149 44.1269 307.51 42.8652C325.776 37.5807 340.916 31.4968 352.277 25.7068C361.13 21.1943 368.02 16.6908 372.171 12.7448C373.855 11.1438 372.686 9.35338 369.997 8.86156C367.307 8.36973 364.075 9.3591 362.263 10.9167C359.03 13.6949 353.676 17.2183 346.084 21.0875C335.636 26.4128 321.45 32.1357 304.12 37.1494C284.331 42.8743 260.493 47.6599 233.506 49.8797C181.021 48.9863 149.875 38.5288 127.639 28.5924C108.649 20.1066 99.1879 13.91 94.3425 9.00241C92.8373 7.47788 91.6807 6.30645 90.7358 5.60184C89.8616 4.95 88.2277 4.95189 87.0865 5.60608C85.9452 6.26026 85.7287 7.319 86.6029 7.97084C87.2105 8.42391 88.0918 9.32152 89.3084 10.5606C93.9035 15.2408 104.213 22.6824 124.091 31.3213C142.433 39.2924 164.195 47.5621 198.542 51.2026C188.628 51.1435 178.398 50.717 167.887 49.8611C128.981 46.6927 98.9159 35.1913 78.4851 24.3691C68.2897 18.9685 60.5537 13.7687 55.3765 9.92726C54.0208 8.92136 51.9197 7.27324 50.2267 5.93214C48.6802 4.70714 45.6069 4.55979 43.1914 5.6013C40.5565 6.73737 39.7351 8.83319 41.3962 10.1819L46.6081 14.4137C52.0223 18.431 60.0802 23.8458 70.6947 29.4683C91.8837 40.6921 123.502 52.8708 164.852 56.2383C201.088 59.1893 234.25 57.2407 263.007 52.6977C297.03 50.8833 324.949 45.1088 346.84 38.3859C316.241 51.3061 271.375 62.2502 208.115 60.8499C124.825 59.0063 77.8363 44.3093 50.2267 27.4209C37.3392 19.5378 35.1709 18.017 35.1709 18.017C34.5304 17.2632 33.2289 16.9258 32.2232 17.342C31.0668 17.8205 30.5088 19.2406 31.2476 20.1066C31.2476 20.1066 34.1061 22.2094 47.3913 30.3357C76.2581 47.9931 124.553 62.9122 208.748 64.7758C283.579 66.4322 333.252 51.0485 364.245 35.1841C375.794 29.2727 390.282 21.5877 399.785 15.543C401.47 16.1677 403.396 16.5221 405.442 16.5221Z" fill="#7364CB"/>
<path fill-rule="evenodd" clip-rule="evenodd" d="M30.756 56.2558C26.9079 53.7616 23.5668 51.4657 21.1219 49.7009C20.058 48.933 20.2062 47.7091 21.414 47.0525C22.5044 46.4597 24.067 46.5451 25.0244 47.2403C32.1431 52.41 47.6173 62.6204 60.526 68.2886C88.5926 80.6126 134.577 93.0635 205.958 93.1335C268.722 93.195 315.783 82.249 348.78 70.0048C316.722 79.1641 272.234 86.0122 210.911 86.0121C123.396 86.0121 72.0885 66.6619 42.6767 47.0846C29.546 38.3445 8.72802 19.849 0.566314 10.7914C-0.785329 9.29142 0.382558 7.24417 3.0071 6.27233C5.6317 5.30047 8.72202 5.77005 10.0839 7.26574C18.0061 15.9665 38.214 33.8617 50.6195 42.1191C78.3958 60.6078 127.383 79.3235 212.297 79.3236C300.212 79.3236 351.304 64.9859 380.217 51.106C392.703 45.1123 411.228 29.4201 419.573 21.9356C421.348 20.3437 424.605 19.769 426.912 20.6639C429.219 21.5588 429.699 23.5899 427.925 25.1818L427.671 25.4085C427.51 25.7065 427.331 26.0291 427.134 26.3752C425.898 28.5531 423.959 31.6624 421.138 35.4156C415.496 42.9207 406.317 53.0098 392.154 63.377C363.812 84.1219 315.509 105.975 235.747 110.449C173.787 113.924 122.524 100.386 86.7954 85.9875C68.9423 78.7929 54.9603 71.382 45.4341 65.765C40.6694 62.9556 37.0148 60.5922 34.5432 58.9251C33.3072 58.0914 32.3667 57.4316 31.7307 56.9768C31.4126 56.7494 31.1707 56.5732 31.006 56.4522C30.9237 56.3917 30.8606 56.345 30.817 56.3125L30.7662 56.2745L30.7518 56.2637L30.7473 56.2604C30.7473 56.2604 30.7468 56.26 30.756 56.2558ZM412.655 38.0825L412.395 38.2899L412.453 38.3232L412.553 38.2048L412.655 38.0825ZM406.407 44.9839C401.501 50.0149 395.36 55.5021 387.75 61.0721C359.967 81.4078 312.614 102.853 234.251 107.248C173.855 110.636 123.977 97.4592 89.1547 83.4261C86.5641 82.3821 84.057 81.3334 81.6354 80.2866C110.52 89.4048 150.879 96.7516 205.969 96.8056C278.265 96.8765 330.185 82.532 364.069 68.1205C381.004 60.9179 393.421 53.704 401.621 48.2765C403.418 47.087 405.012 45.9832 406.407 44.9839Z" fill="#7364CB"/>
</svg>
