<svg width="77" height="77" viewBox="0 0 77 77" fill="none" xmlns="http://www.w3.org/2000/svg">
<path d="M3.57985 1.15309C2.08851 1.6148 1.20872 2.72074 1.02633 4.38502C0.972681 4.86819 0.994139 5.1581 1.15508 5.60907C1.29455 6.00635 3.78371 9.87177 8.90149 17.6026C13.0644 23.8839 16.4977 29.0163 16.5513 29.0163C16.5943 29.0163 17.0127 28.662 17.474 28.2325C17.9247 27.803 18.7186 27.0944 19.2336 26.6756L20.1778 25.8918L13.515 15.9061C9.85638 10.4086 6.83077 5.84529 6.79859 5.75939C6.75567 5.63054 7.83931 5.60907 14.2875 5.63054L21.8301 5.66275L25.5101 11.783C27.5379 15.1438 29.5765 18.5368 30.0486 19.3206L30.9069 20.7379L31.615 20.5339C32.3231 20.3299 34.5762 19.9219 35.3273 19.8682L35.7135 19.836L30.6387 11.4072C27.8384 6.76869 25.3385 2.73147 25.081 2.44157C24.8235 2.14092 24.3729 1.77586 24.0724 1.6148C22.9137 0.981298 23.1176 0.992035 13.1502 1.00277C5.92953 1.00277 3.93391 1.03498 3.57985 1.15309Z" fill="#7364CB"/>
<path d="M54.0925 1.16383C53.2342 1.38931 52.4938 1.84028 51.9681 2.44157C51.7106 2.73147 49.2107 6.76869 46.4104 11.4072C41.5394 19.5031 41.3463 19.836 41.6145 19.8682C42.7196 19.9755 44.5114 20.2655 45.3268 20.4802C45.8633 20.6198 46.3032 20.7272 46.3139 20.7164C46.3246 20.7057 48.2988 17.3557 50.7021 13.2862C53.1054 9.20606 55.1332 5.81307 55.1976 5.73791C55.2941 5.64128 56.925 5.60907 62.9118 5.63054L70.4973 5.66275L63.7916 15.7236C60.1008 21.264 57.0859 25.8381 57.0859 25.8811C57.0859 25.9347 57.3434 26.1924 57.6438 26.4501C57.955 26.7078 58.706 27.395 59.3176 27.9641C59.9184 28.5439 60.4548 29.0163 60.4978 29.0163C60.6158 29.0163 75.6151 6.3392 75.8404 5.83455C76.055 5.31916 76.055 4.19174 75.8296 3.44014C75.5614 2.54894 74.9713 1.87249 74.0915 1.42153L73.3512 1.04572L64.0169 1.02425C56.1096 1.00277 54.586 1.02425 54.0925 1.16383Z" fill="#7364CB"/>
<path d="M36.6791 24.5174C31.8189 24.8395 27.4092 26.4931 23.0746 29.6391C21.5833 30.7236 19.1692 33.1395 18.0105 34.7071C14.8347 39.002 13.0429 43.8338 12.7962 48.7407C12.603 52.6169 13.1073 55.8918 14.4377 59.3492C16.1758 63.8696 19.1907 67.9497 22.8171 70.6877C26.4221 73.4043 30.1344 75.0256 34.5011 75.7987C36.0461 76.0671 41.003 76.0671 42.548 75.7987C45.241 75.3262 47.301 74.6605 49.6292 73.5224C55.6267 70.5804 59.9935 65.8667 62.5041 59.6176C63.2015 57.8674 63.6843 56.128 64.0813 53.9268C64.3066 52.6598 64.2637 47.6133 64.0276 46.3034C63.4912 43.458 62.7616 41.2246 61.5921 38.8624C59.0708 33.8052 55.3049 29.9612 50.2729 27.3413C46.0135 25.1187 41.5716 24.1953 36.6791 24.5174ZM40.7777 29.2311C49.5648 30.1545 56.8284 36.468 59.0064 45.0686C60.3797 50.5016 59.4892 56.493 56.6031 61.2389C53.7492 65.9204 49.0713 69.41 43.8784 70.7307C42.0652 71.1924 40.6918 71.3534 38.4709 71.3534C36.2071 71.3534 34.9196 71.1924 32.9991 70.6877C25.2848 68.6476 19.2765 62.1731 17.7745 54.3026C16.1758 45.8846 19.7272 37.3807 26.8191 32.6348C29.4906 30.8417 32.9561 29.5747 36.1427 29.2418C37.3336 29.113 39.5975 29.113 40.7777 29.2311Z" fill="#7364CB"/>
<path d="M37.2692 35.5231C37.0225 35.6198 36.5719 35.9097 36.2714 36.1781C35.7886 36.6076 35.5633 36.9941 34.2651 39.5818L32.8059 42.5131L30.0593 42.8567C28.5465 43.0392 26.9908 43.2969 26.6045 43.415C25.6389 43.7157 24.9308 44.274 24.5231 45.0578C24.2441 45.6162 24.2012 45.7987 24.2012 46.6147C24.2012 48.1502 24.3621 48.4079 27.0444 51.0278L29.2975 53.2289L28.8147 56.3427C28.3641 59.2096 28.3319 59.5102 28.4392 60.1759C28.6323 61.3141 29.2439 62.0979 30.4133 62.7099C30.8532 62.9354 31.1107 62.9891 31.7438 62.9998H32.5377L35.5311 61.4644L38.5246 59.9397L41.518 61.4644L44.5114 62.9998H45.3053C45.9169 62.9891 46.1959 62.9354 46.5714 62.7421C47.7838 62.1086 48.4168 61.3141 48.5992 60.1759C48.7065 59.521 48.6743 59.1881 48.2344 56.3427L47.7516 53.2289L50.0047 51.0278C52.6762 48.4079 52.8479 48.1394 52.8479 46.6255C52.8479 45.8417 52.805 45.6269 52.5475 45.1008C52.1934 44.3814 51.6892 43.8982 50.8845 43.5331C50.4231 43.3291 49.7257 43.2003 47.2795 42.8889L44.2324 42.5024L43.02 39.9254C41.4536 36.5861 41.2176 36.2318 40.091 35.652C39.5116 35.3406 37.9344 35.2762 37.2692 35.5231ZM39.5224 43.5117C40.9922 46.5825 41.239 46.7651 44.608 47.2697C45.7989 47.4415 46.8074 47.5918 46.8503 47.5918C46.8825 47.5918 46.1851 48.3005 45.2946 49.1595C42.8913 51.4895 42.7947 51.7901 43.3419 55.2153C43.5136 56.3105 43.6423 57.2124 43.6209 57.2339C43.6101 57.2447 42.6445 56.7937 41.4751 56.2139L39.3614 55.1616H37.6877L35.574 56.2139C34.4046 56.7937 33.439 57.2447 33.4282 57.2339C33.4068 57.2124 33.557 56.3535 33.7608 55.3227C34.2222 53.0249 34.2114 52.3592 33.7179 51.3069C33.3638 50.5553 33.0312 50.1903 31.1537 48.526C30.6172 48.0428 30.1773 47.6348 30.1988 47.624C30.2095 47.6133 31.2073 47.4523 32.409 47.2697C35.8101 46.7651 36.0569 46.5933 37.5267 43.5117C38.031 42.4487 38.4816 41.579 38.5246 41.579C38.5675 41.579 39.0181 42.4487 39.5224 43.5117Z" fill="#7364CB"/>
<path d="M3.57985 1.15309C2.08851 1.6148 1.20872 2.72074 1.02633 4.38502C0.972681 4.86819 0.994139 5.1581 1.15508 5.60907C1.29455 6.00635 3.78371 9.87177 8.90149 17.6026C13.0644 23.8839 16.4977 29.0163 16.5513 29.0163C16.5943 29.0163 17.0127 28.662 17.474 28.2325C17.9247 27.803 18.7186 27.0944 19.2336 26.6756L20.1778 25.8918L13.515 15.9061C9.85638 10.4086 6.83077 5.84529 6.79859 5.75939C6.75567 5.63054 7.83931 5.60907 14.2875 5.63054L21.8301 5.66275L25.5101 11.783C27.5379 15.1438 29.5765 18.5368 30.0486 19.3206L30.9069 20.7379L31.615 20.5339C32.3231 20.3299 34.5762 19.9219 35.3273 19.8682L35.7135 19.836L30.6387 11.4072C27.8384 6.76869 25.3385 2.73147 25.081 2.44157C24.8235 2.14092 24.3729 1.77586 24.0724 1.6148C22.9137 0.981298 23.1176 0.992035 13.1502 1.00277C5.92953 1.00277 3.93391 1.03498 3.57985 1.15309Z" stroke="#7364CB"/>
<path d="M54.0925 1.16383C53.2342 1.38931 52.4938 1.84028 51.9681 2.44157C51.7106 2.73147 49.2107 6.76869 46.4104 11.4072C41.5394 19.5031 41.3463 19.836 41.6145 19.8682C42.7196 19.9755 44.5114 20.2655 45.3268 20.4802C45.8633 20.6198 46.3032 20.7272 46.3139 20.7164C46.3246 20.7057 48.2988 17.3557 50.7021 13.2862C53.1054 9.20606 55.1332 5.81307 55.1976 5.73791C55.2941 5.64128 56.925 5.60907 62.9118 5.63054L70.4973 5.66275L63.7916 15.7236C60.1008 21.264 57.0859 25.8381 57.0859 25.8811C57.0859 25.9347 57.3434 26.1924 57.6438 26.4501C57.955 26.7078 58.706 27.395 59.3176 27.9641C59.9184 28.5439 60.4548 29.0163 60.4978 29.0163C60.6158 29.0163 75.6151 6.3392 75.8404 5.83455C76.055 5.31916 76.055 4.19174 75.8296 3.44014C75.5614 2.54894 74.9713 1.87249 74.0915 1.42153L73.3512 1.04572L64.0169 1.02425C56.1096 1.00277 54.586 1.02425 54.0925 1.16383Z" stroke="#7364CB"/>
<path d="M36.6791 24.5174C31.8189 24.8395 27.4092 26.4931 23.0746 29.6391C21.5833 30.7236 19.1692 33.1395 18.0105 34.7071C14.8347 39.002 13.0429 43.8338 12.7962 48.7407C12.603 52.6169 13.1073 55.8918 14.4377 59.3492C16.1758 63.8696 19.1907 67.9497 22.8171 70.6877C26.4221 73.4043 30.1344 75.0256 34.5011 75.7987C36.0461 76.0671 41.003 76.0671 42.548 75.7987C45.241 75.3262 47.301 74.6605 49.6292 73.5224C55.6267 70.5804 59.9935 65.8667 62.5041 59.6176C63.2015 57.8674 63.6843 56.128 64.0813 53.9268C64.3066 52.6598 64.2637 47.6133 64.0276 46.3034C63.4912 43.458 62.7616 41.2246 61.5921 38.8624C59.0708 33.8052 55.3049 29.9612 50.2729 27.3413C46.0135 25.1187 41.5716 24.1953 36.6791 24.5174ZM40.7777 29.2311C49.5648 30.1545 56.8284 36.468 59.0064 45.0686C60.3797 50.5016 59.4892 56.493 56.6031 61.2389C53.7492 65.9204 49.0713 69.41 43.8784 70.7307C42.0652 71.1924 40.6918 71.3534 38.4709 71.3534C36.2071 71.3534 34.9196 71.1924 32.9991 70.6877C25.2848 68.6476 19.2765 62.1731 17.7745 54.3026C16.1758 45.8846 19.7272 37.3807 26.8191 32.6348C29.4906 30.8417 32.9561 29.5747 36.1427 29.2418C37.3336 29.113 39.5975 29.113 40.7777 29.2311Z" stroke="#7364CB"/>
<path d="M37.2692 35.5231C37.0225 35.6198 36.5719 35.9097 36.2714 36.1781C35.7886 36.6076 35.5633 36.9941 34.2651 39.5818L32.8059 42.5131L30.0593 42.8567C28.5465 43.0392 26.9908 43.2969 26.6045 43.415C25.6389 43.7157 24.9308 44.274 24.5231 45.0578C24.2441 45.6162 24.2012 45.7987 24.2012 46.6147C24.2012 48.1502 24.3621 48.4079 27.0444 51.0278L29.2975 53.2289L28.8147 56.3427C28.3641 59.2096 28.3319 59.5102 28.4392 60.1759C28.6323 61.3141 29.2439 62.0979 30.4133 62.7099C30.8532 62.9354 31.1107 62.9891 31.7438 62.9998H32.5377L35.5311 61.4644L38.5246 59.9397L41.518 61.4644L44.5114 62.9998H45.3053C45.9169 62.9891 46.1959 62.9354 46.5714 62.7421C47.7838 62.1086 48.4168 61.3141 48.5992 60.1759C48.7065 59.521 48.6743 59.1881 48.2344 56.3427L47.7516 53.2289L50.0047 51.0278C52.6762 48.4079 52.8479 48.1394 52.8479 46.6255C52.8479 45.8417 52.805 45.6269 52.5475 45.1008C52.1934 44.3814 51.6892 43.8982 50.8845 43.5331C50.4231 43.3291 49.7257 43.2003 47.2795 42.8889L44.2324 42.5024L43.02 39.9254C41.4536 36.5861 41.2176 36.2318 40.091 35.652C39.5116 35.3406 37.9344 35.2762 37.2692 35.5231ZM39.5224 43.5117C40.9922 46.5825 41.239 46.7651 44.608 47.2697C45.7989 47.4415 46.8074 47.5918 46.8503 47.5918C46.8825 47.5918 46.1851 48.3005 45.2946 49.1595C42.8913 51.4895 42.7947 51.7901 43.3419 55.2153C43.5136 56.3105 43.6423 57.2124 43.6209 57.2339C43.6101 57.2447 42.6445 56.7937 41.4751 56.2139L39.3614 55.1616H37.6877L35.574 56.2139C34.4046 56.7937 33.439 57.2447 33.4282 57.2339C33.4068 57.2124 33.557 56.3535 33.7608 55.3227C34.2222 53.0249 34.2114 52.3592 33.7179 51.3069C33.3638 50.5553 33.0312 50.1903 31.1537 48.526C30.6172 48.0428 30.1773 47.6348 30.1988 47.624C30.2095 47.6133 31.2073 47.4523 32.409 47.2697C35.8101 46.7651 36.0569 46.5933 37.5267 43.5117C38.031 42.4487 38.4816 41.579 38.5246 41.579C38.5675 41.579 39.0181 42.4487 39.5224 43.5117Z" stroke="#7364CB"/>
</svg>
