<svg width="85" height="75" viewBox="0 0 85 75" fill="none" xmlns="http://www.w3.org/2000/svg">
<path d="M10.0693 13.5551C5.35653 21.0122 1.16605 27.649 0.753072 28.3102L0 29.5102L20.0779 51.0245C31.1189 62.8653 40.6902 73.102 41.334 73.7755L42.5 75L43.666 73.7755C44.3098 73.102 53.8811 62.8653 64.9221 51.0245L85 29.5102L84.2469 28.3102C83.834 27.649 79.6435 21.0122 74.9307 13.5551L66.3797 0H42.5H18.6203L10.0693 13.5551ZM56.5533 7.5551C55.5937 8.7551 52.0592 13.1755 48.6946 17.3878C45.3301 21.6 42.5486 25.0408 42.5 25.0408C42.4514 25.0408 39.7671 21.7347 36.5483 17.6939C33.3174 13.6531 29.7828 9.23265 28.6896 7.86122L26.7098 5.38776H42.5H58.3024L56.5533 7.5551ZM29.0176 16.6653L36.9856 26.7551L22.5314 26.7918C14.5877 26.8041 8.06516 26.7918 8.04087 26.7796C7.95584 26.6816 20.8188 6.50204 20.9403 6.53877C21.001 6.55102 24.6449 11.1061 29.0176 16.6653ZM70.6795 16.6408C74.1533 22.1878 76.9834 26.7551 76.9591 26.7796C76.9348 26.7918 70.4123 26.8041 62.4686 26.7918L48.0144 26.7551L56.0917 16.6163C60.5373 11.0449 64.2176 6.50204 64.2662 6.51429C64.327 6.53878 67.2056 11.0939 70.6795 16.6408ZM74.1776 33.2939C54.1726 54.698 42.5607 67.102 42.5 67.102C42.4636 67.102 35.5159 59.7061 27.0742 50.6694C18.6203 41.6327 11.2839 33.7837 10.7495 33.2204L9.80209 32.2041H42.5H75.1979L74.1776 33.2939Z" fill="#7364CB"/>
</svg>
