<svg width="93" height="75" viewBox="0 0 93 75" fill="none" xmlns="http://www.w3.org/2000/svg">
<path fill-rule="evenodd" clip-rule="evenodd" d="M6.98068 0.174268C3.93258 0.754291 1.21303 3.41201 0.54839 6.45999C0.402584 7.12926 0.345733 13.9946 0.347706 30.7523C0.350575 56.4108 0.308071 55.3711 1.43111 57.2976C2.52098 59.1674 4.77836 60.7737 6.94464 61.2208C8.18873 61.4776 84.1349 61.5012 85.5104 61.2453C88.5171 60.6855 91.4669 57.862 91.9144 55.1155C91.9813 54.7043 92.1063 54.3255 92.1918 54.2736C92.2788 54.2208 92.3477 43.7103 92.3477 30.5029C92.3477 17.0164 92.28 6.86768 92.1907 6.92189C92.1045 6.97417 91.9825 6.70185 91.9198 6.3167C91.7363 5.19045 90.9201 3.70651 89.8745 2.59804C88.7725 1.42972 86.959 0.446588 85.3738 0.158073C84.1594 -0.0630219 8.14462 -0.0471792 6.98068 0.174268ZM7.53144 5.92362C7.1932 6.09279 6.74933 6.45488 6.54506 6.72826C6.17436 7.22431 6.17364 7.26991 6.12845 30.5805C6.08361 53.6406 6.08756 53.943 6.4405 54.5094C6.63724 54.8251 7.06103 55.2405 7.38259 55.4329C7.92923 55.7602 8.29437 55.7829 13.0265 55.7834L18.0861 55.7841L18.2812 55.036C19.1136 51.8468 19.9204 49.7512 21.195 47.4684C23.5358 43.2764 27.2788 39.4058 31.271 37.0496C32.9803 36.0408 33.5596 36.1221 35.976 37.7104C40.1653 40.4641 44.4952 41.4779 48.9739 40.754C51.9036 40.2807 53.9955 39.422 56.8049 37.5399C58.8998 36.1366 59.57 36.0624 61.2423 37.0496C67.6343 40.8223 72.2497 47.2105 74.2373 55.036L74.4272 55.7841L79.4868 55.7834C84.219 55.7829 84.5841 55.7602 85.1307 55.4329C85.4523 55.2405 85.8761 54.8251 86.0728 54.5094C86.4258 53.943 86.4297 53.6406 86.3849 30.5805C86.3397 7.26991 86.339 7.22431 85.9683 6.72826C85.764 6.45488 85.3201 6.09279 84.9819 5.92362C84.4021 5.63335 82.1852 5.61574 46.2567 5.61574C10.3281 5.61574 8.11126 5.63335 7.53144 5.92362ZM0.432176 30.6997C0.432176 43.77 0.453518 49.143 0.479522 42.6395C0.505527 36.136 0.505527 25.4421 0.479522 18.8753C0.453518 12.3084 0.432176 17.6293 0.432176 30.6997ZM42.8348 9.84172C40.3296 10.4467 38.2123 11.5853 36.3385 13.3352C34.3912 15.154 33.1198 17.2097 32.3831 19.7317C31.8149 21.677 31.6711 23.362 31.9116 25.261C32.6087 30.7667 36.318 35.2731 41.6099 37.0429C49.5322 39.6926 58.1017 35.1393 60.2732 27.1267C60.7951 25.2008 60.7908 22.0676 60.2633 20.1378C58.8383 14.923 54.8484 11.069 49.5949 9.83274C47.681 9.38246 44.7204 9.38633 42.8348 9.84172ZM43.8355 15.3575C41.5932 16.0898 39.3887 17.8819 38.4829 19.7091C38.2159 20.2478 37.867 21.3163 37.7076 22.0833C36.4716 28.0326 42.3174 33.4589 48.3116 31.9264C53.4219 30.6199 56.2362 25.3983 54.4053 20.6201C53.5724 18.4465 52.109 16.9129 49.8577 15.8548C48.6174 15.2718 48.3917 15.2256 46.5399 15.1762C45.2283 15.1411 44.309 15.2028 43.8355 15.3575ZM32.4326 43.0711C29.658 45.1377 26.9698 48.4029 25.5369 51.447C24.9741 52.6428 24.0182 55.2759 24.0182 55.6306C24.0182 55.717 33.7199 55.7841 46.2567 55.7841C59.3741 55.7841 68.4951 55.719 68.4951 55.6251C68.4951 55.3025 67.1952 51.8134 66.7544 50.9526C65.2989 48.1104 62.9703 45.3474 60.1089 43.0672L59.5241 42.6013L58.2036 43.3676C55.8332 44.7431 53.1527 45.7229 50.1766 46.3018C48.4199 46.6435 43.7846 46.5961 41.9524 46.2179C39.1124 45.6315 35.9147 44.3924 33.6996 43.0199L33.0454 42.6147L32.4326 43.0711ZM21.7242 69.6321C19.5535 70.6821 19.7176 73.7727 21.9949 74.7291C22.8546 75.0903 69.6587 75.0903 70.5185 74.7291C72.811 73.7664 72.9582 70.6489 70.7595 69.6249C70.201 69.3647 67.9499 69.3388 46.2296 69.3425C24.5383 69.3461 22.2596 69.373 21.7242 69.6321Z" fill="#7364CB"/>
</svg>
