<svg width="100" height="75" viewBox="0 0 100 75" fill="none" xmlns="http://www.w3.org/2000/svg">
<path d="M47.9553 0.0565773C39.0399 0.620657 31.4072 3.13449 24.7269 7.73297C18.5547 11.9758 13.7414 16.4394 9.56312 21.7982C7.88672 23.9564 4.66091 28.653 3.37821 30.8112C2.3241 32.6015 0.876302 35.4097 0.304801 36.7831L0 37.5311L0.660401 39.0026C2.90831 44.0303 7.81052 51.4246 12.0904 56.2684C17.4117 62.2893 24.8921 68.065 30.9881 70.8486C38.1001 74.1104 46.6091 75.5697 54.064 74.7972C62.3444 73.9388 68.8849 71.6211 75.2731 67.3047C81.966 62.7675 86.9063 58.0587 91.4402 51.8906C95.3518 46.5441 98.1204 41.9824 99.6952 38.2301L100 37.482L99.3396 36.0105C97.1806 31.1913 92.4943 24.0422 88.1763 18.99C86.6015 17.1506 82.4232 13.104 80.4801 11.5466C73.711 6.12657 68.1356 3.17128 61.5189 1.51583C56.9342 0.375405 51.778 -0.188675 47.9553 0.0565773ZM52.7305 5.43986C56.9596 5.78321 61.176 6.7397 64.7066 8.16216C69.3294 10.0138 74.5238 13.3247 78.4227 16.8931C80.3277 18.6344 83.3376 21.6755 84.5822 23.1225C88.0747 27.1815 91.4656 32.2459 93.3579 36.2435L93.9802 37.5434L92.9515 39.5544C91.364 42.6569 89.078 46.2498 86.8682 49.107C83.8837 52.9697 79.0958 57.8012 75.5525 60.5357C69.9136 64.889 64.0716 67.6358 57.874 68.8375C54.6355 69.4629 53.1115 69.6223 50 69.6223C40.729 69.6223 32.3597 66.6425 24.4475 60.5357C20.6502 57.605 15.7988 52.6386 12.6619 48.4816C10.3759 45.4405 7.95022 41.541 6.65481 38.7819L6.03251 37.482L6.90881 35.7162C9.00432 31.5224 11.9888 27.1079 15.4178 23.1225C16.7259 21.602 19.7485 18.5608 21.7424 16.746C25.5652 13.2634 30.7214 9.98929 35.2299 8.18668C40.6274 6.0162 47.1806 4.99841 52.7305 5.43986Z" fill="#7364CB"/>
<path d="M46.7488 16.2923C40.4496 17.1874 34.7727 20.7436 31.2294 26.041C28.5878 29.9773 27.4067 34.8456 27.9147 39.6648C28.3211 43.5275 29.5784 46.7526 31.9533 50.0144C32.9058 51.3388 35.6871 53.9875 37.173 55.0176C39.459 56.5872 42.6848 57.9361 45.682 58.5615C46.8504 58.7945 47.3711 58.8312 50 58.8312C52.6289 58.8312 53.1496 58.7945 54.318 58.5615C57.3152 57.9361 60.541 56.5872 62.827 55.0176C64.3129 53.9875 67.0942 51.3388 68.0467 50.0144C71.7424 44.9377 73.0124 39.0149 71.717 32.9326C70.0533 25.1827 63.5636 18.7203 55.4483 16.7215C53.0226 16.1206 49.2888 15.9366 46.7488 16.2923ZM53.302 21.7369C58.001 22.7547 61.7602 25.3298 64.2621 29.2416C65.9893 31.9393 66.7386 34.8088 66.5989 38.2055C66.4846 40.7929 66.0782 42.338 64.9225 44.6189C62.6619 49.0334 58.4328 52.1849 53.2893 53.2885C51.4097 53.6809 48.5903 53.6809 46.7107 53.2763C41.1608 52.0991 36.7412 48.5674 34.5695 43.5888C33.7948 41.823 33.4773 40.3147 33.4011 38.1197C33.2868 34.6494 33.998 31.9516 35.7379 29.2293C38.4684 24.9742 42.8626 22.2028 47.9934 21.5039C49.1999 21.3445 52.0574 21.4671 53.302 21.7369Z" fill="#7364CB"/>
</svg>
