<svg width="70" height="70" viewBox="0 0 70 70" fill="none" xmlns="http://www.w3.org/2000/svg">
<path fill-rule="evenodd" clip-rule="evenodd" d="M35 70C54.33 70 70 54.33 70 35C70 15.67 54.33 0 35 0C15.67 0 0 15.67 0 35C0 54.33 15.67 70 35 70ZM35.5231 17.5C26.1471 17.5 18.5463 25.0887 18.5463 34.4499C18.5463 37.3311 19.2668 40.0462 20.5384 42.4235L17.6261 50.0063C17.0554 51.4923 18.5224 52.9486 20.0075 52.3702L27.5661 49.4265C29.9402 50.6863 32.6492 51.3999 35.5231 51.3999C44.8992 51.3999 52.5 43.8111 52.5 34.4499C52.5 25.0887 44.8992 17.5 35.5231 17.5ZM37.0844 36.0801C36.5469 35.8415 35.8832 35.4839 35.2812 34.9888C34.6005 34.4289 34.109 33.7719 33.7917 33.259C33.7698 33.2236 33.7564 33.1798 33.7616 33.115C33.7673 33.0444 33.7966 32.9497 33.8656 32.8524C34.5135 31.9395 34.637 30.7551 34.1914 29.7284L33.7238 28.6513C33.4547 28.0313 33.0156 27.3662 32.4011 26.9037C31.7537 26.4164 30.8334 26.1152 29.8338 26.5054C29.2373 26.7383 28.6565 27.1532 28.1699 27.809C26.7081 29.7793 27.1689 32.0299 28.0209 33.778C28.8798 35.5401 30.2781 37.1273 31.3333 38.1618C32.5198 39.3249 34.2105 40.5136 36.0413 41.2634C37.8504 42.0043 39.9891 42.3919 41.9395 41.645C42.7693 41.3272 43.3523 40.7934 43.7482 40.2322C44.4104 39.2937 44.3473 38.2406 43.9471 37.414C43.5665 36.6278 42.8767 36.0027 42.1186 35.6311L41.3141 35.2368C40.044 34.6143 38.5155 34.8932 37.548 35.9241C37.4583 36.0197 37.3587 36.0722 37.2768 36.0927C37.2005 36.1117 37.1392 36.1044 37.0844 36.0801Z" fill="#E4754A"/>
<path fill-rule="evenodd" clip-rule="evenodd" d="M18.5463 34.4499C18.5463 25.0887 26.1471 17.5 35.5231 17.5C44.8992 17.5 52.5 25.0887 52.5 34.4499C52.5 43.8111 44.8992 51.3999 35.5231 51.3999C32.6492 51.3999 29.9402 50.6863 27.5661 49.4265L20.0075 52.3702C18.5224 52.9486 17.0554 51.4923 17.6261 50.0063L20.5384 42.4235C19.2668 40.0462 18.5463 37.3311 18.5463 34.4499ZM35.2812 34.9888C35.8832 35.4839 36.5469 35.8415 37.0844 36.0801C37.1392 36.1044 37.2005 36.1117 37.2768 36.0927C37.3587 36.0722 37.4583 36.0197 37.548 35.9241C38.5155 34.8932 40.044 34.6143 41.3141 35.2368L42.1186 35.6311C42.8767 36.0027 43.5665 36.6278 43.9471 37.414C44.3473 38.2406 44.4104 39.2937 43.7482 40.2322C43.3523 40.7934 42.7693 41.3272 41.9395 41.645C39.9891 42.3919 37.8504 42.0043 36.0413 41.2634C34.2105 40.5136 32.5198 39.3249 31.3333 38.1618C30.2781 37.1273 28.8798 35.5401 28.0209 33.778C27.1689 32.0299 26.7081 29.7793 28.1699 27.809C28.6565 27.1532 29.2373 26.7383 29.8338 26.5054C30.8334 26.1152 31.7537 26.4164 32.4011 26.9037C33.0156 27.3662 33.4547 28.0313 33.7238 28.6513L34.1914 29.7284C34.637 30.7551 34.5135 31.9395 33.8656 32.8524C33.7966 32.9497 33.7673 33.0444 33.7616 33.115C33.7564 33.1798 33.7698 33.2236 33.7917 33.259C34.109 33.7719 34.6005 34.4289 35.2812 34.9888Z" fill="#EEE8DC"/>
</svg>
