<svg width="78" height="78" viewBox="0 0 78 78" fill="none" xmlns="http://www.w3.org/2000/svg">
<path fill-rule="evenodd" clip-rule="evenodd" d="M40.121 1.5C20.0294 1.5 3.74198 17.7616 3.74198 37.8213C3.74198 43.9952 5.28608 49.8133 8.01078 54.9075L1.77022 71.1563C0.547241 74.3407 3.69089 77.4613 6.87318 76.2219L23.0703 69.9139C28.1576 72.6135 33.9626 74.1425 40.121 74.1425C60.2126 74.1425 76.5 57.8809 76.5 37.8213C76.5 17.7616 60.2126 1.5 40.121 1.5ZM39.6026 38.976C40.8925 40.037 42.3148 40.8033 43.4666 41.3145C43.584 41.3666 43.7154 41.3821 43.8788 41.3414C44.0544 41.2976 44.2678 41.185 44.4601 40.9802C46.5333 38.7711 49.8085 38.1734 52.5303 39.5075L54.2541 40.3524C55.8786 41.1487 57.3567 42.4883 58.1723 44.1728C59.03 45.9441 59.165 48.2008 57.7462 50.212C56.8977 51.4145 55.6486 52.5584 53.8703 53.2394C49.691 54.8398 45.1081 54.0092 41.2314 52.4215C37.3083 50.8148 33.6853 48.2675 31.1428 45.7752C28.8817 43.5586 25.8852 40.1574 24.0449 36.3815C22.2191 32.6354 21.2317 27.8128 24.3641 23.5908C25.4068 22.1855 26.6514 21.2965 27.9296 20.7974C30.0716 19.961 32.0437 20.6065 33.431 21.6508C34.7476 22.6419 35.6886 24.0671 36.2653 25.3956L37.2672 27.7038C38.2221 29.9037 37.9575 32.4417 36.5692 34.3981C36.4213 34.6065 36.3585 34.8095 36.3463 34.9607C36.3351 35.0995 36.3639 35.1934 36.4108 35.2692C37.0907 36.3683 38.1439 37.7761 39.6026 38.976Z" stroke="#0C1E8E" stroke-width="3" stroke-linecap="round" stroke-linejoin="round"/>
</svg>
