<svg width="1920" height="200" viewBox="0 0 1920 200" fill="none" xmlns="http://www.w3.org/2000/svg">
<path fill-rule="evenodd" clip-rule="evenodd" d="M0 80L80 93.3333C160 106.667 320 133.333 480 133.333C640 133.333 800 106.667 960 93.3333C1120 80 1280 80 1440 100C1600 120 1760 160 1840 180L1920 200V-9.53674e-06H1840C1760 -9.53674e-06 1600 -9.53674e-06 1440 -9.53674e-06C1280 -9.53674e-06 1120 -9.53674e-06 960 -9.53674e-06C800 -9.53674e-06 640 -9.53674e-06 480 -9.53674e-06C320 -9.53674e-06 160 -9.53674e-06 80 -9.53674e-06H0V80Z" fill="#7364CB"/>
</svg>
