<svg width="50" height="39" viewBox="0 0 50 39" fill="none" xmlns="http://www.w3.org/2000/svg">
<path fill-rule="evenodd" clip-rule="evenodd" d="M0 11.9265C0 5.43053 5.42938 0.164551 12.1269 0.164551H37.8731C44.5706 0.164551 50 5.43054 50 11.9265V26.4026C50 32.8986 44.5706 38.1646 37.8731 38.1646H12.1269C5.42938 38.1646 0 32.8986 0 26.4026V11.9265ZM11.3064 9.30383C10.6372 8.54393 9.45958 8.4541 8.67611 9.10317C7.89263 9.75225 7.80001 10.8945 8.46923 11.6543L15.2561 19.3608C20.4695 25.2806 29.9032 25.2806 35.1166 19.3608L41.9035 11.6543C42.5727 10.8945 42.48 9.75225 41.6966 9.10318C40.9131 8.4541 39.7355 8.54393 39.0662 9.30383L32.2794 17.0103C28.5555 21.2387 21.8172 21.2387 18.0933 17.0103L11.3064 9.30383Z" fill="#EEE8DC"/>
</svg>
