<svg width="50" height="50" viewBox="0 0 50 50" fill="none" xmlns="http://www.w3.org/2000/svg">
<path fill-rule="evenodd" clip-rule="evenodd" d="M0 15.8582C0 7.09996 7.09996 0 15.8582 0H34.1418C42.9 0 50 7.09996 50 15.8582V34.1418C50 42.9 42.9 50 34.1418 50H15.8582C7.09996 50 0 42.9 0 34.1418V15.8582ZM14.1791 26.4925C14.1791 20.5163 19.0238 15.6716 25 15.6716C30.9762 15.6716 35.8209 20.5163 35.8209 26.4925C35.8209 32.4688 30.9762 37.3134 25 37.3134C19.0238 37.3134 14.1791 32.4688 14.1791 26.4925ZM38.6194 13.4328C39.9589 13.4328 41.0448 12.347 41.0448 11.0075C41.0448 9.66797 39.9589 8.58209 38.6194 8.58209C37.2799 8.58209 36.194 9.66797 36.194 11.0075C36.194 12.347 37.2799 13.4328 38.6194 13.4328Z" fill="#EEE8DC"/>
</svg>
