<svg width="290" height="125" viewBox="0 0 290 125" fill="none" xmlns="http://www.w3.org/2000/svg">
<path d="M160.507 25.6098H161.829V36.3739H160.507V25.6098ZM161.829 26.84V25.6098H163.462C164.167 25.6098 164.794 25.7431 165.343 26.0097C165.903 26.2659 166.344 26.635 166.665 27.1168C166.997 27.5986 167.162 28.1727 167.162 28.8391C167.162 29.4952 166.997 30.0693 166.665 30.5613C166.344 31.0432 165.903 31.4173 165.343 31.6839C164.794 31.9402 164.167 32.0683 163.462 32.0683H161.829V30.8381H163.462C164.167 30.8381 164.737 30.669 165.172 30.3307C165.618 29.9924 165.841 29.4952 165.841 28.8391C165.841 28.1727 165.618 27.6755 165.172 27.3475C164.737 27.0092 164.167 26.84 163.462 26.84H161.829Z" fill="#EEE8DC"/>
<path d="M174.095 33.114C174.344 33.5445 174.603 33.9238 174.873 34.2519C175.152 34.5799 175.463 34.8362 175.805 35.0207C176.148 35.2053 176.536 35.2975 176.972 35.2975C177.552 35.2975 178.019 35.1386 178.371 34.8208C178.724 34.503 178.9 34.0981 178.9 33.606C178.9 33.1242 178.786 32.7398 178.558 32.4527C178.33 32.1657 178.029 31.935 177.656 31.7608C177.293 31.5762 176.904 31.4122 176.49 31.2687C176.22 31.1764 175.92 31.0585 175.588 30.915C175.256 30.7612 174.94 30.5716 174.639 30.346C174.339 30.1103 174.09 29.8232 173.893 29.4849C173.706 29.1466 173.613 28.7314 173.613 28.2394C173.613 27.7063 173.748 27.2296 174.017 26.8093C174.287 26.389 174.66 26.0609 175.137 25.8251C175.614 25.5791 176.158 25.4561 176.77 25.4561C177.36 25.4561 177.874 25.5688 178.309 25.7944C178.755 26.0097 179.133 26.2916 179.444 26.6401C179.755 26.9784 179.999 27.3372 180.175 27.7165L179.04 28.3624C178.905 28.0958 178.734 27.8344 178.527 27.5781C178.319 27.3219 178.065 27.1117 177.765 26.9477C177.474 26.7836 177.117 26.7016 176.692 26.7016C176.101 26.7016 175.671 26.8452 175.401 27.1322C175.132 27.409 174.997 27.7217 174.997 28.0702C174.997 28.3675 175.075 28.6443 175.23 28.9006C175.386 29.1466 175.645 29.3824 176.008 29.6079C176.381 29.8232 176.884 30.0385 177.516 30.2538C177.806 30.3563 178.112 30.4896 178.433 30.6536C178.755 30.8176 179.05 31.0278 179.32 31.2841C179.599 31.5301 179.828 31.8325 180.004 32.1913C180.18 32.5399 180.268 32.9602 180.268 33.4523C180.268 33.9238 180.175 34.3493 179.988 34.7286C179.812 35.1079 179.563 35.4308 179.242 35.6973C178.931 35.9639 178.573 36.1689 178.169 36.3124C177.775 36.4559 177.36 36.5277 176.925 36.5277C176.334 36.5277 175.785 36.4047 175.277 36.1587C174.779 35.9024 174.339 35.5692 173.955 35.1591C173.582 34.7388 173.276 34.2929 173.038 33.8213L174.095 33.114Z" fill="#EEE8DC"/>
<path d="M186.874 25.6098H188.196V36.3739H186.874V25.6098Z" fill="#EEE8DC"/>
<path d="M196.128 30.9919C196.128 31.8223 196.314 32.5553 196.687 33.1908C197.071 33.8264 197.569 34.3236 198.18 34.6824C198.792 35.0412 199.455 35.2206 200.17 35.2206C200.689 35.2206 201.16 35.154 201.585 35.0207C202.021 34.8875 202.415 34.7029 202.767 34.4672C203.12 34.2211 203.42 33.9392 203.669 33.6214V35.3437C203.213 35.7435 202.715 36.0408 202.176 36.2355C201.637 36.4303 200.969 36.5277 200.17 36.5277C199.414 36.5277 198.704 36.3944 198.04 36.1279C197.387 35.8511 196.812 35.4667 196.314 34.9746C195.817 34.4723 195.428 33.8828 195.148 33.2062C194.868 32.5296 194.728 31.7915 194.728 30.9919C194.728 30.1923 194.868 29.4542 195.148 28.7776C195.428 28.101 195.817 27.5166 196.314 27.0246C196.812 26.5222 197.387 26.1378 198.04 25.8713C198.704 25.5945 199.414 25.4561 200.17 25.4561C200.969 25.4561 201.637 25.5535 202.176 25.7482C202.715 25.943 203.213 26.2403 203.669 26.6401V28.3624C203.42 28.0446 203.12 27.7678 202.767 27.532C202.415 27.286 202.021 27.0963 201.585 26.963C201.16 26.8298 200.689 26.7631 200.17 26.7631C199.455 26.7631 198.792 26.9425 198.18 27.3013C197.569 27.6602 197.071 28.1573 196.687 28.7929C196.314 29.4183 196.128 30.1513 196.128 30.9919Z" fill="#EEE8DC"/>
<path d="M211.437 30.9919C211.437 31.8018 211.613 32.5245 211.966 33.1601C212.328 33.7957 212.821 34.298 213.443 34.6671C214.065 35.0361 214.77 35.2206 215.557 35.2206C216.356 35.2206 217.06 35.0361 217.672 34.6671C218.294 34.298 218.781 33.7957 219.134 33.1601C219.496 32.5245 219.678 31.8018 219.678 30.9919C219.678 30.182 219.496 29.4593 219.134 28.8237C218.781 28.1881 218.294 27.6858 217.672 27.3167C217.06 26.9477 216.356 26.7631 215.557 26.7631C214.77 26.7631 214.065 26.9477 213.443 27.3167C212.821 27.6858 212.328 28.1881 211.966 28.8237C211.613 29.4593 211.437 30.182 211.437 30.9919ZM210.037 30.9919C210.037 30.2025 210.172 29.4747 210.442 28.8083C210.722 28.1317 211.11 27.5474 211.608 27.0553C212.105 26.553 212.691 26.1634 213.365 25.8866C214.039 25.5996 214.77 25.4561 215.557 25.4561C216.356 25.4561 217.086 25.5996 217.75 25.8866C218.424 26.1634 219.009 26.553 219.507 27.0553C220.004 27.5474 220.388 28.1317 220.657 28.8083C220.937 29.4747 221.077 30.2025 221.077 30.9919C221.077 31.771 220.937 32.4989 220.657 33.1755C220.388 33.8521 220.004 34.4415 219.507 34.9439C219.009 35.4359 218.424 35.8255 217.75 36.1125C217.086 36.3893 216.356 36.5277 215.557 36.5277C214.77 36.5277 214.039 36.3893 213.365 36.1125C212.691 35.8255 212.105 35.4359 211.608 34.9439C211.11 34.4415 210.722 33.8521 210.442 33.1755C210.172 32.4989 210.037 31.771 210.037 30.9919Z" fill="#EEE8DC"/>
<path d="M227.609 25.6098H228.93V35.1438H233.206V36.3739H227.609V25.6098Z" fill="#EEE8DC"/>
<path d="M239.58 30.9919C239.58 31.8018 239.756 32.5245 240.109 33.1601C240.472 33.7957 240.964 34.298 241.586 34.6671C242.208 35.0361 242.913 35.2206 243.701 35.2206C244.499 35.2206 245.204 35.0361 245.815 34.6671C246.437 34.298 246.924 33.7957 247.277 33.1601C247.64 32.5245 247.821 31.8018 247.821 30.9919C247.821 30.182 247.64 29.4593 247.277 28.8237C246.924 28.1881 246.437 27.6858 245.815 27.3167C245.204 26.9477 244.499 26.7631 243.701 26.7631C242.913 26.7631 242.208 26.9477 241.586 27.3167C240.964 27.6858 240.472 28.1881 240.109 28.8237C239.756 29.4593 239.58 30.182 239.58 30.9919ZM238.181 30.9919C238.181 30.2025 238.315 29.4747 238.585 28.8083C238.865 28.1317 239.254 27.5474 239.751 27.0553C240.249 26.553 240.834 26.1634 241.508 25.8866C242.182 25.5996 242.913 25.4561 243.701 25.4561C244.499 25.4561 245.23 25.5996 245.893 25.8866C246.567 26.1634 247.153 26.553 247.65 27.0553C248.148 27.5474 248.531 28.1317 248.801 28.8083C249.081 29.4747 249.221 30.2025 249.221 30.9919C249.221 31.771 249.081 32.4989 248.801 33.1755C248.531 33.8521 248.148 34.4415 247.65 34.9439C247.153 35.4359 246.567 35.8255 245.893 36.1125C245.23 36.3893 244.499 36.5277 243.701 36.5277C242.913 36.5277 242.182 36.3893 241.508 36.1125C240.834 35.8255 240.249 35.4359 239.751 34.9439C239.254 34.4415 238.865 33.8521 238.585 33.1755C238.315 32.4989 238.181 31.771 238.181 30.9919Z" fill="#EEE8DC"/>
<path d="M260.805 32.1452V30.915H265.859C265.859 31.6634 265.745 32.3759 265.517 33.0525C265.289 33.7188 264.952 34.3134 264.506 34.8362C264.06 35.359 263.511 35.7742 262.858 36.0818C262.215 36.3791 261.479 36.5277 260.65 36.5277C259.862 36.5277 259.131 36.3944 258.457 36.1279C257.784 35.8511 257.198 35.4667 256.7 34.9746C256.203 34.4723 255.814 33.8828 255.534 33.2062C255.265 32.5296 255.13 31.7915 255.13 30.9919C255.13 30.1923 255.265 29.4542 255.534 28.7776C255.814 28.101 256.203 27.5166 256.7 27.0246C257.198 26.5222 257.784 26.1378 258.457 25.8713C259.131 25.5945 259.862 25.4561 260.65 25.4561C261.324 25.4561 261.94 25.5432 262.5 25.7175C263.07 25.8918 263.578 26.1481 264.024 26.4864C264.48 26.8247 264.864 27.245 265.175 27.7473L264.242 28.593C263.9 28.019 263.423 27.573 262.811 27.2552C262.199 26.9272 261.479 26.7631 260.65 26.7631C259.883 26.7631 259.188 26.9425 258.566 27.3013C257.944 27.6602 257.447 28.1573 257.073 28.7929C256.711 29.4183 256.529 30.1513 256.529 30.9919C256.529 31.8223 256.711 32.5553 257.073 33.1908C257.447 33.8264 257.944 34.3236 258.566 34.6824C259.188 35.0412 259.883 35.2206 260.65 35.2206C261.189 35.2206 261.671 35.1438 262.096 34.99C262.531 34.826 262.904 34.6004 263.215 34.3134C263.526 34.0263 263.78 33.6983 263.977 33.3292C264.185 32.9602 264.335 32.5655 264.428 32.1452H260.805Z" fill="#EEE8DC"/>
<path d="M272.473 25.6098H273.795V36.3739H272.473V25.6098Z" fill="#EEE8DC"/>
<path d="M282.641 33.1447L283.173 31.9145H286.504L287.025 33.1447H282.641ZM284.836 28.0395L283.173 31.9145L282.641 33.1447L281.26 36.3739H279.783L284.836 25.0716L289.89 36.3739H288.413L287.025 33.1447L286.504 31.9145L284.836 28.0395Z" fill="#EEE8DC"/>
<path d="M131.97 52.299L132.267 50.0233C132.267 47.7721 131.376 46.3283 129.595 45.6921C128.21 45.2517 127.146 45.0314 126.404 45.0314H126.33C124.845 45.0314 123.559 45.2761 122.47 45.7655C121.382 46.206 120.59 46.7688 120.095 47.454C119.056 48.8732 118.463 50.3659 118.314 51.9319C118.314 53.7916 119.155 55.4066 120.837 56.7769C122.52 58.0983 124.548 59.2729 126.923 60.3006C129.348 61.2794 131.748 62.3561 134.123 63.5306C136.547 64.7052 138.6 66.3936 140.283 68.5959C141.965 70.7981 142.806 73.4409 142.806 76.5241C142.806 82.5437 140.876 87.0461 137.017 90.0314C133.207 93.0167 128.853 94.5094 123.955 94.5094C119.106 94.5094 115.073 93.4327 111.857 91.2794C108.69 89.0771 107.107 86.1407 107.107 82.4702V82.3968C107.107 80.5861 107.379 79.02 107.924 77.6986C108.517 76.3283 109.21 75.3251 110.002 74.6888C111.634 73.3675 113.119 72.6578 114.455 72.56L115.345 72.4866C116.731 72.4866 117.992 72.8291 119.13 73.5143C120.268 74.1505 120.837 75.0559 120.837 76.2304C120.837 76.8177 120.516 77.3071 119.873 77.6986C119.229 78.0902 118.66 78.6774 118.166 79.4605C117.72 80.2435 117.473 80.9042 117.423 81.4425L117.275 82.25C117.275 85.2353 118.66 87.2174 121.431 88.1962C122.421 88.5388 123.212 88.71 123.806 88.71C126.528 88.71 128.705 87.9025 130.337 86.2875C132.02 84.6725 132.861 82.6171 132.861 80.1211C132.861 77.1358 131.574 74.7133 129.001 72.8536C127.072 71.4833 124.969 70.3332 122.693 69.4034C120.466 68.4735 118.957 67.8128 118.166 67.4213C117.374 67.0298 116.533 66.5649 115.642 66.0265C114.752 65.4882 113.762 64.7296 112.674 63.7508C110.299 61.6954 109.111 58.9303 109.111 55.4556C109.111 51.9319 110.076 48.9711 112.006 46.573C115.469 42.2174 120.664 40.0396 127.591 40.0396C131.253 40.0396 134.345 40.7492 136.869 42.1685C139.392 43.5388 140.654 45.4474 140.654 47.8944C140.654 49.6562 140.134 51.1244 139.095 52.299C138.106 53.4735 136.819 54.0608 135.236 54.0608C134.494 54.0608 133.751 53.914 133.009 53.6203C132.317 53.3267 131.97 52.8862 131.97 52.299Z" fill="#EEE8DC"/>
<path d="M157.558 53.6937L155.777 53.6203C154.441 53.6203 153.575 53.9384 153.179 54.5747C153.08 54.7215 152.956 54.7949 152.808 54.7949C152.165 54.7949 151.843 53.7182 151.843 51.5649C151.843 49.3626 152.165 47.9678 152.808 47.3805C153.501 46.7933 154.664 46.4996 156.296 46.4996C157.979 46.4996 159.117 46.7933 159.71 47.3805C160.304 47.9189 160.601 48.8487 160.601 50.1701C160.601 51.4915 160.378 52.4213 159.933 52.9597C159.488 53.4491 158.696 53.6937 157.558 53.6937ZM151.621 90.7655L152.437 73.6611C152.437 69.5991 151.967 66.834 151.027 65.3659C150.73 64.8765 150.384 64.5094 149.988 64.2647C149.691 64.1668 149.542 63.9711 149.542 63.6774C149.542 62.7965 150.804 61.9401 153.328 61.1081C155.851 60.2761 157.682 59.8601 158.82 59.8601C160.007 59.8601 160.626 60.1538 160.675 60.7411C160.675 61.7198 160.527 64.5094 160.23 69.1097C159.982 73.6611 159.859 78.4572 159.859 83.498C159.859 88.5388 160.156 91.6709 160.749 92.8944C160.898 93.1391 160.972 93.3838 160.972 93.6285C160.972 94.2647 160.032 94.5828 158.152 94.5828C156.272 94.5828 154.342 94.0934 152.363 93.1146C151.868 92.8699 151.621 92.0869 151.621 90.7655Z" fill="#EEE8DC"/>
<path d="M193.477 84.5257C193.477 87.3153 192.339 89.6399 190.063 91.4996C187.836 93.3104 185.164 94.2158 182.047 94.2158C177.495 94.2158 174.155 92.8699 172.028 90.1782C169.9 87.4376 168.836 83.7427 168.836 79.0934C168.836 74.1505 169.949 69.7704 172.176 65.9531C173.265 63.9955 174.823 62.4539 176.852 61.3283C178.88 60.2027 181.255 59.6399 183.977 59.6399C188.083 59.6399 190.978 61.0102 192.66 63.7508C193.353 64.8765 193.699 66.1978 193.699 67.715C193.699 70.0641 192.71 71.8259 190.731 73.0004C189.939 73.4409 189.197 73.6611 188.504 73.6611C187.861 73.6611 187.317 73.6366 186.871 73.5877C186.475 73.4898 185.931 73.1472 185.238 72.56C184.546 71.9727 184.199 71.1652 184.199 70.1375C184.249 69.5991 184.669 69.1587 185.461 68.8161C186.203 68.3756 186.574 67.5926 186.574 66.467C186.574 64.5584 185.387 63.604 183.012 63.604C182.418 63.604 181.701 63.8732 180.86 64.4115C180.068 64.9009 179.4 65.5616 178.856 66.3936C178.311 67.1766 177.792 68.449 177.297 70.2109C176.852 71.9238 176.629 73.5877 176.629 75.2027C176.629 76.7688 176.679 77.9678 176.778 78.7998C176.926 79.5828 177.198 80.6839 177.594 82.1032C178.039 83.4735 178.831 84.5991 179.969 85.48C181.156 86.3609 182.616 86.8014 184.348 86.8014C186.426 86.8014 188.257 85.945 189.84 84.2321C190.483 83.5469 191.003 82.7149 191.398 81.7361C191.596 81.3446 191.844 81.1489 192.141 81.1489C192.586 81.1489 192.908 81.5649 193.106 82.3968C193.353 83.1799 193.477 83.8895 193.477 84.5257Z" fill="#EEE8DC"/>
<path d="M226.661 60.3006C225.77 65.5861 225.325 72.3153 225.325 80.4882C225.325 86.5078 225.572 90.4719 226.067 92.3805L226.364 93.3348C226.364 93.971 225.82 94.2892 224.731 94.2892C220.921 94.2892 218.744 93.237 218.2 91.1326C218.15 90.8879 218.027 90.7655 217.829 90.7655C217.68 90.7655 217.532 90.8634 217.384 91.0591C215.85 93.0657 213.475 94.0689 210.259 94.0689C208.477 94.0689 206.622 93.6285 204.692 92.7476C203.505 92.2092 202.54 91.2794 201.798 89.958C201.056 88.5877 200.684 86.9237 200.684 84.9662L201.798 68.8895C201.798 65.5127 201.451 63.1146 200.759 61.6954C200.511 61.157 200.388 60.8145 200.388 60.6676C200.388 60.374 200.511 60.1782 200.759 60.0804C201.55 59.8357 202.565 59.7133 203.802 59.7133C208.601 59.7133 211.001 61.6709 211.001 65.5861C211.001 66.8096 210.481 69.5991 209.442 73.9547C208.453 78.3104 207.958 81.418 207.958 83.2777C207.958 85.0885 208.354 86.4833 209.145 87.4621C209.986 88.4409 211.124 88.9303 212.559 88.9303C214.044 88.9303 215.206 88.4164 216.048 87.3887C216.889 86.3609 217.383 85.3332 217.532 84.3055L217.755 82.7639C217.952 81.051 218.051 78.0412 218.051 73.7345C218.051 69.4278 217.903 66.7117 217.606 65.5861C217.359 64.4115 217.235 63.6774 217.235 63.3838C217.235 62.1603 218.225 61.206 220.204 60.5208C222.183 59.7867 223.964 59.4197 225.547 59.4197C226.29 59.4197 226.661 59.7133 226.661 60.3006Z" fill="#EEE8DC"/>
<path d="M256.596 73.2941L256.893 75.8634C256.893 76.7932 256.002 77.2582 254.221 77.2582C250.609 77.2582 248.803 75.9123 248.803 73.2207C248.803 72.5844 248.976 71.7035 249.323 70.5779C249.669 69.4523 249.842 68.4735 249.842 67.6415C249.842 66.8096 249.595 66.0999 249.1 65.5127C248.605 64.8764 247.888 64.5583 246.948 64.5583C246.008 64.5583 245.191 64.9009 244.499 65.5861C243.855 66.2223 243.46 66.883 243.311 67.5681L243.014 68.5959C242.717 70.113 242.569 72.6578 242.569 76.2304C242.569 79.7541 242.618 82.5437 242.717 84.5991C242.816 86.6056 242.915 88.0004 243.014 88.7835C243.113 89.5176 243.163 89.958 243.163 90.1048C243.163 91.3283 242.396 92.3071 240.862 93.0412C239.328 93.8242 237.794 94.2158 236.26 94.2158C234.727 94.2158 233.96 93.8977 233.96 93.2614L234.331 90.9857C235.023 86.728 235.37 81.1733 235.37 74.3218C235.37 67.4703 235.122 62.821 234.628 60.374C234.628 59.7867 235.147 59.4931 236.186 59.4931C238.858 59.4931 240.639 60.3985 241.53 62.2092C241.579 62.405 241.654 62.5029 241.753 62.5029C241.901 62.5029 242.247 62.2827 242.792 61.8422C244.424 60.5208 246.354 59.8601 248.581 59.8601C249.966 59.8601 251.351 60.1293 252.737 60.6676C255.557 61.7933 256.967 64.1424 256.967 67.715L256.596 73.2941Z" fill="#EEE8DC"/>
<path d="M269.442 65.2924C268.155 65.3414 267.215 65.3903 266.621 65.4393C266.077 65.4393 265.805 65.2924 265.805 64.9988C265.805 64.7052 265.953 64.4115 266.25 64.1179C269.417 61.2305 274.761 59.7867 282.281 59.7867C284.854 59.7867 286.883 60.007 288.367 60.4474L289.109 60.6676C289.703 60.9123 290 61.1815 290 61.4751C290 61.7198 289.827 61.9156 289.481 62.0624C288.145 62.4539 286.858 63.0902 285.621 63.9711C284.384 64.803 283.766 65.3903 283.766 65.7329L284.211 66.2468C285.794 67.1277 287.007 68.5225 287.848 70.4311C288.738 72.3397 289.233 74.0282 289.332 75.4963L289.481 77.772C289.481 82.6171 288.12 86.6056 285.399 89.7378C282.677 92.8699 278.966 94.436 274.266 94.436C271.891 94.436 269.837 94.02 268.106 93.188C266.374 92.3561 265.088 91.4262 264.246 90.3985C263.455 89.3218 262.812 88.1228 262.317 86.8014C261.723 84.9906 261.426 83.1309 261.426 81.2223C261.426 79.2647 261.748 77.3071 262.391 75.3495C263.084 73.3919 263.851 71.9482 264.692 71.0184C265.582 70.0885 266.572 69.33 267.66 68.7427C269.046 68.0086 270.159 67.6415 271 67.6415C271.841 67.6415 272.262 67.8128 272.262 68.1554L271.817 68.8895C270.728 70.1619 269.936 71.8259 269.442 73.8813C268.996 75.9368 268.774 77.772 268.774 79.387C268.774 80.9531 268.972 82.5192 269.367 84.0853C269.763 85.6513 270.209 86.8259 270.703 87.6089C271.198 88.343 271.767 88.9058 272.41 89.2973C273.35 89.8846 274.34 90.1782 275.379 90.1782C276.418 90.1782 277.432 89.7867 278.422 89.0037C279.412 88.1717 280.129 87.095 280.574 85.7737C281.465 83.3267 281.91 80.8063 281.91 78.2125C281.91 74.1016 280.846 70.9205 278.719 68.6693C276.641 66.4181 273.548 65.2924 269.442 65.2924Z" fill="#EEE8DC"/>
<path fill-rule="evenodd" clip-rule="evenodd" d="M47.1758 0.0469561C46.5616 -0.206013 46.1382 0.624749 46.5871 1.069L49.0983 3.55408L47.2212 3.13323C46.6187 2.99815 46.2706 3.8261 46.7637 4.22157L49.0369 6.59045C49.0369 6.59045 47.5034 10.06 47.2781 11.7946C47.0527 13.53 47.0235 15.1896 47.0504 16.4137C47.0638 17.0262 47.0935 17.882 47.0935 17.882L47.1179 18.2604C46.1131 19.0944 36.558 27.2991 34.7449 39.1558C32.2375 55.5538 35.969 65.4503 35.969 65.4503C35.969 65.4503 35.7411 71.9908 30.8346 79.6487C28.1104 83.9006 23.0148 87.8993 19.0209 90.6152C17.9034 91.3752 18.5861 93.1163 19.8963 92.776C23.1034 91.9429 26.9395 90.6925 30.0884 88.9268C36.8731 85.1225 40.5394 81.9373 40.5394 81.9373L37.5969 118.921C37.5969 118.921 38.5165 125.04 44.7584 125C51.0004 124.959 51.696 119.127 51.696 119.127L48.352 77.5566C48.352 77.5566 66.4623 60.7003 69.0082 46.9245C71.7825 31.9125 66.3047 22.4636 66.3047 22.4636L66.3017 22.4612C66.3274 22.4584 66.3407 22.4569 66.3407 22.4569C66.3407 22.4569 67.8564 21.1696 68.5212 18.1048C69.186 15.04 69.1197 13.3705 69.1197 13.3705L73.5563 8.85152C73.7485 8.40356 73.3876 7.9054 72.9308 7.98819L67.0152 7.90529C67.0152 7.90529 65.6319 4.59497 61.5729 3.45596C57.5139 2.31695 55.036 3.48889 55.036 3.48889C55.036 3.48889 48.8026 0.717035 47.1758 0.0469561Z" fill="#EEE8DC"/>
<path d="M19.1414 107.007C18.9908 107.632 19.4684 108.228 20.1155 108.222C26.0175 108.17 31.5451 103.799 32.9189 98.0968C33.0695 97.4716 32.5918 96.8757 31.9448 96.8814C26.0428 96.9335 20.5152 101.305 19.1414 107.007Z" fill="#EEE8DC"/>
<path d="M66.1395 115.477C66.0204 116.109 65.3397 116.459 64.7512 116.192C59.3835 113.754 56.1307 107.523 57.2169 101.761C57.336 101.129 58.0167 100.778 58.6052 101.045C63.9729 103.483 67.2257 109.714 66.1395 115.477Z" fill="#EEE8DC"/>
<path d="M86.5632 97.9911C87.117 97.6693 87.228 96.9239 86.7918 96.4566C81.3816 90.6598 71.9041 89.2665 65.0355 93.2581C64.4818 93.5799 64.3707 94.3253 64.8069 94.7927C70.2171 100.589 79.6947 101.983 86.5632 97.9911Z" fill="#EEE8DC"/>
<path d="M59.0247 72.8252C66.8613 71.2968 70.0154 68.3958 74.3899 65.3398C70.1758 67.5327 67.5653 69.5914 60.9791 70.6357C61.8574 69.5925 63.8039 66.7831 64.4398 65.9723C64.4398 65.9723 64.4399 65.9723 65.4778 65.5345C68.9869 63.8041 71.8279 61.9028 73.8991 60.1701C75.404 58.9111 76.45 57.7852 77.0689 56.9106C77.4159 56.4202 78.0693 56.0813 78.6384 56.1929C79.2075 56.3046 79.4851 56.8253 79.1656 57.327C78.3781 58.5635 77.0316 60.0031 75.2765 61.4714C73.0246 63.3553 72.3918 63.8367 68.8298 66.2755C67.8437 66.9507 66.1417 67.9283 66.1417 67.9283C72.069 66.3759 74.1212 64.604 77.5965 62.3727C78.7087 61.6587 79.6996 60.9527 80.5719 60.2822C81.8343 59.1615 83.0547 58.0299 84.0137 57.043C83.7268 56.6681 83.544 56.208 83.5115 55.7028C83.4235 54.3366 84.4671 53.1582 85.8424 53.0708C87.2177 52.9834 88.4039 54.02 88.4919 55.3862C88.5799 56.7524 87.5364 57.9307 86.1611 58.0181C85.7353 58.0452 85.3276 57.9645 84.9651 57.7997C83.1045 59.7354 80.2382 62.2281 77.9495 64.1509C73.0138 68.2973 68.3206 72.5615 57.4891 74.3129C58.0245 73.817 58.5536 73.3087 59.0247 72.8252Z" fill="#EEE8DC"/>
<path fill-rule="evenodd" clip-rule="evenodd" d="M53.3285 83.3189C63.7137 81.923 69.7088 78.3064 75.4036 74.782C69.663 77.5814 63.7439 80.2103 53.1975 81.2865L53.0691 79.2929C68.8914 77.7093 76.2653 72.9034 81.5797 68.7072C84.0619 66.7474 87.6137 61.8036 89.2056 59.4521C89.5442 58.952 90.2106 58.7368 90.7079 58.9743C91.2052 59.2117 91.3443 59.8136 91.0057 60.3137C90.9898 60.3372 90.9737 60.361 90.9574 60.385C90.9295 60.4763 90.8985 60.5753 90.8643 60.6815C90.6491 61.35 90.3057 62.3066 89.7911 63.4678C88.762 65.7897 87.0469 68.9321 84.3 72.2238C78.8033 78.8103 71.0523 86.2345 54.5434 88.6291C54.254 88.671 53.9656 88.7104 53.6781 88.747L53.6151 87.7679C53.7998 87.7432 53.9849 87.7174 54.1704 87.6905C70.3898 85.338 77.951 78.0485 83.3392 71.5918C84.8151 69.8233 85.9871 68.099 86.9109 66.5277C86.6398 66.8454 86.3294 67.197 85.9784 67.5769C84.3771 69.3106 81.9327 71.6349 78.5483 74.0155C72.604 78.1968 65.6448 82.7882 53.3995 84.4212L53.3285 83.3189ZM88.0275 64.4441C88.0443 64.4222 88.061 64.4004 88.0777 64.3786L88.0587 64.4165L88.0403 64.4533L88.0275 64.4441Z" fill="#EEE8DC"/>
<path d="M10.9155 56.5634C10.959 57.2383 10.7726 57.8751 10.4232 58.3983C10.7943 58.77 11.242 59.2142 11.5333 59.4879C12.6846 60.5697 14.3944 62.0244 16.6199 63.5067C20.1536 65.8604 24.9543 68.2618 30.8532 69.3734C30.6443 70.0016 30.4073 70.65 30.1389 71.3051C23.85 70.1361 18.78 67.5894 15.0974 65.1366C12.7805 63.5934 10.9995 62.0786 9.79551 60.9473L8.62948 59.749C8.60338 59.7222 8.57976 59.6941 8.55858 59.665C8.41442 59.6958 8.26616 59.7165 8.11454 59.7261C6.46187 59.8312 5.03637 58.5855 4.93061 56.9438C4.82486 55.3021 6.07888 53.8861 7.73156 53.7811C9.38423 53.676 10.8097 54.9217 10.9155 56.5634Z" fill="#EEE8DC"/>
<path d="M29.8275 72.0353C20.9302 70.7673 14.9376 67.9928 10.7993 64.7942C7.96586 62.6042 7.48538 62.1774 7.48538 62.1774C7.33757 61.9602 7.06027 61.8764 6.85906 62.0143C6.6277 62.1729 6.53899 62.6055 6.70941 62.855C6.70941 62.855 7.34472 63.4469 10.2656 65.7045C14.5104 68.9854 20.5397 71.7846 29.3194 73.1126C29.4988 72.7545 29.668 72.3947 29.8275 72.0353Z" fill="#EEE8DC"/>
<path d="M26.9691 76.8594C19.8367 75.1542 14.7475 72.2084 11.1645 69.1902C8.42417 66.8816 3.87451 61.7905 2.05839 59.2899C1.74619 58.8601 1.09416 58.7603 0.566836 59.0861C0.0395211 59.4118 -0.16398 60.0402 0.146177 60.4715C2.01902 63.0757 6.70719 68.3386 9.60776 70.782C13.2927 73.8863 18.4418 76.8755 25.5309 78.6704C26.0063 78.1087 26.4893 77.5045 26.9691 76.8594Z" fill="#EEE8DC"/>
<path d="M23.6484 80.7362C19.5953 79.6911 16.3234 78.3113 13.7305 76.8952C10.9354 75.3687 7.51886 72.5159 5.93801 71.0621C5.72541 70.8666 5.39865 70.8617 5.18322 71.0536C4.94458 71.2662 4.93737 71.6346 5.17354 71.8505C5.71627 72.3466 6.45569 72.9899 7.30443 73.6859L7.30295 73.6871L7.30693 73.6913C7.30961 73.6939 7.31338 73.6975 7.31823 73.702C7.32792 73.7112 7.34195 73.7244 7.36025 73.7414C7.39685 73.7754 7.45058 73.825 7.52114 73.8889C7.66224 74.0166 7.87066 74.2018 8.14389 74.4351C8.69029 74.9016 9.49626 75.5609 10.5418 76.3391C12.6322 77.8951 15.6842 79.9293 19.5375 81.8475C20.1651 82.1599 20.814 82.4692 21.4835 82.773C21.7092 82.5781 21.959 82.3569 22.2284 82.11C21.4506 81.7634 20.7004 81.4084 19.979 81.0493C19.4198 80.7709 18.878 80.4901 18.354 80.2086C19.7028 80.7207 21.1635 81.2003 22.742 81.6299C23.0292 81.3563 23.3328 81.0582 23.6484 80.7362Z" fill="#EEE8DC"/>
<path d="M31.6932 66.4036C29.9057 65.6926 28.3373 64.9053 26.9283 64.1212C22.8136 61.8314 20.7255 60.1011 19.6227 58.6957C19.2802 58.2591 19.0169 57.9236 18.8067 57.7251C18.6123 57.5415 18.2724 57.5637 18.0475 57.7746C17.8227 57.9856 17.7981 58.3055 17.9925 58.4891C18.1277 58.6167 18.3284 58.8739 18.6054 59.2288C19.6517 60.5694 21.9403 62.6614 26.2427 64.9853C27.8196 65.837 29.5097 66.6957 31.4265 67.4612C31.5254 67.093 31.614 66.7392 31.6932 66.4036Z" fill="#EEE8DC"/>
</svg>
