<svg width="290" height="125" viewBox="0 0 290 125" fill="none" xmlns="http://www.w3.org/2000/svg">
<path d="M131.97 52.5346L132.266 50.2486C132.266 47.9872 131.376 46.537 129.595 45.8979C128.209 45.4555 127.145 45.2343 126.403 45.2343H126.329C124.845 45.2343 123.558 45.4801 122.47 45.9717C121.381 46.4141 120.589 46.9795 120.095 47.6677C119.056 49.0934 118.462 50.5927 118.313 52.1659C118.313 54.0339 119.155 55.6562 120.837 57.0327C122.519 58.36 124.548 59.5399 126.923 60.5722C129.347 61.5554 131.747 62.637 134.122 63.8168C136.546 64.9966 138.6 66.6927 140.282 68.9049C141.964 71.1171 142.805 73.7717 142.805 76.8688C142.805 82.9155 140.876 87.4382 137.016 90.437C133.206 93.4357 128.852 94.9351 123.954 94.9351C119.105 94.9351 115.073 93.8536 111.857 91.6906C108.69 89.4783 107.107 86.5287 107.107 82.8417V82.768C107.107 80.9491 107.379 79.376 107.923 78.0486C108.517 76.6721 109.209 75.6644 110.001 75.0253C111.634 73.698 113.118 72.9851 114.454 72.8868L115.345 72.8131C116.73 72.8131 117.992 73.1572 119.13 73.8454C120.268 74.4845 120.837 75.394 120.837 76.5738C120.837 77.1638 120.515 77.6554 119.872 78.0486C119.229 78.4419 118.66 79.0318 118.165 79.8184C117.72 80.605 117.472 81.2686 117.423 81.8094L117.274 82.6205C117.274 85.6193 118.66 87.6103 121.431 88.5935C122.42 88.9376 123.212 89.1096 123.806 89.1096C126.527 89.1096 128.704 88.2985 130.337 86.6762C132.019 85.0539 132.86 82.9892 132.86 80.4821C132.86 77.4833 131.574 75.0499 129.001 73.1818C127.071 71.8053 124.968 70.65 122.692 69.716C120.466 68.782 118.957 68.1183 118.165 67.725C117.373 67.3317 116.532 66.8647 115.642 66.324C114.751 65.7832 113.761 65.0212 112.673 64.038C110.298 61.9733 109.11 59.1957 109.11 55.7054C109.11 52.1659 110.075 49.1917 112.005 46.7828C115.468 42.4076 120.664 40.22 127.591 40.22C131.252 40.22 134.344 40.9328 136.868 42.3584C139.391 43.7349 140.653 45.6521 140.653 48.1102C140.653 49.8799 140.133 51.3547 139.094 52.5346C138.105 53.7144 136.818 54.3043 135.235 54.3043C134.493 54.3043 133.751 54.1568 133.009 53.8619C132.316 53.5669 131.97 53.1245 131.97 52.5346Z" fill="#EEE8DC"/>
<path d="M157.557 53.9356L155.776 53.8619C154.44 53.8619 153.574 54.1814 153.178 54.8205C153.079 54.968 152.956 55.0417 152.807 55.0417C152.164 55.0417 151.842 53.9602 151.842 51.7972C151.842 49.585 152.164 48.1839 152.807 47.594C153.5 47.004 154.663 46.7091 156.295 46.7091C157.978 46.7091 159.116 47.004 159.709 47.594C160.303 48.1347 160.6 49.0688 160.6 50.3961C160.6 51.7234 160.377 52.6575 159.932 53.1982C159.487 53.6898 158.695 53.9356 157.557 53.9356ZM151.62 91.1744L152.436 73.9929C152.436 69.9126 151.966 67.1351 151.026 65.6603C150.729 65.1687 150.383 64.8 149.987 64.5542C149.69 64.4559 149.542 64.2592 149.542 63.9643C149.542 63.0794 150.803 62.2191 153.327 61.3834C155.85 60.5476 157.681 60.1298 158.819 60.1298C160.006 60.1298 160.625 60.4247 160.674 61.0147C160.674 61.9979 160.526 64.8 160.229 69.421C159.982 73.9929 159.858 78.8106 159.858 83.8741C159.858 88.9376 160.155 92.0838 160.749 93.3128C160.897 93.5586 160.971 93.8044 160.971 94.0502C160.971 94.6893 160.031 95.0089 158.151 95.0089C156.271 95.0089 154.341 94.5173 152.362 93.5341C151.867 93.2883 151.62 92.5017 151.62 91.1744Z" fill="#EEE8DC"/>
<path d="M193.476 84.9065C193.476 87.7086 192.338 90.0437 190.062 91.9118C187.835 93.7307 185.163 94.6402 182.046 94.6402C177.494 94.6402 174.154 93.2883 172.027 90.5844C169.899 87.8315 168.835 84.1199 168.835 79.4497C168.835 74.4845 169.949 70.0847 172.175 66.2502C173.264 64.2838 174.822 62.7353 176.851 61.6046C178.879 60.4739 181.254 59.9086 183.976 59.9086C188.082 59.9086 190.977 61.285 192.659 64.038C193.352 65.1687 193.698 66.496 193.698 68.02C193.698 70.3797 192.709 72.1494 190.73 73.3293C189.938 73.7717 189.196 73.9929 188.503 73.9929C187.86 73.9929 187.316 73.9683 186.87 73.9192C186.474 73.8209 185.93 73.4767 185.237 72.8868C184.545 72.2969 184.198 71.4858 184.198 70.4534C184.248 69.9126 184.668 69.4702 185.46 69.1261C186.202 68.6836 186.573 67.8971 186.573 66.7664C186.573 64.8492 185.386 63.8905 183.011 63.8905C182.417 63.8905 181.7 64.1609 180.859 64.7017C180.067 65.1933 179.399 65.8569 178.855 66.6927C178.31 67.4792 177.791 68.7574 177.296 70.5271C176.851 72.2477 176.628 73.9192 176.628 75.5415C176.628 77.1146 176.678 78.319 176.777 79.1547C176.925 79.9413 177.197 81.0474 177.593 82.473C178.038 83.8495 178.83 84.9802 179.968 85.8651C181.155 86.75 182.615 87.1924 184.347 87.1924C186.425 87.1924 188.256 86.3321 189.839 84.6115C190.482 83.9233 191.002 83.0875 191.398 82.1043C191.595 81.7111 191.843 81.5144 192.14 81.5144C192.585 81.5144 192.907 81.9323 193.105 82.768C193.352 83.5546 193.476 84.2674 193.476 84.9065Z" fill="#EEE8DC"/>
<path d="M226.66 60.5722C225.769 65.8815 225.324 72.641 225.324 80.8508C225.324 86.8974 225.571 90.8794 226.066 92.7967L226.363 93.7553C226.363 94.3944 225.818 94.7139 224.73 94.7139C220.92 94.7139 218.743 93.657 218.199 91.5431C218.149 91.2973 218.026 91.1744 217.828 91.1744C217.679 91.1744 217.531 91.2727 217.382 91.4693C215.849 93.4849 213.474 94.4927 210.257 94.4927C208.476 94.4927 206.621 94.0502 204.691 93.1654C203.504 92.6246 202.539 91.6906 201.797 90.3632C201.055 88.9867 200.683 87.3153 200.683 85.3489L201.797 69.1998C201.797 65.8078 201.45 63.3989 200.758 61.9733C200.51 61.4325 200.387 61.0884 200.387 60.9409C200.387 60.646 200.51 60.4493 200.758 60.351C201.549 60.1052 202.564 59.9823 203.801 59.9823C208.6 59.9823 211 61.9487 211 65.8815C211 67.1105 210.48 69.9126 209.441 74.2879C208.452 78.6631 207.957 81.7848 207.957 83.6529C207.957 85.4718 208.353 86.8729 209.144 87.8561C209.985 88.8393 211.123 89.3309 212.558 89.3309C214.043 89.3309 215.205 88.8147 216.046 87.7823C216.888 86.75 217.382 85.7176 217.531 84.6852L217.753 83.1367C217.951 81.4161 218.05 78.3928 218.05 74.0667C218.05 69.7406 217.902 67.0122 217.605 65.8815C217.358 64.7017 217.234 63.9643 217.234 63.6693C217.234 62.4403 218.224 61.4817 220.203 60.7934C222.182 60.056 223.963 59.6873 225.546 59.6873C226.288 59.6873 226.66 59.9823 226.66 60.5722Z" fill="#EEE8DC"/>
<path d="M256.595 73.6242L256.892 76.2051C256.892 77.1392 256.001 77.6062 254.22 77.6062C250.608 77.6062 248.802 76.2543 248.802 73.5505C248.802 72.9114 248.975 72.0265 249.321 70.8958C249.668 69.7652 249.841 68.782 249.841 67.9462C249.841 67.1105 249.594 66.3977 249.099 65.8078C248.604 65.1687 247.887 64.8492 246.946 64.8492C246.006 64.8492 245.19 65.1933 244.497 65.8815C243.854 66.5206 243.458 67.1843 243.31 67.8725L243.013 68.9049C242.716 70.4288 242.568 72.9851 242.568 76.5738C242.568 80.1134 242.617 82.9155 242.716 84.9802C242.815 86.9958 242.914 88.3968 243.013 89.1834C243.112 89.9208 243.161 90.3632 243.161 90.5107C243.161 91.7397 242.394 92.7229 240.861 93.4603C239.327 94.2469 237.793 94.6402 236.259 94.6402C234.725 94.6402 233.958 94.3206 233.958 93.6815L234.33 91.3956C235.022 87.1187 235.369 81.539 235.369 74.6566C235.369 67.7742 235.121 63.104 234.626 60.646C234.626 60.056 235.146 59.7611 236.185 59.7611C238.857 59.7611 240.638 60.6705 241.529 62.4895C241.578 62.6861 241.652 62.7844 241.751 62.7844C241.9 62.7844 242.246 62.5632 242.79 62.1208C244.423 60.7934 246.353 60.1298 248.579 60.1298C249.965 60.1298 251.35 60.4002 252.735 60.9409C255.556 62.0716 256.966 64.4313 256.966 68.02L256.595 73.6242Z" fill="#EEE8DC"/>
<path d="M269.44 65.5866C268.154 65.6357 267.214 65.6849 266.62 65.734C266.076 65.734 265.804 65.5866 265.804 65.2916C265.804 64.9966 265.952 64.7017 266.249 64.4067C269.415 61.5063 274.759 60.056 282.28 60.056C284.853 60.056 286.881 60.2773 288.366 60.7197L289.108 60.9409C289.702 61.1867 289.999 61.4571 289.999 61.7521C289.999 61.9979 289.825 62.1945 289.479 62.342C288.143 62.7353 286.857 63.3744 285.62 64.2592C284.383 65.095 283.764 65.6849 283.764 66.029L284.21 66.5452C285.793 67.4301 287.005 68.8311 287.846 70.7484C288.737 72.6656 289.232 74.3616 289.331 75.8364L289.479 78.1224C289.479 82.9892 288.118 86.9958 285.397 90.142C282.676 93.2883 278.965 94.8614 274.264 94.8614C271.889 94.8614 269.836 94.4435 268.104 93.6078C266.373 92.7721 265.086 91.838 264.245 90.8057C263.453 89.7241 262.81 88.5197 262.315 87.1924C261.722 85.3735 261.425 83.5054 261.425 81.5882C261.425 79.6218 261.746 77.6554 262.39 75.6889C263.082 73.7225 263.849 72.2723 264.69 71.3383C265.581 70.4042 266.57 69.6423 267.659 69.0523C269.044 68.3149 270.158 67.9462 270.999 67.9462C271.84 67.9462 272.26 68.1183 272.26 68.4624L271.815 69.1998C270.727 70.478 269.935 72.1494 269.44 74.2141C268.995 76.2789 268.772 78.1224 268.772 79.7447C268.772 81.3178 268.97 82.8909 269.366 84.464C269.762 86.0371 270.207 87.217 270.702 88.0035C271.197 88.7409 271.766 89.3063 272.409 89.6996C273.349 90.2895 274.339 90.5844 275.378 90.5844C276.417 90.5844 277.431 90.1912 278.421 89.4046C279.41 88.5689 280.128 87.4874 280.573 86.16C281.463 83.702 281.909 81.1703 281.909 78.5648C281.909 74.4354 280.845 71.24 278.717 68.9786C276.639 66.7172 273.547 65.5866 269.44 65.5866Z" fill="#EEE8DC"/>
<path fill-rule="evenodd" clip-rule="evenodd" d="M47.1597 0.0469561C46.5458 -0.206013 46.1225 0.624749 46.5713 1.069L49.0816 3.55408L47.2051 3.13323C46.6028 2.99815 46.2549 3.8261 46.7478 4.22157L49.0202 6.59045C49.0202 6.59045 47.4873 10.06 47.262 11.7946C47.0367 13.53 47.0075 15.1896 47.0344 16.4137C47.0478 17.0262 47.0775 17.882 47.0775 17.882L47.1019 18.2604C46.0974 19.0944 36.5455 27.2991 34.7331 39.1558C32.2265 55.5538 35.9568 65.4503 35.9568 65.4503C35.9568 65.4503 35.729 71.9907 30.8241 79.6487C28.1008 83.9006 23.0069 87.8993 19.0144 90.6152C17.8973 91.3751 18.5798 93.1163 19.8895 92.776C23.0955 91.9429 26.9304 90.6925 30.0782 88.9269C36.8605 85.1226 40.5256 81.9373 40.5256 81.9373L37.5842 118.921C37.5842 118.921 38.5034 125.04 44.7432 125C50.9831 124.959 51.6784 119.127 51.6784 119.127L48.3356 77.5566C48.3356 77.5566 66.4397 60.7003 68.9847 46.9245C71.7581 31.9125 66.2821 22.4636 66.2821 22.4636L66.2791 22.4612C66.3048 22.4584 66.3182 22.4569 66.3182 22.4569C66.3182 22.4569 67.8334 21.1696 68.4979 18.1048C69.1625 15.04 69.0962 13.3705 69.0962 13.3705L73.5313 8.85152C73.7235 8.40356 73.3627 7.9054 72.906 7.98819L66.9924 7.90529C66.9924 7.90529 65.6096 4.59497 61.552 3.45596C57.4944 2.31695 55.0173 3.48889 55.0173 3.48889C55.0173 3.48889 48.7861 0.717035 47.1597 0.0469561Z" fill="#EEE8DC"/>
<path d="M19.1349 107.007C18.9844 107.632 19.4618 108.228 20.1087 108.222C26.0087 108.17 31.5344 103.799 32.9077 98.0968C33.0582 97.4716 32.5808 96.8757 31.9339 96.8814C26.0339 96.9335 20.5082 101.305 19.1349 107.007Z" fill="#EEE8DC"/>
<path d="M66.117 115.477C65.998 116.109 65.3175 116.459 64.7292 116.192C59.3633 113.754 56.1116 107.523 57.1975 101.761C57.3165 101.129 57.997 100.778 58.5853 101.045C63.9512 103.484 67.2029 109.714 66.117 115.477Z" fill="#EEE8DC"/>
<path d="M86.5338 97.9911C87.0874 97.6692 87.1984 96.9239 86.7623 96.4565C81.354 90.6598 71.8796 89.2664 65.0134 93.258C64.4599 93.5799 64.3488 94.3252 64.7849 94.7926C70.1932 100.589 79.6676 101.983 86.5338 97.9911Z" fill="#EEE8DC"/>
<path d="M10.9118 56.5633C10.9552 57.2383 10.769 57.875 10.4197 58.3982C10.7906 58.77 11.2382 59.2141 11.5294 59.4878C12.6803 60.5696 14.3895 62.0243 16.6142 63.5066C20.1468 65.8603 24.9458 68.2617 30.8427 69.3734C30.6339 70.0015 30.397 70.6499 30.1287 71.305C23.8419 70.136 18.7736 67.5894 15.0922 65.1365C12.7761 63.5933 10.9957 62.0785 9.79218 60.9472L8.62655 59.749C8.60046 59.7222 8.57684 59.6941 8.55567 59.6649C8.41156 59.6958 8.26335 59.7164 8.11178 59.7261C6.45967 59.8311 5.03466 58.5854 4.92894 56.9438C4.82321 55.3021 6.07681 53.8861 7.72893 53.781C9.38104 53.676 10.8061 54.9217 10.9118 56.5633Z" fill="#EEE8DC"/>
<path d="M59.0046 72.8251C66.8385 71.2967 69.9916 68.3957 74.3646 65.3397C70.1519 67.5326 67.5424 69.5913 60.9584 70.6356C61.8364 69.5924 63.7822 66.783 64.4179 65.9722C64.4179 65.9722 64.418 65.9722 65.4556 65.5344C68.9634 63.804 71.8035 61.9028 73.8739 60.17C75.3783 58.911 76.424 57.7852 77.0427 56.9105C77.3896 56.4202 78.0428 56.0812 78.6117 56.1929C79.1806 56.3046 79.4581 56.8253 79.1387 57.3269C78.3515 58.5634 77.0054 60.003 75.2509 61.4713C72.9998 63.3553 72.3672 63.8366 68.8064 66.2755C67.8207 66.9506 66.1193 67.9283 66.1193 67.9283C72.0445 66.3758 74.096 64.6039 77.5702 62.3727C78.6819 61.6586 79.6726 60.9526 80.5445 60.2821C81.8065 59.1614 83.0265 58.0298 83.9852 57.0429C83.6983 56.668 83.5156 56.2079 83.4831 55.7027C83.3951 54.3365 84.4384 53.1582 85.8132 53.0708C87.1881 52.9833 88.3739 54.02 88.4618 55.3861C88.5498 56.7523 87.5067 57.9306 86.1318 58.0181C85.7062 58.0451 85.2986 57.9644 84.9362 57.7996C83.0762 59.7353 80.211 62.228 77.923 64.1508C72.989 68.2973 68.2973 72.5614 57.4696 74.3129C58.0047 73.8169 58.5337 73.3086 59.0046 72.8251Z" fill="#EEE8DC"/>
<path d="M29.8174 72.0353C20.9231 70.7673 14.9325 67.9928 10.7956 64.7942C7.96315 62.6041 7.48284 62.1774 7.48284 62.1774C7.33508 61.9602 7.05787 61.8763 6.85673 62.0143C6.62545 62.1728 6.53677 62.6054 6.70713 62.855C6.70713 62.855 7.34222 63.4468 10.2621 65.7044C14.5054 68.9853 20.5327 71.7845 29.3094 73.1126C29.4888 72.7545 29.658 72.3946 29.8174 72.0353Z" fill="#EEE8DC"/>
<path d="M26.9599 76.8594C19.83 75.1542 14.7424 72.2084 11.1608 69.1901C8.42131 66.8816 3.8732 61.7904 2.05769 59.2899C1.7456 58.86 1.09379 58.7603 0.566642 59.086C0.0395065 59.4117 -0.163924 60.0402 0.146128 60.4715C2.01833 63.0757 6.70491 68.3385 9.60449 70.782C13.2882 73.8862 18.4355 76.8755 25.5223 78.6704C25.9974 78.1086 26.4803 77.5044 26.9599 76.8594Z" fill="#EEE8DC"/>
<path fill-rule="evenodd" clip-rule="evenodd" d="M53.3103 83.3188C63.6921 81.9229 69.6851 78.3063 75.378 74.7819C69.6394 77.5813 63.7223 80.2102 53.1794 81.2864L53.0511 79.2928C68.868 77.7093 76.2394 72.9033 81.552 68.7072C84.0333 66.7473 87.5839 61.8035 89.1753 59.4521C89.5137 58.9519 90.1799 58.7368 90.6771 58.9742C91.1742 59.2117 91.3133 59.8135 90.9748 60.3136C90.9589 60.3372 90.9428 60.3609 90.9265 60.3849C90.8986 60.4762 90.8677 60.5752 90.8335 60.6814C90.6183 61.3499 90.2751 62.3066 89.7606 63.4677C88.7319 65.7896 87.0173 68.9321 84.2713 72.2237C78.7765 78.8103 71.0282 86.2345 54.5249 88.629C54.2356 88.671 53.9472 88.7103 53.6599 88.747L53.5968 87.7678C53.7815 87.7431 53.9665 87.7173 54.152 87.6904C70.3658 85.3379 77.9245 78.0484 83.3109 71.5918C84.7863 69.8233 85.9579 68.099 86.8813 66.5276C86.6104 66.8453 86.3 67.1969 85.9492 67.5768C84.3485 69.3105 81.9048 71.6348 78.5216 74.0155C72.5793 78.1967 65.6225 82.7881 53.3813 84.4211L53.3103 83.3188ZM87.9976 64.444C88.0144 64.4222 88.0311 64.4003 88.0478 64.3785L88.0288 64.4165L88.0104 64.4532L87.9976 64.444Z" fill="#EEE8DC"/>
<path d="M23.6404 80.7362C19.5887 79.6911 16.3178 78.3112 13.7258 76.8951C10.9317 75.3686 7.5163 72.5159 5.93599 71.0621C5.72347 70.8665 5.39681 70.8616 5.18146 71.0536C4.9429 71.2661 4.93569 71.6346 5.17177 71.8505C5.71432 72.3466 6.4535 72.9899 7.30195 73.6858C7.30111 73.6865 7.30068 73.6868 7.30046 73.687C7.30036 73.6871 7.30028 73.6872 7.30028 73.6872L7.30024 73.6873L7.30444 73.6913C7.30712 73.6938 7.31089 73.6974 7.31574 73.702C7.32543 73.7111 7.33945 73.7243 7.35774 73.7413C7.39433 73.7754 7.44805 73.8249 7.51858 73.8888C7.65964 74.0166 7.86798 74.2017 8.14112 74.435C8.68734 74.9015 9.49304 75.5608 10.5382 76.3391C12.6279 77.895 15.6789 79.9292 19.5309 81.8474C20.1582 82.1598 20.8069 82.4692 21.4762 82.7729C21.7018 82.5781 21.9515 82.3568 22.2208 82.11C21.4433 81.7633 20.6934 81.4084 19.9722 81.0492C19.4132 80.7709 18.8716 80.49 18.3477 80.2086C19.6961 80.7207 21.1563 81.2003 22.7343 81.6299C23.0214 81.3562 23.3248 81.0581 23.6404 80.7362Z" fill="#EEE8DC"/>
<path d="M31.6824 66.4036C29.8955 65.6926 28.3277 64.9052 26.9192 64.1212C22.8059 61.8313 20.7185 60.101 19.6161 58.6956L19.616 58.6956L19.616 58.6955C19.2735 58.2589 19.0105 57.9235 18.8003 57.725C18.6059 57.5414 18.2661 57.5636 18.0414 57.7746C17.8166 57.9856 17.792 58.3054 17.9864 58.4891C18.1215 58.6167 18.3221 58.8738 18.5991 59.2287C19.6451 60.5694 21.9328 62.6613 26.2338 64.9852C27.8101 65.8369 29.4996 66.6956 31.4158 67.4612C31.5146 67.0929 31.6032 66.7392 31.6824 66.4036Z" fill="#EEE8DC"/>
<path d="M207.413 28.8744H208.735V39.6797H207.413V28.8744Z" fill="#EEE8DC"/>
<path d="M210.088 25.4784L207.288 27.7938L206.604 27.3307L208.937 24.8609L210.088 25.4784Z" fill="#EEE8DC"/>
<path d="M169.331 36.4844C168.958 35.8464 168.771 35.1106 168.771 34.277C168.771 33.4332 168.958 32.6974 169.331 32.0696C169.714 31.4316 170.212 30.9325 170.824 30.5723C171.435 30.2122 172.099 30.0321 172.814 30.0321C173.333 30.0321 173.804 30.099 174.23 30.2327C174.665 30.3665 175.059 30.5569 175.411 30.8039C175.764 31.0406 176.065 31.3184 176.313 31.6374V29.9086C175.857 29.5072 175.36 29.2088 174.82 29.0133C174.281 28.8178 173.613 28.72 172.814 28.72C172.058 28.72 171.347 28.8589 170.684 29.1368C170.031 29.4043 169.455 29.7902 168.958 30.2945C168.46 30.7884 168.071 31.375 167.791 32.0542C167.511 32.7334 167.371 33.4743 167.371 34.277C167.371 35.0797 167.511 35.8206 167.791 36.4998C168.071 37.179 168.46 37.7707 168.958 38.275C169.455 38.769 170.031 39.1549 170.684 39.4327C171.347 39.7003 172.058 39.8341 172.814 39.8341C173.613 39.8341 174.281 39.7363 174.82 39.5408C175.36 39.3452 175.857 39.0468 176.313 38.6455V36.9166C176.065 37.2356 175.764 37.5186 175.411 37.7656C175.059 38.0023 174.665 38.1875 174.23 38.3213C173.804 38.4551 173.333 38.522 172.814 38.522C172.099 38.522 171.435 38.3419 170.824 37.9817C170.212 37.6215 169.714 37.1224 169.331 36.4844Z" fill="#EEE8DC"/>
<path d="M190.847 28.8744H189.526V39.6797H195.124V38.4448H190.847V28.8744Z" fill="#EEE8DC"/>
<path d="M231.675 28.8744H230.353V36.9166L222.111 28.3341V39.6797H223.433V31.6374L231.675 40.22V28.8744Z" fill="#EEE8DC"/>
<path d="M245.055 28.8744H246.377V39.6797H245.055V28.8744Z" fill="#EEE8DC"/>
<path d="M261.091 36.4844C260.718 35.8464 260.531 35.1106 260.531 34.277C260.531 33.4332 260.718 32.6974 261.091 32.0696C261.475 31.4316 261.972 30.9325 262.584 30.5723C263.196 30.2122 263.859 30.0321 264.574 30.0321C265.093 30.0321 265.565 30.099 265.99 30.2327C266.425 30.3665 266.819 30.5569 267.172 30.8039C267.524 31.0406 267.825 31.3184 268.074 31.6374V29.9086C267.617 29.5072 267.12 29.2088 266.581 29.0133C266.041 28.8178 265.373 28.72 264.574 28.72C263.818 28.72 263.107 28.8589 262.444 29.1368C261.791 29.4043 261.215 29.7902 260.718 30.2945C260.22 30.7884 259.831 31.375 259.551 32.0542C259.271 32.7334 259.131 33.4743 259.131 34.277C259.131 35.0797 259.271 35.8206 259.551 36.4998C259.831 37.179 260.22 37.7707 260.718 38.275C261.215 38.769 261.791 39.1549 262.444 39.4327C263.107 39.7003 263.818 39.8341 264.574 39.8341C265.373 39.8341 266.041 39.7363 266.581 39.5408C267.12 39.3452 267.617 39.0468 268.074 38.6455V36.9166C267.825 37.2356 267.524 37.5186 267.172 37.7656C266.819 38.0023 266.425 38.1875 265.99 38.3213C265.565 38.4551 265.093 38.522 264.574 38.522C263.859 38.522 263.196 38.3419 262.584 37.9817C261.972 37.6215 261.475 37.1224 261.091 36.4844Z" fill="#EEE8DC"/>
<path fill-rule="evenodd" clip-rule="evenodd" d="M281.369 39.6797L282.75 36.4381H287.135L288.523 39.6797H290L284.946 28.3341L279.892 39.6797H281.369ZM286.613 35.2032H283.282L284.946 31.3133L286.613 35.2032Z" fill="#EEE8DC"/>
</svg>
