<svg width="150" height="75" viewBox="0 0 150 75" fill="none" xmlns="http://www.w3.org/2000/svg">
<path d="M72.3242 55.4824C72.1013 55.5106 71.8091 55.5599 71.448 55.63C71.0861 55.7003 70.655 55.7919 70.1546 55.9037C70.1264 56.1847 70.1056 56.4796 70.0918 56.7883C70.0776 57.0976 70.0711 57.4346 70.0711 57.7992C70.0711 58.1361 70.0776 58.5574 70.0918 59.0629C70.1056 59.5683 70.1265 60.1725 70.1546 60.8742C70.2377 62.2788 70.2797 63.3029 70.2797 63.9493C70.2797 66.3925 69.904 68.3018 69.153 69.678C68.9859 69.9868 68.7357 70.1415 68.4019 70.1415C68.0682 70.1415 67.7197 69.9868 67.3587 69.678C66.9969 69.3687 66.7601 69.0317 66.6492 68.6671C66.3709 67.8524 66.2319 66.8413 66.2319 65.6343C66.2319 65.4375 66.2527 65.0024 66.2946 64.3284C66.3362 63.6544 66.4124 62.7276 66.5241 61.5482C66.5514 61.1836 66.5721 60.832 66.5864 60.4952C66.6002 60.1583 66.6076 59.8357 66.6076 59.5264C66.6076 58.6279 66.5514 57.9402 66.4405 57.4621C66.3842 57.0693 66.1067 56.7744 65.6059 56.5777C64.9657 56.2971 64.5627 56.0721 64.3956 55.9036C64.3678 55.8758 64.354 55.7633 64.354 55.5665C64.354 55.4265 64.3678 55.244 64.3956 55.019C64.4233 54.7946 64.493 54.528 64.6042 54.2187C64.9103 54.2187 65.1678 54.0923 65.3765 53.8396C65.5851 53.5868 65.8003 53.4604 66.0232 53.4604C66.1904 53.4604 66.3012 53.475 66.3569 53.5025C66.4959 52.8569 66.6002 52.1481 66.6699 51.3753C66.7391 50.6032 66.7742 49.7679 66.7742 48.8688C66.7742 48.5885 66.746 47.9842 66.6907 47.0576C66.6349 46.1307 66.5655 44.867 66.482 43.2664C66.482 43.1261 66.475 42.9786 66.4612 42.824C66.447 42.6701 66.4405 42.5081 66.4405 42.3396C65.9114 42.1711 65.3898 41.8414 64.8756 41.3496C64.3605 40.8586 64.1038 40.3459 64.1038 39.8121C64.1038 39.1105 64.6042 38.6894 65.6059 38.5484C66.3012 38.4366 67.2751 38.2116 68.527 37.8744C69.7789 37.5375 71.3229 37.0602 73.1588 36.4422C76.3579 35.4037 78.9451 34.856 80.9208 34.7993C81.4216 34.7993 81.8597 34.933 82.235 35.1996C82.6107 35.4668 82.7985 35.825 82.7985 36.2737C82.7985 36.8358 82.6246 37.3477 82.2769 37.8111C81.9286 38.2746 81.477 38.5629 80.9208 38.6748H80.7537C80.5034 38.6748 80.2178 38.6048 79.8983 38.4641C79.578 38.3238 79.307 38.2535 79.0845 38.2535C78.4443 38.31 77.7557 38.4501 77.0189 38.6748C76.2816 38.8998 75.4679 39.1947 74.5779 39.5592C73.4095 40.0373 72.4705 40.4163 71.7611 40.6966C71.0516 40.9776 70.5158 41.1744 70.1547 41.2863C70.0985 42.1854 70.0569 43.0838 70.0292 43.9822C70.0015 44.8815 69.9877 45.7799 69.9877 46.6783C69.9877 47.5768 70.0015 48.4896 70.0292 49.4164C70.0569 50.343 70.0985 51.2561 70.1547 52.1545C70.2932 52.1827 70.4188 52.2039 70.53 52.2176C70.6408 52.232 70.7525 52.2386 70.8637 52.2386C71.3919 52.2386 72.3936 52.0279 73.8683 51.6067C74.4246 51.4382 74.9389 51.3054 75.4124 51.2066C75.8851 51.1084 76.2886 51.059 76.6228 51.059C76.6782 51.059 76.7405 51.0663 76.8102 51.08C76.8795 51.0946 76.9422 51.1012 76.9981 51.1012C77.5544 51.1577 77.8327 51.3959 77.8327 51.8172C77.666 52.9124 76.9699 53.755 75.7462 54.3446L72.3243 55.482L72.3242 55.4824Z" fill="#EEE8DC"/>
<path d="M79.6529 65.539C79.6529 64.3562 79.983 62.9459 80.6445 61.3084C81.5458 59.0949 82.0413 57.487 82.1316 56.4862C82.1316 56.2439 81.9357 55.9709 81.5458 55.6673C81.1247 55.334 80.9147 55.076 80.9147 54.8941C80.9147 54.7122 80.9745 54.5606 81.0951 54.4391C81.2148 54.2572 81.5304 54.1206 82.0413 54.0297C82.5518 53.9089 82.837 53.7418 82.8977 53.5293C83.4386 52.0437 84.2945 49.2231 85.4666 45.0678C85.9771 43.2481 86.4503 41.6637 86.886 40.3138C87.3212 38.9648 87.7344 37.8046 88.1252 36.8337C88.3056 36.4095 88.6811 36.1968 89.2518 36.1968C89.6721 36.1968 90.0476 36.3333 90.3785 36.6063C91.2195 37.3342 91.76 38.4259 92.0011 39.8817C92.091 40.4888 92.1811 41.1099 92.2714 41.747C92.3616 42.3838 92.436 43.0057 92.4967 43.612C93.2475 47.1909 94.0132 50.4437 94.7948 53.37C95.576 56.2972 96.3721 58.9428 97.1836 61.3084C97.3636 61.8244 97.4538 62.2486 97.4538 62.5821C97.4538 63.1892 97.1981 63.7194 96.6877 64.1743C96.2066 64.5986 95.8612 64.8112 95.6512 64.8112C94.1786 64.5382 93.2474 63.3405 92.857 61.2174C92.4662 58.913 91.9707 56.9868 91.3699 55.4398L88.3055 55.7128C87.1336 55.865 86.2168 56.2288 85.5562 56.8046C85.4057 57.2901 85.2183 57.9418 84.9929 58.7609C84.7676 59.5796 84.5197 60.5961 84.2495 61.8087C83.7381 64.0528 83.2426 65.736 82.7625 66.8583C82.6115 67.2224 82.3117 67.4043 81.8611 67.4043H81.568C81.4624 67.4043 81.3497 67.3736 81.23 67.3132C80.2385 67.0098 79.7126 66.5548 79.6527 65.9484V65.5389L79.6529 65.539ZM90.6039 52.6193C90.5436 52.0129 90.4687 51.3988 90.3786 50.7768C90.2883 50.1558 90.1682 49.5109 90.0181 48.8435C89.8676 48.2372 89.725 47.6309 89.5899 47.0238C89.4547 46.4175 89.3118 45.8112 89.1617 45.2041C88.2604 47.7517 87.4788 50.2695 86.8186 52.7558C87.2988 52.6649 88.5605 52.6193 90.6039 52.6193Z" fill="#EEE8DC"/>
<path d="M100.608 60.3986C100.668 59.5191 100.75 58.5561 100.856 57.5098C100.961 56.4633 101.014 55.334 101.014 54.1206V49.162C101.014 47.0693 101.036 45.1744 101.081 43.4755C101.127 41.7774 101.269 40.2001 101.509 38.7445C101.81 37.0157 103.357 36.1513 106.151 36.1513H106.782C108.405 36.2124 109.816 37.0314 111.018 38.6078C112.13 40.0032 112.686 41.5806 112.686 43.3391C112.686 44.7649 112.16 46.1901 111.108 47.6153C110.177 48.889 109.08 49.9203 107.819 50.7087C107.548 50.8608 107.338 51.0044 107.188 51.1409C107.037 51.2774 106.962 51.4366 106.962 51.6185C106.962 51.8311 107.03 52.0052 107.165 52.1416C107.3 52.2783 107.533 52.4828 107.864 52.7558L109.306 53.9841L114.308 58.7152C115.329 59.6862 116.216 60.5882 116.967 61.4221C117.718 62.2564 118.304 63.0525 118.725 63.8105C118.815 63.9617 118.86 64.0984 118.86 64.2199C118.86 64.9171 118.139 65.448 116.697 65.8121C115.104 64.5987 113.121 62.6888 110.748 60.0801C109.396 58.6243 108.239 57.404 107.278 56.4182C106.316 55.4328 105.505 54.6518 104.844 54.0751C104.784 54.4696 104.716 55.1827 104.642 56.2133C104.566 57.2447 104.468 58.5946 104.348 60.2621C104.198 62.7799 103.927 64.7809 103.537 66.2671C103.477 66.2671 103.327 66.3353 103.087 66.4717C102.846 66.6084 102.606 66.6765 102.366 66.6765C102.335 66.6765 102.305 66.6687 102.275 66.6539C102.245 66.6381 102.215 66.6311 102.185 66.6311C100.863 66.297 100.202 65.3723 100.202 63.856C100.202 63.613 100.217 63.3329 100.247 63.0146C100.277 62.696 100.322 62.3704 100.383 62.0363L100.608 60.3988L100.608 60.3986ZM109.306 41.9288C109.216 41.292 108.952 40.7163 108.517 40.2C108.081 39.6847 107.383 39.4269 106.422 39.4269C105.7 39.4269 105.25 39.6543 105.07 40.1093C105.009 40.5342 104.957 40.9664 104.912 41.4058C104.867 41.8456 104.844 42.2779 104.844 42.7021C104.844 43.0966 104.889 44.1124 104.98 45.7502C104.98 46.0843 104.987 46.387 105.002 46.66C105.017 46.933 105.024 47.1909 105.024 47.4334C105.024 47.6759 105.017 47.9188 105.002 48.1611C104.987 48.4044 104.98 48.6161 104.98 48.7982C107.473 46.9486 108.885 45.1437 109.216 43.3845C109.245 43.1728 109.268 42.9751 109.283 42.7932C109.298 42.6114 109.306 42.445 109.306 42.2928V41.9289L109.306 41.9288Z" fill="#EEE8DC"/>
<path d="M132.672 49.6401C132.538 48.8958 132.291 48.1377 131.931 47.3657C131.568 46.5902 131.087 45.8702 130.487 45.2055C129.887 44.5374 129.136 44.0528 128.234 43.7481C127.754 43.5957 127.339 43.4538 126.996 43.3154C126.65 43.1804 126.341 43.0523 126.07 42.9277C125.649 42.7477 125.319 42.5815 125.079 42.4292C124.839 42.2768 124.637 42.1557 124.472 42.0657C124.304 41.9757 124.157 41.8995 124.02 41.8372C123.886 41.7784 123.711 41.7472 123.502 41.7472C122.631 41.7472 121.79 42.1556 120.978 42.9761C120.168 43.7931 119.452 44.7936 118.838 45.9775C118.22 47.1614 117.727 48.4112 117.349 49.7301C116.976 51.0491 116.787 52.2087 116.787 53.2092C116.787 54.4831 117.034 55.5978 117.531 56.5533C118.028 57.5088 118.629 58.3223 119.335 58.987C120.038 59.6551 120.789 60.1571 121.588 60.4894C122.384 60.8252 123.097 60.9914 123.728 60.9914C124.63 60.9914 125.508 60.808 126.365 60.4444C127.219 60.081 128.015 59.572 128.752 58.9212C129.489 58.2669 130.172 57.495 130.803 56.5984C131.434 55.7053 131.976 54.729 132.425 53.6663C132.727 53.0605 132.874 52.3162 132.874 51.4369C132.874 50.9833 132.809 50.3844 132.672 49.6402L132.672 49.6401ZM127.974 51.4091L127.62 51.5787C126.204 52.2641 125.227 53.5726 125.086 55.1513L124.969 56.7783C124.952 56.9826 124.671 57.0207 124.599 56.8302L124.002 55.2863C123.464 53.8843 122.236 52.7661 120.782 52.4406L120.385 52.3541C120.199 52.3127 120.179 52.053 120.354 51.9838H120.357C121.904 51.3745 122.957 49.8756 123.138 48.2104L123.351 46.6111C123.372 46.4034 123.656 46.3722 123.721 46.5696L124.222 48.0754C124.771 49.7301 126.194 50.8414 127.912 51.0421C128.022 51.0526 128.083 51.146 128.083 51.236C128.083 51.3052 128.049 51.3745 127.974 51.4091H127.974Z" fill="#EEE8DC"/>
<path d="M136.525 63.4008V62.4001C136.525 61.0964 136.563 59.6024 136.638 57.9191C136.713 56.2359 136.841 54.3479 137.021 52.2553C137.472 47.2214 137.697 43.5665 137.697 41.2919C137.697 40.5036 137.681 39.753 137.652 39.04C137.622 38.3278 137.577 37.6226 137.517 36.9246C137.907 36.5307 138.403 36.3331 139.004 36.3331C140.146 36.3331 140.807 36.7582 140.987 37.607C140.987 37.9104 140.994 38.2289 141.009 38.5624C141.024 38.8965 141.032 39.2603 141.032 39.6541C141.032 40.8369 141.001 42.1788 140.941 43.6801C140.881 45.1813 140.791 46.8872 140.671 48.798C140.521 50.8904 140.423 52.7557 140.378 54.3935C140.333 56.0313 140.311 57.4571 140.311 58.6697V59.9436C141.092 59.6406 142.188 59.0038 143.601 58.0328C144.351 57.5175 144.99 57.0852 145.516 56.7363C146.041 56.388 146.469 56.1378 146.8 55.9857C146.95 55.9857 147.213 55.956 147.589 55.8946C147.964 55.8342 148.242 55.8037 148.423 55.8037C149.023 55.8037 149.459 56.0467 149.729 56.5317C149.91 56.8955 150 57.1989 150 57.4415C150 57.7449 149.91 58.0031 149.729 58.2147L144.457 61.9907C143.435 62.7184 142.481 63.3555 141.595 63.9013C140.709 64.4472 139.875 64.8864 139.094 65.2205C138.914 65.3116 138.733 65.3572 138.553 65.3572C138.132 65.3572 137.742 65.0842 137.382 64.5382L136.525 63.4009L136.525 63.4008Z" fill="#EEE8DC"/>
<path d="M64.1074 20.8168C64.1074 20.2267 64.1286 19.6584 64.1724 19.1117C64.2156 18.5656 64.3238 18.0297 64.4972 17.5051C64.5184 17.4615 64.5784 17.4123 64.6758 17.3576C64.7732 17.3032 64.887 17.254 65.0168 17.21C65.0818 17.1886 65.1519 17.1664 65.228 17.1444C65.3035 17.123 65.3955 17.1008 65.504 17.0788C65.8501 17.1229 66.1968 17.254 66.5435 17.4722C66.8896 17.6911 67.0631 18.0082 67.0631 18.4232C67.0631 18.7731 67.0307 19.0847 66.9656 19.3576C66.9006 19.6312 66.8682 19.9535 66.8682 20.3249C66.8682 20.9592 66.8409 21.4511 66.787 21.8005C66.7327 22.1505 66.7058 22.4784 66.7058 22.7842C66.7058 23.8335 66.7382 24.8007 66.8032 25.686C66.8682 26.5713 66.9222 27.2435 66.9656 27.7025C67.3118 27.6589 67.6965 27.3583 68.1187 26.8008C68.5412 26.2433 68.9577 25.5712 69.3695 24.7843C69.7806 23.9974 70.1597 23.1668 70.5063 22.2923C70.8524 21.4183 71.1341 20.6421 71.3508 19.9642C71.437 19.6804 71.4752 19.396 71.4646 19.1117C71.4532 18.8279 71.4808 18.5707 71.5458 18.3412C71.6105 18.1116 71.7568 17.9205 71.9843 17.7674C72.2117 17.6146 72.5958 17.5378 73.1373 17.5378C73.1585 17.5378 73.1805 17.5434 73.2023 17.5541C73.2235 17.5655 73.2455 17.5706 73.2674 17.5706C73.4403 17.5706 73.6458 17.6582 73.8843 17.8328C74.1226 18.0081 74.2955 18.1829 74.4042 18.3575C74.4042 19.6475 74.3661 20.6584 74.2904 21.3905C74.2142 22.1232 74.1768 22.7512 74.1768 23.2759C74.1768 24.3253 74.247 25.227 74.3881 25.9811C74.5286 26.7351 74.7615 27.3418 75.0863 27.8008C75.2164 27.9541 75.335 28.1017 75.4438 28.2435C75.5517 28.386 75.6493 28.555 75.736 28.7518C75.6925 28.9705 75.6225 29.1401 75.5251 29.2601C75.4273 29.3805 75.3138 29.4681 75.1837 29.5223C75.054 29.5772 74.9129 29.6156 74.7615 29.6371C74.6099 29.6592 74.4579 29.692 74.307 29.7356C73.8302 29.6263 73.4461 29.4296 73.1536 29.1452C72.8614 28.8614 72.623 28.5172 72.4392 28.1125C72.2549 27.7082 72.1194 27.2599 72.0332 26.7681C71.9463 26.2762 71.8708 25.7681 71.8057 25.2434L71.6757 25.5057C71.5021 25.8778 71.2697 26.3696 70.9775 26.9812C70.685 27.5935 70.344 28.1894 69.9542 28.7683C69.5643 29.3478 69.1148 29.8503 68.606 30.2767C68.0973 30.7029 67.5504 30.916 66.9658 30.916C66.3374 30.916 65.8339 30.7899 65.4555 30.5389C65.0761 30.2874 64.784 29.878 64.5784 29.3093C64.3723 28.7411 64.2317 28.0092 64.1562 27.1125C64.0801 26.2164 64.0424 25.1124 64.0424 23.8008C64.0855 23.4949 64.1074 23.1891 64.1074 22.8826V20.8168Z" fill="#EEE8DC"/>
<path d="M80.2507 25.3416C80.5537 25.0358 80.7973 24.6423 80.9816 24.1613C81.1652 23.6806 81.3438 23.2216 81.5173 22.7841L81.5823 22.5873C81.7124 22.2379 81.9071 21.806 82.1669 21.2922C82.4267 20.7787 82.7299 20.2868 83.0764 19.8166C83.4228 19.3467 83.8019 18.9476 84.2132 18.6196C84.6243 18.2918 85.0468 18.1278 85.4801 18.1278C85.8481 18.2374 86.124 18.4121 86.3083 18.6524C86.492 18.8933 86.6331 19.1608 86.7306 19.4558C86.8283 19.7509 86.9146 20.0573 86.9907 20.3739C87.0661 20.691 87.1692 20.9917 87.299 21.2756C87.5805 21.9099 87.7914 22.5872 87.9325 23.3085C88.073 24.0298 88.1923 24.7625 88.2901 25.5054C88.3875 26.2489 88.501 26.9809 88.6311 27.7023C88.7608 28.4237 88.9559 29.0907 89.2156 29.7024C89.1718 30.0518 88.9828 30.3091 88.6472 30.473C88.3113 30.637 88.0137 30.7188 87.7539 30.7188C87.3641 30.7188 87.0605 30.5712 86.8444 30.2762C86.6278 29.9811 86.4596 29.6204 86.341 29.194C86.2217 28.7678 86.1348 28.3251 86.0809 27.8661C86.0266 27.407 85.9563 27.0248 85.8699 26.7185C85.7611 26.347 85.6749 25.9264 85.6102 25.4561C85.5451 24.9863 85.469 24.5108 85.3827 24.0297C85.2958 23.5492 85.1927 23.101 85.0741 22.6855C84.9548 22.2705 84.7867 21.9313 84.5706 21.669C84.202 22.2591 83.9048 22.8115 83.6774 23.3248C83.4499 23.8387 83.2437 24.3305 83.0601 24.8003C82.8758 25.2707 82.6972 25.7297 82.5243 26.1776C82.3504 26.6258 82.1345 27.0793 81.8747 27.5383C81.528 28.1726 81.2137 28.6645 80.9326 29.0139C80.651 29.3639 80.3911 29.6205 80.1529 29.7844C79.9143 29.9484 79.6873 30.0466 79.4709 30.0795C79.2543 30.1123 79.0487 30.1286 78.8536 30.1286C78.637 30.1286 78.3715 30.019 78.0581 29.8008C77.7437 29.5826 77.587 29.3203 77.587 29.0139C77.587 27.6367 77.5921 26.3579 77.6032 25.1775C77.614 23.9972 77.6194 22.7512 77.6194 21.4396C77.6194 21.0681 77.6083 20.6911 77.587 20.3085C77.5652 19.9261 77.5544 19.5491 77.5544 19.1771C77.5544 18.9149 77.6032 18.658 77.7007 18.4066C77.7981 18.1555 77.9655 17.9753 78.2041 17.8655C78.3342 17.8655 78.4642 17.8604 78.5939 17.8492C78.724 17.8383 78.8426 17.8327 78.9515 17.8327C79.2325 17.8327 79.4549 17.9147 79.6172 18.0786C79.7797 18.2426 79.8983 18.4449 79.9744 18.6853C80.0502 18.9261 80.0988 19.1771 80.1207 19.4393C80.1419 19.7018 80.1531 19.9204 80.1531 20.0951C80.1531 20.3359 80.1801 20.5654 80.2343 20.7836C80.2883 21.0025 80.3156 21.2319 80.3156 21.4722C80.3156 22.2811 80.3045 22.9698 80.2831 23.5378C80.2613 24.1065 80.2507 24.6528 80.2507 25.1773V25.3416Z" fill="#EEE8DC"/>
<path d="M94.7699 29.2108C94.7699 29.386 94.7261 29.5606 94.6398 29.7354C94.5533 29.9106 94.3908 30.1176 94.1526 30.3584C93.7843 30.3584 93.4433 30.3255 93.1296 30.2599C92.8153 30.1944 92.545 30.0633 92.3176 29.8665C92.0901 29.6697 91.9115 29.3858 91.7815 29.014C91.6518 28.6425 91.5868 28.1399 91.5868 27.5056C91.5868 27.1341 91.5487 26.7627 91.4729 26.3908C91.3968 26.0194 91.3594 25.6479 91.3594 25.2761C91.3594 24.1613 91.2944 23.1012 91.1646 22.0954C91.0346 21.0903 90.9696 20.0298 90.9696 18.915C90.9696 18.4558 91.1532 18.1065 91.5218 17.8656C91.7382 17.8 91.9441 17.7508 92.1391 17.718C92.3339 17.6853 92.5503 17.6474 92.7887 17.6034C93.0917 17.691 93.3191 17.8165 93.4707 17.9805C93.6221 18.1444 93.7632 18.3033 93.8929 18.4558C93.8711 18.6747 93.8549 18.8934 93.8444 19.1116C93.833 19.3304 93.8279 19.5599 93.8279 19.8001C93.8279 20.6313 93.8711 21.5164 93.958 22.4561C94.0442 23.3962 94.1416 24.2923 94.2505 25.1449C94.3583 25.9973 94.4614 26.7735 94.5588 27.4728C94.6566 28.1727 94.7263 28.7082 94.7701 29.0796V29.2108H94.7699ZM91.9115 10.7504C92.0197 10.6414 92.2145 10.5864 92.4961 10.5864C92.7125 10.5864 92.9345 10.6248 93.1619 10.7012C93.3894 10.778 93.6007 10.8873 93.7954 11.0291C93.9902 11.1716 94.1472 11.3299 94.2664 11.5046C94.3851 11.6798 94.445 11.8653 94.445 12.0619C94.445 12.4775 94.3419 12.7561 94.1364 12.898C93.9306 13.0404 93.6438 13.1111 93.2759 13.1111C93.0373 13.1111 92.7937 13.0731 92.545 12.9963C92.2957 12.9199 92.074 12.8272 91.8789 12.7176C91.6842 12.6086 91.5268 12.4938 91.4082 12.3734C91.2889 12.2535 91.2293 12.1387 91.2293 12.0291C91.2293 11.7667 91.2563 11.5373 91.3106 11.3406C91.3645 11.1438 91.565 10.9471 91.9117 10.7503L91.9115 10.7504Z" fill="#EEE8DC"/>
<path d="M99.4148 29.4076C99.155 29.0141 98.9275 28.555 98.7325 28.0304C98.5377 27.5057 98.3696 26.9648 98.229 26.4073C98.0879 25.85 97.9743 25.309 97.888 24.7843C97.8011 24.2596 97.7469 23.8006 97.7256 23.4071C97.6605 22.6858 97.4928 21.9537 97.2221 21.2103C96.9509 20.4674 96.8161 19.7347 96.8161 19.0133C96.8161 18.6419 96.9785 18.4181 97.3033 18.3413C97.6281 18.2649 97.9311 18.2264 98.2128 18.2264C98.299 18.2264 98.4241 18.2428 98.5864 18.2756C98.7489 18.3084 98.9112 18.3632 99.0737 18.4396C99.2361 18.5164 99.3871 18.6092 99.5282 18.7183C99.6687 18.8279 99.7607 18.9591 99.8045 19.1117C99.8045 19.5492 99.8477 20.0518 99.9342 20.6201C100.02 21.1888 100.124 21.7514 100.243 22.3087C100.361 22.8662 100.475 23.3908 100.584 23.8827C100.692 24.3746 100.767 24.7737 100.811 25.0795C101.179 24.6204 101.52 23.9924 101.835 23.194C102.148 22.3964 102.473 21.6094 102.809 20.8331C103.144 20.0576 103.512 19.3741 103.913 18.7838C104.314 18.1937 104.796 17.8658 105.359 17.8001C105.814 17.8001 106.171 17.8278 106.431 17.8821C106.69 17.937 106.886 18.019 107.015 18.128C107.145 18.2376 107.232 18.3797 107.275 18.5543C107.319 18.7295 107.362 18.9369 107.405 19.1772C107.037 19.5927 106.717 19.9918 106.447 20.374C106.176 20.7568 105.921 21.1445 105.684 21.5381C105.445 21.9315 105.218 22.347 105.002 22.7841C104.785 23.2216 104.547 23.6914 104.287 24.1939C104.243 24.3035 104.195 24.4184 104.141 24.5382C104.086 24.6586 104.027 24.7734 103.962 24.8824C103.659 25.2979 103.415 25.7955 103.231 26.3745C103.047 26.9539 102.842 27.517 102.614 28.0631C102.387 28.6097 102.111 29.0908 101.786 29.5058C101.461 29.9213 101.006 30.1616 100.421 30.2272L99.4147 29.4075L99.4148 29.4076Z" fill="#EEE8DC"/>
<path d="M107.698 24.5547C107.698 23.7463 107.8 22.9317 108.006 22.112C108.212 21.2923 108.52 20.5545 108.932 19.8987C109.343 19.243 109.852 18.7131 110.459 18.3084C111.065 17.9042 111.768 17.7018 112.57 17.7018C113.133 17.7018 113.626 17.7893 114.048 17.964C114.47 18.1393 114.822 18.3687 115.104 18.6525C115.385 18.9368 115.596 19.2592 115.737 19.6199C115.877 19.9806 115.948 20.3576 115.948 20.751C115.948 21.2542 115.856 21.7404 115.672 22.2102C115.488 22.6806 115.222 23.1012 114.876 23.4726C114.529 23.8445 114.102 24.1447 113.593 24.3743C113.084 24.6037 112.505 24.73 111.855 24.7514C111.574 24.7734 111.324 24.7626 111.108 24.7186C110.891 24.675 110.642 24.6096 110.361 24.5217C110.34 24.6314 110.329 24.7241 110.329 24.8004V24.9809C110.35 25.7897 110.48 26.4236 110.718 26.8826C110.956 27.3416 111.216 27.6859 111.498 27.9153C111.779 28.145 112.05 28.2924 112.31 28.358C112.57 28.4236 112.743 28.4564 112.83 28.4564C113.501 28.4564 114.058 28.3038 114.502 27.9973C114.946 27.6915 115.439 27.3529 115.981 26.9808C116.088 27.025 116.208 27.0741 116.338 27.1284C116.468 27.1832 116.586 27.2873 116.695 27.4399C116.717 27.5711 116.738 27.6749 116.76 27.7513C116.781 27.8282 116.793 27.943 116.793 28.0957C116.771 28.4019 116.69 28.6585 116.549 28.8661C116.408 29.0742 116.251 29.2546 116.078 29.4072C115.515 29.8882 114.99 30.1993 114.502 30.3416C114.015 30.4836 113.382 30.5548 112.602 30.5548C112.256 30.5548 111.828 30.478 111.319 30.3252C110.81 30.172 110.382 30.0081 110.036 29.8333C109.517 29.4398 109.111 29.0464 108.818 28.6529C108.526 28.2595 108.299 27.8445 108.136 27.407C107.974 26.9699 107.865 26.5165 107.811 26.0463C107.757 25.5764 107.719 25.0789 107.698 24.5542L107.698 24.5547ZM110.523 22.7841C110.61 22.8061 110.745 22.8225 110.929 22.8332C111.113 22.8447 111.259 22.8497 111.368 22.8497C112.104 22.8497 112.673 22.6641 113.074 22.2922C113.474 21.9208 113.674 21.4725 113.674 20.9478C113.674 20.642 113.588 20.3577 113.415 20.0953C113.241 19.833 113.003 19.7019 112.7 19.7019C112.483 19.7019 112.272 19.7238 112.066 19.7674C111.861 19.8116 111.704 19.9206 111.596 20.0953C111.509 20.2049 111.411 20.3141 111.303 20.4231C111.195 20.5328 111.092 20.6856 110.995 20.8823C110.897 21.0789 110.805 21.3249 110.719 21.62C110.632 21.9151 110.567 22.3033 110.524 22.784L110.523 22.7841Z" fill="#EEE8DC"/>
<path d="M118.709 29.5386C118.752 29.4294 118.779 29.2271 118.79 28.932C118.801 28.6369 118.806 28.2711 118.806 27.8335C118.806 27.4184 118.801 26.9702 118.79 26.4891C118.779 26.0086 118.768 25.5659 118.758 25.1611C118.746 24.7569 118.736 24.4071 118.725 24.1118C118.714 23.8167 118.709 23.6476 118.709 23.6036V22.5216C118.709 22.041 118.693 21.5599 118.66 21.0788C118.628 20.5983 118.601 20.1172 118.579 19.636V19.5049C118.579 19.3081 118.535 19.1171 118.449 18.931C118.362 18.7456 118.319 18.5432 118.319 18.3244C118.405 18.0405 118.525 17.8217 118.677 17.6686C118.828 17.516 119.099 17.4392 119.489 17.4392C119.857 17.4392 120.149 17.5103 120.365 17.6523C120.582 17.7946 120.744 17.9694 120.853 18.1769C120.961 18.3849 121.032 18.6195 121.064 18.8818C121.096 19.1441 121.123 19.3957 121.145 19.6359L121.243 21.3738C121.459 21.199 121.686 20.9423 121.925 20.6033C122.163 20.2647 122.412 19.8984 122.672 19.5048C122.932 19.1113 123.202 18.7291 123.484 18.3572C123.765 17.9857 124.058 17.6799 124.361 17.4391C124.534 17.3521 124.751 17.3078 125.011 17.3078C125.53 17.3078 125.947 17.4063 126.261 17.6031C126.575 17.7997 126.819 18.1169 126.992 18.554C126.948 18.7508 126.83 18.975 126.635 19.2261C126.44 19.4775 126.217 19.74 125.969 20.013C125.72 20.2866 125.46 20.5705 125.189 20.8655C124.918 21.1606 124.686 21.4507 124.491 21.7344C124.166 22.0844 123.841 22.5105 123.516 23.0133C123.191 23.5163 122.899 24.0296 122.639 24.5542C122.379 25.0789 122.163 25.5764 121.99 26.0463C121.816 26.5165 121.73 26.8935 121.73 27.1774C121.73 27.3527 121.735 27.5987 121.746 27.9151C121.757 28.2322 121.763 28.4782 121.763 28.6528C121.763 28.9153 121.741 29.1831 121.698 29.4562C121.654 29.7299 121.567 29.9809 121.438 30.2103C121.308 30.4399 121.134 30.6253 120.918 30.7678C120.701 30.9096 120.42 30.9808 120.073 30.9808C119.662 30.9808 119.332 30.8548 119.083 30.6038C118.833 30.3523 118.709 30.0407 118.709 29.6693V29.5381L118.709 29.5386Z" fill="#EEE8DC"/>
<path d="M132.546 23.571C132.979 24.4021 133.38 25.2381 133.748 26.0793C134.116 26.9211 134.3 27.8664 134.3 28.9157C134.3 29.4624 134.208 29.9763 134.024 30.4567C133.84 30.9374 133.586 31.3636 133.261 31.7355C132.936 32.1069 132.546 32.4022 132.091 32.6208C131.637 32.839 131.149 32.9487 130.629 32.9487C130.175 32.9487 129.758 32.7685 129.379 32.4077C129 32.047 128.789 31.6371 128.745 31.1781C128.832 31.0028 128.913 30.8772 128.989 30.8011C129.065 30.7242 129.233 30.6534 129.493 30.5878C129.752 30.8502 130.012 30.9813 130.272 30.9813C130.64 30.9813 130.965 30.8173 131.247 30.4894C131.528 30.1616 131.669 29.7465 131.669 29.2435C131.669 29.0686 131.658 28.9596 131.637 28.9156C131.398 27.9319 131.095 27.0415 130.727 26.2432C130.358 25.4455 129.996 24.6971 129.639 23.9973C129.282 23.298 128.973 22.6364 128.713 22.0134C128.453 21.3905 128.323 20.7623 128.323 20.128C128.323 19.6033 128.367 19.0624 128.453 18.505C128.539 17.9475 128.691 17.4285 128.908 16.9476C129.124 16.4669 129.411 16.0734 129.769 15.7672C130.126 15.4613 130.586 15.3081 131.149 15.3081C131.214 15.3081 131.274 15.3137 131.328 15.3245C131.381 15.3357 131.441 15.3409 131.506 15.3409C131.723 15.3409 131.907 15.4557 132.059 15.6852C132.21 15.9146 132.318 16.117 132.383 16.2918C132.383 16.467 132.324 16.6033 132.205 16.7017C132.086 16.8001 131.972 16.9041 131.864 17.0131C131.604 17.3631 131.414 17.7508 131.295 18.1773C131.176 18.6035 131.117 19.0354 131.117 19.4724V20.2593C131.117 20.4125 131.171 20.6314 131.279 20.915C131.387 21.1993 131.512 21.5002 131.653 21.8167C131.793 22.1338 131.934 22.429 132.075 22.7021C132.215 22.9757 132.329 23.1776 132.416 23.3088L132.546 23.571H132.546Z" fill="#EEE8DC"/>
<path d="M140.017 30.1945C139.648 30.1945 139.318 30.0904 139.026 29.883C138.734 29.6755 138.425 29.4731 138.1 29.2763C137.386 28.8613 136.834 28.3148 136.444 27.6369C136.054 26.9596 135.859 26.1287 135.859 25.145C135.859 24.6643 135.94 24.0906 136.103 23.4236C136.265 22.7568 136.411 22.1395 136.541 21.5708C136.606 21.3307 136.758 20.997 136.996 20.5709C137.234 20.1447 137.532 19.7297 137.889 19.325C138.247 18.9207 138.653 18.5656 139.107 18.2594C139.562 17.9535 140.028 17.8002 140.504 17.8002C140.699 17.8002 140.894 17.8659 141.089 17.997C141.392 18.1938 141.706 18.3577 142.031 18.4889C142.355 18.6201 142.685 18.7513 143.021 18.8824C143.357 19.0136 143.687 19.156 144.012 19.3086C144.337 19.4618 144.64 19.6586 144.921 19.8989C145.16 20.0955 145.344 20.3363 145.474 20.6202C145.604 20.9045 145.733 21.1777 145.863 21.4399C145.972 21.6588 146.037 21.8826 146.058 22.1122C146.08 22.3416 146.091 22.5768 146.091 22.8171V23.44C146.069 24.1179 145.933 24.7464 145.685 25.3254C145.435 25.9049 145.138 26.468 144.792 27.0141C144.618 27.2984 144.391 27.6263 144.109 27.9978C143.828 28.3697 143.513 28.7191 143.167 29.0471C142.821 29.375 142.458 29.6538 142.079 29.8832C141.7 30.1128 141.316 30.2275 140.926 30.2275C140.818 30.2275 140.704 30.2217 140.585 30.2111C140.466 30.1999 140.341 30.1947 140.211 30.1947H140.017L140.017 30.1945ZM143.2 22.358C143.2 21.7241 142.972 21.2652 142.518 20.9808C142.063 20.6969 141.565 20.5545 141.024 20.5545C140.59 20.5545 140.222 20.7241 139.919 21.0627C139.616 21.4018 139.356 21.8168 139.14 22.3087C138.923 22.8005 138.766 23.3252 138.669 23.8827C138.571 24.44 138.523 24.9268 138.523 25.3417C138.523 25.4294 138.539 25.6041 138.571 25.8664C138.604 26.1288 138.663 26.4022 138.75 26.6861C138.836 26.9704 138.961 27.222 139.123 27.4403C139.286 27.6589 139.497 27.7681 139.757 27.7681C139.995 27.7681 140.211 27.7302 140.406 27.6533C140.601 27.5769 140.818 27.4843 141.056 27.3746C141.402 27.1564 141.706 26.8614 141.965 26.4893C142.225 26.1178 142.437 25.7138 142.599 25.2762C142.761 24.8391 142.891 24.38 142.989 23.8989C143.086 23.4185 143.156 22.9593 143.2 22.522V22.358H143.2Z" fill="#EEE8DC"/>
<path d="M44.7204 71.6069C43.186 72.4095 37.515 75 28.1147 75C19.2869 75 13.1546 72.3895 11.4964 71.596C11.2307 71.4692 11.0872 71.1757 11.1465 70.8841L13.2031 60.8641L13.2373 60.8587C17.609 60.1594 22.7272 58.7066 28.0412 56.6559C33.3048 58.7084 38.416 60.0906 42.8253 60.6523L42.9133 60.6631L45.0489 70.9059C45.1063 71.1867 44.9735 71.4729 44.7205 71.607L44.7204 71.6069Z" fill="#EEE8DC"/>
<path d="M42.7912 59.9149C38.6851 59.3823 33.9347 58.1196 29.0425 56.2645C30.0457 55.8641 31.031 55.4547 31.9732 55.0435C35.1192 53.674 38.1199 52.1884 40.8854 50.6251L42.7913 59.9149H42.7912Z" fill="#EEE8DC"/>
<path d="M35.2736 23.2917L38.7515 17.7101C38.8897 17.4855 38.7587 17.1921 38.5021 17.1486L35.2736 16.6033V10.625L38.3478 10.5833C38.7247 10.5796 38.9687 10.1828 38.8072 9.83873C37.8631 7.84958 34.8195 2.46015 29.2615 1.83328V1.04891C29.2615 0.470999 28.7949 0 28.2225 0H27.9677C27.3969 0 26.9286 0.470999 26.9286 1.04891V1.83328C21.3706 2.46015 18.3269 7.84958 17.3829 9.83873C17.2196 10.1829 17.4655 10.5796 17.8424 10.5833L20.9166 10.625V16.5126L17.6736 17.1395C17.4206 17.1884 17.2968 17.4782 17.4332 17.6974L20.9166 23.2917L15.5291 49.7066L15.6063 49.7537C18.2929 51.3786 21.1858 52.8931 24.2062 54.2573C25.4605 54.8243 26.7509 55.3696 28.043 55.8786C29.2706 55.4004 30.4962 54.8949 31.688 54.3768C34.8322 53.0109 37.8418 51.5164 40.6343 49.9366L40.7114 49.8932L35.2737 23.2918L35.2736 23.2917ZM30.3006 14.9258C30.3006 15.1377 30.1319 15.308 29.9237 15.308H26.2663C26.0581 15.308 25.8876 15.1377 25.8876 14.9258V12.462C25.8876 11.2373 26.88 10.2355 28.095 10.2355C28.7015 10.2355 29.2525 10.4856 29.6527 10.8895C30.0529 11.2934 30.3006 11.8496 30.3006 12.462V14.9258Z" fill="#EEE8DC"/>
<path d="M27.0451 56.2608C22.1475 58.105 17.4205 59.4348 13.3591 60.1068L15.3422 50.4384C18.0216 52.0524 20.9056 53.5616 23.9133 54.9203C24.9632 55.3949 26.0166 55.8441 27.0449 56.2608H27.0451Z" fill="#EEE8DC"/>
<path d="M54.9551 57.6177C54.0148 59.7391 51.2204 60.8441 46.9385 60.8441C45.7127 60.8441 44.3615 60.7517 42.897 60.5687L42.809 60.0289C42.8396 60.0198 42.8719 60.018 42.9042 60.0217C49.1585 60.8169 53.3722 59.8604 54.4634 57.3967C55.551 54.9456 53.4746 51.1557 48.7672 46.9999C48.656 46.9021 48.6452 46.73 48.7421 46.6177C48.8409 46.5035 49.0114 46.4927 49.1226 46.5923C54.092 50.9782 56.163 54.8949 54.9551 57.6177Z" fill="#EEE8DC"/>
<path d="M46.6576 45.1818C46.6006 45.1818 46.5429 45.1634 46.494 45.1257C44.4259 43.5255 42.0721 41.9557 39.4977 40.4597C39.3688 40.3848 39.3246 40.2188 39.3987 40.0886C39.4728 39.9585 39.6375 39.9138 39.7664 39.9887C42.3611 41.4964 44.7349 43.0797 46.8216 44.6943C46.9396 44.7856 46.9619 44.9561 46.8715 45.0753C46.8185 45.1451 46.7385 45.1816 46.6577 45.1816L46.6576 45.1818Z" fill="#EEE8DC"/>
<path d="M9.85164 46.5684C9.79509 46.5684 9.73822 46.5505 9.68973 46.5135C3.00178 41.4194 -0.157016 36.4974 1.23981 33.3474C2.73733 29.9699 9.03524 29.1884 18.0865 31.2569C18.2315 31.29 18.3224 31.4356 18.2896 31.5819C18.2568 31.7285 18.1122 31.82 17.9676 31.787C9.31644 29.81 3.09519 30.493 1.73119 33.5693C0.44408 36.4719 3.54046 41.1487 10.0139 46.0797C10.1326 46.1702 10.1562 46.3405 10.0666 46.4603C10.0137 46.5312 9.93308 46.5684 9.85153 46.5684H9.85164Z" fill="#EEE8DC"/>
<path d="M15.5056 49.7989L15.3693 50.3297C15.3387 50.3242 15.31 50.3133 15.2831 50.2971C14.0843 49.5724 12.925 48.8224 11.8339 48.0689C11.7119 47.9837 11.6813 47.8152 11.7639 47.6903C11.8483 47.5671 12.0169 47.5363 12.1389 47.6196C13.2031 48.3569 14.3373 49.0907 15.5056 49.799V49.7989Z" fill="#EEE8DC"/>
<path d="M40.9409 50.4909C40.9158 50.5054 40.8871 50.5163 40.8601 50.5199L40.7327 49.9837C50.6265 44.3822 56.3873 38.5453 55.0664 35.4548C54.9086 35.0871 54.6465 34.7591 54.2876 34.4802C54.1692 34.3896 54.1458 34.2193 54.2373 34.0997C54.327 33.9802 54.4958 33.9585 54.6142 34.049C55.0485 34.3841 55.3661 34.7845 55.5617 35.2411C57.0208 38.6577 51.2816 44.645 40.9409 50.4911V50.4909Z" fill="#EEE8DC"/>
<path d="M39.101 34.7513C38.9801 34.7513 38.8703 34.6685 38.8398 34.5448C38.804 34.3992 38.8921 34.2517 39.0364 34.2156C40.0276 33.9679 42.1365 33.4804 43.0182 33.3023C43.1647 33.272 43.3058 33.3682 43.335 33.5153C43.3641 33.6625 43.2696 33.8057 43.1239 33.8351C42.2645 34.0087 40.1309 34.5018 39.1659 34.743C39.1442 34.7484 39.1223 34.7511 39.101 34.7511V34.7513Z" fill="#EEE8DC"/>
<path d="M2.45821 55.192C2.41047 55.192 2.36219 55.1793 2.31848 55.1523C2.19148 55.0743 2.15124 54.9071 2.22866 54.7789C4.18266 51.5412 9.12723 47.4991 15.7945 43.6888C15.9238 43.6148 16.0881 43.6607 16.1613 43.7915C16.2346 43.922 16.189 44.0878 16.0596 44.1617C9.46975 47.9276 4.59618 51.9005 2.68829 55.0615C2.63762 55.1456 2.549 55.1919 2.45821 55.1919V55.192Z" fill="#EEE8DC"/>
<path d="M13.1586 60.2495L13.0272 60.7961C11.1634 61.0179 9.48422 61.1028 8.02138 61.0521C6.13035 60.9866 4.59988 60.6943 3.48979 60.1827C3.3543 60.12 3.2945 59.9584 3.35735 59.821C3.41846 59.6853 3.57928 59.6256 3.71651 59.6884C5.6083 60.5625 8.84137 60.756 13.0635 60.2444C13.0972 60.2401 13.1288 60.2431 13.1586 60.2495Z" fill="#EEE8DC"/>
<path d="M52.7513 33.4207L52.3809 33.5463C50.8924 34.051 49.7628 35.2278 49.4304 36.7769L49.1185 38.3767C49.0755 38.577 48.7941 38.5818 48.7443 38.3832L48.3403 36.7769C47.9751 35.3179 46.8928 34.0586 45.4875 33.5567L45.1035 33.4195C44.9244 33.3555 44.936 33.096 45.1201 33.0486L45.1234 33.0477C46.7302 32.6343 47.9581 31.2771 48.3403 29.6483L48.7435 28.0864C48.7911 27.8841 49.0779 27.8887 49.1189 28.0925L49.4303 29.6483C49.7746 31.3592 51.0543 32.6374 52.7354 33.0482C52.9227 33.094 52.9341 33.3587 52.7513 33.4206V33.4207Z" fill="#EEE8DC"/>
<path d="M1.8844 59.6558C2.92513 59.6558 3.76881 58.8042 3.76881 57.7536C3.76881 56.703 2.92513 55.8514 1.8844 55.8514C0.843676 55.8514 0 56.703 0 57.7536C0 58.8042 0.843676 59.6558 1.8844 59.6558Z" fill="#EEE8DC"/>
</svg>
