<svg width="50" height="50" viewBox="0 0 50 50" fill="none" xmlns="http://www.w3.org/2000/svg">
<path fill-rule="evenodd" clip-rule="evenodd" d="M25.7473 0C12.3529 0 1.49466 10.8411 1.49466 24.2142C1.49466 28.3301 2.52405 32.2089 4.34052 35.605L0.180149 46.4376C-0.635173 48.5605 1.46059 50.6409 3.58212 49.8146L14.3802 45.6092C17.7717 47.409 21.6417 48.4284 25.7473 48.4284C39.1417 48.4284 50 37.5873 50 24.2142C50 10.8411 39.1417 0 25.7473 0ZM25.4018 24.984C26.2617 25.6913 27.2099 26.2022 27.9777 26.543C28.056 26.5777 28.1436 26.5881 28.2525 26.5609C28.3696 26.5317 28.5119 26.4567 28.6401 26.3201C30.0222 24.8474 32.2057 24.449 34.0202 25.3383L35.1694 25.9016C36.2524 26.4325 37.2378 27.3255 37.7816 28.4485C38.3533 29.6294 38.4434 31.1339 37.4974 32.4746C36.9318 33.2764 36.0991 34.0389 34.9135 34.4929C32.1273 35.5598 29.0721 35.0062 26.4876 33.9477C23.8722 32.8766 21.4568 31.1784 19.7619 29.5168C18.2544 28.0391 16.2568 25.7716 15.0299 23.2543C13.8127 20.7569 13.1545 17.5418 15.2427 14.7272C15.9379 13.7903 16.7676 13.1976 17.6198 12.8649C19.0477 12.3074 20.3625 12.7377 21.2873 13.4339C22.1651 14.0946 22.7924 15.0447 23.1768 15.9304L23.8448 17.4692C24.4814 18.9358 24.305 20.6278 23.3795 21.9321C23.2809 22.071 23.239 22.2063 23.2309 22.3071C23.2234 22.3997 23.2426 22.4623 23.2739 22.5128C23.7271 23.2455 24.4293 24.1841 25.4018 24.984Z" fill="#EEE8DC"/>
</svg>
