<svg width="75" height="75" viewBox="0 0 75 75" fill="none" xmlns="http://www.w3.org/2000/svg">
<path d="M9.69174 0.0758898C7.05745 0.394455 5.07254 1.31339 3.27142 3.0655C1.78887 4.48679 0.808666 6.16539 0.281808 8.16255L0 9.20401V65.8106L0.281808 66.8521C0.833171 68.9228 1.81337 70.5646 3.4062 72.0716C4.86425 73.4684 6.39581 74.2648 8.57676 74.7672C9.5202 74.9877 10.6719 75 37.4314 75C64.1909 75 65.3426 74.9877 66.2861 74.7672C68.467 74.2648 69.9986 73.4684 71.4566 72.0716C73.0495 70.5646 74.0297 68.9228 74.581 66.8521L74.8628 65.8106V43.7561C74.8628 19.7044 74.8996 21.0522 74.1522 19.1898C73.3803 17.2907 73.1107 16.9721 65.8205 9.65735C62.0345 5.85908 58.5793 2.47738 58.1382 2.13431C57.1212 1.35015 55.6632 0.651758 54.3399 0.296435L53.2984 0.0268797L31.9178 0.00237472C20.1554 -0.00987779 10.1573 0.0268797 9.69174 0.0758898ZM10.6352 13.9457C10.6719 21.6403 10.6964 22.6205 10.8802 23.1596C11.5419 25.0833 13.0857 26.3943 15.0338 26.6638C16.1121 26.8231 48.0298 26.8109 49.1326 26.6638C49.6104 26.5903 50.2966 26.382 50.6641 26.1982C51.436 25.8184 52.5143 24.7892 52.8573 24.1153C53.47 22.9146 53.4822 22.7308 53.4822 13.9212V5.68754L53.8008 5.76106C54.5849 5.9571 55.7734 7.05982 62.0712 13.3821C69.5575 20.9174 69.288 20.5866 69.5453 22.645C69.6188 23.3067 69.6555 31.0502 69.631 44.4912C69.5943 63.3601 69.5698 65.3818 69.386 65.9699C68.8224 67.7955 67.2663 69.1923 65.4284 69.5354C64.4115 69.7192 10.4514 69.7192 9.42218 69.5354C7.5598 69.1923 6.00373 67.771 5.47687 65.9086C5.28083 65.2593 5.26858 62.9068 5.26858 37.4461C5.26858 11.2012 5.28083 9.65735 5.48912 9.00797C6.13851 6.9373 8.11116 5.40573 10.1941 5.35672L10.5862 5.34447L10.6352 13.9457ZM48.2136 21.3953H15.9895V5.34447H48.2136V21.3953Z" fill="#EEE8DC"/>
<path d="M35.2872 35.0446C32.6652 35.4611 30.1902 36.6864 28.3156 38.512C23.39 43.315 22.7039 50.4582 26.637 56.0331C29.9574 60.7381 35.9121 62.6985 41.5728 60.9586C44.7339 59.9784 47.6868 57.4299 49.2796 54.2933C52.0119 48.9021 50.9337 42.7759 46.486 38.4753C43.5822 35.6694 39.4531 34.4074 35.2872 35.0446ZM38.8405 40.3376C39.6001 40.4357 41.2174 41.0115 41.7443 41.3791C44.6114 43.4008 46.0204 46.905 45.224 50.0661C45.1137 50.5072 44.7952 51.3281 44.5256 51.904C44.109 52.7494 43.815 53.1415 42.9573 53.9992C41.3522 55.592 39.7594 56.2414 37.4314 56.2414C35.1034 56.2414 33.5106 55.592 31.9055 53.9992C31.0479 53.1415 30.7538 52.7494 30.3372 51.904C29.7001 50.5807 29.4305 49.527 29.4305 48.2895C29.4183 45.9615 30.2882 43.9521 31.9913 42.3471C33.0083 41.3914 33.3758 41.1586 34.5031 40.742C35.9611 40.2029 37.0516 40.1048 38.8405 40.3376Z" fill="#EEE8DC"/>
</svg>
