<svg width="65" height="75" viewBox="0 0 65 75" fill="none" xmlns="http://www.w3.org/2000/svg">
<path d="M24.1309 0.206236C22.9834 0.517329 21.9422 1.10733 21.0285 1.9977C20.3485 2.65207 19.9235 3.24208 18.1597 6.04191L16.0985 9.32448H9.12862C1.29811 9.32448 1.35123 9.32448 0.618118 10.0647C-0.178746 10.8585 -0.21062 12.4461 0.554369 13.2829C1.05374 13.83 1.61685 13.9802 3.31683 14.0231C4.81493 14.066 4.87868 14.0767 4.92118 14.302C4.95306 14.42 5.81367 26.2844 6.84428 40.6483C7.87489 55.0123 8.78863 67.1127 8.863 67.5311C9.21362 69.3762 10.1274 71.0604 11.5405 72.412C12.8792 73.6886 14.4729 74.4931 16.3004 74.815C17.7029 75.0617 47.3037 75.0617 48.7062 74.815C50.5337 74.4931 52.1274 73.6886 53.4661 72.412C54.8792 71.0604 55.793 69.3762 56.1436 67.5311C56.218 67.1127 57.1317 55.0123 58.1623 40.6483C59.1929 26.2844 60.0535 14.42 60.0748 14.302C60.1279 14.0767 60.1916 14.066 61.6897 14.0231C62.9966 13.9909 63.3472 13.948 63.7403 13.7549C64.3353 13.4867 64.6435 13.1541 64.856 12.5534C65.1747 11.6201 64.9516 10.5367 64.3141 9.97885C63.581 9.32448 63.5491 9.32448 55.878 9.32448H48.9081L46.8468 6.04191C44.52 2.35171 43.8719 1.59006 42.4163 0.817695C40.8332 -0.0190381 40.9713 -0.00831072 32.4608 0.00241663C25.374 0.00241663 24.8534 0.013144 24.1309 0.206236ZM39.8982 4.76536C40.2382 4.86191 40.5569 5.06573 40.8119 5.32318C41.1307 5.66646 43.3406 9.10994 43.3406 9.27085C43.3406 9.30303 38.4638 9.32448 32.5033 9.32448C26.5427 9.32448 21.6659 9.30303 21.6659 9.27085C21.6659 9.10994 23.8759 5.66646 24.2053 5.32318C24.8746 4.60445 24.7578 4.61518 32.4608 4.61518C38.2407 4.60445 39.4519 4.6259 39.8982 4.76536ZM55.4105 14.7632C55.3786 15.1709 54.5392 26.7672 53.5405 40.5411C52.5524 54.315 51.6705 65.9649 51.5855 66.4154C51.3836 67.5418 51.0649 68.1533 50.268 68.9364C49.503 69.698 48.7487 70.1056 47.8456 70.2558C46.9956 70.3953 18.011 70.3953 17.161 70.2558C16.2579 70.1056 15.5035 69.698 14.7385 68.9364C13.9417 68.1533 13.6229 67.5418 13.4211 66.4154C13.3361 65.9649 12.4542 54.315 11.4661 40.5411C10.4674 26.7672 9.62799 15.1709 9.59611 14.7632L9.52174 14.0445H32.5033H55.4848L55.4105 14.7632Z" fill="#EEE8DC"/>
</svg>
