<svg width="75" height="75" viewBox="0 0 75 75" fill="none" xmlns="http://www.w3.org/2000/svg">
<path d="M58.7409 0.203041C57.4827 0.460962 56.0955 1.20248 54.9557 2.20193C53.2351 3.72796 8.04936 49.036 7.50094 49.799C6.7482 50.8307 6.16752 51.8731 5.71588 53.023C5.51156 53.5496 4.11362 58.2244 2.6189 63.3936C-0.0371878 72.6142 -0.0909548 72.7969 0.038086 73.2805C0.188633 73.8286 0.876851 74.6131 1.41452 74.8495C1.60808 74.9355 1.9737 75 2.23178 75C2.90924 75 20.9749 69.7556 22.3084 69.1645C22.8675 68.9174 23.7708 68.4338 24.2977 68.0791C25.4376 67.3269 25.2225 67.5418 53.4394 39.4285C68.3329 24.5873 73.2472 19.6331 73.6236 19.0635C74.6021 17.5804 75 16.2478 75 14.3779C75 12.6047 74.5806 11.2291 73.6021 9.7461C73.3225 9.33773 71.6987 7.61826 69.4728 5.40444C66.236 2.16969 65.6983 1.67534 64.8918 1.20248C63.7519 0.546935 63.225 0.332001 62.225 0.138561C61.1711 -0.0656263 59.8807 -0.0441329 58.7409 0.203041ZM61.9346 4.95308C62.5476 5.16801 62.7734 5.3722 66.1069 8.68218C69.1824 11.7342 69.6771 12.2716 69.9782 12.8841C70.2793 13.4859 70.3223 13.6901 70.3115 14.3887C70.3008 15.7965 70.1395 16.0222 66.1284 20.1274C64.2143 22.0833 62.3648 23.964 62.0207 24.2971L61.397 24.9204L55.7514 19.2784L50.1059 13.6364L50.9662 12.7659C51.4393 12.2931 53.3319 10.4339 55.1707 8.63919C58.6118 5.28623 59.0635 4.92084 60.0958 4.71665C60.655 4.60918 61.1174 4.67366 61.9346 4.95308ZM52.3964 22.6959L58.0096 28.3056L40.3526 45.941C24.1472 62.1255 22.6095 63.63 21.8352 64.0706C21.3728 64.3393 20.6738 64.6939 20.2867 64.8659C19.448 65.2205 5.92019 69.186 5.87718 69.0893C5.84492 69.0033 9.53333 56.3975 9.9097 55.3336C10.2538 54.3341 10.5979 53.6356 11.1571 52.8081C11.4367 52.389 17.7167 46.0269 29.126 34.6139C38.7718 24.9742 46.6863 17.0753 46.7186 17.0753C46.7508 17.0753 49.2994 19.6008 52.3964 22.6959Z" fill="#EEE8DC"/>
</svg>
