<svg width="76" height="75" viewBox="0 0 76 75" fill="none" xmlns="http://www.w3.org/2000/svg">
<path d="M16.6071 0.165035C14.8151 0.551335 13.6348 1.17371 12.4544 2.35407C11.5638 3.24471 11.0594 4.01731 10.6624 5.12255C10.0937 6.68922 10.0937 6.57118 10.0937 18.2675L10.1044 29.1268L10.9736 29.6097C11.5316 29.9209 12.3686 30.554 13.2699 31.3588L14.7078 32.625L14.7615 7.45108L15.019 6.80725C15.3516 5.99173 16.0921 5.25132 16.929 4.90794L17.5514 4.66114H38.2077C57.8125 4.66114 58.8855 4.67187 59.3469 4.85429C60.3663 5.26205 61.0531 5.94881 61.4716 6.98967C61.6433 7.40816 61.654 8.49195 61.7077 20.0273L61.7613 32.5928L63.1563 31.4017C64.444 30.3179 65.9999 29.1805 66.2252 29.1805C66.2789 29.1805 66.3218 24.4161 66.3218 18.2997C66.3218 6.51753 66.3325 6.65702 65.7316 5.09036C64.9376 2.97644 63.2851 1.32394 61.2355 0.572796C59.5401 -0.0388456 60.7634 -0.00665392 38.1326 0.00407664C20.2877 0.0148072 17.2295 0.0362683 16.6071 0.165035Z" fill="#EEE8DC"/>
<path d="M25.3203 19.0616C24.5155 19.4694 24.2044 20.0381 24.2044 21.0789C24.2044 22.0983 24.5477 22.71 25.3525 23.107L25.9105 23.386H50.505L51.063 23.107C51.8677 22.71 52.2111 22.0983 52.2111 21.0789C52.2111 20.0381 51.8999 19.4694 51.0951 19.0616L50.505 18.7719H25.9105L25.3203 19.0616Z" fill="#EEE8DC"/>
<path d="M4.12731 33.0864C2.41042 33.6444 1.21933 34.9536 0.811565 36.7456C0.661337 37.3572 0.650606 39.3209 0.682798 52.2298L0.71499 67.0057L0.951062 67.8642C1.97047 71.534 4.74968 74.1416 8.36588 74.8283C9.17067 74.9785 12.2289 75 38.2076 75C64.1862 75 67.2445 74.9785 68.0492 74.8283C70.3349 74.3991 72.438 73.1114 73.7901 71.3194C74.4232 70.4717 75.1529 68.9694 75.4641 67.8642L75.7001 67.0057L75.7323 52.2298C75.7645 39.3209 75.7538 37.3572 75.6036 36.7456C75.1851 34.9214 73.9511 33.5908 72.1805 33.0542C70.968 32.6787 69.7447 32.7752 68.4677 33.3332C67.8561 33.6015 68.618 32.9899 53.6488 45.2334C46.6632 50.9421 40.6756 55.803 40.3537 56.0176C39.5811 56.522 39.1197 56.6722 38.2076 56.6722C37.2955 56.6722 36.8341 56.522 36.0615 56.0176C35.7395 55.803 29.7519 50.9528 22.7663 45.2334C7.80789 33.0006 8.55903 33.6122 7.94739 33.3332C6.63826 32.7645 5.38278 32.6787 4.12731 33.0864ZM19.8261 48.8818C31.5975 58.5179 33.6578 60.1596 34.3982 60.5137C35.8683 61.222 36.3297 61.3185 38.2612 61.3185C39.903 61.3078 40.021 61.2971 40.9439 60.9752C41.4804 60.7927 42.253 60.4494 42.6607 60.2026C43.1007 59.9558 48.9381 55.2236 56.75 48.796C64.0897 42.7547 70.2168 37.7328 70.367 37.6362C70.5709 37.5074 70.6997 37.486 70.8499 37.5611C71.0431 37.6684 71.0431 38.1727 71.0216 52.3371L70.9894 67.0057L70.646 67.7354C70.0129 69.0767 68.7253 70.0425 67.2874 70.2786C66.3216 70.4288 10.0935 70.4288 9.12775 70.2786C7.68985 70.0425 6.40219 69.0767 5.76908 67.7354L5.4257 67.0057L5.39351 52.3585C5.37205 38.8273 5.38278 37.7006 5.54374 37.5825C5.67251 37.4967 5.79054 37.486 5.91931 37.5503C6.02662 37.6147 12.2825 42.7117 19.8261 48.8818Z" fill="#EEE8DC"/>
<path d="M25.5882 33.022C24.6761 33.3976 24.2684 33.9556 24.1825 34.9643C24.0967 35.8227 24.4723 36.649 25.1268 37.0889L25.5882 37.3894L50.6119 37.443L51.0948 37.1962C51.406 37.0246 51.6742 36.767 51.8888 36.4236C52.1678 35.973 52.2108 35.8013 52.2108 35.1467C52.2 34.3097 52.0391 33.8805 51.5455 33.4298C50.8802 32.8074 51.3738 32.8289 38.1645 32.8396C27.0047 32.8396 25.996 32.8504 25.5882 33.022Z" fill="#EEE8DC"/>
</svg>
