<svg width="81" height="75" viewBox="0 0 81 75" fill="none" xmlns="http://www.w3.org/2000/svg">
<path d="M26.0043 0.139843C23.7055 0.643067 21.887 2.01549 20.9263 4.00551C20.0914 5.69817 20.08 5.8011 20.0228 10.6275L19.9885 14.9392L14.2472 14.9735C8.75747 15.0192 8.47155 15.0307 7.61378 15.2708C5.72669 15.7969 4.28565 16.6204 2.98184 17.9242C1.6666 19.2394 0.808832 20.7491 0.305609 22.6362L0.0425608 23.5855L0.00825011 44.2291C-0.0146237 59.3486 0.00825011 65.1586 0.0997452 65.9591C0.694463 70.8427 4.2399 74.3195 9.19207 74.8799C10.6102 75.04 69.4187 75.04 70.8369 74.8799C75.6518 74.3309 79.1744 70.9799 79.8835 66.2794C80.0207 65.3187 80.0436 62.1507 80.0093 44.3777L79.9864 23.5855L79.7234 22.6362C78.7284 18.9307 76.1322 16.3002 72.4152 15.2708C71.5574 15.0307 71.2715 15.0192 65.7818 14.9735L60.0405 14.9392L60.0062 10.6275C59.949 5.78967 59.9375 5.69817 59.0912 3.9712C58.7367 3.23924 58.4279 2.80464 57.8103 2.18705C56.8839 1.2721 56.1405 0.81462 54.8253 0.345707L53.9103 0.0254745L40.3004 0.00260072C29.3896 -0.00883617 26.5533 0.0140376 26.0043 0.139843ZM53.2813 5.06914C54.0361 5.29788 54.688 5.90404 54.871 6.5445C54.9511 6.84186 54.9968 8.43159 54.9968 10.9706V14.9506H40.0145H25.0322V10.9706C25.0322 8.51165 25.0779 6.83042 25.158 6.56737C25.3295 5.91547 25.9014 5.3665 26.6333 5.11489C27.2395 4.89759 27.7999 4.89759 39.9687 4.88615C51.3027 4.88615 52.7323 4.90903 53.2813 5.06914ZM71.6947 20.143C73.1929 20.6462 74.4624 21.9729 74.8512 23.4597C74.9771 23.9286 75.0114 25.667 75.0114 32.0145V39.9974H40.0145H5.01761V32.0145C5.01761 23.8256 5.04048 23.4482 5.47508 22.6133C5.80675 21.9729 6.47009 21.218 7.07625 20.7949C7.78533 20.3031 8.32287 20.0972 9.24926 19.9828C9.59236 19.9371 23.6483 19.9028 40.472 19.9142C69.9448 19.9257 71.0885 19.9371 71.6947 20.143ZM27.5712 49.3413C27.6055 53.6759 27.6169 53.7903 27.8685 54.4308C28.5319 56.0662 29.9386 57.0956 31.8714 57.3815C32.8779 57.5302 47.1511 57.5302 48.1576 57.3815C50.0904 57.0956 51.4971 56.0662 52.1605 54.4308C52.4121 53.7903 52.4235 53.6759 52.4578 49.3413L52.4921 44.9153H63.746H75.0114V55.3457C75.0114 63.6946 74.9771 65.902 74.8512 66.3594C74.3709 68.155 72.9299 69.5046 71.1228 69.8477C70.2879 70.0078 9.74104 70.0078 8.90615 69.8477C7.09912 69.5046 5.65807 68.155 5.17772 66.3594C5.05192 65.902 5.01761 63.6946 5.01761 55.3457V44.9153H16.2829H27.5368L27.5712 49.3413ZM47.5628 48.6894V52.4636H40.0145H32.4661V48.6894V44.9153H40.0145H47.5628V48.6894Z" fill="#EEE8DC"/>
</svg>
