<svg width="52" height="75" viewBox="0 0 52 75" fill="none" xmlns="http://www.w3.org/2000/svg">
<path d="M24.1962 0.0256986C24.0226 0.0471689 23.4044 0.122315 22.8403 0.186726C18.2956 0.702013 14.0437 2.3767 10.4752 5.03901C9.11932 6.05885 6.63544 8.45279 5.56162 9.78395C2.6981 13.3266 0.96264 17.2986 0.203375 22.0757C-0.0677916 23.8041 -0.0677916 27.8512 0.203375 29.5688C0.648087 32.2848 1.38566 34.668 2.49202 36.9546C3.39229 38.8118 4.05394 39.8316 6.48359 43.1166C10.9307 49.1712 12.9048 52.6065 13.4797 55.3547L13.6641 56.2135H16.0829C18.1329 56.2135 18.5017 56.192 18.5017 56.0525C18.5017 55.4835 17.7641 52.9178 17.1892 51.4578C16.2673 49.1605 14.5643 46.3264 11.9828 42.7945C11.4947 42.1182 10.7355 41.0555 10.3125 40.4328C9.88943 39.8102 9.11932 38.7045 8.60953 37.9637C6.13649 34.3997 4.94336 31.0073 4.66135 26.6918C4.46611 23.7182 5.33384 19.5851 6.75475 16.59C11.7659 6.11253 24.4999 1.70038 35.2597 6.7137C40.6722 9.23646 44.7506 14.0136 46.421 19.7784C47.1585 22.3441 47.4622 24.9635 47.2561 27.2071C47.0067 30.1056 46.3342 32.5747 45.1736 34.9364C44.5336 36.2354 42.0498 40.0571 41.5617 40.4865C41.0302 40.9481 38.5897 44.5122 36.9952 47.153C35.5743 49.504 34.7825 51.2109 34.1968 53.2613C33.969 54.0665 33.5785 55.87 33.5785 56.1383C33.5785 56.1813 34.6415 56.2135 35.9431 56.2135H38.3077L38.4595 55.4835C38.991 52.7997 40.5529 49.8905 43.9696 45.1885C44.577 44.3511 45.076 43.6426 45.076 43.6104C45.076 43.5782 45.6725 42.7623 46.4101 41.8069C47.9503 39.7887 48.6228 38.7259 49.5231 36.8687C51.0633 33.6911 51.866 30.374 51.9853 26.6381C52.1914 20.3903 50.2281 14.4645 46.4101 9.78395C44.7723 7.77648 42.0714 5.32886 40.0865 4.06212C36.0082 1.45347 31.5393 0.122315 26.474 0.0149635C25.4001 -0.00650682 24.3806 -0.00650682 24.1962 0.0256986Z" fill="#EEE8DC"/>
<path d="M24.9012 9.36528C22.7536 9.53704 20.3022 10.1812 18.6861 10.9756C17.0591 11.7807 15.9419 12.5858 14.445 14.0136C11.4514 16.8906 9.90028 20.1434 9.48811 24.4267C9.33625 25.9618 9.45557 26.7026 9.90028 27.2393C10.6162 28.0767 12.0262 28.3021 13.0133 27.7224C13.7508 27.293 14.0112 26.6918 14.163 25.0708C14.2823 23.7289 14.6403 22.1723 15.0633 21.1203C16.0829 18.6297 18.1003 16.4827 20.5083 15.3126C22.1895 14.5074 23.3176 14.2068 25.4978 14.0136C26.897 13.8955 27.5044 13.6486 27.884 13.0689C28.6867 11.8666 28.2962 10.1275 27.1031 9.60146C26.6041 9.38675 25.7798 9.29014 24.9012 9.36528Z" fill="#EEE8DC"/>
<path d="M15.5188 61.0121C14.4993 61.259 14.163 61.7958 14.163 63.2021C14.163 69.772 19.4128 75 25.975 75C29.1856 75 32.4288 73.6688 34.5656 71.4896C36.5939 69.4285 37.8087 66.326 37.8087 63.2128C37.8087 61.8494 37.4942 61.3019 36.5613 61.055C36.1275 60.9369 15.9961 60.894 15.5188 61.0121ZM32.5372 65.8966C32.2878 66.7125 31.3658 67.9792 30.5306 68.6663C27.9491 70.7918 24.1853 70.8348 21.5604 68.7843C20.7035 68.108 19.684 66.7339 19.4236 65.8966L19.3586 65.6604H32.6132L32.5372 65.8966Z" fill="#EEE8DC"/>
</svg>
