<svg width="86" height="75" viewBox="0 0 86 75" fill="none" xmlns="http://www.w3.org/2000/svg">
<path d="M12.7267 0.0293108C9.5534 0.360118 7.29901 1.18101 5.13039 2.77378C2.34916 4.84439 0.499091 8.31174 0.0947709 12.2079C0.0090061 13.0901 -0.0154981 21.397 0.0090061 38.4274L0.0580145 63.3605L0.315309 64.4632C0.793141 66.4603 1.31998 67.6977 2.30015 69.2048C4.19923 72.1085 7.18874 74.0076 11.0727 74.7795C12.0773 74.9755 13.0208 75 21.1807 75C30.1615 75 30.186 75 30.676 74.7305C31.6317 74.2281 32.085 73.444 32.085 72.3413C32.085 71.7164 31.8155 70.9691 31.4479 70.5035C31.3499 70.3932 31.0314 70.1727 30.7373 70.0134L30.186 69.7316L21.1194 69.6703L12.0528 69.5968L11.1952 69.315C8.23017 68.3349 6.34335 66.3623 5.62047 63.4953C5.37543 62.5396 5.37543 62.0863 5.37543 37.5085C5.37543 12.8573 5.37543 12.4775 5.62047 11.534C6.20858 9.2184 7.64207 7.36833 9.60241 6.36365C11.5137 5.38349 10.9501 5.43249 21.1194 5.35898L30.1982 5.28547L30.7986 4.97917C31.6072 4.56259 32.085 3.69269 32.085 2.66352C32.0728 1.49956 31.5705 0.690925 30.5535 0.237597C30.1002 0.0293108 29.4631 0.0170587 21.6095 0.00480656C16.9659 -0.00744555 12.9595 0.00480656 12.7267 0.0293108Z" fill="#EEE8DC"/>
<path d="M55.7071 10.9214C53.4405 11.4973 51.7252 13.2003 51.1371 15.467C50.9901 16.0306 50.9533 17.0107 50.9533 20.135V24.0802L41.6172 24.117C32.3668 24.1537 32.2566 24.166 31.4724 24.4233C31.0314 24.5703 30.4065 24.8766 30.0634 25.0849C29.2058 25.624 27.9193 26.984 27.5273 27.7804C26.8166 29.1893 26.8166 29.2261 26.8166 37.4718C26.8166 42.6054 26.8656 45.2396 26.9514 45.6807C27.1842 46.7834 27.7845 47.8371 28.7157 48.7805C29.6346 49.7239 30.3575 50.2017 31.4602 50.606C32.1218 50.8511 32.4158 50.8633 41.5559 50.9001L50.9533 50.9368V54.882C50.9533 59.1703 51.0023 59.5991 51.6639 60.9468C52.154 61.976 53.3057 63.0787 54.3961 63.6055C55.5356 64.1446 56.4913 64.3284 57.8145 64.2426C59.0152 64.1691 60.0566 63.8383 60.9388 63.2502C61.2818 63.0297 66.7463 57.9328 73.0929 51.9293C84.4996 41.1352 84.6344 41.0004 85.0877 40.0937C85.9943 38.2559 85.9208 36.1118 84.9039 34.5435C84.5609 34.0044 81.4733 31.0394 72.9213 23.0143C66.587 17.0598 61.1471 11.9996 60.8163 11.7791C59.8606 11.093 59.0274 10.8357 57.6307 10.7867C56.8343 10.7622 56.1604 10.7989 55.7071 10.9214ZM58.7211 16.9617C59.199 17.4273 64.1366 22.0709 69.699 27.278C75.2615 32.4852 79.9418 36.8714 80.1133 37.0307C80.3584 37.2635 80.3829 37.3738 80.2971 37.6188C80.2236 37.7781 75.9599 41.8703 70.8017 46.7099C65.6436 51.5495 60.6202 56.2665 59.6278 57.1977C58.0473 58.6802 57.7777 58.8885 57.4102 58.8885C57.1161 58.8885 56.9078 58.7905 56.6383 58.5087L56.283 58.1411L56.2217 52.7869C56.185 49.8464 56.1114 47.3225 56.0502 47.1877C55.7929 46.6241 55.2905 46.0973 54.7637 45.8522C54.2001 45.5949 54.0898 45.5949 43.5898 45.5337C33.1877 45.4724 32.9672 45.4724 32.6976 45.2274C32.085 44.6883 32.085 44.6515 32.085 37.5085C32.085 30.1328 32.0728 30.194 32.8447 29.7284C33.2367 29.4834 33.4328 29.4834 43.4918 29.4834C52.5338 29.4834 53.808 29.4589 54.3839 29.2874C55.1925 29.0423 55.8909 28.393 56.0869 27.7068C56.1727 27.3883 56.2217 25.4892 56.2217 22.2301C56.2217 19.4244 56.2707 17.121 56.332 16.9495C56.528 16.4594 56.9568 16.1286 57.4224 16.1286C57.7777 16.1286 57.986 16.2634 58.7211 16.9617Z" fill="#EEE8DC"/>
</svg>
