<svg width="67" height="75" viewBox="0 0 67 75" fill="none" xmlns="http://www.w3.org/2000/svg">
<path d="M30.6304 0.158396C24.4597 1.12423 19.1154 5.11636 16.4326 10.7719C13.8892 16.1376 14.1468 22.8126 17.0979 27.9316C17.9886 29.4769 18.772 30.4857 20.1993 31.913C22.292 34.0056 24.3202 35.3256 26.9065 36.2914C31.1884 37.8904 36.082 37.8368 40.3531 36.1519C42.8106 35.1861 44.6886 33.9305 46.7062 31.913C48.1335 30.4857 48.9169 29.4769 49.8076 27.9316C52.748 22.8341 53.0163 16.1269 50.4729 10.7719C47.7686 5.0627 42.4136 1.09204 36.1571 0.147664C34.8157 -0.0562346 31.9503 -0.0455031 30.6304 0.158396ZM36.2966 4.91246C39.119 5.53489 41.2546 6.70462 43.3901 8.84019C45.3969 10.847 46.5667 12.9826 47.2535 15.923C47.4145 16.5991 47.4574 17.2 47.4574 18.7668C47.4574 20.5697 47.4252 20.8595 47.1569 21.9112C46.1052 26.0857 43.4545 29.4232 39.677 31.3227C37.5307 32.3959 35.9639 32.7607 33.4528 32.7607C30.9416 32.7607 29.3748 32.3959 27.2285 31.3227C23.1505 29.273 20.3066 25.4204 19.5554 20.9239C19.2871 19.3463 19.373 16.9854 19.7593 15.4937C20.4247 12.886 21.53 10.8792 23.3329 8.99043C25.6724 6.56511 28.6343 5.09489 32.0577 4.66563C32.884 4.56905 35.3522 4.70856 36.2966 4.91246Z" fill="#EEE8DC"/>
<path d="M25.7261 44.5869C24.0734 44.7157 22.732 44.8766 21.7125 45.0698C11.3566 47.0015 3.15768 55.1252 1.16162 65.4489C0.81821 67.2411 0.689432 68.5074 0.6787 70.1172L0.667969 71.6196L1.0543 72.4244C1.45137 73.2508 2.21331 74.12 2.80354 74.4312C2.97524 74.5171 3.38304 74.6888 3.70499 74.7961C4.28449 74.9893 5.14301 75 33.4528 75C62.4815 75 62.6103 75 63.2434 74.7854C64.4561 74.3668 65.261 73.6371 65.8512 72.4244L66.2375 71.6196L66.2268 70.0635C66.1839 65.4275 64.7351 60.5446 62.2669 56.6598C58.4894 50.7146 52.2651 46.4327 45.4613 45.1127C42.9501 44.6298 42.4458 44.5976 34.1503 44.5761C29.7826 44.5654 25.9943 44.5654 25.7261 44.5869ZM42.3599 49.3302L42.8428 49.4053V54.1916L42.1238 54.4921C39.4409 55.6296 37.5522 57.9691 37.1122 60.7271C36.962 61.6178 36.962 65.8031 37.1015 66.3182C37.2839 66.9514 37.6595 67.4128 38.2283 67.7026C38.7327 67.9601 38.8614 67.9709 40.5356 67.9709C42.156 67.9709 42.3384 67.9494 42.7462 67.7348C43.5404 67.3055 43.9696 66.5865 43.9696 65.6636C43.9696 64.4616 43.2721 63.6246 42.1131 63.4314C41.6838 63.3563 41.6624 63.3348 41.6302 62.927C41.5765 62.3583 41.7911 61.2207 42.0594 60.5876C42.1882 60.2871 42.4994 59.8793 42.8106 59.6003C44.5599 58.0227 47.2535 58.5057 48.2837 60.5876C48.5842 61.1993 48.6378 61.4354 48.67 62.2939C48.7022 63.0773 48.6808 63.3134 48.5735 63.3456C48.4876 63.367 48.2193 63.4422 47.9725 63.5065C46.6096 63.8714 46.0194 65.4489 46.7169 66.8226C46.9745 67.3055 47.1247 67.4772 47.5647 67.6918C48.0691 67.9601 48.1764 67.9709 49.872 67.9709C51.5675 67.9709 51.6749 67.9601 52.1792 67.6918C53.2846 67.1231 53.4563 66.4899 53.3812 63.1524C53.3275 60.4159 53.188 59.7076 52.4368 58.2266C52.0827 57.5398 51.7715 57.132 50.9773 56.3594C50.0866 55.4794 49.8505 55.2969 48.7452 54.7604L47.511 54.1594V50.5321L47.9725 50.7038C48.9813 51.0902 51.1168 52.1741 51.9968 52.7428C54.5509 54.4062 56.7079 56.5525 58.3391 59.053C60.2064 61.9183 61.4835 66.0606 61.5801 69.5806L61.6123 70.3318H5.30398L5.32545 69.5269C5.38984 66.9084 6.16251 63.807 7.36443 61.3173C10.0259 55.8013 14.6941 51.8628 20.6393 50.1029C21.0042 49.9956 21.4013 49.8775 21.53 49.8346C21.7554 49.7702 21.7554 49.7809 21.7554 52.056V54.3418L20.8647 54.8033C18.8364 55.8335 17.613 57.5184 17.1838 59.8686C17.0228 60.7164 17.0121 61.0168 17.1194 61.6929C17.4413 63.8714 18.3642 65.4919 19.8988 66.5972C20.8003 67.2411 21.8842 67.6704 23.0968 67.8743C23.9768 68.0245 24.17 68.0245 25.0392 67.8743C26.2519 67.6704 27.3358 67.2304 28.2158 66.5972C29.0421 66.007 29.3318 65.6958 29.9006 64.8158C30.684 63.5924 31.1777 61.7788 31.0489 60.5768C30.7699 57.8618 29.4392 55.8657 27.1534 54.7389L26.3699 54.3526V49.2444L34.1288 49.2551C38.3892 49.2551 42.0916 49.298 42.3599 49.3302ZM25.2646 58.9456C26.3163 59.493 26.6812 60.931 26.0802 62.1329C25.8334 62.6051 25.6831 62.7553 25.2002 63.0022C23.9983 63.6246 22.6139 63.2383 22.0559 62.1329C21.4335 60.9202 21.8091 59.493 22.8607 58.9349C23.5368 58.5915 24.5885 58.5915 25.2646 58.9456Z" fill="#EEE8DC"/>
</svg>
