<svg width="95" height="75" viewBox="0 0 95 75" fill="none" xmlns="http://www.w3.org/2000/svg">
<path d="M2.17338 0.314211C0.3723 0.939924 -0.435083 2.77013 0.232561 4.70985C0.543093 5.60149 1.11758 6.18027 2.00259 6.52441C2.68576 6.79034 5.04581 6.80598 47.511 6.80598C89.9763 6.80598 92.3363 6.79034 93.0195 6.52441C93.9045 6.18027 94.479 5.60149 94.7895 4.70985C95.2553 3.34892 94.9292 1.76899 93.9976 0.955567C92.8487 -0.07686 96.3732 0.00135412 47.4489 0.00135412C4.25395 0.0169969 2.99629 0.016997 2.17338 0.314211Z" fill="#EEE8DC"/>
<path d="M2.08004 34.4538C0.76028 35.0013 0.170269 35.8147 0.0460564 37.2851C-0.0781563 38.5366 0.465274 39.7411 1.4124 40.3824L2.08004 40.8204L92.6467 40.8986L93.3298 40.5389C93.7801 40.2886 94.1683 39.9131 94.4788 39.4126C94.8825 38.7556 94.9446 38.5053 94.9446 37.5511C94.9291 36.3309 94.6962 35.7052 93.9819 35.0482C92.9882 34.1097 96.3109 34.1722 47.4487 34.1879C5.75985 34.1879 2.67005 34.2035 2.08004 34.4538Z" fill="#EEE8DC"/>
<path d="M1.69179 68.6959C0.527298 69.2904 0.0770264 70.1194 0.0770264 71.6368C0.0770264 73.1229 0.573877 74.0145 1.73837 74.5933L2.54575 75H92.4758L93.2832 74.5933C94.4476 74.0145 94.9445 73.1229 94.9445 71.6368C94.9445 70.1194 94.4942 69.2904 93.3297 68.6959L92.4758 68.2736H2.54575L1.69179 68.6959Z" fill="#EEE8DC"/>
</svg>
