<svg width="75" height="75" viewBox="0 0 75 75" fill="none" xmlns="http://www.w3.org/2000/svg">
<path d="M61.3488 1.97026C51.1383 4.04782 50.6827 4.16923 50.0127 5.05961C49.2892 6.00395 49.3026 5.81509 49.2892 15.933C49.2892 21.1134 49.249 25.3495 49.2088 25.3495C49.1686 25.3495 48.8604 25.1606 48.5388 24.9313C46.5958 23.5822 43.4737 22.8672 40.9412 23.191C36.6132 23.7306 33.4911 26.1319 32.9283 29.3427C32.4459 32.0948 34.563 35.1167 37.8593 36.3578C39.3199 36.9109 40.5258 37.1268 42.2544 37.1268C43.9963 37.1268 45.0817 36.9244 46.5958 36.3173C49.182 35.2786 51.0177 33.282 51.4331 31.029C51.5135 30.5838 51.5671 25.8756 51.5671 18.6177C51.5671 6.05792 51.5403 6.57056 52.2103 6.20631C52.5318 6.03093 71.0098 2.41545 71.5726 2.41545C71.8808 2.41545 72.122 2.52338 72.3498 2.76621L72.6714 3.11696L72.7116 11.8724C72.725 16.6885 72.7116 20.6278 72.6714 20.6278C72.6178 20.6278 72.3096 20.4389 71.988 20.2096C69.5627 18.5232 65.717 17.9431 62.6351 18.7796C59.1512 19.7374 56.8599 21.8824 56.3775 24.6345C56.0961 26.2129 56.7929 28.196 58.1061 29.5855C59.1512 30.6918 61.0808 31.7036 63.0371 32.1757C64.2833 32.486 66.99 32.486 68.2361 32.1757C71.8272 31.2988 74.2123 29.2348 74.8153 26.4962C75.0029 25.6733 75.0163 24.0544 74.9895 14.0848L74.9493 2.61781L74.6411 1.98375C74.0649 0.810071 72.7384 -0.0263468 71.4788 0.000634394C71.1706 0.000634394 66.6148 0.891014 61.3488 1.97026ZM67.3786 20.9246C68.5443 21.1134 70.1121 21.734 70.8892 22.3141C71.6798 22.8942 72.4302 24.0139 72.5776 24.8099C72.9394 26.82 71.385 28.7221 68.6783 29.5855C66.5478 30.2735 64.5378 30.2601 62.4877 29.5451C60.0222 28.7086 58.6554 27.2112 58.6554 25.39C58.6554 23.0965 61.121 21.2214 64.7388 20.7762C65.6232 20.6682 65.985 20.6952 67.3786 20.9246ZM44.1571 25.6867C46.1001 26.0645 47.574 26.8874 48.4316 28.0611C50.1467 30.4219 48.8336 33.0796 45.3363 34.2668C43.9561 34.7389 42.174 34.9683 41.1422 34.7794C38.0871 34.2533 36.305 33.2145 35.501 31.5012C34.2414 28.7896 36.8812 26.0105 41.1824 25.5114C42.2276 25.39 42.7636 25.4169 44.1571 25.6867Z" fill="#EEE8DC"/>
<path d="M8.20611 0.459317C7.20114 0.675166 5.5932 1.33621 4.73563 1.88932C2.5783 3.26536 0.836355 5.90952 0.233375 8.68859C-0.0212166 9.90274 0.00558255 12.2636 0.286973 13.5452C0.621962 15.0292 1.66713 17.1067 2.6185 18.2264C3.04728 18.7121 6.41057 21.9903 10.0954 25.4979C17.1972 32.2432 17.5054 32.4995 18.7382 32.4995C19.9709 32.4995 20.2791 32.2432 27.3809 25.4979C31.0658 21.9903 34.429 18.7121 34.8444 18.2264C35.7824 17.1337 36.7338 15.2855 37.109 13.815C37.4439 12.5199 37.5109 9.92972 37.2429 8.68859C36.573 5.63971 34.5898 2.84715 32.1779 1.56555C30.5298 0.688657 29.3104 0.364882 27.5149 0.297429C24.3794 0.162523 21.9541 1.10687 19.6493 3.34631L18.7382 4.2097L17.8404 3.34631C16.2458 1.80838 14.8255 1.01243 12.8022 0.52677C11.5158 0.216486 9.46567 0.189505 8.20611 0.459317ZM13.0434 3.00904C14.7317 3.54867 16.1118 4.60093 18.0414 6.77292L18.7382 7.56887L19.4349 6.77292C21.3779 4.58744 22.7044 3.57565 24.433 2.99555C25.8935 2.50989 28.1312 2.48291 29.4578 2.94159C30.8112 3.41376 31.7223 3.99385 32.8077 5.10008C34.5094 6.82688 35.1258 8.36481 35.1258 10.982C35.1258 13.181 34.6568 14.7324 33.5313 16.2838C33.0087 16.9853 20.0647 29.3022 19.1937 29.9228L18.7382 30.2466L18.2826 29.9228C18.028 29.7474 14.7987 26.739 11.087 23.2315C3.78426 16.3647 3.35547 15.8791 2.79269 14.0444C2.18971 12.1017 2.18971 9.525 2.79269 7.89264C3.74406 5.34292 6.33017 3.17093 8.99668 2.68527C10.1222 2.48291 11.8374 2.61781 13.0434 3.00904Z" fill="#EEE8DC"/>
<path d="M68.6381 37.4506C68.1289 37.7473 48.0296 53.6258 47.5338 54.1384C46.5288 55.1502 46.837 57.1064 48.11 57.9563L48.6594 58.334L52.1969 58.3745C55.0644 58.4015 55.7209 58.4419 55.7209 58.6038C55.7209 58.6983 54.5954 61.936 53.2286 65.7808C50.5755 73.2546 50.5353 73.403 51.0981 74.2664C51.3929 74.7116 52.1701 75.0354 52.7328 74.9544C53.0678 74.9005 55.9487 72.7285 63.5463 66.8466C69.2411 62.4351 74.0917 58.6038 74.3195 58.334C75.5121 56.9715 74.9627 54.7455 73.2476 54.017C72.8456 53.8551 72.122 53.8147 69.4555 53.8147C66.722 53.8147 66.1726 53.7877 66.1726 53.6258C66.1726 53.5179 67.2847 50.2936 68.6515 46.4488C70.0183 42.604 71.1304 39.2853 71.1304 39.0559C71.1304 38.4354 70.7284 37.7473 70.1925 37.464C69.6029 37.1538 69.1607 37.1538 68.6381 37.4506ZM65.784 47.7978C64.444 51.6292 63.3587 54.8534 63.3587 54.9748C63.3587 55.3526 63.7473 55.9327 64.0555 56.0271C64.2297 56.0676 66.186 56.1081 68.4103 56.1081C72.2292 56.1081 72.4704 56.1215 72.591 56.3644C72.6982 56.5532 72.658 56.6747 72.4302 56.8905C71.8808 57.4032 53.7914 71.4739 53.7378 71.4199C53.711 71.3929 54.783 68.3171 56.1363 64.5802C57.5969 60.5195 58.5884 57.592 58.5884 57.2952C58.5884 56.9445 58.508 56.6882 58.2937 56.4858C57.9989 56.1755 57.9587 56.1755 53.6574 56.135C49.9725 56.1081 49.3025 56.0676 49.2356 55.8922C49.1552 55.6764 48.579 56.1485 60.1428 47.0289C64.5244 43.5753 68.1289 40.7692 68.1557 40.7962C68.1825 40.8232 67.124 43.98 65.784 47.7978Z" fill="#EEE8DC"/>
<path d="M14.2359 39.9058C12.9094 40.3645 12.1188 41.174 11.154 43.0626L10.4974 44.3712H8.25971C6.24978 44.3712 5.91479 44.4117 4.96342 44.7085C3.07408 45.3156 1.64033 46.4893 0.863155 48.0811C0.0189825 49.8214 0.0591812 49.2683 0.0189825 59.1569C-0.0346157 69.2749 -0.0346157 69.3693 0.863155 71.1906C1.51973 72.5396 2.4845 73.484 3.89145 74.172C4.52123 74.4823 5.37881 74.7656 5.87459 74.8465C7.06715 75.0489 35.099 75.0489 36.2782 74.86C38.5561 74.4823 40.5124 72.9848 41.4638 70.8803C42.1874 69.3019 42.2008 68.9781 42.1606 59.1569C42.1204 50.2396 42.107 50.0912 41.8256 49.2953C40.9546 46.867 39.5075 45.437 37.2028 44.7085C36.2514 44.4117 35.9164 44.3712 33.9065 44.3712H31.6687L30.9988 43.0492C30.3154 41.6866 29.6052 40.7962 28.8548 40.3241C27.8231 39.6765 27.5015 39.6495 21.0161 39.663C15.6027 39.663 14.8389 39.69 14.2359 39.9058ZM27.3273 42.1318C27.9973 42.4151 28.426 42.9412 29.163 44.4387C29.8598 45.8552 30.2082 46.2869 30.838 46.5162C31.0524 46.5972 32.2315 46.6646 33.5849 46.6646C36.6668 46.6646 37.4171 46.8805 38.5159 48.0407C39.2797 48.8366 39.6281 49.5786 39.7889 50.8197C39.8693 51.4673 39.9095 55.0153 39.8827 60.4251L39.8425 68.9916L39.5209 69.774C39.1055 70.8263 38.0469 71.8921 37.0018 72.3103L36.2246 72.634H5.94159L5.16441 72.3103C4.11925 71.8921 3.06068 70.8263 2.6453 69.774L2.32371 68.9916L2.28351 60.3036C2.24331 51.0761 2.28351 50.2396 2.84629 49.1199C3.27507 48.297 4.17285 47.4336 5.00362 47.0424C5.6066 46.7591 5.92819 46.7321 8.4875 46.6646C10.2562 46.6242 11.3952 46.5432 11.5694 46.4353C12.0518 46.1655 12.4002 45.6798 13.2443 44.1284C13.9277 42.8873 14.1823 42.55 14.6379 42.2802L15.1873 41.9429H21.0295C25.7863 41.9429 26.9655 41.9834 27.3273 42.1318Z" fill="#EEE8DC"/>
<path d="M19.6091 51.5752C18.2022 51.8585 17.3044 52.2497 16.2592 53.0457C13.9947 54.786 12.6146 57.9563 12.9764 60.5869C13.5793 64.8635 16.9158 67.8449 21.0965 67.8449C23.3208 67.8449 24.9824 67.1838 26.5769 65.6594C28.0241 64.2834 28.9084 62.5701 29.1898 60.5869C29.632 57.4571 27.5953 53.6797 24.701 52.2632C23.2404 51.5482 21.1903 51.2649 19.6091 51.5752ZM23.16 54.1249C25.9337 55.1367 27.5417 58.4284 26.6707 61.3154C26.0945 63.2041 24.768 64.6206 23.026 65.2007C18.9526 66.5498 15.0131 63.5414 15.2945 59.2918C15.3749 57.9967 15.7367 56.9849 16.4602 56.0406C18.0414 53.9765 20.6945 53.2211 23.16 54.1249Z" fill="#EEE8DC"/>
</svg>
