<svg width="30" height="50" viewBox="0 0 30 50" fill="none" xmlns="http://www.w3.org/2000/svg">
<path d="M6.68854 1.1047C5.15845 -0.368232 2.67767 -0.368232 1.14757 1.1047C-0.382524 2.57762 -0.382524 4.96571 1.14757 6.43864L23.3115 27.7744C24.8416 29.2474 27.3223 29.2474 28.8524 27.7744C30.3825 26.3015 30.3825 23.9134 28.8524 22.4405L6.68854 1.1047Z" fill="#E4754A"/>
<path d="M6.68854 48.8953C5.15845 50.3682 2.67767 50.3682 1.14757 48.8953C-0.382524 47.4224 -0.382524 45.0343 1.14757 43.5614L23.3115 22.2256C24.8416 20.7526 27.3223 20.7526 28.8524 22.2256C30.3825 23.6985 30.3825 26.0866 28.8524 27.5595L6.68854 48.8953Z" fill="#E4754A"/>
</svg>
