<svg width="600" height="260" viewBox="0 0 600 260" fill="none" xmlns="http://www.w3.org/2000/svg">
<path d="M322.039 69.3837V66.7068H332.444V69.3837H322.039ZM322.039 48.638V45.9611H332.444V48.638H322.039ZM322.039 58.007V55.3301H331.783V58.007H322.039ZM319.231 45.9611H322.039V69.3837H319.231V45.9611Z" fill="#EEE8DC"/>
<path d="M353.248 45.9611H356.056V69.3837H353.248V45.9611ZM360.185 69.3837H356.056V66.5395H360.185C361.484 66.5395 362.673 66.3387 363.752 65.9372C364.832 65.5134 365.756 64.9222 366.527 64.1638C367.298 63.383 367.893 62.4461 368.311 61.3531C368.729 60.26 368.939 59.0331 368.939 57.6724C368.939 56.3116 368.729 55.0848 368.311 53.9917C367.893 52.8986 367.298 51.9729 366.527 51.2144C365.756 50.4337 364.832 49.8426 363.752 49.441C362.673 49.0172 361.484 48.8053 360.185 48.8053H356.056V45.9611H360.185C362.431 45.9611 364.424 46.4519 366.164 47.4334C367.904 48.4149 369.269 49.7868 370.26 51.5491C371.251 53.289 371.746 55.3301 371.746 57.6724C371.746 60.0146 371.251 62.0669 370.26 63.8292C369.269 65.5691 367.904 66.9299 366.164 67.9114C364.424 68.8929 362.431 69.3837 360.185 69.3837Z" fill="#EEE8DC"/>
<path d="M391.391 45.9611H394.198V61.6877C394.198 63.2938 394.628 64.5876 395.487 65.5691C396.345 66.5507 397.601 67.0414 399.252 67.0414C400.904 67.0414 402.159 66.5507 403.018 65.5691C403.877 64.5876 404.306 63.2938 404.306 61.6877V45.9611H407.114V61.6877C407.114 62.8477 406.927 63.9184 406.553 64.8999C406.2 65.8814 405.672 66.7291 404.967 67.4429C404.284 68.1568 403.458 68.7145 402.49 69.116C401.521 69.5175 400.442 69.7183 399.252 69.7183C398.063 69.7183 396.984 69.5175 396.015 69.116C395.046 68.7145 394.209 68.1568 393.505 67.4429C392.822 66.7291 392.293 65.8814 391.919 64.8999C391.567 63.9184 391.391 62.8477 391.391 61.6877V45.9611Z" fill="#EEE8DC"/>
<path d="M429.741 57.6724C429.741 59.4793 430.137 61.0742 430.93 62.4573C431.745 63.8403 432.802 64.9222 434.101 65.703C435.4 66.4837 436.81 66.8741 438.329 66.8741C439.43 66.8741 440.432 66.7291 441.335 66.4391C442.26 66.1491 443.097 65.7476 443.846 65.2345C444.594 64.6992 445.233 64.0857 445.762 63.3942V67.1418C444.793 68.0118 443.736 68.6587 442.591 69.0825C441.445 69.5064 440.025 69.7183 438.329 69.7183C436.722 69.7183 435.213 69.4283 433.804 68.8483C432.416 68.246 431.194 67.4095 430.137 66.3387C429.08 65.2457 428.254 63.963 427.66 62.4908C427.065 61.0185 426.768 59.4124 426.768 57.6724C426.768 55.9324 427.065 54.3263 427.66 52.854C428.254 51.3818 429.08 50.1102 430.137 49.0395C431.194 47.9464 432.416 47.1099 433.804 46.5299C435.213 45.9276 436.722 45.6265 438.329 45.6265C440.025 45.6265 441.445 45.8384 442.591 46.2622C443.736 46.6861 444.793 47.333 445.762 48.203V51.9506C445.233 51.2591 444.594 50.6568 443.846 50.1437C443.097 49.6083 442.26 49.1956 441.335 48.9057C440.432 48.6157 439.43 48.4707 438.329 48.4707C436.81 48.4707 435.4 48.861 434.101 49.6418C432.802 50.4225 431.745 51.5044 430.93 52.8875C430.137 54.2482 429.741 55.8432 429.741 57.6724Z" fill="#EEE8DC"/>
<path d="M469.604 62.3569L470.799 59.68H477.875L478.982 62.3569H469.604ZM474.332 51.2479L470.799 59.68L469.604 62.3569L466.735 69.3837H463.597L474.332 44.79L485.068 69.3837H481.93L478.982 62.3569L477.875 59.68L474.332 51.2479Z" fill="#EEE8DC"/>
<path d="M504.388 57.6724C504.388 59.4793 504.785 61.0742 505.577 62.4573C506.392 63.8403 507.449 64.9222 508.749 65.703C510.048 66.4837 511.457 66.8741 512.977 66.8741C514.078 66.8741 515.08 66.7291 515.983 66.4391C516.908 66.1491 517.745 65.7476 518.493 65.2345C519.242 64.6992 519.881 64.0857 520.409 63.3942V67.1418C519.44 68.0118 518.383 68.6587 517.238 69.0825C516.093 69.5064 514.672 69.7183 512.977 69.7183C511.369 69.7183 509.861 69.4283 508.451 68.8483C507.064 68.246 505.842 67.4095 504.785 66.3387C503.728 65.2457 502.902 63.963 502.307 62.4908C501.713 61.0185 501.415 59.4124 501.415 57.6724C501.415 55.9324 501.713 54.3263 502.307 52.854C502.902 51.3818 503.728 50.1102 504.785 49.0395C505.842 47.9464 507.064 47.1099 508.451 46.5299C509.861 45.9276 511.369 45.6265 512.977 45.6265C514.672 45.6265 516.093 45.8384 517.238 46.2622C518.383 46.6861 519.44 47.333 520.409 48.203V51.9506C519.881 51.2591 519.242 50.6568 518.493 50.1437C517.745 49.6083 516.908 49.1956 515.983 48.9057C515.08 48.6157 514.078 48.4707 512.977 48.4707C511.457 48.4707 510.048 48.861 508.749 49.6418C507.449 50.4225 506.392 51.5044 505.577 52.8875C504.785 54.2482 504.388 55.8432 504.388 57.6724ZM510.771 69.5253L512.977 69.7183L512.547 71.1571C512.591 71.1571 512.635 71.1571 512.679 71.1571C512.746 71.1571 512.801 71.1571 512.845 71.1571C513.219 71.1571 513.582 71.2463 513.935 71.4248C514.309 71.6256 514.617 71.9044 514.86 72.2613C515.102 72.6182 515.223 73.0755 515.223 73.6332C515.223 74.3024 515.058 74.8713 514.728 75.3397C514.397 75.8082 513.968 76.1651 513.439 76.4105C512.911 76.6558 512.338 76.7785 511.722 76.7785C511.105 76.7785 510.565 76.6781 510.103 76.4774C509.663 76.2989 509.211 75.9755 508.749 75.507L509.872 74.1686C510.18 74.4363 510.455 74.637 510.698 74.7709C510.962 74.9047 511.303 74.9716 511.722 74.9716C512.294 74.9716 512.713 74.8489 512.977 74.6036C513.241 74.3582 513.373 74.0347 513.373 73.6332C513.373 73.2317 513.241 72.9305 512.977 72.7298C512.713 72.529 512.294 72.4286 511.722 72.4286C511.567 72.4286 511.292 72.4621 510.896 72.529C510.521 72.6182 510.158 72.7855 509.806 73.0309L510.771 69.5253Z" fill="#EEE8DC"/>
<path d="M544.799 62.3569L545.93 59.68H553.006L554.113 62.3569H544.799ZM549.464 51.2479L545.93 59.68L544.799 62.3569L541.866 69.3837H538.728L549.464 44.79L560.199 69.3837H557.061L554.113 62.3569L553.006 59.68L549.464 51.2479ZM544.013 42.2135C544.124 41.6558 544.355 41.1762 544.707 40.7747C545.059 40.3731 545.478 40.0608 545.962 39.8378C546.469 39.5924 546.964 39.4697 547.449 39.4697C547.977 39.4697 548.407 39.5478 548.737 39.7039C549.089 39.8601 549.387 40.0497 549.629 40.2728C549.893 40.4735 550.168 40.652 550.455 40.8081C550.741 40.9643 551.104 41.0424 551.545 41.0424C551.853 41.0424 552.15 40.9085 552.437 40.6408C552.745 40.3731 553.064 39.9716 553.395 39.4362L554.914 40.8751C554.738 41.2766 554.474 41.667 554.121 42.0462C553.791 42.4254 553.395 42.7377 552.932 42.9831C552.47 43.2062 551.963 43.3177 551.413 43.3177C550.818 43.3177 550.312 43.1839 549.893 42.9162C549.475 42.6485 549.078 42.3919 548.704 42.1466C548.352 41.8789 547.922 41.745 547.416 41.745C546.975 41.745 546.634 41.8566 546.392 42.0796C546.149 42.2804 545.984 42.5146 545.896 42.7823C545.808 43.05 545.764 43.2731 545.764 43.4515L544.013 42.2135Z" fill="#EEE8DC"/>
<path d="M579.52 57.6724C579.52 59.4347 579.894 61.0073 580.643 62.3904C581.414 63.7734 582.46 64.8665 583.781 65.6695C585.102 66.4726 586.6 66.8741 588.273 66.8741C589.969 66.8741 591.467 66.4726 592.766 65.6695C594.087 64.8665 595.122 63.7734 595.871 62.3904C596.642 61.0073 597.027 59.4347 597.027 57.6724C597.027 55.9101 596.642 54.3375 595.871 52.9544C595.122 51.5714 594.087 50.4783 592.766 49.6753C591.467 48.8722 589.969 48.4707 588.273 48.4707C586.6 48.4707 585.102 48.8722 583.781 49.6753C582.46 50.4783 581.414 51.5714 580.643 52.9544C579.894 54.3375 579.52 55.9101 579.52 57.6724ZM576.547 57.6724C576.547 55.9547 576.833 54.3709 577.406 52.921C578 51.4487 578.826 50.1772 579.883 49.1064C580.94 48.0134 582.184 47.1657 583.616 46.5634C585.047 45.9388 586.6 45.6265 588.273 45.6265C589.969 45.6265 591.522 45.9388 592.931 46.5634C594.362 47.1657 595.607 48.0134 596.664 49.1064C597.721 50.1772 598.536 51.4487 599.108 52.921C599.703 54.3709 600 55.9547 600 57.6724C600 59.3677 599.703 60.9516 599.108 62.4238C598.536 63.8961 597.721 65.1788 596.664 66.2718C595.607 67.3426 594.362 68.1902 592.931 68.8148C591.522 69.4171 589.969 69.7183 588.273 69.7183C586.6 69.7183 585.047 69.4171 583.616 68.8148C582.184 68.1902 580.94 67.3426 579.883 66.2718C578.826 65.1788 578 63.8961 577.406 62.4238C576.833 60.9516 576.547 59.3677 576.547 57.6724Z" fill="#EEE8DC"/>
<path fill-rule="evenodd" clip-rule="evenodd" d="M97.4962 0.0976686C96.2269 -0.428507 95.3519 1.29948 96.2797 2.22352L101.469 7.39248L97.5901 6.51712C96.3449 6.23615 95.6256 7.95829 96.6445 8.78087L101.343 13.7081C101.343 13.7081 98.1733 20.9248 97.7077 24.5328C97.2418 28.1424 97.1816 31.5944 97.2371 34.1404C97.2649 35.4146 97.3262 37.1945 97.3262 37.1945L97.3766 37.9816C95.3 39.7164 75.5529 56.7821 71.8059 81.4441C66.6238 115.552 74.3357 136.137 74.3357 136.137C74.3357 136.137 73.8647 149.741 63.7246 165.669C58.0945 174.513 47.5637 182.831 39.3097 188.48C37.0002 190.06 38.4112 193.682 41.1189 192.974C47.7468 191.241 55.6748 188.64 62.1825 184.968C76.2041 177.055 83.7811 170.43 83.7811 170.43L77.7 247.355C77.7 247.355 79.6004 260.084 92.5004 260C105.4 259.916 106.838 247.784 106.838 247.784L99.9271 161.318C99.9271 161.318 137.355 126.257 142.616 97.603C148.35 66.378 137.029 46.7242 137.029 46.7242L137.023 46.7192C137.076 46.7135 137.104 46.7104 137.104 46.7104C137.104 46.7104 140.236 44.0329 141.61 37.658C142.984 31.2831 142.847 27.8107 142.847 27.8107L152.016 18.4112C152.413 17.4794 151.667 16.4432 150.723 16.6154L138.497 16.443C138.497 16.443 135.639 9.55754 127.25 7.18839C118.862 4.81925 113.741 7.25688 113.741 7.25688C113.741 7.25688 100.858 1.49143 97.4962 0.0976686Z" fill="#EEE8DC"/>
<path d="M39.5588 222.574C39.2475 223.875 40.2346 225.114 41.5719 225.102C53.7694 224.994 65.193 215.901 68.0321 204.041C68.3433 202.741 67.3562 201.501 66.019 201.513C53.8215 201.622 42.3979 210.714 39.5588 222.574Z" fill="#EEE8DC"/>
<path d="M136.688 240.192C136.442 241.506 135.035 242.235 133.819 241.68C122.725 236.608 116.003 223.649 118.248 211.662C118.494 210.348 119.901 209.618 121.117 210.174C132.21 215.246 138.933 228.205 136.688 240.192Z" fill="#EEE8DC"/>
<path d="M178.897 203.821C180.041 203.152 180.271 201.602 179.369 200.63C168.188 188.572 148.601 185.674 134.406 193.977C133.262 194.646 133.032 196.196 133.934 197.169C145.115 209.226 164.702 212.124 178.897 203.821Z" fill="#EEE8DC"/>
<path d="M22.5586 117.652C22.6484 119.056 22.2633 120.38 21.5413 121.468C22.3081 122.242 23.2333 123.165 23.8354 123.735C26.2147 125.985 29.7484 129.011 34.3476 132.094C41.6507 136.989 51.5721 141.984 63.763 144.297C63.3313 145.603 62.8416 146.952 62.2869 148.314C49.2898 145.883 38.8118 140.586 31.2011 135.484C26.4128 132.274 22.7322 129.123 20.244 126.77L17.8342 124.278C17.7803 124.222 17.7314 124.164 17.6877 124.103C17.3897 124.167 17.0833 124.21 16.77 124.23C13.3545 124.449 10.4085 121.858 10.1899 118.443C9.97133 115.028 12.563 112.083 15.9785 111.865C19.394 111.646 22.34 114.237 22.5586 117.652Z" fill="#EEE8DC"/>
<path d="M121.984 151.476C138.179 148.297 144.698 142.263 153.739 135.907C145.029 140.468 139.634 144.75 126.023 146.922C127.838 144.752 131.861 138.909 133.175 137.222C133.175 137.222 133.175 137.222 135.32 136.312C142.572 132.712 148.444 128.758 152.724 125.154C155.834 122.535 157.996 120.193 159.275 118.374C159.992 117.354 161.343 116.649 162.519 116.881C163.695 117.114 164.269 118.197 163.608 119.24C161.981 121.812 159.198 124.806 155.571 127.86C150.917 131.779 149.609 132.78 142.248 137.853C140.21 139.257 136.692 141.291 136.692 141.291C148.942 138.062 153.183 134.376 160.366 129.735C162.664 128.25 164.712 126.781 166.515 125.387C169.124 123.056 171.646 120.702 173.628 118.649C173.035 117.87 172.657 116.912 172.59 115.862C172.408 113.02 174.565 110.569 177.407 110.387C180.249 110.205 182.701 112.362 182.883 115.203C183.064 118.045 180.908 120.496 178.066 120.678C177.186 120.734 176.343 120.566 175.594 120.223C171.749 124.249 165.825 129.434 161.095 133.434C150.895 142.058 141.195 150.928 118.81 154.571C119.917 153.539 121.01 152.482 121.984 151.476Z" fill="#EEE8DC"/>
<path d="M61.6433 149.833C43.2556 147.196 30.8709 141.425 22.3184 134.772C16.4627 130.217 15.4697 129.329 15.4697 129.329C15.1643 128.877 14.5912 128.703 14.1753 128.99C13.6972 129.32 13.5139 130.219 13.8661 130.738C13.8661 130.738 15.179 131.969 21.2155 136.665C29.988 143.489 42.4485 149.312 60.5931 152.074C60.964 151.329 61.3137 150.581 61.6433 149.833Z" fill="#EEE8DC"/>
<path d="M55.7359 159.867C40.9957 156.321 30.478 150.193 23.0733 143.915C17.4099 139.114 8.00731 128.524 4.25399 123.323C3.60878 122.429 2.26126 122.221 1.17145 122.899C0.0816741 123.576 -0.33889 124.884 0.302099 125.781C4.17262 131.197 13.8615 142.144 19.856 147.227C27.4715 153.683 38.1129 159.901 52.7638 163.634C53.7461 162.466 54.7444 161.209 55.7359 159.867Z" fill="#EEE8DC"/>
<path fill-rule="evenodd" clip-rule="evenodd" d="M110.212 173.303C131.675 170.4 144.064 162.877 155.833 155.546C143.97 161.369 131.737 166.837 109.941 169.076L109.676 164.929C142.375 161.635 157.614 151.639 168.597 142.911C173.727 138.834 181.068 128.551 184.358 123.66C185.057 122.62 186.435 122.172 187.462 122.666C188.49 123.16 188.778 124.412 188.078 125.452C188.045 125.501 188.012 125.551 187.978 125.601C187.92 125.791 187.856 125.996 187.786 126.217C187.341 127.608 186.631 129.598 185.568 132.013C183.441 136.842 179.896 143.379 174.219 150.225C162.86 163.925 146.841 179.368 112.723 184.348C112.125 184.436 111.528 184.517 110.934 184.594L110.804 182.557C111.186 182.506 111.568 182.452 111.952 182.396C145.472 177.503 161.098 162.341 172.234 148.911C175.284 145.232 177.706 141.646 179.615 138.377C179.055 139.038 178.413 139.77 177.688 140.56C174.379 144.166 169.327 149 162.332 153.952C150.048 162.649 135.665 172.199 110.358 175.596L110.212 173.303ZM181.923 134.044C181.957 133.998 181.992 133.953 182.027 133.907L181.987 133.986L181.949 134.063L181.923 134.044Z" fill="#EEE8DC"/>
<path d="M48.8733 167.931C40.4969 165.757 33.7348 162.887 28.3762 159.942C22.5997 156.767 15.5389 150.833 12.2718 147.809C11.8325 147.402 11.1572 147.392 10.7119 147.791C10.2188 148.234 10.2039 149 10.6919 149.449C11.8136 150.481 13.3417 151.819 15.0958 153.267C15.094 153.268 15.0927 153.269 15.0927 153.269L15.0923 153.269L15.1009 153.278C15.1065 153.283 15.1143 153.291 15.1243 153.3C15.1443 153.319 15.1733 153.347 15.2111 153.382C15.2868 153.453 15.3978 153.556 15.5436 153.689C15.8352 153.954 16.266 154.34 16.8306 154.825C17.9599 155.795 19.6255 157.167 21.7863 158.785C26.1064 162.022 32.4139 166.253 40.3774 170.243C41.6744 170.892 43.0154 171.536 44.399 172.168C44.8654 171.762 45.3816 171.302 45.9384 170.789C44.331 170.068 42.7807 169.329 41.2897 168.582C40.1342 168.003 39.0144 167.419 37.9313 166.834C40.7189 167.899 43.7377 168.897 47 169.79C47.5935 169.221 48.2209 168.601 48.8733 167.931Z" fill="#EEE8DC"/>
<path d="M65.499 138.119C61.8048 136.641 58.5635 135.003 55.6517 133.372C47.148 128.609 42.8326 125.01 40.5535 122.087C39.8455 121.179 39.3015 120.481 38.8671 120.068C38.4652 119.686 37.7627 119.732 37.2981 120.171C36.8334 120.61 36.7825 121.275 37.1844 121.657C37.4638 121.923 37.8785 122.458 38.451 123.196C40.6134 125.984 45.3431 130.336 54.2348 135.169C57.4936 136.941 60.9864 138.727 64.9478 140.319C65.1522 139.553 65.3353 138.817 65.499 138.119Z" fill="#EEE8DC"/>
<path d="M273.109 108.013L273.723 103.251C273.723 98.541 271.88 95.5203 268.196 94.1892C265.33 93.2676 263.13 92.8068 261.594 92.8068H261.441C258.37 92.8068 255.709 93.3188 253.458 94.3428C251.206 95.2644 249.568 96.4419 248.545 97.8755C246.396 100.845 245.167 103.968 244.86 107.245C244.86 111.136 246.6 114.515 250.08 117.382C253.56 120.147 257.756 122.604 262.669 124.755C267.684 126.802 272.648 129.055 277.561 131.513C282.576 133.97 286.823 137.503 290.303 142.111C293.783 146.719 295.523 152.248 295.523 158.699C295.523 171.294 291.531 180.714 283.548 186.96C275.667 193.207 266.661 196.33 256.528 196.33C246.498 196.33 238.156 194.077 231.504 189.571C224.953 184.964 221.678 178.82 221.678 171.14V170.987C221.678 167.198 222.241 163.921 223.367 161.156C224.595 158.289 226.028 156.19 227.666 154.859C231.043 152.094 234.114 150.61 236.877 150.405L238.719 150.251C241.585 150.251 244.195 150.968 246.549 152.402C248.903 153.733 250.08 155.627 250.08 158.085C250.08 159.313 249.415 160.337 248.084 161.156C246.754 161.976 245.577 163.204 244.553 164.843C243.632 166.481 243.12 167.863 243.018 168.99L242.711 170.679C242.711 176.926 245.577 181.073 251.308 183.12C253.355 183.837 254.993 184.196 256.221 184.196C261.85 184.196 266.354 182.506 269.731 179.127C273.211 175.748 274.951 171.447 274.951 166.225C274.951 159.979 272.29 154.91 266.968 151.019C262.976 148.152 258.626 145.746 253.918 143.8C249.312 141.855 246.191 140.472 244.553 139.653C242.916 138.834 241.176 137.861 239.333 136.735C237.491 135.609 235.444 134.021 233.193 131.973C228.28 127.673 225.823 121.887 225.823 114.617C225.823 107.245 227.819 101.05 231.811 96.0323C238.975 86.9191 249.722 82.3624 264.051 82.3624C271.624 82.3624 278.021 83.8472 283.241 86.8167C288.461 89.6838 291.071 93.6772 291.071 98.797C291.071 102.483 289.996 105.555 287.847 108.013C285.8 110.47 283.139 111.699 279.864 111.699C278.328 111.699 276.793 111.392 275.258 110.777C273.825 110.163 273.109 109.241 273.109 108.013Z" fill="#EEE8DC"/>
<path d="M326.038 110.931L322.353 110.777C319.59 110.777 317.799 111.443 316.98 112.774C316.775 113.081 316.52 113.235 316.213 113.235C314.882 113.235 314.217 110.982 314.217 106.477C314.217 101.869 314.882 98.9506 316.213 97.7219C317.645 96.4931 320.051 95.8787 323.428 95.8787C326.908 95.8787 329.262 96.4931 330.49 97.7219C331.718 98.8482 332.332 100.794 332.332 103.558C332.332 106.323 331.872 108.269 330.951 109.395C330.03 110.419 328.392 110.931 326.038 110.931ZM313.756 188.496L315.445 152.709C315.445 144.21 314.473 138.424 312.528 135.353C311.914 134.329 311.198 133.561 310.379 133.049C309.765 132.844 309.458 132.434 309.458 131.82C309.458 129.977 312.067 128.185 317.287 126.444C322.507 124.703 326.294 123.833 328.648 123.833C331.104 123.833 332.384 124.447 332.486 125.676C332.486 127.724 332.179 133.561 331.565 143.186C331.053 152.709 330.797 162.744 330.797 173.29C330.797 183.837 331.411 190.391 332.64 192.951C332.947 193.463 333.1 193.975 333.1 194.486C333.1 195.818 331.155 196.483 327.266 196.483C323.377 196.483 319.385 195.459 315.291 193.411C314.268 192.899 313.756 191.261 313.756 188.496Z" fill="#EEE8DC"/>
<path d="M400.337 175.441C400.337 181.277 397.983 186.141 393.275 190.032C388.669 193.821 383.143 195.715 376.695 195.715C367.279 195.715 360.37 192.899 355.969 187.268C351.568 181.533 349.368 173.802 349.368 164.075C349.368 153.733 351.67 144.568 356.276 136.581C358.528 132.485 361.752 129.26 365.948 126.905C370.144 124.55 375.057 123.372 380.686 123.372C389.181 123.372 395.169 126.239 398.648 131.973C400.081 134.329 400.798 137.093 400.798 140.268C400.798 145.183 398.751 148.869 394.657 151.326C393.019 152.248 391.484 152.709 390.051 152.709C388.721 152.709 387.595 152.658 386.674 152.555C385.855 152.35 384.729 151.634 383.296 150.405C381.863 149.176 381.147 147.487 381.147 145.336C381.249 144.21 382.119 143.288 383.757 142.572C385.292 141.65 386.06 140.012 386.06 137.656C386.06 133.663 383.603 131.666 378.69 131.666C377.462 131.666 375.978 132.229 374.238 133.356C372.601 134.38 371.219 135.762 370.093 137.503C368.967 139.141 367.893 141.804 366.869 145.49C365.948 149.074 365.487 152.555 365.487 155.934C365.487 159.211 365.59 161.72 365.795 163.46C366.102 165.099 366.664 167.403 367.483 170.372C368.404 173.239 370.042 175.594 372.396 177.437C374.852 179.281 377.872 180.202 381.454 180.202C385.753 180.202 389.539 178.41 392.815 174.826C394.145 173.393 395.22 171.652 396.039 169.604C396.448 168.785 396.96 168.375 397.574 168.375C398.495 168.375 399.16 169.246 399.57 170.987C400.081 172.625 400.337 174.11 400.337 175.441Z" fill="#EEE8DC"/>
<path d="M468.98 124.755C467.138 135.813 466.217 149.893 466.217 166.993C466.217 179.588 466.728 187.882 467.752 191.875L468.366 193.872C468.366 195.203 467.24 195.869 464.988 195.869C457.108 195.869 452.604 193.667 451.478 189.264C451.376 188.752 451.12 188.496 450.711 188.496C450.404 188.496 450.097 188.701 449.79 189.111C446.617 193.309 441.704 195.408 435.051 195.408C431.367 195.408 427.529 194.487 423.537 192.643C421.081 191.517 419.085 189.571 417.55 186.807C416.015 183.94 415.247 180.458 415.247 176.362L417.55 142.725C417.55 135.66 416.833 130.642 415.4 127.673C414.889 126.546 414.633 125.83 414.633 125.523C414.633 124.908 414.889 124.499 415.4 124.294C417.038 123.782 419.136 123.526 421.695 123.526C431.623 123.526 436.587 127.622 436.587 135.813C436.587 138.373 435.512 144.21 433.363 153.323C431.316 162.436 430.292 168.939 430.292 172.83C430.292 176.618 431.111 179.537 432.749 181.585C434.489 183.632 436.843 184.656 439.811 184.656C442.881 184.656 445.286 183.581 447.026 181.431C448.766 179.281 449.79 177.13 450.097 174.98L450.557 171.754C450.967 168.171 451.171 161.873 451.171 152.862C451.171 143.851 450.864 138.168 450.25 135.813C449.738 133.356 449.483 131.82 449.483 131.206C449.483 128.646 451.53 126.649 455.624 125.215C459.717 123.679 463.402 122.911 466.677 122.911C468.212 122.911 468.98 123.526 468.98 124.755Z" fill="#EEE8DC"/>
<path d="M530.903 151.941L531.517 157.317C531.517 159.262 529.674 160.235 525.99 160.235C518.518 160.235 514.783 157.419 514.783 151.787C514.783 150.456 515.141 148.613 515.857 146.258C516.574 143.903 516.932 141.855 516.932 140.114C516.932 138.373 516.42 136.888 515.397 135.66C514.373 134.329 512.889 133.663 510.945 133.663C509 133.663 507.311 134.38 505.878 135.813C504.548 137.144 503.729 138.527 503.422 139.96L502.808 142.111C502.194 145.285 501.887 150.61 501.887 158.085C501.887 165.457 501.989 171.294 502.194 175.594C502.399 179.793 502.603 182.711 502.808 184.349C503.013 185.885 503.115 186.807 503.115 187.114C503.115 189.674 501.529 191.722 498.356 193.258C495.183 194.896 492.01 195.715 488.837 195.715C485.665 195.715 484.078 195.05 484.078 193.719L484.846 188.957C486.279 180.049 486.995 168.427 486.995 154.091C486.995 139.756 486.483 130.028 485.46 124.908C485.46 123.679 486.534 123.065 488.684 123.065C494.211 123.065 497.895 124.959 499.737 128.748C499.84 129.158 499.993 129.362 500.198 129.362C500.505 129.362 501.222 128.902 502.347 127.98C505.725 125.215 509.716 123.833 514.322 123.833C517.188 123.833 520.054 124.396 522.919 125.523C528.753 127.878 531.67 132.793 531.67 140.268L530.903 151.941Z" fill="#EEE8DC"/>
<path d="M557.474 135.199C554.813 135.301 552.868 135.404 551.64 135.506C550.514 135.506 549.951 135.199 549.951 134.585C549.951 133.97 550.259 133.356 550.873 132.741C557.423 126.7 568.477 123.679 584.034 123.679C589.356 123.679 593.552 124.14 596.622 125.062L598.158 125.523C599.386 126.034 600 126.598 600 127.212C600 127.724 599.642 128.134 598.925 128.441C596.162 129.26 593.501 130.591 590.942 132.434C588.383 134.175 587.104 135.404 587.104 136.121L588.025 137.196C591.3 139.039 593.808 141.957 595.548 145.951C597.39 149.944 598.414 153.477 598.618 156.549L598.925 161.31C598.925 171.447 596.111 179.793 590.482 186.346C584.852 192.899 577.176 196.176 567.453 196.176C562.54 196.176 558.293 195.306 554.711 193.565C551.128 191.824 548.467 189.879 546.727 187.728C545.09 185.476 543.759 182.967 542.736 180.202C541.508 176.414 540.894 172.522 540.894 168.529C540.894 164.433 541.559 160.337 542.889 156.241C544.322 152.146 545.909 149.125 547.649 147.179C549.491 145.234 551.538 143.647 553.79 142.418C556.655 140.882 558.958 140.114 560.698 140.114C562.438 140.114 563.308 140.472 563.308 141.189L562.387 142.725C560.135 145.387 558.498 148.869 557.474 153.17C556.553 157.47 556.092 161.31 556.092 164.689C556.092 167.966 556.502 171.242 557.321 174.519C558.139 177.796 559.061 180.253 560.084 181.892C561.107 183.428 562.284 184.605 563.615 185.424C565.56 186.653 567.607 187.268 569.756 187.268C571.905 187.268 574.003 186.448 576.05 184.81C578.097 183.069 579.581 180.817 580.503 178.052C582.345 172.932 583.266 167.659 583.266 162.232C583.266 153.63 581.065 146.975 576.664 142.264C572.366 137.554 565.969 135.199 557.474 135.199Z" fill="#EEE8DC"/>
</svg>
