<svg width="600" height="260" viewBox="0 0 600 260" fill="none" xmlns="http://www.w3.org/2000/svg">
<path d="M273.04 109.272L273.655 104.517C273.655 99.8135 271.812 96.797 268.127 95.4677C265.26 94.5474 263.059 94.0873 261.524 94.0873H261.37C258.299 94.0873 255.638 94.5986 253.385 95.6211C251.133 96.5414 249.495 97.7173 248.472 99.1488C246.322 102.114 245.094 105.233 244.786 108.505C244.786 112.391 246.527 115.765 250.007 118.628C253.488 121.389 257.685 123.843 262.599 125.99C267.615 128.035 272.58 130.285 277.493 132.739C282.509 135.193 286.758 138.721 290.238 143.322C293.719 147.923 295.459 153.445 295.459 159.887C295.459 172.464 291.467 181.871 283.482 188.109C275.6 194.346 266.591 197.465 256.457 197.465C246.424 197.465 238.081 195.215 231.427 190.716C224.876 186.115 221.6 179.98 221.6 172.311V172.157C221.6 168.374 222.163 165.102 223.289 162.341C224.517 159.478 225.951 157.382 227.588 156.053C230.967 153.292 234.038 151.809 236.802 151.605L238.644 151.451C241.511 151.451 244.121 152.167 246.476 153.599C248.83 154.928 250.007 156.82 250.007 159.274C250.007 160.501 249.342 161.523 248.011 162.341C246.68 163.159 245.503 164.386 244.479 166.022C243.558 167.658 243.046 169.039 242.944 170.164L242.637 171.851C242.637 178.088 245.503 182.229 251.236 184.274C253.283 184.99 254.921 185.348 256.149 185.348C261.78 185.348 266.284 183.661 269.662 180.287C273.143 176.912 274.883 172.618 274.883 167.403C274.883 161.165 272.221 156.104 266.898 152.218C262.906 149.355 258.555 146.952 253.846 145.009C249.24 143.066 246.117 141.686 244.479 140.868C242.841 140.05 241.101 139.079 239.259 137.954C237.416 136.829 235.369 135.244 233.116 133.199C228.203 128.904 225.746 123.127 225.746 115.867C225.746 108.505 227.742 102.319 231.734 97.3083C238.9 88.2078 249.649 83.6575 263.981 83.6575C271.556 83.6575 277.954 85.1402 283.175 88.1055C288.396 90.9686 291.006 94.9565 291.006 100.069C291.006 103.75 289.931 106.818 287.782 109.272C285.734 111.726 283.073 112.953 279.797 112.953C278.261 112.953 276.726 112.646 275.19 112.033C273.757 111.419 273.04 110.499 273.04 109.272Z" fill="#EEE8DC"/>
<path d="M325.98 112.186L322.295 112.033C319.531 112.033 317.74 112.697 316.921 114.027C316.716 114.333 316.46 114.487 316.153 114.487C314.822 114.487 314.157 112.237 314.157 107.738C314.157 103.137 314.822 100.222 316.153 98.9954C317.586 97.7684 319.992 97.1549 323.37 97.1549C326.851 97.1549 329.205 97.7684 330.433 98.9954C331.662 100.12 332.276 102.063 332.276 104.824C332.276 107.585 331.815 109.528 330.894 110.652C329.973 111.675 328.335 112.186 325.98 112.186ZM313.696 189.643L315.385 153.905C315.385 145.418 314.413 139.641 312.468 136.573C311.853 135.551 311.137 134.784 310.318 134.273C309.704 134.068 309.397 133.659 309.397 133.046C309.397 131.205 312.007 129.416 317.228 127.677C322.449 125.939 326.236 125.07 328.591 125.07C331.048 125.07 332.327 125.683 332.43 126.911C332.43 128.956 332.123 134.784 331.508 144.396C330.996 153.905 330.741 163.926 330.741 174.458C330.741 184.99 331.355 191.534 332.583 194.091C332.89 194.602 333.044 195.113 333.044 195.624C333.044 196.954 331.099 197.618 327.209 197.618C323.319 197.618 319.326 196.596 315.232 194.551C314.208 194.04 313.696 192.404 313.696 189.643Z" fill="#EEE8DC"/>
<path d="M400.294 176.605C400.294 182.434 397.94 187.291 393.231 191.176C388.624 194.96 383.096 196.852 376.647 196.852C367.229 196.852 360.319 194.04 355.917 188.416C351.515 182.689 349.315 174.969 349.315 165.255C349.315 154.928 351.618 145.776 356.224 137.8C358.477 133.71 361.701 130.489 365.898 128.138C370.095 125.786 375.009 124.61 380.639 124.61C389.136 124.61 395.125 127.473 398.605 133.199C400.038 135.551 400.755 138.312 400.755 141.482C400.755 146.39 398.708 150.071 394.613 152.525C392.975 153.445 391.439 153.905 390.006 153.905C388.675 153.905 387.549 153.854 386.628 153.752C385.809 153.547 384.683 152.832 383.25 151.605C381.817 150.378 381.1 148.69 381.1 146.543C381.203 145.418 382.073 144.498 383.711 143.782C385.246 142.862 386.014 141.226 386.014 138.874C386.014 134.886 383.557 132.892 378.643 132.892C377.415 132.892 375.931 133.455 374.19 134.579C372.552 135.602 371.17 136.982 370.044 138.721C368.918 140.357 367.843 143.015 366.82 146.696C365.898 150.275 365.438 153.752 365.438 157.126C365.438 160.398 365.54 162.904 365.745 164.642C366.052 166.278 366.615 168.579 367.434 171.544C368.355 174.407 369.993 176.759 372.348 178.599C374.804 180.44 377.824 181.36 381.407 181.36C385.707 181.36 389.494 179.571 392.77 175.992C394.101 174.56 395.176 172.822 395.995 170.777C396.404 169.959 396.916 169.55 397.53 169.55C398.452 169.55 399.117 170.419 399.527 172.157C400.038 173.793 400.294 175.276 400.294 176.605Z" fill="#EEE8DC"/>
<path d="M468.951 125.99C467.108 137.034 466.187 151.093 466.187 168.17C466.187 180.747 466.699 189.029 467.722 193.017L468.337 195.011C468.337 196.34 467.211 197.005 464.958 197.005C457.076 197.005 452.572 194.806 451.446 190.41C451.343 189.898 451.087 189.643 450.678 189.643C450.371 189.643 450.064 189.847 449.757 190.256C446.583 194.449 441.669 196.545 435.015 196.545C431.33 196.545 427.491 195.624 423.499 193.784C421.042 192.659 419.046 190.716 417.51 187.956C415.975 185.092 415.207 181.616 415.207 177.526L417.51 143.936C417.51 136.88 416.794 131.87 415.361 128.904C414.849 127.78 414.593 127.064 414.593 126.757C414.593 126.144 414.849 125.735 415.361 125.53C416.999 125.019 419.097 124.763 421.656 124.763C431.586 124.763 436.551 128.853 436.551 137.034C436.551 139.59 435.476 145.418 433.326 154.519C431.279 163.619 430.255 170.112 430.255 173.998C430.255 177.781 431.074 180.696 432.712 182.741C434.452 184.786 436.807 185.808 439.776 185.808C442.847 185.808 445.252 184.735 446.993 182.587C448.733 180.44 449.757 178.293 450.064 176.145L450.524 172.924C450.934 169.345 451.139 163.057 451.139 154.059C451.139 145.06 450.832 139.385 450.217 137.034C449.705 134.579 449.45 133.046 449.45 132.432C449.45 129.876 451.497 127.882 455.592 126.45C459.686 124.917 463.372 124.15 466.648 124.15C468.183 124.15 468.951 124.763 468.951 125.99Z" fill="#EEE8DC"/>
<path d="M530.886 153.138L531.5 158.507C531.5 160.449 529.657 161.421 525.972 161.421C518.499 161.421 514.763 158.609 514.763 152.985C514.763 151.656 515.121 149.815 515.837 147.463C516.554 145.112 516.912 143.066 516.912 141.328C516.912 139.59 516.401 138.107 515.377 136.88C514.353 135.551 512.869 134.886 510.924 134.886C508.979 134.886 507.29 135.602 505.856 137.034C504.526 138.363 503.707 139.743 503.4 141.175L502.785 143.322C502.171 146.492 501.864 151.809 501.864 159.274C501.864 166.636 501.966 172.464 502.171 176.759C502.376 180.951 502.581 183.865 502.785 185.501C502.99 187.035 503.093 187.956 503.093 188.262C503.093 190.819 501.506 192.864 498.332 194.397C495.159 196.034 491.985 196.852 488.812 196.852C485.639 196.852 484.052 196.187 484.052 194.858L484.82 190.103C486.253 181.207 486.969 169.601 486.969 155.286C486.969 140.97 486.458 131.256 485.434 126.144C485.434 124.917 486.509 124.303 488.658 124.303C494.186 124.303 497.872 126.195 499.714 129.978C499.817 130.387 499.97 130.592 500.175 130.592C500.482 130.592 501.199 130.131 502.325 129.211C505.703 126.45 509.695 125.07 514.302 125.07C517.168 125.07 520.035 125.632 522.901 126.757C528.736 129.109 531.654 134.017 531.654 141.482L530.886 153.138Z" fill="#EEE8DC"/>
<path d="M557.463 136.42C554.801 136.522 552.856 136.625 551.627 136.727C550.501 136.727 549.938 136.42 549.938 135.807C549.938 135.193 550.246 134.579 550.86 133.966C557.411 127.933 568.467 124.917 584.027 124.917C589.351 124.917 593.548 125.377 596.619 126.297L598.154 126.757C599.383 127.268 599.997 127.831 599.997 128.444C599.997 128.956 599.639 129.365 598.922 129.671C596.158 130.489 593.496 131.819 590.937 133.659C588.378 135.398 587.098 136.625 587.098 137.34L588.02 138.414C591.296 140.255 593.804 143.169 595.544 147.157C597.386 151.144 598.41 154.672 598.615 157.74L598.922 162.495C598.922 172.618 596.107 180.951 590.477 187.495C584.846 194.04 577.169 197.312 567.444 197.312C562.53 197.312 558.281 196.443 554.699 194.704C551.116 192.966 548.454 191.023 546.714 188.876C545.076 186.626 543.745 184.121 542.721 181.36C541.493 177.577 540.879 173.691 540.879 169.703C540.879 165.613 541.544 161.523 542.875 157.433C544.308 153.343 545.895 150.326 547.635 148.384C549.478 146.441 551.525 144.856 553.777 143.629C556.644 142.095 558.947 141.328 560.687 141.328C562.427 141.328 563.298 141.686 563.298 142.402L562.376 143.936C560.124 146.594 558.486 150.071 557.463 154.365C556.541 158.66 556.081 162.495 556.081 165.869C556.081 169.141 556.49 172.413 557.309 175.685C558.128 178.957 559.049 181.411 560.073 183.047C561.097 184.581 562.274 185.757 563.605 186.575C565.55 187.802 567.597 188.416 569.747 188.416C571.897 188.416 573.995 187.598 576.043 185.962C578.09 184.223 579.574 181.974 580.496 179.213C582.338 174.1 583.26 168.834 583.26 163.415C583.26 154.826 581.059 148.179 576.657 143.475C572.357 138.772 565.959 136.42 557.463 136.42Z" fill="#EEE8DC"/>
<path fill-rule="evenodd" clip-rule="evenodd" d="M97.5719 0.0976686C96.3016 -0.428507 95.4259 1.29948 96.3544 2.22352L101.548 7.39248L97.6658 6.51712C96.4196 6.23615 95.6998 7.9583 96.7195 8.78087L101.421 13.7081C101.421 13.7081 98.2495 20.9247 97.7835 24.5328C97.3173 28.1424 97.257 31.5944 97.3125 34.1404C97.3403 35.4146 97.4017 37.1945 97.4017 37.1945L97.4521 37.9816C95.374 39.7164 75.6115 56.7821 71.8616 81.4441C66.6755 115.552 74.3934 136.137 74.3934 136.137C74.3934 136.137 73.922 149.741 63.774 165.669C58.1396 174.513 47.6006 182.831 39.3402 188.48C37.0289 190.06 38.441 193.682 41.1508 192.974C47.7839 191.241 55.718 188.64 62.2308 184.968C76.2632 177.055 83.8461 170.43 83.8461 170.43L77.7603 247.355C77.7603 247.355 79.6622 260.084 92.5722 260C105.482 259.916 106.921 247.784 106.921 247.784L100.005 161.318C100.005 161.318 137.461 126.257 142.727 97.603C148.465 66.378 137.135 46.7242 137.135 46.7242L137.129 46.7192C137.182 46.7135 137.21 46.7104 137.21 46.7104C137.21 46.7104 140.345 44.0329 141.72 37.658C143.095 31.2831 142.958 27.8107 142.958 27.8107L152.134 18.4112C152.531 17.4794 151.785 16.4432 150.84 16.6154L138.605 16.443C138.605 16.443 135.744 9.55754 127.349 7.18839C118.954 4.81925 113.829 7.25688 113.829 7.25688C113.829 7.25688 100.937 1.49143 97.5719 0.0976686Z" fill="#EEE8DC"/>
<path d="M39.5895 222.574C39.278 223.875 40.2658 225.114 41.6041 225.102C53.8111 224.994 65.2436 215.901 68.0848 204.041C68.3963 202.741 67.4085 201.501 66.0702 201.513C53.8633 201.622 42.4307 210.714 39.5895 222.574Z" fill="#EEE8DC"/>
<path d="M136.794 240.192C136.548 241.506 135.14 242.235 133.922 241.68C122.821 236.608 116.093 223.649 118.34 211.662C118.586 210.348 119.994 209.618 121.211 210.174C132.313 215.246 139.04 228.205 136.794 240.192Z" fill="#EEE8DC"/>
<path d="M179.035 203.821C180.181 203.152 180.41 201.602 179.508 200.63C168.319 188.572 148.716 185.674 134.511 193.977C133.365 194.646 133.136 196.197 134.038 197.169C145.227 209.226 164.83 212.124 179.035 203.821Z" fill="#EEE8DC"/>
<path d="M22.5761 117.652C22.666 119.056 22.2806 120.38 21.558 121.468C22.3254 122.242 23.2514 123.165 23.8539 123.735C26.235 125.985 29.7715 129.011 34.3742 132.094C41.683 136.989 51.6121 141.984 63.8125 144.297C63.3805 145.603 62.8903 146.952 62.3352 148.314C49.328 145.883 38.8419 140.586 31.2253 135.484C26.4333 132.274 22.7498 129.123 20.2597 126.77L17.848 124.278C17.794 124.222 17.7452 124.164 17.7014 124.103C17.4032 124.167 17.0966 124.21 16.783 124.23C13.3648 124.449 10.4165 121.858 10.1978 118.443C9.97906 115.028 12.5727 112.083 15.9909 111.865C19.4091 111.646 22.3573 114.237 22.5761 117.652Z" fill="#EEE8DC"/>
<path d="M122.079 151.476C138.287 148.297 144.81 142.263 153.858 135.907C145.142 140.468 139.743 144.75 126.121 146.922C127.937 144.752 131.963 138.909 133.279 137.222C133.279 137.222 133.279 137.222 135.425 136.312C142.683 132.712 148.559 128.758 152.843 125.154C155.955 122.535 158.119 120.193 159.399 118.374C160.116 117.354 161.468 116.649 162.645 116.881C163.822 117.114 164.396 118.197 163.735 119.24C162.106 121.812 159.322 124.806 155.692 127.86C151.034 131.779 149.725 132.78 142.358 137.853C140.319 139.257 136.798 141.291 136.798 141.291C149.058 138.062 153.302 134.376 160.49 129.735C162.79 128.25 164.84 126.781 166.644 125.387C169.255 123.056 171.779 120.702 173.762 118.649C173.169 117.87 172.791 116.912 172.724 115.862C172.542 113.02 174.7 110.569 177.545 110.387C180.389 110.205 182.842 112.362 183.025 115.203C183.207 118.045 181.048 120.496 178.204 120.678C177.323 120.734 176.48 120.566 175.73 120.223C171.882 124.249 165.954 129.434 161.22 133.434C151.012 142.058 141.305 150.928 118.903 154.571C120.01 153.539 121.104 152.482 122.079 151.476Z" fill="#EEE8DC"/>
<path d="M61.6912 149.833C43.2892 147.196 30.8949 141.425 22.3358 134.772C16.4755 130.217 15.4817 129.329 15.4817 129.329C15.176 128.877 14.6025 128.703 14.1863 128.99C13.7078 129.32 13.5244 130.219 13.8768 130.738C13.8768 130.738 15.1908 131.969 21.2319 136.665C30.0112 143.489 42.4815 149.312 60.6401 152.074C61.0113 151.329 61.3613 150.581 61.6912 149.833Z" fill="#EEE8DC"/>
<path d="M55.7792 159.867C41.0275 156.321 30.5016 150.193 23.0912 143.915C17.4234 139.114 8.01352 128.524 4.25729 123.323C3.61158 122.429 2.26301 122.221 1.17236 122.899C0.0817376 123.576 -0.339153 124.884 0.302333 125.781C4.17586 131.197 13.8722 142.144 19.8714 147.227C27.4929 153.683 38.1425 159.901 52.8047 163.634C53.7878 162.466 54.7869 161.209 55.7792 159.867Z" fill="#EEE8DC"/>
<path fill-rule="evenodd" clip-rule="evenodd" d="M110.297 173.303C131.777 170.4 144.176 162.877 155.954 155.546C144.081 161.369 131.839 166.837 110.026 169.076L109.761 164.929C142.485 161.635 157.737 151.639 168.728 142.911C173.862 138.834 181.208 128.551 184.501 123.66C185.201 122.62 186.579 122.172 187.608 122.666C188.636 123.16 188.924 124.412 188.224 125.452C188.191 125.501 188.157 125.551 188.124 125.601C188.066 125.791 188.002 125.996 187.931 126.217C187.486 127.608 186.776 129.598 185.712 132.013C183.583 136.842 180.036 143.379 174.354 150.225C162.986 163.925 146.955 179.368 112.81 184.348C112.212 184.436 111.615 184.517 111.02 184.594L110.89 182.557C111.272 182.506 111.655 182.452 112.039 182.396C145.585 177.503 161.223 162.341 172.367 148.911C175.42 145.232 177.844 141.646 179.754 138.378C179.194 139.038 178.552 139.77 177.826 140.56C174.514 144.166 169.458 149 162.458 153.952C150.164 162.649 135.771 172.199 110.444 175.596L110.297 173.303ZM182.064 134.044C182.099 133.998 182.133 133.953 182.168 133.907L182.129 133.986L182.09 134.063L182.064 134.044Z" fill="#EEE8DC"/>
<path d="M48.9112 167.931C40.5283 165.757 33.761 162.887 28.3982 159.942C22.6172 156.767 15.551 150.833 12.2814 147.809C11.8417 147.402 11.1658 147.392 10.7203 147.791C10.2267 148.234 10.2118 149 10.7002 149.449C11.8227 150.481 13.3521 151.819 15.1075 153.267C15.1057 153.268 15.1049 153.269 15.1044 153.269C15.1042 153.269 15.104 153.269 15.104 153.269L15.1039 153.27L15.1126 153.278C15.1182 153.283 15.126 153.291 15.136 153.3C15.1561 153.319 15.1851 153.347 15.2229 153.382C15.2986 153.453 15.4098 153.556 15.5557 153.689C15.8475 153.955 16.2786 154.34 16.8437 154.825C17.9738 155.795 19.6408 157.167 21.8032 158.785C26.1266 162.022 32.4391 166.253 40.4087 170.243C41.7067 170.892 43.0488 171.536 44.4335 172.168C44.9002 171.762 45.4169 171.302 45.9741 170.789C44.3654 170.068 42.8139 169.329 41.3217 168.582C40.1653 168.003 39.0446 167.419 37.9608 166.834C40.7505 167.899 43.7716 168.897 47.0365 169.79C47.6304 169.221 48.2583 168.601 48.9112 167.931Z" fill="#EEE8DC"/>
<path d="M65.5498 138.119C61.8527 136.641 58.609 135.003 55.6949 133.372C47.1846 128.609 42.8658 125.01 40.585 122.087L40.5849 122.087L40.5848 122.087C39.8763 121.179 39.332 120.481 38.8972 120.068C38.495 119.686 37.792 119.732 37.327 120.171C36.862 120.61 36.8111 121.275 37.2133 121.657C37.4928 121.923 37.9079 122.458 38.4808 123.196C40.645 125.984 45.3783 130.336 54.2769 135.169C57.5382 136.941 61.0337 138.727 64.9982 140.319C65.2027 139.553 65.386 138.817 65.5498 138.119Z" fill="#EEE8DC"/>
<path d="M429.13 60.0587H431.865V82.5337H429.13V60.0587Z" fill="#EEE8DC"/>
<path d="M434.664 52.9951L428.873 57.8111L427.457 56.8479L432.283 51.7108L434.664 52.9951Z" fill="#EEE8DC"/>
<path d="M350.34 75.8875C349.567 74.5604 349.181 73.03 349.181 71.2962C349.181 69.541 349.567 68.0106 350.34 66.7049C351.133 65.3778 352.163 64.3396 353.428 63.5905C354.694 62.8413 356.067 62.4667 357.547 62.4667C358.619 62.4667 359.595 62.6058 360.475 62.8841C361.376 63.1624 362.191 63.5583 362.92 64.0721C363.65 64.5644 364.272 65.1423 364.786 65.8059V62.2099C363.843 61.3751 362.813 60.7543 361.698 60.3476C360.582 59.9409 359.199 59.7376 357.547 59.7376C355.981 59.7376 354.512 60.0266 353.139 60.6045C351.787 61.161 350.597 61.9637 349.567 63.0125C348.538 64.0399 347.733 65.26 347.154 66.6728C346.575 68.0855 346.285 69.6266 346.285 71.2962C346.285 72.9658 346.575 74.5069 347.154 75.9197C347.733 77.3324 348.538 78.5632 349.567 79.612C350.597 80.6394 351.787 81.4421 353.139 82.02C354.512 82.5766 355.981 82.8548 357.547 82.8548C359.199 82.8548 360.582 82.6515 361.698 82.2448C362.813 81.8381 363.843 81.2174 364.786 80.3826V76.7865C364.272 77.4501 363.65 78.0387 362.92 78.5524C362.191 79.0448 361.376 79.43 360.475 79.7083C359.595 79.9866 358.619 80.1257 357.547 80.1257C356.067 80.1257 354.694 79.7511 353.428 79.002C352.163 78.2528 351.133 77.2146 350.34 75.8875Z" fill="#EEE8DC"/>
<path d="M394.857 60.0587H392.122V82.5337H403.705V79.9652H394.857V60.0587Z" fill="#EEE8DC"/>
<path d="M479.328 60.0587H476.593V76.7865L459.54 58.9349V82.5337H462.275V65.8059L479.328 83.6575V60.0587Z" fill="#EEE8DC"/>
<path d="M507.011 60.0587H509.746V82.5337H507.011V60.0587Z" fill="#EEE8DC"/>
<path d="M540.188 75.8875C539.416 74.5604 539.03 73.03 539.03 71.2962C539.03 69.541 539.416 68.0106 540.188 66.7049C540.982 65.3778 542.011 64.3396 543.277 63.5905C544.543 62.8413 545.915 62.4667 547.395 62.4667C548.468 62.4667 549.444 62.6058 550.323 62.8841C551.224 63.1624 552.039 63.5583 552.769 64.0721C553.498 64.5644 554.12 65.1423 554.635 65.8059V62.2099C553.691 61.3751 552.662 60.7543 551.546 60.3476C550.431 59.9409 549.047 59.7376 547.395 59.7376C545.83 59.7376 544.36 60.0266 542.987 60.6045C541.636 61.161 540.445 61.9637 539.416 63.0125C538.386 64.0399 537.582 65.26 537.003 66.6728C536.424 68.0855 536.134 69.6266 536.134 71.2962C536.134 72.9658 536.424 74.5069 537.003 75.9197C537.582 77.3324 538.386 78.5632 539.416 79.612C540.445 80.6394 541.636 81.4421 542.987 82.02C544.36 82.5766 545.83 82.8548 547.395 82.8548C549.047 82.8548 550.431 82.6515 551.546 82.2448C552.662 81.8381 553.691 81.2174 554.635 80.3826V76.7865C554.12 77.4501 553.498 78.0387 552.769 78.5524C552.039 79.0448 551.224 79.43 550.323 79.7083C549.444 79.9866 548.468 80.1257 547.395 80.1257C545.915 80.1257 544.543 79.7511 543.277 79.002C542.011 78.2528 540.982 77.2146 540.188 75.8875Z" fill="#EEE8DC"/>
<path fill-rule="evenodd" clip-rule="evenodd" d="M582.143 82.5337L584.999 75.7912H594.072L596.943 82.5337H600L589.543 58.9349L579.086 82.5337H582.143ZM592.993 73.2227H586.101L589.543 65.1316L592.993 73.2227Z" fill="#EEE8DC"/>
</svg>
