<svg width="94" height="75" viewBox="0 0 94 75" fill="none" xmlns="http://www.w3.org/2000/svg">
<path d="M30.4395 0.21137C24.1393 1.21855 18.7177 5.49372 16.1997 11.4082C14.1103 16.3156 14.2711 22.1872 16.6069 26.891C19.2427 32.1841 24.1072 35.9235 29.8288 37.0807C31.4467 37.4021 34.3826 37.4771 36.0648 37.2414C38.6684 36.8664 41.4114 35.8806 43.3401 34.627C48.6224 31.1876 51.6654 26.1517 52.1261 20.0871C52.6619 13.1012 49.351 6.58662 43.3293 2.75076C42.0757 1.95787 40.0721 1.07926 38.5077 0.639958C36.1826 -0.013639 32.8932 -0.185074 30.4395 0.21137ZM36.0648 4.87227C38.947 5.47229 41.3043 6.73663 43.3508 8.78313C45.4294 10.8511 46.8116 13.4333 47.3366 16.2406C47.5402 17.3549 47.5188 20.3122 47.2831 21.3943C46.2866 26.0231 43.2543 29.7518 38.9685 31.6055C35.0897 33.2877 30.8681 33.1269 27.0323 31.1554C25.6286 30.4268 24.5572 29.6232 23.3143 28.3268C21.3856 26.3231 20.2284 24.1159 19.6606 21.3943C19.3498 19.8621 19.3498 17.5263 19.6606 15.9941C20.882 10.0582 25.7037 5.55801 31.736 4.72226C32.7325 4.58297 35.079 4.65797 36.0648 4.87227Z" fill="#EEE8DC"/>
<path d="M82.588 33.4269C80.8308 33.8984 81.5915 33.2019 68.3053 46.4882L56.1334 58.6601L55.5762 59.7851C55.0512 60.8566 54.9547 61.1995 53.6904 66.5247C52.919 69.7605 52.3511 72.3535 52.3511 72.6535C52.3511 73.3285 52.5439 73.7999 53.0368 74.2928C53.4868 74.7321 54.044 75 54.5476 75C55.0512 75 66.6659 72.032 67.3195 71.732C67.6195 71.5927 68.1231 71.2927 68.4446 71.0463C68.7553 70.8105 74.3162 65.3246 80.8093 58.8529C91.6955 47.9989 92.6384 47.0239 93.0455 46.2846C94.2563 44.0881 94.2134 41.3987 92.9384 39.2343C92.4562 38.4093 89.0489 34.9484 88.106 34.3163C87.056 33.6198 86.006 33.3091 84.5488 33.2555C83.6059 33.2234 83.2094 33.2555 82.588 33.4269ZM85.4381 38.2164C85.9845 38.4629 88.6954 41.1844 89.0061 41.7844C89.3061 42.3844 89.3275 43.1666 89.0489 43.7666C88.9311 44.0345 88.0846 44.956 86.8846 46.1667L84.9023 48.1382L79.0307 42.2666L80.8843 40.4129C83.038 38.2486 83.5952 37.8843 84.5809 37.9807C84.8381 38.0128 85.2238 38.1093 85.4381 38.2164ZM78.7307 48.3954C80.3165 49.9812 81.6022 51.3098 81.6022 51.3741C81.6022 51.4384 78.0449 55.0385 73.7055 59.378C67.4588 65.6246 65.7016 67.3176 65.3159 67.4783C64.7587 67.7247 57.9442 69.3748 57.8584 69.2998C57.8156 69.2462 59.0692 63.9531 59.5406 62.2066C59.6371 61.8531 60.8585 60.5673 67.7052 53.6563C72.1304 49.1883 75.7841 45.5346 75.8163 45.5346C75.8377 45.5346 77.1556 46.8203 78.7307 48.3954Z" fill="#EEE8DC"/>
<path d="M25.9395 44.5274C24.1608 44.6667 22.7572 44.8381 21.6429 45.0631C12.6747 46.8203 5.42082 53.0027 2.31356 61.5316C1.31709 64.2317 0.631348 68.164 0.72778 70.607C0.759924 71.5392 0.813498 71.8392 1.04922 72.332C1.41352 73.1356 2.44213 74.175 3.24574 74.55L3.86719 74.8393L47.9368 74.8929L47.7761 74.3893C47.5939 73.8107 47.5296 71.6356 47.6689 70.7998L47.7546 70.2855H5.30296L5.36725 69.3962C5.48511 67.9176 5.74226 66.3318 6.0637 65.0675C7.94949 57.7815 13.864 51.8991 21.2786 49.9383C23.8823 49.2526 23.9894 49.2418 32.6897 49.199C41.2187 49.1561 42.3116 49.199 44.6366 49.6704C47.7225 50.3026 50.8512 51.7062 53.2191 53.5277L53.8191 53.9885L57.1621 50.8383L56.7121 50.4205C56.0907 49.8419 54.4192 48.6847 53.187 47.9668C49.8226 45.9846 45.9224 44.8488 41.5508 44.5702C40.0722 44.4738 27.0752 44.4417 25.9395 44.5274Z" fill="#EEE8DC"/>
</svg>
