<svg width="1920" height="200" viewBox="0 0 1920 200" fill="none" xmlns="http://www.w3.org/2000/svg">
<path opacity="0.5" fill-rule="evenodd" clip-rule="evenodd" d="M1920 18.9546L1760 13.4163C1600 7.8779 1280 -3.19882 960 10.7928C640 24.7845 320 63.8445 160 83.3745L0 102.905V119.811H160C320 119.811 640 119.811 960 119.811C1280 119.811 1600 192 1760 192H1920V18.9546Z" fill="#7364CB"/>
<path opacity="0.75" fill-rule="evenodd" clip-rule="evenodd" d="M0 18.9635L160 13.4218C320 7.8802 640 -3.2031 960 10.7969C1280 24.7968 1600 63.88 1760 83.4216L1920 102.963V184H1742C1582 184 1280 119.88 960 119.88C640 119.88 320 119.88 160 119.88H0V18.9635Z" fill="#7364CB"/>
<path fill-rule="evenodd" clip-rule="evenodd" d="M0 18.6672L160 9.35588C320 -0.0189983 640 -8.22104 960 15.4629C1280 39.1468 1600 105.264 1760 138.323L1920 171.382V200H1760C1600 200 1280 200 960 200C640 200 320 200 160 200H0V18.6672Z" fill="#7364CB"/>
</svg>
