<svg width="99" height="76" viewBox="0 0 99 76" fill="none" xmlns="http://www.w3.org/2000/svg">
<path fill-rule="evenodd" clip-rule="evenodd" d="M0 23.7143C0 10.8934 10.6649 0.5 23.8206 0.5L74.3937 0.5C87.5494 0.5 98.2143 10.8934 98.2143 23.7143V52.2857C98.2143 65.1066 87.5494 75.5 74.3937 75.5H23.8206C10.6649 75.5 0 65.1066 0 52.2857L0 23.7143ZM22.2091 18.538C20.8945 17.0383 18.5813 16.8609 17.0424 18.142C15.5034 19.4231 15.3214 21.6774 16.636 23.1772L29.9673 38.3874C40.2079 50.0712 58.7384 50.0712 68.979 38.3874L82.3104 23.1772C83.6249 21.6774 83.443 19.4231 81.904 18.142C80.365 16.8609 78.0518 17.0383 76.7373 18.538L63.4059 33.7482C56.0912 42.0938 42.8551 42.0938 35.5404 33.7482L22.2091 18.538Z" fill="#EEE8DC"/>
</svg>
