<svg width="179" height="75" viewBox="0 0 179 75" fill="none" xmlns="http://www.w3.org/2000/svg">
<path d="M61.8321 25.2638C62.0884 24.0225 61.0308 22.952 59.6548 23.0598C42.5872 24.3972 26.9594 37.313 23.7801 52.7089C23.5238 53.9502 24.5814 55.0207 25.9574 54.9129C43.025 53.5755 58.6529 40.6597 61.8321 25.2638Z" fill="#F6D66F"/>
<path d="M160.493 38.1647C160.947 37.3819 160.512 36.461 159.596 36.2688C148.243 33.8847 135.131 39.5389 129.496 49.2484C129.042 50.0312 129.478 50.9521 130.393 51.1443C141.747 53.5283 154.859 47.8741 160.493 38.1647Z" fill="#F6D66F"/>
<path d="M121.918 15.966C122.24 15.1361 121.652 14.2937 120.708 14.2316C108.992 13.4617 96.8649 20.8126 92.8681 31.1061C92.5459 31.9359 93.1337 32.7784 94.0782 32.8405C105.793 33.6104 117.921 26.2595 121.918 15.966Z" fill="#EEE8DC"/>
<path d="M27.8129 6.04391C28.3497 5.4742 28.1958 4.6308 27.4961 4.30753C18.8177 0.297908 6.97994 2.65725 0.321973 9.72353C-0.214815 10.2932 -0.0609663 11.1366 0.638722 11.4599C9.31718 15.4695 21.1549 13.1102 27.8129 6.04391Z" fill="#0C1E8E"/>
<path d="M178.999 1.13239C179.037 0.401759 178.326 -0.133927 177.534 0.0295195C167.714 2.05685 159.767 10.6165 159.29 19.6787C159.252 20.4094 159.963 20.9451 160.755 20.7816C170.574 18.7543 178.522 10.1946 178.999 1.13239Z" fill="#0C1E8E"/>
<path d="M88.8462 73.7126C89.8342 73.4096 90.308 72.3709 89.8217 71.5743C83.7897 61.6927 69.6749 56.9664 57.4204 60.7248C56.4324 61.0278 55.9585 62.0665 56.4448 62.8632C62.4768 72.7447 76.5916 77.471 88.8462 73.7126Z" fill="#E4754A"/>
</svg>
