<svg width="76" height="75" viewBox="0 0 76 75" fill="none" xmlns="http://www.w3.org/2000/svg">
<path fill-rule="evenodd" clip-rule="evenodd" d="M0.5 23.7873C0.5 10.6499 11.1499 0 24.2873 0L51.7127 0C64.8501 0 75.5 10.6499 75.5 23.7873V51.2127C75.5 64.3501 64.8501 75 51.7127 75H24.2873C11.1499 75 0.5 64.3501 0.5 51.2127L0.5 23.7873ZM21.7687 39.7388C21.7687 30.7745 29.0357 23.5075 38 23.5075C46.9643 23.5075 54.2313 30.7745 54.2313 39.7388C54.2313 48.7031 46.9643 55.9702 38 55.9702C29.0357 55.9702 21.7687 48.7031 21.7687 39.7388ZM58.4291 20.1493C60.4384 20.1493 62.0672 18.5204 62.0672 16.5112C62.0672 14.5019 60.4384 12.8731 58.4291 12.8731C56.4199 12.8731 54.791 14.5019 54.791 16.5112C54.791 18.5204 56.4199 20.1493 58.4291 20.1493Z" fill="#EEE8DC"/>
</svg>
