<svg width="700" height="250" viewBox="0 0 700 250" fill="none" xmlns="http://www.w3.org/2000/svg">
<g style="mix-blend-mode:overlay">
<path d="M661.561 37.212C672.346 37.212 681.09 28.8818 681.09 18.606C681.09 8.33018 672.346 0 661.561 0C650.775 0 642.031 8.33018 642.031 18.606C642.031 22.4063 643.227 25.9406 645.28 28.8857C637.293 35.8219 627.192 43.7174 616.768 51.5115C609.618 56.1191 601.523 60.9358 592.477 65.755C564.21 80.8149 526.622 95.9233 479.546 104.731C487.237 102.125 494.648 99.3848 501.764 96.5432C531.57 84.6412 556.274 70.9387 574.81 57.8982C589.257 47.735 600.498 37.5919 607.271 28.7044C610.019 25.0987 608.113 21.0662 603.724 19.9585C599.336 18.8507 594.062 21.0791 591.105 24.5871C585.83 30.8443 577.094 38.7799 564.706 47.4944C547.658 59.4883 524.511 72.3777 496.233 83.6697C463.944 96.5636 425.046 107.342 381.012 112.342C295.372 110.33 244.552 86.7765 208.269 64.3972C177.283 45.285 161.845 31.3289 153.939 20.2757C151.483 16.8421 149.596 14.2037 148.054 12.6167C146.627 11.1486 143.961 11.1529 142.099 12.6263C140.237 14.0997 139.884 16.4842 141.31 17.9523C142.302 18.9728 143.74 20.9944 145.725 23.7852C153.223 34.3262 170.045 51.0865 202.48 70.5434C232.407 88.4964 267.917 107.122 323.962 115.321C307.784 115.188 291.092 114.228 273.942 112.3C210.459 105.164 161.401 79.2596 128.064 54.8853C111.428 42.7219 98.8056 31.0107 90.3579 22.3587C88.1458 20.0931 84.7175 16.3812 81.955 13.3607C79.4316 10.6017 74.4169 10.2698 70.4754 12.6155C66.1761 15.1743 64.8358 19.8946 67.5462 22.9322L76.0506 32.4633C84.8849 41.5113 98.033 53.7067 115.353 66.37C149.927 91.6489 201.518 119.078 268.989 126.663C328.116 133.309 382.226 128.921 429.149 118.689C484.664 114.602 530.219 101.596 565.939 86.4546C516.011 115.554 442.803 140.203 339.582 137.049C203.677 132.897 127.006 99.7958 81.955 61.7588C60.9264 44.0041 57.3884 40.5787 57.3884 40.5787C56.3432 38.881 54.2196 38.1212 52.5786 39.0586C50.6918 40.1363 49.7813 43.3347 50.9867 45.285C50.9867 45.285 55.651 50.0211 77.3285 68.3236C124.431 108.093 203.233 141.694 340.614 145.892C462.716 149.622 543.767 114.974 594.339 79.2434C613.183 65.9295 636.824 48.6209 652.33 35.0067C655.079 36.4137 658.222 37.212 661.561 37.212Z" fill="#CEC4B1"/>
<path fill-rule="evenodd" clip-rule="evenodd" d="M50.1846 126.702C43.9057 121.085 38.454 115.914 34.4647 111.939C32.7287 110.209 32.9704 107.453 34.9413 105.974C36.7205 104.639 39.2702 104.831 40.8323 106.397C52.448 118.041 77.6973 141.037 98.7603 153.803C144.557 181.56 219.59 209.602 336.062 209.76C438.475 209.899 515.263 185.246 569.105 157.669C516.795 178.297 444.205 193.721 344.144 193.721C201.346 193.721 117.627 150.139 69.6357 106.046C48.2103 86.3614 14.2415 44.7049 0.924056 24.305C-1.28142 20.9266 0.624221 16.3157 4.90669 14.1269C9.18925 11.938 14.2317 12.9956 16.4539 16.3643C29.3805 35.9605 62.3538 76.265 82.5959 94.8629C127.919 136.504 207.852 178.657 346.405 178.657C489.857 178.657 573.223 146.365 620.401 115.104C640.774 101.604 671.002 66.2615 684.619 49.4046C687.515 45.8191 692.828 44.5247 696.593 46.5403C700.358 48.556 701.141 53.1304 698.245 56.7158L697.832 57.2264C697.568 57.8975 697.276 58.6241 696.956 59.4036C694.939 64.3087 691.775 71.3116 687.172 79.7649C677.966 96.6681 662.989 119.391 639.878 142.741C593.632 189.464 514.816 238.682 384.669 248.759C283.569 256.587 199.923 226.094 141.624 193.666C112.493 177.462 89.6788 160.77 74.1349 148.119C66.3604 141.792 60.3971 136.469 56.3642 132.714C54.3475 130.837 52.8128 129.35 51.775 128.326C51.256 127.814 50.8613 127.417 50.5925 127.145C50.4582 127.008 50.3553 126.903 50.2842 126.83L50.2013 126.744L50.1777 126.72L50.1704 126.713C50.1704 126.713 50.1697 126.712 50.1846 126.702ZM673.331 85.7715L672.906 86.2384L673.001 86.3136L673.163 86.0469L673.331 85.7715ZM663.136 101.315C655.13 112.646 645.109 125.005 632.692 137.55C587.358 183.351 510.092 231.65 382.228 241.551C283.679 249.181 202.294 219.503 145.474 187.896C141.247 185.545 137.156 183.183 133.205 180.826C180.336 201.362 246.19 217.909 336.079 218.031C454.045 218.19 538.763 185.883 594.052 153.424C621.684 137.202 641.946 120.955 655.325 108.731C658.257 106.052 660.859 103.566 663.136 101.315Z" fill="#CEC4B1"/>
</g>
<g style="mix-blend-mode:overlay" opacity="0.5">
<path d="M661.561 37.212C672.346 37.212 681.09 28.8818 681.09 18.606C681.09 8.33018 672.346 0 661.561 0C650.775 0 642.031 8.33018 642.031 18.606C642.031 22.4063 643.227 25.9406 645.28 28.8857C637.293 35.8219 627.192 43.7174 616.768 51.5115C609.618 56.1191 601.523 60.9358 592.477 65.755C564.21 80.8149 526.622 95.9233 479.546 104.731C487.237 102.125 494.648 99.3848 501.764 96.5432C531.57 84.6412 556.274 70.9387 574.81 57.8982C589.257 47.735 600.498 37.5919 607.271 28.7044C610.019 25.0987 608.113 21.0662 603.724 19.9585C599.336 18.8507 594.062 21.0791 591.105 24.5871C585.83 30.8443 577.094 38.7799 564.706 47.4944C547.658 59.4883 524.511 72.3777 496.233 83.6697C463.944 96.5636 425.046 107.342 381.012 112.342C295.372 110.33 244.552 86.7765 208.269 64.3972C177.283 45.285 161.845 31.3289 153.939 20.2757C151.483 16.8421 149.596 14.2037 148.054 12.6167C146.627 11.1486 143.961 11.1529 142.099 12.6263C140.237 14.0997 139.884 16.4842 141.31 17.9523C142.302 18.9728 143.74 20.9944 145.725 23.7852C153.223 34.3262 170.045 51.0865 202.48 70.5434C232.407 88.4964 267.917 107.122 323.962 115.321C307.784 115.188 291.092 114.228 273.942 112.3C210.459 105.164 161.401 79.2596 128.064 54.8853C111.428 42.7219 98.8056 31.0107 90.3579 22.3587C88.1458 20.0931 84.7175 16.3812 81.955 13.3607C79.4316 10.6017 74.4169 10.2698 70.4754 12.6155C66.1761 15.1743 64.8358 19.8946 67.5462 22.9322L76.0506 32.4633C84.8849 41.5113 98.033 53.7067 115.353 66.37C149.927 91.6489 201.518 119.078 268.989 126.663C328.116 133.309 382.226 128.921 429.149 118.689C484.664 114.602 530.219 101.596 565.939 86.4546C516.011 115.554 442.803 140.203 339.582 137.049C203.677 132.897 127.006 99.7958 81.955 61.7588C60.9264 44.0041 57.3884 40.5787 57.3884 40.5787C56.3432 38.881 54.2196 38.1212 52.5786 39.0586C50.6918 40.1363 49.7813 43.3347 50.9867 45.285C50.9867 45.285 55.651 50.0211 77.3285 68.3236C124.431 108.093 203.233 141.694 340.614 145.892C462.716 149.622 543.767 114.974 594.339 79.2434C613.183 65.9295 636.824 48.6209 652.33 35.0067C655.079 36.4137 658.222 37.212 661.561 37.212Z" fill="#CEC4B1"/>
<path fill-rule="evenodd" clip-rule="evenodd" d="M50.1846 126.702C43.9057 121.085 38.454 115.914 34.4647 111.939C32.7287 110.209 32.9704 107.453 34.9413 105.974C36.7205 104.639 39.2702 104.831 40.8323 106.397C52.448 118.041 77.6973 141.037 98.7603 153.803C144.557 181.56 219.59 209.602 336.062 209.76C438.475 209.899 515.263 185.246 569.105 157.669C516.795 178.297 444.205 193.721 344.144 193.721C201.346 193.721 117.627 150.139 69.6357 106.046C48.2103 86.3614 14.2415 44.7049 0.924056 24.305C-1.28142 20.9266 0.624221 16.3157 4.90669 14.1269C9.18925 11.938 14.2317 12.9956 16.4539 16.3643C29.3805 35.9605 62.3538 76.265 82.5959 94.8629C127.919 136.504 207.852 178.657 346.405 178.657C489.857 178.657 573.223 146.365 620.401 115.104C640.774 101.604 671.002 66.2615 684.619 49.4046C687.515 45.8191 692.828 44.5247 696.593 46.5403C700.358 48.556 701.141 53.1304 698.245 56.7158L697.832 57.2264C697.568 57.8975 697.276 58.6241 696.956 59.4036C694.939 64.3087 691.775 71.3116 687.172 79.7649C677.966 96.6681 662.989 119.391 639.878 142.741C593.632 189.464 514.816 238.682 384.669 248.759C283.569 256.587 199.923 226.094 141.624 193.666C112.493 177.462 89.6788 160.77 74.1349 148.119C66.3604 141.792 60.3971 136.469 56.3642 132.714C54.3475 130.837 52.8128 129.35 51.775 128.326C51.256 127.814 50.8613 127.417 50.5925 127.145C50.4582 127.008 50.3553 126.903 50.2842 126.83L50.2013 126.744L50.1777 126.72L50.1704 126.713C50.1704 126.713 50.1697 126.712 50.1846 126.702ZM673.331 85.7715L672.906 86.2384L673.001 86.3136L673.163 86.0469L673.331 85.7715ZM663.136 101.315C655.13 112.646 645.109 125.005 632.692 137.55C587.358 183.351 510.092 231.65 382.228 241.551C283.679 249.181 202.294 219.503 145.474 187.896C141.247 185.545 137.156 183.183 133.205 180.826C180.336 201.362 246.19 217.909 336.079 218.031C454.045 218.19 538.763 185.883 594.052 153.424C621.684 137.202 641.946 120.955 655.325 108.731C658.257 106.052 660.859 103.566 663.136 101.315Z" fill="#CEC4B1"/>
</g>
</svg>
