<svg width="225" height="75" viewBox="0 0 225 75" fill="none" xmlns="http://www.w3.org/2000/svg">
<path d="M212.644 11.1636C216.111 11.1636 218.922 8.66454 218.922 5.58179C218.922 2.49905 216.111 0 212.644 0C209.178 0 206.367 2.49905 206.367 5.58179C206.367 6.7219 206.752 7.78217 207.411 8.66571C204.844 10.7466 201.597 13.1152 198.247 15.4534C195.949 16.8357 193.347 18.2808 190.439 19.7265C181.353 24.2445 169.271 28.777 154.14 31.4192C156.612 30.6376 158.994 29.8155 161.281 28.963C170.862 25.3923 178.802 21.2816 184.76 17.3695C189.404 14.3205 193.017 11.2776 195.194 8.61133C196.078 7.52961 195.465 6.31985 194.054 5.98754C192.644 5.65523 190.948 6.32372 189.998 7.37612C188.303 9.25328 185.494 11.634 181.513 14.2483C176.033 17.8465 168.593 21.7133 159.504 25.1009C149.125 28.9691 136.622 32.2026 122.468 33.7025C94.9412 33.0989 78.6059 26.0329 66.9437 19.3192C56.984 13.5855 52.0216 9.39866 49.4803 6.08271C48.6909 5.05262 48.0843 4.26111 47.5887 3.78502C47.1302 3.34459 46.2733 3.34587 45.6747 3.78789C45.0761 4.22991 44.9626 4.94527 45.4211 5.3857C45.7398 5.69183 46.202 6.29832 46.8401 7.13556C49.2501 10.2979 54.6572 15.326 65.0827 21.163C74.7024 26.5489 86.1163 32.1366 104.131 34.5963C98.9306 34.5564 93.5653 34.2683 88.0528 33.6899C67.6476 31.5491 51.879 23.7779 41.1635 16.4656C35.8163 12.8166 31.7589 9.3032 29.0436 6.70761C28.3326 6.02794 27.2306 4.91435 26.3427 4.0082C25.5316 3.1805 23.9197 3.08094 22.6528 3.78466C21.2709 4.55228 20.8401 5.96837 21.7113 6.87966L24.4448 9.739C27.2844 12.4534 31.5106 16.112 37.0777 19.911C48.1908 27.4947 64.7737 35.7235 86.4606 37.9988C105.466 39.9928 122.858 38.6762 137.941 35.6066C155.785 34.3806 170.428 30.4789 181.909 25.9364C165.861 34.6663 142.33 42.0609 109.151 41.1148C65.4676 39.8691 40.8232 29.9387 26.3427 18.5277C19.5835 13.2012 18.4463 12.1736 18.4463 12.1736C18.1103 11.6643 17.4277 11.4364 16.9003 11.7176C16.2938 12.0409 16.0011 13.0004 16.3886 13.5855C16.3886 13.5855 17.8878 15.0063 24.8556 20.4971C39.9955 32.4278 65.325 42.5083 109.483 43.7675C148.73 44.8866 174.782 34.4922 191.038 23.773C197.095 19.7788 204.693 14.5863 209.678 10.502C210.561 10.9241 211.571 11.1636 212.644 11.1636Z" fill="#EEE8DC"/>
<path fill-rule="evenodd" clip-rule="evenodd" d="M16.1308 38.0107C14.1125 36.3254 12.3602 34.7741 11.0779 33.5817C10.52 33.0628 10.5976 32.2359 11.2311 31.7922C11.803 31.3917 12.6226 31.4494 13.1247 31.9191C16.8583 35.4122 24.9741 42.3111 31.7444 46.1409C46.4646 54.468 70.5825 62.8807 108.02 62.928C140.938 62.9696 165.62 55.5737 182.927 47.3006C166.113 53.4892 142.78 58.1163 110.618 58.1163C64.7182 58.1163 37.8086 45.0418 22.3829 31.8139C15.4962 25.9084 4.57763 13.4115 0.297018 7.2915C-0.411886 6.27798 0.200642 4.89471 1.57715 4.23806C2.95369 3.5814 4.57448 3.89868 5.28875 4.90929C9.44375 10.7882 20.0423 22.8795 26.5487 28.4589C41.1167 40.9512 66.8094 53.597 111.345 53.597C157.454 53.597 184.25 43.9094 199.414 34.5311C205.963 30.4813 215.679 19.8784 220.056 14.8214C220.987 13.7457 222.695 13.3574 223.905 13.9621C225.115 14.5668 225.367 15.9391 224.436 17.0147L224.303 17.1679C224.218 17.3692 224.125 17.5872 224.022 17.8211C223.373 19.2926 222.356 21.3935 220.877 23.9295C217.918 29.0004 213.104 35.8174 205.675 42.8223C190.81 56.8391 165.477 71.6046 123.643 74.6277C91.1471 76.976 64.261 67.8283 45.5221 58.0997C36.1586 53.2385 28.8253 48.2311 23.8291 44.4358C21.3301 42.5375 19.4134 40.9407 18.1171 39.8142C17.4688 39.251 16.9755 38.8051 16.642 38.4978C16.4752 38.3442 16.3483 38.2252 16.2619 38.1434C16.2187 38.1025 16.1856 38.0709 16.1628 38.049L16.1361 38.0233L16.1286 38.016L16.1262 38.0138C16.1262 38.0138 16.126 38.0135 16.1308 38.0107ZM216.428 25.7314L216.291 25.8715L216.322 25.8941L216.374 25.8141L216.428 25.7314ZM213.151 30.3946C210.578 33.7939 207.356 37.5014 203.365 41.2649C188.794 55.0053 163.958 69.4952 122.859 72.4652C91.1825 74.7542 65.023 65.8508 46.7594 56.369C45.4008 55.6636 44.0859 54.955 42.8158 54.2477C57.9651 60.4086 79.1325 65.3727 108.026 65.4092C145.943 65.4571 173.174 55.7649 190.945 46.0273C199.827 41.1607 206.34 36.2865 210.64 32.6192C211.583 31.8155 212.419 31.0697 213.151 30.3946Z" fill="#EEE8DC"/>
</svg>
