<svg width="85" height="75" viewBox="0 0 85 75" fill="none" xmlns="http://www.w3.org/2000/svg">
<path d="M28.7773 0.495888C23.9731 2.02418 21.1668 5.98818 21.1668 11.2894C21.1668 15.7788 22.4986 17.6891 32.4398 27.5753C40.1455 35.2645 41.1444 36.0764 42.6189 36.0764C44.0935 36.0764 44.9972 35.3122 52.6077 27.5753C62.4538 17.6414 63.5003 16.2086 63.8332 12.2446C64.1662 8.61493 63.2149 5.89266 60.789 3.36143C58.5534 1.069 56.3178 0.113815 53.0358 0.113815C49.7062 0.113815 47.7084 0.973478 44.6642 3.7435L42.2384 5.94042L40.3833 4.03006C36.9586 0.448129 32.8204 -0.793607 28.7773 0.495888ZM35.3414 2.88384C36.2927 3.31367 38.338 4.84196 39.8125 6.32249L42.5238 8.997L45.2826 6.27473C48.9927 2.59729 50.1819 2.02418 53.559 2.26297C57.0789 2.50177 59.3145 4.03006 60.8842 7.13439C63.5478 12.4356 62.549 14.4415 52.0369 25.2351C45.5204 31.9213 43.5227 33.6884 42.5238 33.6884C40.7638 33.6884 24.4012 17.0683 23.545 14.3938C21.1192 6.8956 28.2065 -0.077221 35.3414 2.88384Z" fill="#EEE8DC"/>
<path d="M23.5926 47.3475C20.5008 48.1594 18.836 49.1624 14.0795 52.9831L10.4645 55.8964L5.23223 56.1352C0.380526 56.374 0 56.4695 0 57.3292C0 58.2366 0.33296 58.2843 5.47006 58.2843H10.9401L15.221 54.8934C22.7364 48.9236 21.4997 49.2101 38.1477 49.0668C52.0845 48.9236 52.5602 48.9713 53.4639 49.8787C54.8433 51.2638 54.7482 52.9831 53.2261 54.1771C52.0845 55.0845 51.3234 55.18 45.1399 55.18C41.4298 55.18 38.005 55.3233 37.5769 55.4665C36.6732 55.8486 35.4365 58.0933 35.4365 59.4783C35.4365 60.0514 36.0548 61.1499 36.8159 61.914L38.1953 63.299H58.5059L68.2569 56.1352C78.8165 48.3982 79.7202 48.0161 81.8607 50.1653C82.7644 51.0727 83.0022 51.7891 82.9071 52.9353C82.7644 54.3203 81.8131 55.18 72.5378 62.2483C66.925 66.4989 61.122 70.5584 59.695 71.3226L57.0789 72.612L28.5395 72.8508C0.380526 73.0896 0 73.0896 0 74.0448C0 75 0.332961 75 28.3016 75C56.5081 75 56.6032 75 59.2194 73.9493C62.0257 72.8031 83.0022 57.4724 84.2865 55.6576C85.2378 54.2726 85.2378 51.5025 84.2865 49.5922C83.2876 47.7296 80.5764 46.3923 78.4835 46.7744C77.5322 46.9654 73.3464 49.7355 67.5909 53.986L58.2205 60.9111H48.2792C39.099 60.9111 38.2904 60.8633 37.8623 60.0514C37.5294 59.3828 37.5769 58.8574 38.1002 58.1411C38.7661 57.1381 39.1942 57.0904 46.1388 57.0904H53.4163L54.8909 55.6098C56.9362 53.5562 56.9838 50.6429 54.986 48.3982L53.6066 46.8222L39.8601 46.7266C29.0151 46.6311 25.6379 46.7744 23.5926 47.3475Z" fill="#EEE8DC"/>
</svg>
