<svg width="126" height="75" viewBox="0 0 126 75" fill="none" xmlns="http://www.w3.org/2000/svg">
<path d="M2.78384 58.2786C-0.927944 62.1039 -0.927945 68.3058 2.78383 72.1311C6.49561 75.9563 12.5136 75.9563 16.2254 72.1311L69.9915 16.7214C73.7033 12.8961 73.7033 6.69417 69.9915 2.86893C66.2798 -0.956311 60.2618 -0.956311 56.55 2.86893L2.78384 58.2786Z" fill="#EEE8DC"/>
<path d="M123.216 58.2786C126.928 62.1039 126.928 68.3058 123.216 72.1311C119.504 75.9563 113.486 75.9563 109.775 72.1311L56.0084 16.7214C52.2967 12.8961 52.2967 6.69417 56.0084 2.86893C59.7202 -0.956311 65.7382 -0.956311 69.45 2.86893L123.216 58.2786Z" fill="#EEE8DC"/>
</svg>
