<svg width="150" height="76" viewBox="0 0 150 76" fill="none" xmlns="http://www.w3.org/2000/svg">
<path d="M72.3242 55.9824C72.1013 56.0106 71.8091 56.0599 71.448 56.13C71.0861 56.2003 70.655 56.2919 70.1546 56.4037C70.1264 56.6847 70.1056 56.9796 70.0918 57.2883C70.0776 57.5976 70.0711 57.9346 70.0711 58.2992C70.0711 58.6361 70.0776 59.0574 70.0918 59.5629C70.1056 60.0683 70.1265 60.6725 70.1546 61.3742C70.2377 62.7788 70.2797 63.8029 70.2797 64.4493C70.2797 66.8925 69.904 68.8018 69.153 70.178C68.9859 70.4868 68.7357 70.6415 68.4019 70.6415C68.0682 70.6415 67.7197 70.4868 67.3587 70.178C66.9969 69.8687 66.7601 69.5317 66.6492 69.1671C66.3709 68.3524 66.2319 67.3413 66.2319 66.1343C66.2319 65.9375 66.2527 65.5024 66.2946 64.8284C66.3362 64.1544 66.4124 63.2276 66.5241 62.0482C66.5514 61.6836 66.5721 61.332 66.5864 60.9952C66.6002 60.6583 66.6076 60.3357 66.6076 60.0264C66.6076 59.1279 66.5514 58.4402 66.4405 57.9621C66.3842 57.5693 66.1067 57.2744 65.6059 57.0777C64.9657 56.7971 64.5627 56.5721 64.3956 56.4036C64.3678 56.3758 64.354 56.2633 64.354 56.0665C64.354 55.9265 64.3678 55.744 64.3956 55.519C64.4233 55.2946 64.493 55.028 64.6042 54.7187C64.9103 54.7187 65.1678 54.5923 65.3765 54.3396C65.5851 54.0868 65.8003 53.9604 66.0232 53.9604C66.1904 53.9604 66.3012 53.975 66.3569 54.0025C66.4959 53.3569 66.6002 52.6481 66.6699 51.8753C66.7391 51.1032 66.7742 50.2679 66.7742 49.3688C66.7742 49.0885 66.746 48.4842 66.6907 47.5576C66.6349 46.6307 66.5655 45.367 66.482 43.7664C66.482 43.6261 66.475 43.4786 66.4612 43.324C66.447 43.1701 66.4405 43.0081 66.4405 42.8396C65.9114 42.6711 65.3898 42.3414 64.8756 41.8496C64.3605 41.3586 64.1038 40.8459 64.1038 40.3121C64.1038 39.6105 64.6042 39.1894 65.6059 39.0484C66.3012 38.9366 67.2751 38.7116 68.527 38.3744C69.7789 38.0375 71.3229 37.5602 73.1588 36.9422C76.3579 35.9037 78.9451 35.356 80.9208 35.2993C81.4216 35.2993 81.8597 35.433 82.235 35.6996C82.6107 35.9668 82.7985 36.325 82.7985 36.7737C82.7985 37.3358 82.6246 37.8477 82.2769 38.3111C81.9286 38.7746 81.477 39.0629 80.9208 39.1748H80.7537C80.5034 39.1748 80.2178 39.1048 79.8983 38.9641C79.578 38.8238 79.307 38.7535 79.0845 38.7535C78.4443 38.81 77.7557 38.9501 77.0189 39.1748C76.2816 39.3998 75.4679 39.6947 74.5779 40.0592C73.4095 40.5373 72.4705 40.9163 71.7611 41.1966C71.0516 41.4776 70.5158 41.6744 70.1547 41.7863C70.0985 42.6854 70.0569 43.5838 70.0292 44.4822C70.0015 45.3815 69.9877 46.2799 69.9877 47.1783C69.9877 48.0768 70.0015 48.9896 70.0292 49.9164C70.0569 50.843 70.0985 51.7561 70.1547 52.6545C70.2932 52.6827 70.4188 52.7039 70.53 52.7176C70.6408 52.732 70.7525 52.7386 70.8637 52.7386C71.3919 52.7386 72.3936 52.5279 73.8683 52.1067C74.4246 51.9382 74.9389 51.8054 75.4124 51.7066C75.8851 51.6084 76.2886 51.559 76.6228 51.559C76.6782 51.559 76.7405 51.5663 76.8102 51.58C76.8795 51.5946 76.9422 51.6012 76.9981 51.6012C77.5544 51.6577 77.8327 51.8959 77.8327 52.3172C77.666 53.4124 76.9699 54.255 75.7462 54.8446L72.3243 55.982L72.3242 55.9824Z" fill="#EEE8DC"/>
<path d="M79.6529 66.039C79.6529 64.8562 79.983 63.4459 80.6445 61.8084C81.5458 59.5949 82.0413 57.987 82.1316 56.9862C82.1316 56.7439 81.9357 56.4709 81.5458 56.1673C81.1247 55.834 80.9147 55.576 80.9147 55.3941C80.9147 55.2122 80.9745 55.0606 81.0951 54.9391C81.2148 54.7572 81.5304 54.6206 82.0413 54.5297C82.5518 54.4089 82.837 54.2418 82.8977 54.0293C83.4386 52.5437 84.2945 49.7231 85.4666 45.5678C85.9771 43.7481 86.4503 42.1637 86.886 40.8138C87.3212 39.4648 87.7344 38.3046 88.1252 37.3337C88.3056 36.9095 88.6811 36.6968 89.2518 36.6968C89.6721 36.6968 90.0476 36.8333 90.3785 37.1063C91.2195 37.8342 91.76 38.9259 92.0011 40.3817C92.091 40.9888 92.1811 41.6099 92.2714 42.247C92.3616 42.8838 92.436 43.5057 92.4967 44.112C93.2475 47.6909 94.0132 50.9437 94.7948 53.87C95.576 56.7972 96.3721 59.4428 97.1836 61.8084C97.3636 62.3244 97.4538 62.7486 97.4538 63.0821C97.4538 63.6892 97.1981 64.2194 96.6877 64.6743C96.2066 65.0986 95.8612 65.3112 95.6512 65.3112C94.1786 65.0382 93.2474 63.8405 92.857 61.7174C92.4662 59.413 91.9707 57.4868 91.3699 55.9398L88.3055 56.2128C87.1336 56.365 86.2168 56.7288 85.5562 57.3046C85.4057 57.7901 85.2183 58.4418 84.9929 59.2609C84.7676 60.0796 84.5197 61.0961 84.2495 62.3087C83.7381 64.5528 83.2426 66.236 82.7625 67.3583C82.6115 67.7224 82.3117 67.9043 81.8611 67.9043H81.568C81.4624 67.9043 81.3497 67.8736 81.23 67.8132C80.2385 67.5098 79.7126 67.0548 79.6527 66.4484V66.0389L79.6529 66.039ZM90.6039 53.1193C90.5436 52.5129 90.4687 51.8988 90.3786 51.2768C90.2883 50.6558 90.1682 50.0109 90.0181 49.3435C89.8676 48.7372 89.725 48.1309 89.5899 47.5238C89.4547 46.9175 89.3118 46.3112 89.1617 45.7041C88.2604 48.2517 87.4788 50.7695 86.8186 53.2558C87.2988 53.1649 88.5605 53.1193 90.6039 53.1193Z" fill="#EEE8DC"/>
<path d="M100.608 60.8986C100.668 60.0191 100.75 59.0561 100.856 58.0098C100.961 56.9633 101.014 55.834 101.014 54.6206V49.662C101.014 47.5693 101.036 45.6744 101.081 43.9755C101.127 42.2774 101.269 40.7001 101.509 39.2445C101.81 37.5157 103.357 36.6513 106.151 36.6513H106.782C108.405 36.7124 109.816 37.5314 111.018 39.1078C112.13 40.5032 112.686 42.0806 112.686 43.8391C112.686 45.2649 112.16 46.6901 111.108 48.1153C110.177 49.389 109.08 50.4203 107.819 51.2087C107.548 51.3608 107.338 51.5044 107.188 51.6409C107.037 51.7774 106.962 51.9366 106.962 52.1185C106.962 52.3311 107.03 52.5052 107.165 52.6416C107.3 52.7783 107.533 52.9828 107.864 53.2558L109.306 54.4841L114.308 59.2152C115.329 60.1862 116.216 61.0882 116.967 61.9221C117.718 62.7564 118.304 63.5525 118.725 64.3105C118.815 64.4617 118.86 64.5984 118.86 64.7199C118.86 65.4171 118.139 65.948 116.697 66.3121C115.104 65.0987 113.121 63.1888 110.748 60.5801C109.396 59.1243 108.239 57.904 107.278 56.9182C106.316 55.9328 105.505 55.1518 104.844 54.5751C104.784 54.9696 104.716 55.6827 104.642 56.7133C104.566 57.7447 104.468 59.0946 104.348 60.7621C104.198 63.2799 103.927 65.2809 103.537 66.7671C103.477 66.7671 103.327 66.8353 103.087 66.9717C102.846 67.1084 102.606 67.1765 102.366 67.1765C102.335 67.1765 102.305 67.1687 102.275 67.1539C102.245 67.1381 102.215 67.1311 102.185 67.1311C100.863 66.797 100.202 65.8723 100.202 64.356C100.202 64.113 100.217 63.8329 100.247 63.5146C100.277 63.196 100.322 62.8704 100.383 62.5363L100.608 60.8988L100.608 60.8986ZM109.306 42.4288C109.216 41.792 108.952 41.2163 108.517 40.7C108.081 40.1847 107.383 39.9269 106.422 39.9269C105.7 39.9269 105.25 40.1543 105.07 40.6093C105.009 41.0342 104.957 41.4664 104.912 41.9058C104.867 42.3456 104.844 42.7779 104.844 43.2021C104.844 43.5966 104.889 44.6124 104.98 46.2502C104.98 46.5843 104.987 46.887 105.002 47.16C105.017 47.433 105.024 47.6909 105.024 47.9334C105.024 48.1759 105.017 48.4188 105.002 48.6611C104.987 48.9044 104.98 49.1161 104.98 49.2982C107.473 47.4486 108.885 45.6437 109.216 43.8845C109.245 43.6728 109.268 43.4751 109.283 43.2932C109.298 43.1114 109.306 42.945 109.306 42.7928V42.4289L109.306 42.4288Z" fill="#EEE8DC"/>
<path d="M132.672 50.1401C132.538 49.3958 132.291 48.6377 131.931 47.8657C131.568 47.0902 131.087 46.3702 130.487 45.7055C129.887 45.0374 129.136 44.5528 128.234 44.2481C127.754 44.0957 127.339 43.9538 126.996 43.8154C126.65 43.6804 126.341 43.5523 126.07 43.4277C125.649 43.2477 125.319 43.0815 125.079 42.9292C124.839 42.7768 124.637 42.6557 124.472 42.5657C124.304 42.4757 124.157 42.3995 124.02 42.3372C123.886 42.2784 123.711 42.2472 123.502 42.2472C122.631 42.2472 121.79 42.6556 120.978 43.4761C120.168 44.2931 119.452 45.2936 118.838 46.4775C118.22 47.6614 117.727 48.9112 117.349 50.2301C116.976 51.5491 116.787 52.7087 116.787 53.7092C116.787 54.9831 117.034 56.0978 117.531 57.0533C118.028 58.0088 118.629 58.8223 119.335 59.487C120.038 60.1551 120.789 60.6571 121.588 60.9894C122.384 61.3252 123.097 61.4914 123.728 61.4914C124.63 61.4914 125.508 61.308 126.365 60.9444C127.219 60.581 128.015 60.072 128.752 59.4212C129.489 58.7669 130.172 57.995 130.803 57.0984C131.434 56.2053 131.976 55.229 132.425 54.1663C132.727 53.5605 132.874 52.8162 132.874 51.9369C132.874 51.4833 132.809 50.8844 132.672 50.1402L132.672 50.1401ZM127.974 51.9091L127.62 52.0787C126.204 52.7641 125.227 54.0726 125.086 55.6513L124.969 57.2783C124.952 57.4826 124.671 57.5207 124.599 57.3302L124.002 55.7863C123.464 54.3843 122.236 53.2661 120.782 52.9406L120.385 52.8541C120.199 52.8127 120.179 52.553 120.354 52.4838H120.357C121.904 51.8745 122.957 50.3756 123.138 48.7104L123.351 47.1111C123.372 46.9034 123.656 46.8722 123.721 47.0696L124.222 48.5754C124.771 50.2301 126.194 51.3414 127.912 51.5421C128.022 51.5526 128.083 51.646 128.083 51.736C128.083 51.8052 128.049 51.8745 127.974 51.9091H127.974Z" fill="#EEE8DC"/>
<path d="M136.525 63.9008V62.9001C136.525 61.5964 136.563 60.1024 136.638 58.4191C136.713 56.7359 136.841 54.8479 137.021 52.7553C137.472 47.7214 137.697 44.0665 137.697 41.7919C137.697 41.0036 137.681 40.253 137.652 39.54C137.622 38.8278 137.577 38.1226 137.517 37.4246C137.907 37.0307 138.403 36.8331 139.004 36.8331C140.146 36.8331 140.807 37.2582 140.987 38.107C140.987 38.4104 140.994 38.7289 141.009 39.0624C141.024 39.3965 141.032 39.7603 141.032 40.1541C141.032 41.3369 141.001 42.6788 140.941 44.1801C140.881 45.6813 140.791 47.3872 140.671 49.298C140.521 51.3904 140.423 53.2557 140.378 54.8935C140.333 56.5313 140.311 57.9571 140.311 59.1697V60.4436C141.092 60.1406 142.188 59.5038 143.601 58.5328C144.351 58.0175 144.99 57.5852 145.516 57.2363C146.041 56.888 146.469 56.6378 146.8 56.4857C146.95 56.4857 147.213 56.456 147.589 56.3946C147.964 56.3342 148.242 56.3037 148.423 56.3037C149.023 56.3037 149.459 56.5467 149.729 57.0317C149.91 57.3955 150 57.6989 150 57.9415C150 58.2449 149.91 58.5031 149.729 58.7147L144.457 62.4907C143.435 63.2184 142.481 63.8555 141.595 64.4013C140.709 64.9472 139.875 65.3864 139.094 65.7205C138.914 65.8116 138.733 65.8572 138.553 65.8572C138.132 65.8572 137.742 65.5842 137.382 65.0382L136.525 63.9009L136.525 63.9008Z" fill="#EEE8DC"/>
<path d="M64.1074 21.3168C64.1074 20.7267 64.1286 20.1584 64.1724 19.6117C64.2156 19.0656 64.3238 18.5297 64.4972 18.0051C64.5184 17.9615 64.5784 17.9123 64.6758 17.8576C64.7732 17.8032 64.887 17.754 65.0168 17.71C65.0818 17.6886 65.1519 17.6664 65.228 17.6444C65.3035 17.623 65.3955 17.6008 65.504 17.5788C65.8501 17.6229 66.1968 17.754 66.5435 17.9722C66.8896 18.1911 67.0631 18.5082 67.0631 18.9232C67.0631 19.2731 67.0307 19.5847 66.9656 19.8576C66.9006 20.1312 66.8682 20.4535 66.8682 20.8249C66.8682 21.4592 66.8409 21.9511 66.787 22.3005C66.7327 22.6505 66.7058 22.9784 66.7058 23.2842C66.7058 24.3335 66.7382 25.3007 66.8032 26.186C66.8682 27.0713 66.9222 27.7435 66.9656 28.2025C67.3118 28.1589 67.6965 27.8583 68.1187 27.3008C68.5412 26.7433 68.9577 26.0712 69.3695 25.2843C69.7806 24.4974 70.1597 23.6668 70.5063 22.7923C70.8524 21.9183 71.1341 21.1421 71.3508 20.4642C71.437 20.1804 71.4752 19.896 71.4646 19.6117C71.4532 19.3279 71.4808 19.0707 71.5458 18.8412C71.6105 18.6116 71.7568 18.4205 71.9843 18.2674C72.2117 18.1146 72.5958 18.0378 73.1373 18.0378C73.1585 18.0378 73.1805 18.0434 73.2023 18.0541C73.2235 18.0655 73.2455 18.0706 73.2674 18.0706C73.4403 18.0706 73.6458 18.1582 73.8843 18.3328C74.1226 18.5081 74.2955 18.6829 74.4042 18.8575C74.4042 20.1475 74.3661 21.1584 74.2904 21.8905C74.2142 22.6232 74.1768 23.2512 74.1768 23.7759C74.1768 24.8253 74.247 25.727 74.3881 26.4811C74.5286 27.2351 74.7615 27.8418 75.0863 28.3008C75.2164 28.4541 75.335 28.6017 75.4438 28.7435C75.5517 28.886 75.6493 29.055 75.736 29.2518C75.6925 29.4705 75.6225 29.6401 75.5251 29.7601C75.4273 29.8805 75.3138 29.9681 75.1837 30.0223C75.054 30.0772 74.9129 30.1156 74.7615 30.1371C74.6099 30.1592 74.4579 30.192 74.307 30.2356C73.8302 30.1263 73.4461 29.9296 73.1536 29.6452C72.8614 29.3614 72.623 29.0172 72.4392 28.6125C72.2549 28.2082 72.1194 27.7599 72.0332 27.2681C71.9463 26.7762 71.8708 26.2681 71.8057 25.7434L71.6757 26.0057C71.5021 26.3778 71.2697 26.8696 70.9775 27.4812C70.685 28.0935 70.344 28.6894 69.9542 29.2683C69.5643 29.8478 69.1148 30.3503 68.606 30.7767C68.0973 31.2029 67.5504 31.416 66.9658 31.416C66.3374 31.416 65.8339 31.2899 65.4555 31.0389C65.0761 30.7874 64.784 30.378 64.5784 29.8093C64.3723 29.2411 64.2317 28.5092 64.1562 27.6125C64.0801 26.7164 64.0424 25.6124 64.0424 24.3008C64.0855 23.9949 64.1074 23.6891 64.1074 23.3826V21.3168Z" fill="#EEE8DC"/>
<path d="M80.2507 25.8416C80.5537 25.5358 80.7973 25.1423 80.9816 24.6613C81.1652 24.1806 81.3438 23.7216 81.5173 23.2841L81.5823 23.0873C81.7124 22.7379 81.9071 22.306 82.1669 21.7922C82.4267 21.2787 82.7299 20.7868 83.0764 20.3166C83.4228 19.8467 83.8019 19.4476 84.2132 19.1196C84.6243 18.7918 85.0468 18.6278 85.4801 18.6278C85.8481 18.7374 86.124 18.9121 86.3083 19.1524C86.492 19.3933 86.6331 19.6608 86.7306 19.9558C86.8283 20.2509 86.9146 20.5573 86.9907 20.8739C87.0661 21.191 87.1692 21.4917 87.299 21.7756C87.5805 22.4099 87.7914 23.0872 87.9325 23.8085C88.073 24.5298 88.1923 25.2625 88.2901 26.0054C88.3875 26.7489 88.501 27.4809 88.6311 28.2023C88.7608 28.9237 88.9559 29.5907 89.2156 30.2024C89.1718 30.5518 88.9828 30.8091 88.6472 30.973C88.3113 31.137 88.0137 31.2188 87.7539 31.2188C87.3641 31.2188 87.0605 31.0712 86.8444 30.7762C86.6278 30.4811 86.4596 30.1204 86.341 29.694C86.2217 29.2678 86.1348 28.8251 86.0809 28.3661C86.0266 27.907 85.9563 27.5248 85.8699 27.2185C85.7611 26.847 85.6749 26.4264 85.6102 25.9561C85.5451 25.4863 85.469 25.0108 85.3827 24.5297C85.2958 24.0492 85.1927 23.601 85.0741 23.1855C84.9548 22.7705 84.7867 22.4313 84.5706 22.169C84.202 22.7591 83.9048 23.3115 83.6774 23.8248C83.4499 24.3387 83.2437 24.8305 83.0601 25.3003C82.8758 25.7707 82.6972 26.2297 82.5243 26.6776C82.3504 27.1258 82.1345 27.5793 81.8747 28.0383C81.528 28.6726 81.2137 29.1645 80.9326 29.5139C80.651 29.8639 80.3911 30.1205 80.1529 30.2844C79.9143 30.4484 79.6873 30.5466 79.4709 30.5795C79.2543 30.6123 79.0487 30.6286 78.8536 30.6286C78.637 30.6286 78.3715 30.519 78.0581 30.3008C77.7437 30.0826 77.587 29.8203 77.587 29.5139C77.587 28.1367 77.5921 26.8579 77.6032 25.6775C77.614 24.4972 77.6194 23.2512 77.6194 21.9396C77.6194 21.5681 77.6083 21.1911 77.587 20.8085C77.5652 20.4261 77.5544 20.0491 77.5544 19.6771C77.5544 19.4149 77.6032 19.158 77.7007 18.9066C77.7981 18.6555 77.9655 18.4753 78.2041 18.3655C78.3342 18.3655 78.4642 18.3604 78.5939 18.3492C78.724 18.3383 78.8426 18.3327 78.9515 18.3327C79.2325 18.3327 79.4549 18.4147 79.6172 18.5786C79.7797 18.7426 79.8983 18.9449 79.9744 19.1853C80.0502 19.4261 80.0988 19.6771 80.1207 19.9393C80.1419 20.2018 80.1531 20.4204 80.1531 20.5951C80.1531 20.8359 80.1801 21.0654 80.2343 21.2836C80.2883 21.5025 80.3156 21.7319 80.3156 21.9722C80.3156 22.7811 80.3045 23.4698 80.2831 24.0378C80.2613 24.6065 80.2507 25.1528 80.2507 25.6773V25.8416Z" fill="#EEE8DC"/>
<path d="M94.7699 29.7108C94.7699 29.886 94.7261 30.0606 94.6398 30.2354C94.5533 30.4106 94.3908 30.6176 94.1526 30.8584C93.7843 30.8584 93.4433 30.8255 93.1296 30.7599C92.8153 30.6944 92.545 30.5633 92.3176 30.3665C92.0901 30.1697 91.9115 29.8858 91.7815 29.514C91.6518 29.1425 91.5868 28.6399 91.5868 28.0056C91.5868 27.6341 91.5487 27.2627 91.4729 26.8908C91.3968 26.5194 91.3594 26.1479 91.3594 25.7761C91.3594 24.6613 91.2944 23.6012 91.1646 22.5954C91.0346 21.5903 90.9696 20.5298 90.9696 19.415C90.9696 18.9558 91.1532 18.6065 91.5218 18.3656C91.7382 18.3 91.9441 18.2508 92.1391 18.218C92.3339 18.1853 92.5503 18.1474 92.7887 18.1034C93.0917 18.191 93.3191 18.3165 93.4707 18.4805C93.6221 18.6444 93.7632 18.8033 93.8929 18.9558C93.8711 19.1747 93.8549 19.3934 93.8444 19.6116C93.833 19.8304 93.8279 20.0599 93.8279 20.3001C93.8279 21.1313 93.8711 22.0164 93.958 22.9561C94.0442 23.8962 94.1416 24.7923 94.2505 25.6449C94.3583 26.4973 94.4614 27.2735 94.5588 27.9728C94.6566 28.6727 94.7263 29.2082 94.7701 29.5796V29.7108H94.7699ZM91.9115 11.2504C92.0197 11.1414 92.2145 11.0864 92.4961 11.0864C92.7125 11.0864 92.9345 11.1248 93.1619 11.2012C93.3894 11.278 93.6007 11.3873 93.7954 11.5291C93.9902 11.6716 94.1472 11.8299 94.2664 12.0046C94.3851 12.1798 94.445 12.3653 94.445 12.5619C94.445 12.9775 94.3419 13.2561 94.1364 13.398C93.9306 13.5404 93.6438 13.6111 93.2759 13.6111C93.0373 13.6111 92.7937 13.5731 92.545 13.4963C92.2957 13.4199 92.074 13.3272 91.8789 13.2176C91.6842 13.1086 91.5268 12.9938 91.4082 12.8734C91.2889 12.7535 91.2293 12.6387 91.2293 12.5291C91.2293 12.2667 91.2563 12.0373 91.3106 11.8406C91.3645 11.6438 91.565 11.4471 91.9117 11.2503L91.9115 11.2504Z" fill="#EEE8DC"/>
<path d="M99.4148 29.9076C99.155 29.5141 98.9275 29.055 98.7325 28.5304C98.5377 28.0057 98.3696 27.4648 98.229 26.9073C98.0879 26.35 97.9743 25.809 97.888 25.2843C97.8011 24.7596 97.7469 24.3006 97.7256 23.9071C97.6605 23.1858 97.4928 22.4537 97.2221 21.7103C96.9509 20.9674 96.8161 20.2347 96.8161 19.5133C96.8161 19.1419 96.9785 18.9181 97.3033 18.8413C97.6281 18.7649 97.9311 18.7264 98.2128 18.7264C98.299 18.7264 98.4241 18.7428 98.5864 18.7756C98.7489 18.8084 98.9112 18.8632 99.0737 18.9396C99.2361 19.0164 99.3871 19.1092 99.5282 19.2183C99.6687 19.3279 99.7607 19.4591 99.8045 19.6117C99.8045 20.0492 99.8477 20.5518 99.9342 21.1201C100.02 21.6888 100.124 22.2514 100.243 22.8087C100.361 23.3662 100.475 23.8908 100.584 24.3827C100.692 24.8746 100.767 25.2737 100.811 25.5795C101.179 25.1204 101.52 24.4924 101.835 23.694C102.148 22.8964 102.473 22.1094 102.809 21.3331C103.144 20.5576 103.512 19.8741 103.913 19.2838C104.314 18.6937 104.796 18.3658 105.359 18.3001C105.814 18.3001 106.171 18.3278 106.431 18.3821C106.69 18.437 106.886 18.519 107.015 18.628C107.145 18.7376 107.232 18.8797 107.275 19.0543C107.319 19.2295 107.362 19.4369 107.405 19.6772C107.037 20.0927 106.717 20.4918 106.447 20.874C106.176 21.2568 105.921 21.6445 105.684 22.0381C105.445 22.4315 105.218 22.847 105.002 23.2841C104.785 23.7216 104.547 24.1914 104.287 24.6939C104.243 24.8035 104.195 24.9184 104.141 25.0382C104.086 25.1586 104.027 25.2734 103.962 25.3824C103.659 25.7979 103.415 26.2955 103.231 26.8745C103.047 27.4539 102.842 28.017 102.614 28.5631C102.387 29.1097 102.111 29.5908 101.786 30.0058C101.461 30.4213 101.006 30.6616 100.421 30.7272L99.4147 29.9075L99.4148 29.9076Z" fill="#EEE8DC"/>
<path d="M107.698 25.0547C107.698 24.2463 107.8 23.4317 108.006 22.612C108.212 21.7923 108.52 21.0545 108.932 20.3987C109.343 19.743 109.852 19.2131 110.459 18.8084C111.065 18.4042 111.768 18.2018 112.57 18.2018C113.133 18.2018 113.626 18.2893 114.048 18.464C114.47 18.6393 114.822 18.8687 115.104 19.1525C115.385 19.4368 115.596 19.7592 115.737 20.1199C115.877 20.4806 115.948 20.8576 115.948 21.251C115.948 21.7542 115.856 22.2404 115.672 22.7102C115.488 23.1806 115.222 23.6012 114.876 23.9726C114.529 24.3445 114.102 24.6447 113.593 24.8743C113.084 25.1037 112.505 25.23 111.855 25.2514C111.574 25.2734 111.324 25.2626 111.108 25.2186C110.891 25.175 110.642 25.1096 110.361 25.0217C110.34 25.1314 110.329 25.2241 110.329 25.3004V25.4809C110.35 26.2897 110.48 26.9236 110.718 27.3826C110.956 27.8416 111.216 28.1859 111.498 28.4153C111.779 28.645 112.05 28.7924 112.31 28.858C112.57 28.9236 112.743 28.9564 112.83 28.9564C113.501 28.9564 114.058 28.8038 114.502 28.4973C114.946 28.1915 115.439 27.8529 115.981 27.4808C116.088 27.525 116.208 27.5741 116.338 27.6284C116.468 27.6832 116.586 27.7873 116.695 27.9399C116.717 28.0711 116.738 28.1749 116.76 28.2513C116.781 28.3282 116.793 28.443 116.793 28.5957C116.771 28.9019 116.69 29.1585 116.549 29.3661C116.408 29.5742 116.251 29.7546 116.078 29.9072C115.515 30.3882 114.99 30.6993 114.502 30.8416C114.015 30.9836 113.382 31.0548 112.602 31.0548C112.256 31.0548 111.828 30.978 111.319 30.8252C110.81 30.672 110.382 30.5081 110.036 30.3333C109.517 29.9398 109.111 29.5464 108.818 29.1529C108.526 28.7595 108.299 28.3445 108.136 27.907C107.974 27.4699 107.865 27.0165 107.811 26.5463C107.757 26.0764 107.719 25.5789 107.698 25.0542L107.698 25.0547ZM110.523 23.2841C110.61 23.3061 110.745 23.3225 110.929 23.3332C111.113 23.3447 111.259 23.3497 111.368 23.3497C112.104 23.3497 112.673 23.1641 113.074 22.7922C113.474 22.4208 113.674 21.9725 113.674 21.4478C113.674 21.142 113.588 20.8577 113.415 20.5953C113.241 20.333 113.003 20.2019 112.7 20.2019C112.483 20.2019 112.272 20.2238 112.066 20.2674C111.861 20.3116 111.704 20.4206 111.596 20.5953C111.509 20.7049 111.411 20.8141 111.303 20.9231C111.195 21.0328 111.092 21.1856 110.995 21.3823C110.897 21.5789 110.805 21.8249 110.719 22.12C110.632 22.4151 110.567 22.8033 110.524 23.284L110.523 23.2841Z" fill="#EEE8DC"/>
<path d="M118.709 30.0386C118.752 29.9294 118.779 29.7271 118.79 29.432C118.801 29.1369 118.806 28.7711 118.806 28.3335C118.806 27.9184 118.801 27.4702 118.79 26.9891C118.779 26.5086 118.768 26.0659 118.758 25.6611C118.746 25.2569 118.736 24.9071 118.725 24.6118C118.714 24.3167 118.709 24.1476 118.709 24.1036V23.0216C118.709 22.541 118.693 22.0599 118.66 21.5788C118.628 21.0983 118.601 20.6172 118.579 20.136V20.0049C118.579 19.8081 118.535 19.6171 118.449 19.431C118.362 19.2456 118.319 19.0432 118.319 18.8244C118.405 18.5405 118.525 18.3217 118.677 18.1686C118.828 18.016 119.099 17.9392 119.489 17.9392C119.857 17.9392 120.149 18.0103 120.365 18.1523C120.582 18.2946 120.744 18.4694 120.853 18.6769C120.961 18.8849 121.032 19.1195 121.064 19.3818C121.096 19.6441 121.123 19.8957 121.145 20.1359L121.243 21.8738C121.459 21.699 121.686 21.4423 121.925 21.1033C122.163 20.7647 122.412 20.3984 122.672 20.0048C122.932 19.6113 123.202 19.2291 123.484 18.8572C123.765 18.4857 124.058 18.1799 124.361 17.9391C124.534 17.8521 124.751 17.8078 125.011 17.8078C125.53 17.8078 125.947 17.9063 126.261 18.1031C126.575 18.2997 126.819 18.6169 126.992 19.054C126.948 19.2508 126.83 19.475 126.635 19.7261C126.44 19.9775 126.217 20.24 125.969 20.513C125.72 20.7866 125.46 21.0705 125.189 21.3655C124.918 21.6606 124.686 21.9507 124.491 22.2344C124.166 22.5844 123.841 23.0105 123.516 23.5133C123.191 24.0163 122.899 24.5296 122.639 25.0542C122.379 25.5789 122.163 26.0764 121.99 26.5463C121.816 27.0165 121.73 27.3935 121.73 27.6774C121.73 27.8527 121.735 28.0987 121.746 28.4151C121.757 28.7322 121.763 28.9782 121.763 29.1528C121.763 29.4153 121.741 29.6831 121.698 29.9562C121.654 30.2299 121.567 30.4809 121.438 30.7103C121.308 30.9399 121.134 31.1253 120.918 31.2678C120.701 31.4096 120.42 31.4808 120.073 31.4808C119.662 31.4808 119.332 31.3548 119.083 31.1038C118.833 30.8523 118.709 30.5407 118.709 30.1693V30.0381L118.709 30.0386Z" fill="#EEE8DC"/>
<path d="M132.546 24.071C132.979 24.9021 133.38 25.7381 133.748 26.5793C134.116 27.4211 134.3 28.3664 134.3 29.4157C134.3 29.9624 134.208 30.4763 134.024 30.9567C133.84 31.4374 133.586 31.8636 133.261 32.2355C132.936 32.6069 132.546 32.9022 132.091 33.1208C131.637 33.339 131.149 33.4487 130.629 33.4487C130.175 33.4487 129.758 33.2685 129.379 32.9077C129 32.547 128.789 32.1371 128.745 31.6781C128.832 31.5028 128.913 31.3772 128.989 31.3011C129.065 31.2242 129.233 31.1534 129.493 31.0878C129.752 31.3502 130.012 31.4813 130.272 31.4813C130.64 31.4813 130.965 31.3173 131.247 30.9894C131.528 30.6616 131.669 30.2465 131.669 29.7435C131.669 29.5686 131.658 29.4596 131.637 29.4156C131.398 28.4319 131.095 27.5415 130.727 26.7432C130.358 25.9455 129.996 25.1971 129.639 24.4973C129.282 23.798 128.973 23.1364 128.713 22.5134C128.453 21.8905 128.323 21.2623 128.323 20.628C128.323 20.1033 128.367 19.5624 128.453 19.005C128.539 18.4475 128.691 17.9285 128.908 17.4476C129.124 16.9669 129.411 16.5734 129.769 16.2672C130.126 15.9613 130.586 15.8081 131.149 15.8081C131.214 15.8081 131.274 15.8137 131.328 15.8245C131.381 15.8357 131.441 15.8409 131.506 15.8409C131.723 15.8409 131.907 15.9557 132.059 16.1852C132.21 16.4146 132.318 16.617 132.383 16.7918C132.383 16.967 132.324 17.1033 132.205 17.2017C132.086 17.3001 131.972 17.4041 131.864 17.5131C131.604 17.8631 131.414 18.2508 131.295 18.6773C131.176 19.1035 131.117 19.5354 131.117 19.9724V20.7593C131.117 20.9125 131.171 21.1314 131.279 21.415C131.387 21.6993 131.512 22.0002 131.653 22.3167C131.793 22.6338 131.934 22.929 132.075 23.2021C132.215 23.4757 132.329 23.6776 132.416 23.8088L132.546 24.071H132.546Z" fill="#EEE8DC"/>
<path d="M140.017 30.6945C139.648 30.6945 139.318 30.5904 139.026 30.383C138.734 30.1755 138.425 29.9731 138.1 29.7763C137.386 29.3613 136.834 28.8148 136.444 28.1369C136.054 27.4596 135.859 26.6287 135.859 25.645C135.859 25.1643 135.94 24.5906 136.103 23.9236C136.265 23.2568 136.411 22.6395 136.541 22.0708C136.606 21.8307 136.758 21.497 136.996 21.0709C137.234 20.6447 137.532 20.2297 137.889 19.825C138.247 19.4207 138.653 19.0656 139.107 18.7594C139.562 18.4535 140.028 18.3002 140.504 18.3002C140.699 18.3002 140.894 18.3659 141.089 18.497C141.392 18.6938 141.706 18.8577 142.031 18.9889C142.355 19.1201 142.685 19.2513 143.021 19.3824C143.357 19.5136 143.687 19.656 144.012 19.8086C144.337 19.9618 144.64 20.1586 144.921 20.3989C145.16 20.5955 145.344 20.8363 145.474 21.1202C145.604 21.4045 145.733 21.6777 145.863 21.9399C145.972 22.1588 146.037 22.3826 146.058 22.6122C146.08 22.8416 146.091 23.0768 146.091 23.3171V23.94C146.069 24.6179 145.933 25.2464 145.685 25.8254C145.435 26.4049 145.138 26.968 144.792 27.5141C144.618 27.7984 144.391 28.1263 144.109 28.4978C143.828 28.8697 143.513 29.2191 143.167 29.5471C142.821 29.875 142.458 30.1538 142.079 30.3832C141.7 30.6128 141.316 30.7275 140.926 30.7275C140.818 30.7275 140.704 30.7217 140.585 30.7111C140.466 30.6999 140.341 30.6947 140.211 30.6947H140.017L140.017 30.6945ZM143.2 22.858C143.2 22.2241 142.972 21.7652 142.518 21.4808C142.063 21.1969 141.565 21.0545 141.024 21.0545C140.59 21.0545 140.222 21.2241 139.919 21.5627C139.616 21.9018 139.356 22.3168 139.14 22.8087C138.923 23.3005 138.766 23.8252 138.669 24.3827C138.571 24.94 138.523 25.4268 138.523 25.8417C138.523 25.9294 138.539 26.1041 138.571 26.3664C138.604 26.6288 138.663 26.9022 138.75 27.1861C138.836 27.4704 138.961 27.722 139.123 27.9403C139.286 28.1589 139.497 28.2681 139.757 28.2681C139.995 28.2681 140.211 28.2302 140.406 28.1533C140.601 28.0769 140.818 27.9843 141.056 27.8746C141.402 27.6564 141.706 27.3614 141.965 26.9893C142.225 26.6178 142.437 26.2138 142.599 25.7762C142.761 25.3391 142.891 24.88 142.989 24.3989C143.086 23.9185 143.156 23.4593 143.2 23.022V22.858H143.2Z" fill="#EEE8DC"/>
<path d="M44.7204 72.1069C43.186 72.9095 37.515 75.5 28.1147 75.5C19.2869 75.5 13.1546 72.8895 11.4964 72.096C11.2307 71.9692 11.0872 71.6757 11.1465 71.3841L13.2031 61.3641L13.2373 61.3587C17.609 60.6594 22.7272 59.2066 28.0412 57.1559C33.3048 59.2084 38.416 60.5906 42.8253 61.1523L42.9133 61.1631L45.0489 71.4059C45.1063 71.6867 44.9735 71.9729 44.7205 72.107L44.7204 72.1069Z" fill="#EEE8DC"/>
<path d="M42.7912 60.4149C38.6851 59.8823 33.9347 58.6196 29.0425 56.7645C30.0457 56.3641 31.031 55.9547 31.9732 55.5435C35.1192 54.174 38.1199 52.6884 40.8854 51.1251L42.7913 60.4149H42.7912Z" fill="#EEE8DC"/>
<path d="M35.2736 23.7917L38.7515 18.2101C38.8897 17.9855 38.7587 17.6921 38.5021 17.6486L35.2736 17.1033V11.125L38.3478 11.0833C38.7247 11.0796 38.9687 10.6828 38.8072 10.3387C37.8631 8.34958 34.8195 2.96015 29.2615 2.33328V1.54891C29.2615 0.970999 28.7949 0.5 28.2225 0.5H27.9677C27.3969 0.5 26.9286 0.970999 26.9286 1.54891V2.33328C21.3706 2.96015 18.3269 8.34958 17.3829 10.3387C17.2196 10.6829 17.4655 11.0796 17.8424 11.0833L20.9166 11.125V17.0126L17.6736 17.6395C17.4206 17.6884 17.2968 17.9782 17.4332 18.1974L20.9166 23.7917L15.5291 50.2066L15.6063 50.2537C18.2929 51.8786 21.1858 53.3931 24.2062 54.7573C25.4605 55.3243 26.7509 55.8696 28.043 56.3786C29.2706 55.9004 30.4962 55.3949 31.688 54.8768C34.8322 53.5109 37.8418 52.0164 40.6343 50.4366L40.7114 50.3932L35.2737 23.7918L35.2736 23.7917ZM30.3006 15.4258C30.3006 15.6377 30.1319 15.808 29.9237 15.808H26.2663C26.0581 15.808 25.8876 15.6377 25.8876 15.4258V12.962C25.8876 11.7373 26.88 10.7355 28.095 10.7355C28.7015 10.7355 29.2525 10.9856 29.6527 11.3895C30.0529 11.7934 30.3006 12.3496 30.3006 12.962V15.4258Z" fill="#EEE8DC"/>
<path d="M27.0451 56.7608C22.1475 58.605 17.4205 59.9348 13.3591 60.6068L15.3422 50.9384C18.0216 52.5524 20.9056 54.0616 23.9133 55.4203C24.9632 55.8949 26.0166 56.3441 27.0449 56.7608H27.0451Z" fill="#EEE8DC"/>
<path d="M54.9551 58.1177C54.0148 60.2391 51.2204 61.3441 46.9385 61.3441C45.7127 61.3441 44.3615 61.2517 42.897 61.0687L42.809 60.5289C42.8396 60.5198 42.8719 60.518 42.9042 60.5217C49.1585 61.3169 53.3722 60.3604 54.4634 57.8967C55.551 55.4456 53.4746 51.6557 48.7672 47.4999C48.656 47.4021 48.6452 47.23 48.7421 47.1177C48.8409 47.0035 49.0114 46.9927 49.1226 47.0923C54.092 51.4782 56.163 55.3949 54.9551 58.1177Z" fill="#EEE8DC"/>
<path d="M46.6576 45.6818C46.6006 45.6818 46.5429 45.6634 46.494 45.6257C44.4259 44.0255 42.0721 42.4557 39.4977 40.9597C39.3688 40.8848 39.3246 40.7188 39.3987 40.5886C39.4728 40.4585 39.6375 40.4138 39.7664 40.4887C42.3611 41.9964 44.7349 43.5797 46.8216 45.1943C46.9396 45.2856 46.9619 45.4561 46.8715 45.5753C46.8185 45.6451 46.7385 45.6816 46.6577 45.6816L46.6576 45.6818Z" fill="#EEE8DC"/>
<path d="M9.85164 47.0684C9.79509 47.0684 9.73822 47.0505 9.68973 47.0135C3.00178 41.9194 -0.157016 36.9974 1.23981 33.8474C2.73733 30.4699 9.03524 29.6884 18.0865 31.7569C18.2315 31.79 18.3224 31.9356 18.2896 32.0819C18.2568 32.2285 18.1122 32.32 17.9676 32.287C9.31644 30.31 3.09519 30.993 1.73119 34.0693C0.44408 36.9719 3.54046 41.6487 10.0139 46.5797C10.1326 46.6702 10.1562 46.8405 10.0666 46.9603C10.0137 47.0312 9.93308 47.0684 9.85153 47.0684H9.85164Z" fill="#EEE8DC"/>
<path d="M15.5056 50.2989L15.3693 50.8297C15.3387 50.8242 15.31 50.8133 15.2831 50.7971C14.0843 50.0724 12.925 49.3224 11.8339 48.5689C11.7119 48.4837 11.6813 48.3152 11.7639 48.1903C11.8483 48.0671 12.0169 48.0363 12.1389 48.1196C13.2031 48.8569 14.3373 49.5907 15.5056 50.299V50.2989Z" fill="#EEE8DC"/>
<path d="M40.9409 50.9909C40.9158 51.0054 40.8871 51.0163 40.8601 51.0199L40.7327 50.4837C50.6265 44.8822 56.3873 39.0453 55.0664 35.9548C54.9086 35.5871 54.6465 35.2591 54.2876 34.9802C54.1692 34.8896 54.1458 34.7193 54.2373 34.5997C54.327 34.4802 54.4958 34.4585 54.6142 34.549C55.0485 34.8841 55.3661 35.2845 55.5617 35.7411C57.0208 39.1577 51.2816 45.145 40.9409 50.9911V50.9909Z" fill="#EEE8DC"/>
<path d="M39.101 35.2513C38.9801 35.2513 38.8703 35.1685 38.8398 35.0448C38.804 34.8992 38.8921 34.7517 39.0364 34.7156C40.0276 34.4679 42.1365 33.9804 43.0182 33.8023C43.1647 33.772 43.3058 33.8682 43.335 34.0153C43.3641 34.1625 43.2696 34.3057 43.1239 34.3351C42.2645 34.5087 40.1309 35.0018 39.1659 35.243C39.1442 35.2484 39.1223 35.2511 39.101 35.2511V35.2513Z" fill="#EEE8DC"/>
<path d="M2.45821 55.692C2.41047 55.692 2.36219 55.6793 2.31848 55.6523C2.19148 55.5743 2.15124 55.4071 2.22866 55.2789C4.18266 52.0412 9.12723 47.9991 15.7945 44.1888C15.9238 44.1148 16.0881 44.1607 16.1613 44.2915C16.2346 44.422 16.189 44.5878 16.0596 44.6617C9.46975 48.4276 4.59618 52.4005 2.68829 55.5615C2.63762 55.6456 2.549 55.6919 2.45821 55.6919V55.692Z" fill="#EEE8DC"/>
<path d="M13.1586 60.7495L13.0272 61.2961C11.1634 61.5179 9.48422 61.6028 8.02138 61.5521C6.13035 61.4866 4.59988 61.1943 3.48979 60.6827C3.3543 60.62 3.2945 60.4584 3.35735 60.321C3.41846 60.1853 3.57928 60.1256 3.71651 60.1884C5.6083 61.0625 8.84137 61.256 13.0635 60.7444C13.0972 60.7401 13.1288 60.7431 13.1586 60.7495Z" fill="#EEE8DC"/>
<path d="M52.7513 33.9207L52.3809 34.0463C50.8924 34.551 49.7628 35.7278 49.4304 37.2769L49.1185 38.8767C49.0755 39.077 48.7941 39.0818 48.7443 38.8832L48.3403 37.2769C47.9751 35.8179 46.8928 34.5586 45.4875 34.0567L45.1035 33.9195C44.9244 33.8555 44.936 33.596 45.1201 33.5486L45.1234 33.5477C46.7302 33.1343 47.9581 31.7771 48.3403 30.1483L48.7435 28.5864C48.7911 28.3841 49.0779 28.3887 49.1189 28.5925L49.4303 30.1483C49.7746 31.8592 51.0543 33.1374 52.7354 33.5482C52.9227 33.594 52.9341 33.8587 52.7513 33.9206V33.9207Z" fill="#EEE8DC"/>
<path d="M1.8844 60.1558C2.92513 60.1558 3.76881 59.3042 3.76881 58.2536C3.76881 57.203 2.92513 56.3514 1.8844 56.3514C0.843676 56.3514 0 57.203 0 58.2536C0 59.3042 0.843676 60.1558 1.8844 60.1558Z" fill="#EEE8DC"/>
</svg>
