<svg width="75" height="76" viewBox="0 0 75 76" fill="none" xmlns="http://www.w3.org/2000/svg">
<path fill-rule="evenodd" clip-rule="evenodd" d="M38.621 0.5C18.5294 0.5 2.24198 16.7616 2.24198 36.8213C2.24198 42.9952 3.78608 48.8133 6.51078 53.9075L0.270223 70.1563C-0.952759 73.3407 2.19089 76.4613 5.37318 75.2219L21.5703 68.9139C26.6576 71.6135 32.4626 73.1425 38.621 73.1425C58.7126 73.1425 75 56.8809 75 36.8213C75 16.7616 58.7126 0.5 38.621 0.5ZM38.1026 37.976C39.3925 39.037 40.8148 39.8033 41.9666 40.3145C42.084 40.3666 42.2154 40.3821 42.3788 40.3414C42.5544 40.2976 42.7678 40.185 42.9601 39.9802C45.0333 37.7711 48.3085 37.1734 51.0303 38.5075L52.7541 39.3524C54.3786 40.1487 55.8567 41.4883 56.6723 43.1728C57.53 44.9441 57.665 47.2008 56.2462 49.212C55.3977 50.4145 54.1486 51.5584 52.3703 52.2394C48.191 53.8398 43.6081 53.0092 39.7314 51.4215C35.8083 49.8148 32.1853 47.2675 29.6428 44.7752C27.3817 42.5586 24.3852 39.1574 22.5449 35.3815C20.7191 31.6354 19.7317 26.8128 22.8641 22.5908C23.9068 21.1855 25.1514 20.2965 26.4296 19.7974C28.5716 18.961 30.5437 19.6065 31.931 20.6508C33.2476 21.6419 34.1886 23.0671 34.7653 24.3956L35.7672 26.7038C36.7221 28.9037 36.4575 31.4417 35.0692 33.3981C34.9213 33.6065 34.8585 33.8095 34.8463 33.9607C34.8351 34.0995 34.8639 34.1934 34.9108 34.2692C35.5907 35.3683 36.6439 36.7761 38.1026 37.976Z" fill="#EEE8DC"/>
</svg>
